M48
;Layer_Color=9474304
;FILE_FORMAT=2:5
INCH,TZ
;TYPE=PLATED
T1F00S00C0.00787
T2F00S00C0.00800
T3F00S00C0.01181
T4F00S00C0.01968
T6F00S00C0.03386
T7F00S00C0.03543
T8F00S00C0.03937
T9F00S00C0.04000
T10F00S00C0.06299
T11F00S00C0.09488
T12F00S00C0.12520
;TYPE=NON_PLATED
T13F00S00C0.03543
T14F00S00C0.12795
%
T01
X65354Y53543
X77165
X88976
X94882
X106693
X278862Y8427
X414597Y47184
Y53451
X422374Y47045
X429983Y47184
Y53451
X429840Y58820
Y64714
X426783
X426916Y67943
X432634Y70177
X437827Y65342
X418394Y64714
X414597
Y58820
X419040Y69930
X419685Y106693
X422638Y112598
X416732
X404921
X401968Y106693
X407874
X401968Y94882
X390157
X387205Y88976
X381299
X390157Y83071
X384252Y106693
X387205Y112598
X381299
X375394
X369488
X372441Y118504
X378346
X381299Y124409
X387205
X393110
X390157Y118504
X404921Y124409
X410827
X401968Y142126
X396063
Y153937
X393110Y159842
X387205
X381299
X375394
X369488
X372441Y165748
X378346
X384252
X390157
X396063
X404921Y159842
X407874Y153937
X419685Y142126
X425590
X437401
X449212
X452165Y136220
X449212Y153937
X425590Y165748
X378346Y153937
X372441
Y142126
X378346
X384252
X375394Y124409
X369488
X437401Y94882
X366535Y118504
Y130315
Y153937
Y165748
X242761Y167118
X238824
Y171055
X242761
X151248Y80401
X151830Y75330
Y70601
X151109Y65150
X145040Y64430
X139415
X133750Y66359
X136009Y69671
X133524Y72033
X135513Y75680
X133750Y80983
X129899Y79953
X124542
X125098Y72835
X106693Y71260
Y65354
Y59449
X100787
Y65354
Y71260
X94882Y65354
Y59449
X88976
X77165Y65354
Y71260
X71260
Y77165
X65354
Y83071
X77165Y88976
X83071
X88976
X94882
Y94882
X100787
X88976
X71260Y59449
X139245Y80983
X144842
X31060Y356854
Y362760
X34013Y359807
X28107
X74508Y356813
Y353445
X79331Y356813
X111702Y356838
X113288Y354718
X121142Y348241
X122815Y346568
X135925Y326575
X144712Y327559
X146287Y325689
X144614Y323622
X162374Y326575
X171161Y327559
X172736Y325689
X171063Y323622
X172767Y329528
X165807Y298919
X163831Y297484
X159901Y297343
X157933Y298919
X161870Y290985
Y287933
X158818
X161870Y284882
X164921Y287933
X171771Y290886
X165807Y278454
X163838Y276949
X159901
X165570Y273820
X166198Y245250
X169112Y240329
X163285
X166198Y235408
X102346Y273820
X100614Y276949
X102583Y278454
X96677Y276949
X98646Y284882
Y287933
X101697
X95595
X98646Y290985
X96677Y297343
X94709Y298919
X100607Y297484
X102583Y298919
X96272Y317788
X94402Y316213
X92335Y317894
X95314Y326605
X69094Y326575
X70052Y317758
X68209Y316213
X66142Y317886
X60577Y329500
X151181Y356894
X157053Y356838
X210711Y335378
X208447Y331638
X210711Y327898
X212974Y331638
X246013Y366402
X403151Y323512
X408072Y326426
Y320599
X412993Y323512
X601713Y356790
Y362695
X604666Y359743
X598760
X364469Y404578
Y408142
X360630Y409921
Y406358
Y402795
X356791Y404578
Y408142
X340002
Y404578
X336163Y406358
Y402795
X332325Y404578
Y408142
X336163Y409921
X315543Y408142
Y404578
X311705Y406358
Y402795
X307866Y404578
Y408142
X311705Y409921
X291283Y408142
Y404578
X287445Y406358
Y402795
X283606Y404578
Y408142
X287445Y409921
X251998Y396021
X248435
X250214Y392182
X246651
X248435Y388344
X251998
X253777Y392182
X250344Y370733
X246013
Y375063
X241683Y370733
X205127Y372507
Y375656
Y378806
Y381956
Y385105
X209458Y378806
X200797
T02
X213198Y413780
X248244Y414330
X250409Y418070
X246079
X248244Y421810
X211033Y417520
X208867Y413780
X211033Y410040
T03
X7258Y6200
X13163
X19069
X24974
X30880
X36785
X42691
X48596
X54502
X55000Y36821
X49891Y34370
X46303Y51100
X46294Y55171
X5800Y54439
Y48533
Y42628
Y36722
Y30817
Y24911
Y19005
Y13100
X60407Y6200
X66313
X72218
X78124
X84029
X89935
X95840
X101746
X107651
X113557
X119462
X125368
X131273
X137179
X143084
X148990
X154895
X160801
X166706
X172612
X178517
X184423
X190328
X188625Y13496
X187697Y27441
Y32441
Y37441
Y42441
Y47441
Y52441
X138225Y49705
X128445
Y45965
X126043Y39370
X136024Y36797
X131250Y28071
X111875Y30571
X113311Y35870
X109374
X97653Y32446
X89075Y31201
X84941
X80000Y31196
X82346Y34646
X76875
X71624
X74375Y31821
X68996Y31563
X64395Y35236
X66831Y37697
X90825Y38484
X90748Y27446
X111875Y21196
X116225Y9786
X155197Y17441
Y22441
Y27441
Y32441
X100478Y51934
X210630Y11024
X208045Y6200
X213950
X219856
X225761
X231667
X237572
X243478
X249383
X255289
X261194
X276894Y12700
X285555Y12682
X294217
X289886Y23821
X298547Y24628
Y35014
X303029Y34616
X293440Y33830
X285688Y32823
X276845Y31518
X272603Y27258
X281225Y21752
X285688Y50492
X263995Y55472
X258563Y52443
X258621Y42503
X226063Y42443
Y52443
X226051Y32443
X226063Y27443
Y22443
X217244Y11024
X220744Y37670
X322283Y43038
X325707Y30796
X332061Y6200
X337966
X343872
X349777
X355683
X361588
X367494
X358664Y33188
X372500Y37600
X374979Y54243
X383233Y53706
X391414Y54170
X405588Y46368
X407402Y43463
X409858Y41132
X403842Y41717
X418398Y42241
X435366Y55819
X449600Y54600
X452389Y47802
X454616Y45339
X447317Y33600
X466964Y29984
Y27179
Y23917
X473244Y30122
X473793Y6200
X479698
X485604
X491509
X497415
X503321
X509226
X515132
X521037
X467887
X461982
X456076
X450171
X444265
X438360
X432454
X426549
X420643
X414738
X408832
X402927
X397021
X391116
X385210
X379305
X373399
X487480Y50444
X498726Y55086
X555400Y53481
X560860Y53668
X550700Y33446
X549931Y6300
X555837
X561742
X567648
X573554
X579459
X585364
X591270
X597176
X603081
X608987
X614892
X620798
X624410Y14008
Y19913
Y25819
Y31724
Y37630
Y43535
Y49441
Y55347
X544026Y6300
X538754Y6200
X532848
X526942
X548958Y60593
X553766Y56475
X557157Y59800
X561398Y83582
X550100Y83617
Y86597
X541450Y83981
Y79287
X536504Y102339
X533600
X543800Y118067
X546520Y115800
X550100Y114967
X561700Y127567
X562216Y133841
X565520Y136867
X569700Y142167
Y147802
X561800Y146467
Y143289
X552641Y143209
X551250Y155888
X548083
X541085Y159239
X541018Y162254
X525084Y155888
X528996Y141828
X561700Y152867
X564891
X561331Y159138
X561398Y165472
X561334Y180826
X548572Y180826
X540216Y190609
X541371Y202381
X534867Y202802
X552007Y199705
X560359Y204272
X566879Y196788
X565378Y191436
X572377Y191136
X571900Y194176
X577600Y196776
X579998Y199159
X574935Y203956
X590182Y199159
X594346Y201936
X594799Y210873
X592072Y189396
X590182Y180262
X580418Y180262
X576954Y183726
X611899Y193169
X624410Y191173
Y185268
Y179362
Y173457
Y167551
Y161646
Y155740
Y149835
Y143929
Y138024
Y132118
Y126213
Y120307
Y114402
Y108496
Y102591
Y96685
Y90780
Y84874
Y78969
Y73063
Y67158
Y61252
X582930Y75689
X569200Y89916
Y92896
X567871Y96046
X564891
X564823Y102335
X567803
X568000Y105350
Y108329
X569200Y99067
X570100Y124662
Y130567
X526367Y185838
X528564Y188546
X624410Y197079
Y202984
Y208890
X523502Y196949
X514192Y199932
X508726Y194517
X514291Y184656
X502539Y169712
X496943Y169684
X498492Y157416
X498225Y151412
X494929Y152942
X488386Y150689
X477500Y147767
X474215Y147802
X471574Y145767
X473400Y141467
X475674Y143561
X478001Y141589
X470897Y135922
X471283Y130912
X472509Y116121
X472312Y110148
X476687Y106367
X477500Y103258
X474215
X480400Y96700
X485119Y95267
X488030
X486829Y89916
X483366Y89468
X482275Y92353
X490057Y88548
X493872Y88168
X496584Y80315
X502854Y80413
X491641Y78364
X495586Y72736
X498726Y60316
X515055Y63245
X474646Y71483
X476187Y75185
X472230Y74346
X466193Y81241
X457779Y78543
X454708Y70620
X460600Y69300
X449998Y66365
X447317Y63761
X442251Y96522
X434734Y97007
X431388Y96062
X425314Y96522
X423939Y106367
X426916
X430624Y105861
Y108838
X431900Y114100
X434446Y112480
X421545Y121242
X418568
X418731Y135809
X418394Y139479
X422136Y139377
X424104Y136657
X429419Y145018
X432300Y142200
X434823Y139700
X444066Y140806
X443992Y137753
Y133841
X440939Y133914
X447700Y133841
X447626Y130788
X447858Y138073
X441200Y154500
X437827Y152167
X433800Y160182
X435392Y162867
X439278Y163151
X437415Y165659
X443992
X445994Y168027
X447064Y187632
X451083Y187502
X436047Y192098
X432480
X429200Y184319
X424517Y188124
X420131Y184319
X412300Y183000
X410000Y181200
X405107Y187005
X401131Y186810
X393168Y185975
X392037Y182825
X380197Y184261
X371742Y185528
X370713Y189229
X399082Y198761
X399037Y201690
X409161Y199839
X412300Y198716
X418731Y207919
X422269Y210385
X430315Y212106
X441893Y202213
X445481Y202146
X392608Y209900
X401000Y166383
X403100Y162700
X422146Y159582
X425314Y158888
X419802Y156567
X385800Y153000
Y149822
X388119Y147767
Y144773
X392600Y119423
Y116430
X395600Y118600
Y121700
X395672Y94049
X398000Y92067
X397923Y88258
X401860
X402067Y85335
X409042Y84541
X406942Y81857
X411576Y86871
X415158Y86910
X393799Y88055
X379774Y85854
X376644Y98976
X379272Y106850
X380031Y69428
X376371Y69575
X374500Y63400
X391878
X395400
X399300Y63300
X406071Y63468
X400957Y69300
X389833Y69428
X386136
X469482Y89205
X486812Y105350
X484499Y108100
X489200Y110800
X491983Y108711
X494288Y105861
X490057Y103100
X489866Y116048
X486812Y116121
X493300Y115900
X490817Y124662
X499260Y121752
X503620Y127567
X506600
X505489Y116047
Y113067
X497675Y132727
X497581Y138851
X489567Y136417
X486417Y136319
X471294Y154505
X471297Y162378
X476346Y165053
X519100Y161100
X517700Y158363
X521700Y155888
X523528Y136963
X519041Y134167
X352536Y131432
X352172Y126443
X349390Y128894
X344744Y131299
X348047Y134800
X348196Y138737
X343209Y137008
X338334Y138737
X334400Y136387
X331720Y133053
X328839Y129700
X325098Y126181
X322283Y114724
X330205Y114720
X333195Y117721
X336103Y120546
X338334Y117048
X348047Y115318
Y119227
X348196Y101659
X353199Y95500
X347886Y87602
X347571Y81440
X342087Y75482
X338500Y72616
X344455Y62718
X351895
X354882Y63349
X350000Y65600
X341737Y57443
X303839Y60454
X305709Y69924
X306113Y75034
X292642Y66518
X271041Y57726
X259731Y57573
X259000Y70034
X251063Y69318
X233563
X223651Y69443
Y65703
X220744Y58938
X226063Y57443
X221688Y78068
Y84318
Y90568
X238976Y99410
X236909Y106421
X234087
Y111394
X238976Y119487
X236129Y128543
X231338Y128642
X227953
X242491Y128543
X247595Y128662
Y125277
X251352
Y128662
X255061
Y125277
X259116Y125311
Y128697
X262873
Y125311
X266582
Y128697
X278311Y107637
X275319Y92370
X272614Y92286
X288311Y92737
X293419Y110960
X308249Y141971
X311635
Y145680
X308249
Y149437
X311635
X317323Y151476
X327218Y148067
X332382Y156595
X331591Y161573
Y167992
X348047Y164232
X347932Y160783
X349657Y177108
X354643Y178504
X352756Y198327
X355413Y201083
X326792Y204045
X321674Y204078
X321857Y191050
X326792Y191052
X311891Y170280
X268406Y188287
X268701Y199665
Y204665
Y209665
X260925Y208268
X259941Y198130
X265059
X256201Y188299
X245829Y160925
X240786Y160827
X234774
X228325Y160925
X227691Y166169
X232185Y167284
X249188Y90568
X259601Y84778
X366702Y111353
Y114253
X201076Y116240
X201360Y120813
X197736Y118373
X201276Y111394
Y106414
X199902Y128543
X193701
X170589Y127536
X160988Y112304
X153279Y107874
X147933Y108142
X139670Y102352
X135442Y98421
X131087Y98080
X131037Y86323
X139739Y86430
X146729Y86530
X143244Y92831
X124475Y83926
X110000Y82430
X111954Y78286
X107463Y76792
X109000Y87630
X110000Y90630
X111614Y97539
X111221Y117520
X107376Y117323
X116535Y114571
X127953Y106899
X129724Y69587
X129569Y65934
X123533Y62416
X83234Y68736
X82382Y96522
X80000Y99664
X75318Y93799
X70741Y93901
X58901Y110853
X56498Y115750
X81141Y114419
X64084Y58275
X187697Y57441
Y62441
X189242Y69028
X210345Y68861
X187103Y185484
X183665
X180226
X176788
Y189100
X180226
X183665
X187103
X170956Y199046
Y202484
Y205923
Y209361
X167341
Y205923
Y202484
Y199046
X163725
Y202484
Y205923
Y209361
X82382Y205020
X59519Y201468
X62569Y197678
X56208Y198516
X53584Y201468
X50499Y198417
X39701Y196171
X36262
X32824
Y199787
X36262
Y192555
X32824
X39701
X43139
X39578Y188111
X27592Y190557
X25912Y172766
X25500Y166332
X22061
X18623
Y162716
X22061
X25500
X28938
Y166332
Y159100
X25500
X22061
X5800Y160738
Y166643
Y172549
Y178454
Y184360
Y190265
Y196171
Y202076
Y207982
X16350Y208154
X5800Y154832
Y148927
Y143021
Y137116
Y131210
Y125305
Y119399
Y113494
Y107588
Y101683
Y95777
Y89872
Y83966
Y78061
Y72155
Y66250
Y60344
X20400Y80133
X46501Y71965
X47500Y97831
X54962Y110990
X52928Y129507
X39100Y126891
Y120641
Y133141
X39013Y144779
X47583
X50440
X50482Y147887
X47626
X43618Y165211
X14675Y133141
X14590Y124504
X19050Y116891
X16350Y214054
Y219954
Y225854
Y231754
Y237654
Y243554
Y249454
X5800Y249321
Y255226
Y261132
Y267037
Y272942
Y278848
X8185Y283459
X13185
X28185Y273966
X38285Y277600
X43185
X55139Y289344
X47381Y351383
X42323Y348031
X36220Y347564
X42520Y355870
X42565Y359807
X11122Y361051
Y364236
Y367421
X13076Y355870
X18183Y341535
X13105Y335594
X8185Y335642
X5800Y243415
Y237509
Y231604
Y225698
Y219793
Y213887
X84441Y249454
Y252893
X88057
Y249454
X91673Y252893
X95289
X98905
X91713Y277264
X86204Y282273
X82737Y278937
X83659Y273819
X86205Y296654
X68209Y297484
Y292717
X64567Y302756
X77232Y318218
X83381Y324311
X83517Y329389
X86770Y329500
X87118Y335111
X83381Y335827
X90793Y339180
X109055Y338484
X106731Y331933
X106677Y321429
X103009Y317882
X96606Y306038
X133366Y307185
X132862Y318195
X127067Y317094
X127342Y320768
X128642Y342158
X133465Y341544
X138436
X142618Y335407
X155559Y335451
X156398Y339450
X167492Y340238
X170731Y334713
X187741Y336037
Y339475
Y342914
Y346352
Y349791
X191357
Y346352
Y342914
Y339475
Y336037
X201685Y336723
X211565Y341453
Y344891
Y348330
X209064Y353777
X197696Y358511
X193508Y358512
X189274Y365673
X202690Y364992
X163681Y353370
X159055Y317618
X151181Y317094
X153543Y321028
X149428Y296654
X149428Y282273
X149259Y279223
X154937Y277264
X140453Y278565
Y282281
Y285998
Y289714
X136719
Y285998
Y282281
Y278565
Y274849
X140453
X131004Y269853
X126498Y276516
X122933Y274938
Y278324
X125653Y282458
Y285844
X126279Y293334
X133366Y292717
X136221Y298228
X107732Y278454
X170956
X187910Y291595
Y295034
Y298472
Y301911
Y305349
Y308788
Y312226
Y315665
Y319103
X191526
Y315665
Y312226
Y308788
Y305349
Y301911
Y298472
Y295034
Y291595
X210546Y277559
Y274120
Y270682
Y267243
Y263805
X164173Y253795
X160469
X156764
X163305Y230785
X166929
X170276
X173327Y228150
Y225056
X170956Y212800
X167341
X163725
X160141Y215950
X108476Y354388
X65059Y335658
X215180Y341453
Y344891
Y348330
X218796
Y344891
Y341453
X245691Y341569
X249130
Y345008
X245691
Y338131
X249130
Y334692
Y331402
Y327963
Y324525
Y321086
X245691
Y324525
Y327963
Y331402
Y334692
X252746
Y331402
Y327963
Y324525
Y321086
Y338131
Y341569
Y345008
X259861Y343461
Y340023
Y336584
Y333146
X263300
Y336584
Y340023
Y343461
Y346900
Y350338
Y353777
X266916
Y350338
Y346900
Y343461
Y340023
Y336584
Y333146
X271654Y345165
X274016Y363959
X284862Y354918
X296752Y350271
X298763Y363991
X309161Y355020
X315632Y350116
X321358Y352362
X325008Y343996
X333550Y355211
X323063Y364866
X348031Y364142
X358366Y355020
X366687Y306620
X366515Y300318
X358752Y298094
X358805Y291073
X353708Y284995
X348708
X343708
X338708
X333708
X328680
X319769Y288440
X320031Y294739
X323708Y236527
Y233171
X321019Y229587
X317662
X322244Y220866
X351378Y216634
X349311Y227854
X349410Y232677
X362205Y232972
X362500Y227854
X366010Y234745
X366240Y241020
X263959Y236319
X258760Y236195
X251559Y236430
X268701Y229587
Y214665
X257874Y215748
X217600Y270504
Y274120
X214161
Y270682
Y267243
Y277559
X220108Y368649
X233185Y362081
X242137Y360161
X394965Y352675
X393602Y344587
X393960Y327128
X390522
Y323513
X393960
X397399
Y327128
X385015Y310613
Y303470
X395508Y260034
Y256418
X392070
Y252802
X395508
Y249186
X392070
Y245570
X395508
X398946
Y241954
X395508
X392070
X390049Y238527
Y234911
Y231295
Y227679
Y224063
X393872Y223406
X397488
X401104
X404719
X396372Y216648
X392587Y213844
X381398Y234898
Y241137
X443819Y239668
X448721Y239953
Y236514
Y233076
Y229626
Y226176
X445282
X441766Y226143
X438327
X452336Y226176
Y229626
Y233076
Y236514
Y239953
X452303Y243469
Y246907
X448687
Y243469
X465736Y238412
X465257Y234512
X468695
Y230896
X465257
X461818
Y227280
X458380
X465257
X468695
X479105Y219966
X482544
X485982
Y216350
X482544
X479105
X489421
X493253
Y219788
X496692
Y216350
X483300Y231000
X479260Y253900
X467274Y256346
X495204
Y260999
X502263Y260700
X502232Y256346
X507092Y268550
X512092Y268550
X517092Y268550
X522092Y268581
X521949Y338878
X517026Y339088
X511656Y339205
X507006
X501536Y337778
X494643
X462351Y337279
Y340718
Y344156
X458735
Y340718
Y337279
Y333841
X462351
X449067Y328361
X445629
X442190
X438752
X435313
Y324745
X438752
X442190
X445629
X449067
Y321129
X445629
X442190
X438752
X435313
X432163Y317421
X423224Y347025
X413287Y352675
X413309Y360236
X412750Y368190
X416181
X419612
X423043
X404088Y360236
X404033Y356416
X516469Y353469
X519908
Y349853
X516469
X523346
X526785
X530223
Y353469
X538897Y345669
X538878Y342815
X527703Y337502
X527830Y331299
X532092Y325377
X556701Y328525
X578838Y335578
X583758Y335529
X588836Y341471
X583729Y355805
X581775Y360986
Y364172
Y367357
X613173Y355805
X612976Y347967
X606874Y347500
X618034Y351319
X624410Y290102
Y285661
Y279756
Y273850
Y267945
Y256134
Y250228
Y244323
Y238417
Y232512
Y226606
Y220701
Y214795
X614037Y278543
X608512
X598870Y277500
X593701Y286221
X588752Y286417
X583838Y283395
X578838Y282972
X578839Y286122
X603740Y286614
X556545Y274128
Y270759
X551719Y273173
X546719Y273305
X542618Y267600
X536024Y267926
X531988Y271730
Y275000
X525783Y369553
X536811Y395553
X546161Y402427
Y408366
X554957Y395396
X555998Y387188
X581775Y381932
X584936Y381946
Y378761
X581775Y378747
Y375562
X588121Y378761
Y381946
X587040Y389308
X606235Y389106
X617910Y377441
X595958Y371455
X592772
X604163Y426806
X607113
X611795Y427002
X617646Y427524
X595909Y439298
X592408Y439396
X589032Y439298
X524655Y406850
X517672
X514321Y403199
X510384Y403248
X518898Y399508
X524477Y399523
X522344Y373169
Y369553
X503012Y368954
X499573
Y372392
X496135
Y368954
X503012Y372392
Y375831
Y379269
Y382708
X445958Y382028
X442527
X439095
Y377398
Y373967
Y370536
X442527
X435664
X430780Y376132
X423043Y378483
Y381914
Y385345
X416462Y384675
X412206Y376132
X412750Y371621
X423043
X400591Y371358
X377476Y374004
X406162Y408622
X415024Y412106
Y414948
X423917Y408622
X368084Y406995
Y410433
Y413872
Y417310
Y420749
Y424187
Y427626
X364469
Y424187
Y420749
Y417310
Y413872
X361030
X357592
X343269Y414063
Y417501
Y420940
Y424378
Y427817
X339653
Y424378
Y420940
Y417501
Y414063
X336214
X332776
X343269Y410625
Y407186
Y403748
X342205Y393714
X338767
X335328
X331890
Y390098
X335328
X338767
X342205
Y386660
Y383221
Y379783
Y376344
Y372905
X338589
Y376344
Y379783
Y383221
Y386660
X317816Y386468
Y389907
X314377
X310939
X307500
Y393522
X310939
X314377
X317816
Y383030
Y379591
Y376153
Y372714
X314200
Y376153
Y379591
Y383030
Y386468
X293517Y386366
Y389804
X290078
X286640
X283201
Y393420
X286640
X290078
X293517
Y382927
Y379489
Y376050
Y372612
X289901
Y376050
Y379489
Y382927
Y386366
X294580Y403454
Y406892
Y410331
Y413769
Y417208
Y420646
Y424085
Y427523
X290964
Y424085
Y420646
Y417208
Y413769
X287526
X284087
X308386Y413872
X311825
X315264
Y417310
Y420749
Y424187
Y427626
X318879
Y424187
Y420749
Y417310
Y413872
Y410433
Y406995
Y403556
X356705Y393522
X360144
X363582
X367021
Y389907
Y386468
Y383030
Y379591
Y376153
Y372714
X363405
Y376153
Y379591
Y383030
Y386468
X363582Y389907
X360144
X356705
X368084Y403556
X212039Y394490
Y391456
X194748Y380863
X193240Y376837
X189274Y373400
Y380360
X190176Y384712
X47257Y377505
X35582Y389171
X16387Y389373
X17468Y382011
X14283
X11122Y381997
Y378812
X14283Y378826
X17468
X11122Y375626
X22119Y371519
X25304
X35479Y426870
X38428
X43110Y427067
X48962Y426905
X27159Y439299
X23720
X20282
T04
X594179Y93701
Y103149
X602362Y107874
X610545Y103149
Y93701
X602362Y88976
X315270Y93701
Y103149
X307087Y107874
X298904Y103149
Y93701
X307087Y88976
X193222Y93701
Y103149
X185039Y107874
X176856Y103149
Y93701
X185039Y88976
X35742Y93701
Y103149
X27559Y107874
X19376Y103149
Y93701
X27559Y88976
X586305Y406693
Y416142
X594488Y420866
X602671Y416142
Y406693
X594488Y401968
X394010Y406693
Y416142
X385827Y420866
X377644Y416142
Y406693
X385827Y401968
X193222Y406693
Y416142
X185039Y420866
X176856Y416142
Y406693
X185039Y401968
X35742Y406693
Y416142
X27559Y420866
X19376Y416142
Y406693
X27559Y401968
T06
X329331Y14370
X339331
Y24370
X349331
X359331
Y14370
X349331
X329331Y24370
X369331
X379331
X389331
X399331
X409331
Y14370
X399331
X389331
X379331
X369331
X476504Y14370
X486504
X496504
X506504
Y24370
X496504
X486504
X476504
X516504
Y14370
X526504
X536504
X546504
X556504
X566504
X576504
X586504
Y24370
X576504
X566504
X556504
X546504
X536504
X526504
T07
X535900Y415400
X545900
X555900
X550900Y425400
X540900
X530900
X494866Y425402
X484866
X474866
X479866Y415402
X489866
X499866
X139637
X129637
X134637Y425402
X144637
X98600Y425400
X88600
X83600Y415400
X93600
T08
X22500Y14370
X32500
Y24370
Y34370
Y44370
Y54370
X22500
Y44370
Y34370
Y24370
X92243Y15376
X102243
X427913Y14370
Y24370
X437913
X447913
X457913
Y14370
X447913
X437913
X264125Y104192
X254125
X213433Y164767
Y174767
X208611Y211839
X198611
X32500Y64370
X22500
X198611Y221839
Y231839
Y241839
X208611
Y231839
Y221839
X587027Y239514
X606712
T09
X409489Y433622
X421300
X433111
Y445433
X421300
X409489
X365801Y445441
Y433642
X353990
Y445441
X342179
Y433642
X330368
Y445441
X318557
Y433642
X306746
Y445441
X294935
Y433642
X283124
Y445441
X235187Y445433
X223376
Y433622
X235187
X211565
Y445433
X181890Y445433
Y433622
T10
X533057Y239514
X552742
T11
X374265Y462449
X401024Y462441
X441576
X274659Y462449
X243651Y462441
X203100
X190355Y462441
X173425
T12
X602362Y98425
X307087
X185039
X27559
X594488Y411417
X385827Y411417
X185039
X27559Y411417
T13
X590108Y455861
X607431
X38681Y455862
X21358
T14
X563400Y450400
X523400
X507366Y450402
X467366
X152137
X122137
X106100Y450400
X76100
M30
