G04*
G04 #@! TF.GenerationSoftware,Altium Limited,Altium Designer,20.0.10 (225)*
G04*
G04 Layer_Color=8388736*
%FSLAX25Y25*%
%MOIN*%
G70*
G01*
G75*
G04:AMPARAMS|DCode=36|XSize=23.62mil|YSize=11.81mil|CornerRadius=1.95mil|HoleSize=0mil|Usage=FLASHONLY|Rotation=180.000|XOffset=0mil|YOffset=0mil|HoleType=Round|Shape=RoundedRectangle|*
%AMROUNDEDRECTD36*
21,1,0.02362,0.00791,0,0,180.0*
21,1,0.01972,0.01181,0,0,180.0*
1,1,0.00390,-0.00986,0.00396*
1,1,0.00390,0.00986,0.00396*
1,1,0.00390,0.00986,-0.00396*
1,1,0.00390,-0.00986,-0.00396*
%
%ADD36ROUNDEDRECTD36*%
G04:AMPARAMS|DCode=37|XSize=23.62mil|YSize=11.81mil|CornerRadius=1.95mil|HoleSize=0mil|Usage=FLASHONLY|Rotation=270.000|XOffset=0mil|YOffset=0mil|HoleType=Round|Shape=RoundedRectangle|*
%AMROUNDEDRECTD37*
21,1,0.02362,0.00791,0,0,270.0*
21,1,0.01972,0.01181,0,0,270.0*
1,1,0.00390,-0.00396,-0.00986*
1,1,0.00390,-0.00396,0.00986*
1,1,0.00390,0.00396,0.00986*
1,1,0.00390,0.00396,-0.00986*
%
%ADD37ROUNDEDRECTD37*%
%ADD47R,0.02362X0.07087*%
G04:AMPARAMS|DCode=84|XSize=67mil|YSize=41mil|CornerRadius=10.25mil|HoleSize=0mil|Usage=FLASHONLY|Rotation=270.000|XOffset=0mil|YOffset=0mil|HoleType=Round|Shape=RoundedRectangle|*
%AMROUNDEDRECTD84*
21,1,0.06700,0.02050,0,0,270.0*
21,1,0.04650,0.04100,0,0,270.0*
1,1,0.02050,-0.01025,-0.02325*
1,1,0.02050,-0.01025,0.02325*
1,1,0.02050,0.01025,0.02325*
1,1,0.02050,0.01025,-0.02325*
%
%ADD84ROUNDEDRECTD84*%
%ADD85R,0.04100X0.06700*%
%ADD86R,0.06700X0.04100*%
G04:AMPARAMS|DCode=87|XSize=67mil|YSize=41mil|CornerRadius=10.25mil|HoleSize=0mil|Usage=FLASHONLY|Rotation=0.000|XOffset=0mil|YOffset=0mil|HoleType=Round|Shape=RoundedRectangle|*
%AMROUNDEDRECTD87*
21,1,0.06700,0.02050,0,0,0.0*
21,1,0.04650,0.04100,0,0,0.0*
1,1,0.02050,0.02325,-0.01025*
1,1,0.02050,-0.02325,-0.01025*
1,1,0.02050,-0.02325,0.01025*
1,1,0.02050,0.02325,0.01025*
%
%ADD87ROUNDEDRECTD87*%
%ADD93O,0.05709X0.01575*%
%ADD121R,0.02362X0.01181*%
%ADD139C,0.10236*%
G04:AMPARAMS|DCode=140|XSize=69.88mil|YSize=96.46mil|CornerRadius=2.1mil|HoleSize=0mil|Usage=FLASHONLY|Rotation=0.000|XOffset=0mil|YOffset=0mil|HoleType=Round|Shape=RoundedRectangle|*
%AMROUNDEDRECTD140*
21,1,0.06988,0.09226,0,0,0.0*
21,1,0.06569,0.09646,0,0,0.0*
1,1,0.00419,0.03284,-0.04613*
1,1,0.00419,-0.03284,-0.04613*
1,1,0.00419,-0.03284,0.04613*
1,1,0.00419,0.03284,0.04613*
%
%ADD140ROUNDEDRECTD140*%
G04:AMPARAMS|DCode=141|XSize=69.88mil|YSize=96.46mil|CornerRadius=2.1mil|HoleSize=0mil|Usage=FLASHONLY|Rotation=90.000|XOffset=0mil|YOffset=0mil|HoleType=Round|Shape=RoundedRectangle|*
%AMROUNDEDRECTD141*
21,1,0.06988,0.09226,0,0,90.0*
21,1,0.06569,0.09646,0,0,90.0*
1,1,0.00419,0.04613,0.03284*
1,1,0.00419,0.04613,-0.03284*
1,1,0.00419,-0.04613,-0.03284*
1,1,0.00419,-0.04613,0.03284*
%
%ADD141ROUNDEDRECTD141*%
%ADD142R,0.01504X0.01181*%
%ADD143R,0.01181X0.01504*%
%ADD144R,0.05551X0.09646*%
%ADD145R,0.14627X0.07721*%
%ADD146R,0.48449X0.06786*%
%ADD147R,0.06786X0.48449*%
%ADD148R,0.85827X0.06892*%
%ADD149R,0.06892X0.85827*%
%ADD150R,0.03550X0.03550*%
G04:AMPARAMS|DCode=151|XSize=43.37mil|YSize=43.37mil|CornerRadius=5.94mil|HoleSize=0mil|Usage=FLASHONLY|Rotation=90.000|XOffset=0mil|YOffset=0mil|HoleType=Round|Shape=RoundedRectangle|*
%AMROUNDEDRECTD151*
21,1,0.04337,0.03150,0,0,90.0*
21,1,0.03150,0.04337,0,0,90.0*
1,1,0.01187,0.01575,0.01575*
1,1,0.01187,0.01575,-0.01575*
1,1,0.01187,-0.01575,-0.01575*
1,1,0.01187,-0.01575,0.01575*
%
%ADD151ROUNDEDRECTD151*%
%ADD152R,0.05912X0.03943*%
%ADD153R,0.02762X0.07880*%
%ADD154R,0.03943X0.05912*%
%ADD155R,0.03550X0.03550*%
%ADD156R,0.06699X0.06699*%
G04:AMPARAMS|DCode=157|XSize=23.68mil|YSize=25.65mil|CornerRadius=4.46mil|HoleSize=0mil|Usage=FLASHONLY|Rotation=90.000|XOffset=0mil|YOffset=0mil|HoleType=Round|Shape=RoundedRectangle|*
%AMROUNDEDRECTD157*
21,1,0.02368,0.01673,0,0,90.0*
21,1,0.01476,0.02565,0,0,90.0*
1,1,0.00892,0.00837,0.00738*
1,1,0.00892,0.00837,-0.00738*
1,1,0.00892,-0.00837,-0.00738*
1,1,0.00892,-0.00837,0.00738*
%
%ADD157ROUNDEDRECTD157*%
G04:AMPARAMS|DCode=158|XSize=19.75mil|YSize=37.47mil|CornerRadius=3.97mil|HoleSize=0mil|Usage=FLASHONLY|Rotation=0.000|XOffset=0mil|YOffset=0mil|HoleType=Round|Shape=RoundedRectangle|*
%AMROUNDEDRECTD158*
21,1,0.01975,0.02953,0,0,0.0*
21,1,0.01181,0.03747,0,0,0.0*
1,1,0.00794,0.00591,-0.01476*
1,1,0.00794,-0.00591,-0.01476*
1,1,0.00794,-0.00591,0.01476*
1,1,0.00794,0.00591,0.01476*
%
%ADD158ROUNDEDRECTD158*%
G04:AMPARAMS|DCode=159|XSize=98.49mil|YSize=23.68mil|CornerRadius=6.92mil|HoleSize=0mil|Usage=FLASHONLY|Rotation=90.000|XOffset=0mil|YOffset=0mil|HoleType=Round|Shape=RoundedRectangle|*
%AMROUNDEDRECTD159*
21,1,0.09849,0.00984,0,0,90.0*
21,1,0.08465,0.02368,0,0,90.0*
1,1,0.01384,0.00492,0.04232*
1,1,0.01384,0.00492,-0.04232*
1,1,0.01384,-0.00492,-0.04232*
1,1,0.01384,-0.00492,0.04232*
%
%ADD159ROUNDEDRECTD159*%
%ADD160R,0.07014X0.07014*%
%ADD161R,0.01345X0.02762*%
%ADD162R,0.02762X0.01345*%
G04:AMPARAMS|DCode=163|XSize=23.68mil|YSize=25.65mil|CornerRadius=4.46mil|HoleSize=0mil|Usage=FLASHONLY|Rotation=180.000|XOffset=0mil|YOffset=0mil|HoleType=Round|Shape=RoundedRectangle|*
%AMROUNDEDRECTD163*
21,1,0.02368,0.01673,0,0,180.0*
21,1,0.01476,0.02565,0,0,180.0*
1,1,0.00892,-0.00738,0.00837*
1,1,0.00892,0.00738,0.00837*
1,1,0.00892,0.00738,-0.00837*
1,1,0.00892,-0.00738,-0.00837*
%
%ADD163ROUNDEDRECTD163*%
%ADD164R,0.02368X0.02368*%
%ADD165O,0.06502X0.02172*%
%ADD166R,0.14967X0.04731*%
%ADD167R,0.05124X0.02565*%
%ADD168R,0.05912X0.10243*%
%ADD169R,0.02762X0.04731*%
G04:AMPARAMS|DCode=170|XSize=38.25mil|YSize=31.95mil|CornerRadius=3.96mil|HoleSize=0mil|Usage=FLASHONLY|Rotation=180.000|XOffset=0mil|YOffset=0mil|HoleType=Round|Shape=RoundedRectangle|*
%AMROUNDEDRECTD170*
21,1,0.03825,0.02404,0,0,180.0*
21,1,0.03034,0.03195,0,0,180.0*
1,1,0.00791,-0.01517,0.01202*
1,1,0.00791,0.01517,0.01202*
1,1,0.00791,0.01517,-0.01202*
1,1,0.00791,-0.01517,-0.01202*
%
%ADD170ROUNDEDRECTD170*%
G04:AMPARAMS|DCode=171|XSize=43.37mil|YSize=43.37mil|CornerRadius=5.94mil|HoleSize=0mil|Usage=FLASHONLY|Rotation=180.000|XOffset=0mil|YOffset=0mil|HoleType=Round|Shape=RoundedRectangle|*
%AMROUNDEDRECTD171*
21,1,0.04337,0.03150,0,0,180.0*
21,1,0.03150,0.04337,0,0,180.0*
1,1,0.01187,-0.01575,0.01575*
1,1,0.01187,0.01575,0.01575*
1,1,0.01187,0.01575,-0.01575*
1,1,0.01187,-0.01575,-0.01575*
%
%ADD171ROUNDEDRECTD171*%
G04:AMPARAMS|DCode=172|XSize=39.43mil|YSize=31.56mil|CornerRadius=8.89mil|HoleSize=0mil|Usage=FLASHONLY|Rotation=270.000|XOffset=0mil|YOffset=0mil|HoleType=Round|Shape=RoundedRectangle|*
%AMROUNDEDRECTD172*
21,1,0.03943,0.01378,0,0,270.0*
21,1,0.02165,0.03156,0,0,270.0*
1,1,0.01778,-0.00689,-0.01083*
1,1,0.01778,-0.00689,0.01083*
1,1,0.01778,0.00689,0.01083*
1,1,0.01778,0.00689,-0.01083*
%
%ADD172ROUNDEDRECTD172*%
%ADD173R,0.10243X0.05912*%
%ADD174R,0.05400X0.06700*%
%ADD175R,0.02368X0.02368*%
%ADD176R,0.04337X0.02762*%
%ADD177R,0.04731X0.02959*%
%ADD178R,0.13900X0.07400*%
%ADD179O,0.03550X0.01384*%
%ADD180O,0.01384X0.03550*%
%ADD181R,0.06896X0.06896*%
%ADD182R,0.04534X0.02762*%
%ADD183R,0.07880X0.05912*%
G04:AMPARAMS|DCode=184|XSize=13.45mil|YSize=27.62mil|CornerRadius=3.98mil|HoleSize=0mil|Usage=FLASHONLY|Rotation=270.000|XOffset=0mil|YOffset=0mil|HoleType=Round|Shape=RoundedRectangle|*
%AMROUNDEDRECTD184*
21,1,0.01345,0.01965,0,0,270.0*
21,1,0.00548,0.02762,0,0,270.0*
1,1,0.00797,-0.00983,-0.00274*
1,1,0.00797,-0.00983,0.00274*
1,1,0.00797,0.00983,0.00274*
1,1,0.00797,0.00983,-0.00274*
%
%ADD184ROUNDEDRECTD184*%
G04:AMPARAMS|DCode=185|XSize=13.45mil|YSize=27.62mil|CornerRadius=3.98mil|HoleSize=0mil|Usage=FLASHONLY|Rotation=0.000|XOffset=0mil|YOffset=0mil|HoleType=Round|Shape=RoundedRectangle|*
%AMROUNDEDRECTD185*
21,1,0.01345,0.01965,0,0,0.0*
21,1,0.00548,0.02762,0,0,0.0*
1,1,0.00797,0.00274,-0.00983*
1,1,0.00797,-0.00274,-0.00983*
1,1,0.00797,-0.00274,0.00983*
1,1,0.00797,0.00274,0.00983*
%
%ADD185ROUNDEDRECTD185*%
G04:AMPARAMS|DCode=186|XSize=84.71mil|YSize=84.71mil|CornerRadius=4.02mil|HoleSize=0mil|Usage=FLASHONLY|Rotation=0.000|XOffset=0mil|YOffset=0mil|HoleType=Round|Shape=RoundedRectangle|*
%AMROUNDEDRECTD186*
21,1,0.08471,0.07667,0,0,0.0*
21,1,0.07667,0.08471,0,0,0.0*
1,1,0.00804,0.03834,-0.03834*
1,1,0.00804,-0.03834,-0.03834*
1,1,0.00804,-0.03834,0.03834*
1,1,0.00804,0.03834,0.03834*
%
%ADD186ROUNDEDRECTD186*%
%ADD187R,0.08274X0.08274*%
%ADD188R,0.04731X0.03943*%
%ADD189R,0.06896X0.06896*%
%ADD190R,0.03392X0.06975*%
%ADD191R,0.06700X0.05400*%
G04:AMPARAMS|DCode=192|XSize=110.3mil|YSize=149.67mil|CornerRadius=4.13mil|HoleSize=0mil|Usage=FLASHONLY|Rotation=180.000|XOffset=0mil|YOffset=0mil|HoleType=Round|Shape=RoundedRectangle|*
%AMROUNDEDRECTD192*
21,1,0.11030,0.14142,0,0,180.0*
21,1,0.10205,0.14967,0,0,180.0*
1,1,0.00825,-0.05102,0.07071*
1,1,0.00825,0.05102,0.07071*
1,1,0.00825,0.05102,-0.07071*
1,1,0.00825,-0.05102,-0.07071*
%
%ADD192ROUNDEDRECTD192*%
%ADD193O,0.02762X0.01345*%
%ADD194O,0.01345X0.02762*%
%ADD195R,0.18100X0.07500*%
%ADD196R,0.02762X0.04534*%
%ADD197R,0.03254X0.04337*%
%ADD198R,0.07880X0.02762*%
G04:AMPARAMS|DCode=199|XSize=104.39mil|YSize=113.06mil|CornerRadius=4.51mil|HoleSize=0mil|Usage=FLASHONLY|Rotation=0.000|XOffset=0mil|YOffset=0mil|HoleType=Round|Shape=RoundedRectangle|*
%AMROUNDEDRECTD199*
21,1,0.10439,0.10404,0,0,0.0*
21,1,0.09537,0.11306,0,0,0.0*
1,1,0.00902,0.04769,-0.05202*
1,1,0.00902,-0.04769,-0.05202*
1,1,0.00902,-0.04769,0.05202*
1,1,0.00902,0.04769,0.05202*
%
%ADD199ROUNDEDRECTD199*%
%ADD200R,0.07093X0.07684*%
%ADD201R,0.06502X0.07880*%
%ADD202R,0.02762X0.04337*%
G04:AMPARAMS|DCode=203|XSize=68.96mil|YSize=98.49mil|CornerRadius=5.9mil|HoleSize=0mil|Usage=FLASHONLY|Rotation=180.000|XOffset=0mil|YOffset=0mil|HoleType=Round|Shape=RoundedRectangle|*
%AMROUNDEDRECTD203*
21,1,0.06896,0.08669,0,0,180.0*
21,1,0.05717,0.09849,0,0,180.0*
1,1,0.01180,-0.02858,0.04335*
1,1,0.01180,0.02858,0.04335*
1,1,0.01180,0.02858,-0.04335*
1,1,0.01180,-0.02858,-0.04335*
%
%ADD203ROUNDEDRECTD203*%
G04:AMPARAMS|DCode=204|XSize=29.62mil|YSize=15.84mil|CornerRadius=4.97mil|HoleSize=0mil|Usage=FLASHONLY|Rotation=180.000|XOffset=0mil|YOffset=0mil|HoleType=Round|Shape=RoundedRectangle|*
%AMROUNDEDRECTD204*
21,1,0.02962,0.00591,0,0,180.0*
21,1,0.01968,0.01584,0,0,180.0*
1,1,0.00994,-0.00984,0.00295*
1,1,0.00994,0.00984,0.00295*
1,1,0.00994,0.00984,-0.00295*
1,1,0.00994,-0.00984,-0.00295*
%
%ADD204ROUNDEDRECTD204*%
%ADD205R,0.11424X0.03156*%
%ADD206R,0.07299X0.10173*%
%ADD207R,0.03559X0.01787*%
G04:AMPARAMS|DCode=208|XSize=38.25mil|YSize=31.95mil|CornerRadius=3.96mil|HoleSize=0mil|Usage=FLASHONLY|Rotation=270.000|XOffset=0mil|YOffset=0mil|HoleType=Round|Shape=RoundedRectangle|*
%AMROUNDEDRECTD208*
21,1,0.03825,0.02404,0,0,270.0*
21,1,0.03034,0.03195,0,0,270.0*
1,1,0.00791,-0.01202,-0.01517*
1,1,0.00791,-0.01202,0.01517*
1,1,0.00791,0.01202,0.01517*
1,1,0.00791,0.01202,-0.01517*
%
%ADD208ROUNDEDRECTD208*%
G04:AMPARAMS|DCode=209|XSize=104.39mil|YSize=113.06mil|CornerRadius=4.51mil|HoleSize=0mil|Usage=FLASHONLY|Rotation=90.000|XOffset=0mil|YOffset=0mil|HoleType=Round|Shape=RoundedRectangle|*
%AMROUNDEDRECTD209*
21,1,0.10439,0.10404,0,0,90.0*
21,1,0.09537,0.11306,0,0,90.0*
1,1,0.00902,0.05202,0.04769*
1,1,0.00902,0.05202,-0.04769*
1,1,0.00902,-0.05202,-0.04769*
1,1,0.00902,-0.05202,0.04769*
%
%ADD209ROUNDEDRECTD209*%
%ADD210R,0.03707X0.03707*%
%ADD211R,0.03707X0.03943*%
%ADD212R,0.03983X0.05203*%
%ADD213R,0.03943X0.03550*%
%ADD214R,0.03156X0.03943*%
G04:AMPARAMS|DCode=215|XSize=110.3mil|YSize=110.3mil|CornerRadius=4.13mil|HoleSize=0mil|Usage=FLASHONLY|Rotation=270.000|XOffset=0mil|YOffset=0mil|HoleType=Round|Shape=RoundedRectangle|*
%AMROUNDEDRECTD215*
21,1,0.11030,0.10205,0,0,270.0*
21,1,0.10205,0.11030,0,0,270.0*
1,1,0.00825,-0.05102,-0.05102*
1,1,0.00825,-0.05102,0.05102*
1,1,0.00825,0.05102,0.05102*
1,1,0.00825,0.05102,-0.05102*
%
%ADD215ROUNDEDRECTD215*%
G04:AMPARAMS|DCode=216|XSize=13.45mil|YSize=27.62mil|CornerRadius=3.94mil|HoleSize=0mil|Usage=FLASHONLY|Rotation=270.000|XOffset=0mil|YOffset=0mil|HoleType=Round|Shape=RoundedRectangle|*
%AMROUNDEDRECTD216*
21,1,0.01345,0.01975,0,0,270.0*
21,1,0.00558,0.02762,0,0,270.0*
1,1,0.00787,-0.00987,-0.00279*
1,1,0.00787,-0.00987,0.00279*
1,1,0.00787,0.00987,0.00279*
1,1,0.00787,0.00987,-0.00279*
%
%ADD216ROUNDEDRECTD216*%
G04:AMPARAMS|DCode=217|XSize=13.45mil|YSize=27.62mil|CornerRadius=3.94mil|HoleSize=0mil|Usage=FLASHONLY|Rotation=0.000|XOffset=0mil|YOffset=0mil|HoleType=Round|Shape=RoundedRectangle|*
%AMROUNDEDRECTD217*
21,1,0.01345,0.01975,0,0,0.0*
21,1,0.00558,0.02762,0,0,0.0*
1,1,0.00787,0.00279,-0.00987*
1,1,0.00787,-0.00279,-0.00987*
1,1,0.00787,-0.00279,0.00987*
1,1,0.00787,0.00279,0.00987*
%
%ADD217ROUNDEDRECTD217*%
%ADD218R,0.07487X0.04337*%
%ADD219R,0.07400X0.13900*%
%ADD220P,0.05020X4X180.0*%
%ADD221R,0.04337X0.05912*%
%ADD222O,0.07487X0.01581*%
%ADD223O,0.01581X0.07487*%
%ADD224R,0.10046X0.10439*%
%ADD225R,0.07841X0.05282*%
%ADD226R,0.02762X0.02762*%
G04:AMPARAMS|DCode=227|XSize=15.81mil|YSize=27.62mil|CornerRadius=3.95mil|HoleSize=0mil|Usage=FLASHONLY|Rotation=270.000|XOffset=0mil|YOffset=0mil|HoleType=Round|Shape=RoundedRectangle|*
%AMROUNDEDRECTD227*
21,1,0.01581,0.01972,0,0,270.0*
21,1,0.00791,0.02762,0,0,270.0*
1,1,0.00790,-0.00986,-0.00396*
1,1,0.00790,-0.00986,0.00396*
1,1,0.00790,0.00986,0.00396*
1,1,0.00790,0.00986,-0.00396*
%
%ADD227ROUNDEDRECTD227*%
G04:AMPARAMS|DCode=228|XSize=122.11mil|YSize=81.95mil|CornerRadius=3.95mil|HoleSize=0mil|Usage=FLASHONLY|Rotation=270.000|XOffset=0mil|YOffset=0mil|HoleType=Round|Shape=RoundedRectangle|*
%AMROUNDEDRECTD228*
21,1,0.12211,0.07406,0,0,270.0*
21,1,0.11421,0.08195,0,0,270.0*
1,1,0.00790,-0.03703,-0.05711*
1,1,0.00790,-0.03703,0.05711*
1,1,0.00790,0.03703,0.05711*
1,1,0.00790,0.03703,-0.05711*
%
%ADD228ROUNDEDRECTD228*%
%ADD229R,0.05912X0.07880*%
%ADD230R,0.05518X0.05912*%
%ADD231R,0.04337X0.04140*%
%ADD232R,0.03550X0.06306*%
%ADD233R,0.03943X0.04337*%
%ADD234R,0.03550X0.03550*%
%ADD235R,0.06299X0.09449*%
%ADD236R,0.05282X0.07841*%
%ADD237R,0.02762X0.02762*%
%ADD238R,0.10439X0.10046*%
G04:AMPARAMS|DCode=239|XSize=15.81mil|YSize=27.62mil|CornerRadius=3.95mil|HoleSize=0mil|Usage=FLASHONLY|Rotation=0.000|XOffset=0mil|YOffset=0mil|HoleType=Round|Shape=RoundedRectangle|*
%AMROUNDEDRECTD239*
21,1,0.01581,0.01972,0,0,0.0*
21,1,0.00791,0.02762,0,0,0.0*
1,1,0.00790,0.00396,-0.00986*
1,1,0.00790,-0.00396,-0.00986*
1,1,0.00790,-0.00396,0.00986*
1,1,0.00790,0.00396,0.00986*
%
%ADD239ROUNDEDRECTD239*%
G04:AMPARAMS|DCode=240|XSize=122.11mil|YSize=81.95mil|CornerRadius=3.95mil|HoleSize=0mil|Usage=FLASHONLY|Rotation=0.000|XOffset=0mil|YOffset=0mil|HoleType=Round|Shape=RoundedRectangle|*
%AMROUNDEDRECTD240*
21,1,0.12211,0.07406,0,0,0.0*
21,1,0.11421,0.08195,0,0,0.0*
1,1,0.00790,0.05711,-0.03703*
1,1,0.00790,-0.05711,-0.03703*
1,1,0.00790,-0.05711,0.03703*
1,1,0.00790,0.05711,0.03703*
%
%ADD240ROUNDEDRECTD240*%
%ADD241R,0.05912X0.03943*%
%ADD242R,0.05912X0.09061*%
%ADD243R,0.03943X0.05912*%
%ADD244R,0.09061X0.05912*%
%ADD245R,0.04337X0.05124*%
%ADD246R,0.05124X0.04337*%
%ADD247R,0.04337X0.07487*%
%ADD248R,0.03943X0.04731*%
%ADD249R,0.04731X0.10636*%
%ADD250R,0.05518X0.01778*%
G04:AMPARAMS|DCode=251|XSize=27.62mil|YSize=63.06mil|CornerRadius=7.91mil|HoleSize=0mil|Usage=FLASHONLY|Rotation=90.000|XOffset=0mil|YOffset=0mil|HoleType=Round|Shape=RoundedRectangle|*
%AMROUNDEDRECTD251*
21,1,0.02762,0.04724,0,0,90.0*
21,1,0.01181,0.06306,0,0,90.0*
1,1,0.01581,0.02362,0.00591*
1,1,0.01581,0.02362,-0.00591*
1,1,0.01581,-0.02362,-0.00591*
1,1,0.01581,-0.02362,0.00591*
%
%ADD251ROUNDEDRECTD251*%
G04:AMPARAMS|DCode=252|XSize=21.72mil|YSize=37.47mil|CornerRadius=6.43mil|HoleSize=0mil|Usage=FLASHONLY|Rotation=0.000|XOffset=0mil|YOffset=0mil|HoleType=Round|Shape=RoundedRectangle|*
%AMROUNDEDRECTD252*
21,1,0.02172,0.02461,0,0,0.0*
21,1,0.00886,0.03747,0,0,0.0*
1,1,0.01286,0.00443,-0.01230*
1,1,0.01286,-0.00443,-0.01230*
1,1,0.01286,-0.00443,0.01230*
1,1,0.01286,0.00443,0.01230*
%
%ADD252ROUNDEDRECTD252*%
%ADD253R,0.04337X0.03943*%
%ADD254R,0.03550X0.03550*%
G04:AMPARAMS|DCode=255|XSize=21.72mil|YSize=37.47mil|CornerRadius=6.43mil|HoleSize=0mil|Usage=FLASHONLY|Rotation=90.000|XOffset=0mil|YOffset=0mil|HoleType=Round|Shape=RoundedRectangle|*
%AMROUNDEDRECTD255*
21,1,0.02172,0.02461,0,0,90.0*
21,1,0.00886,0.03747,0,0,90.0*
1,1,0.01286,0.01230,0.00443*
1,1,0.01286,0.01230,-0.00443*
1,1,0.01286,-0.01230,-0.00443*
1,1,0.01286,-0.01230,0.00443*
%
%ADD255ROUNDEDRECTD255*%
%ADD256C,0.03943*%
G04:AMPARAMS|DCode=257|XSize=100.46mil|YSize=39.43mil|CornerRadius=10.86mil|HoleSize=0mil|Usage=FLASHONLY|Rotation=90.000|XOffset=0mil|YOffset=0mil|HoleType=Round|Shape=RoundedRectangle|*
%AMROUNDEDRECTD257*
21,1,0.10046,0.01772,0,0,90.0*
21,1,0.07874,0.03943,0,0,90.0*
1,1,0.02172,0.00886,0.03937*
1,1,0.02172,0.00886,-0.03937*
1,1,0.02172,-0.00886,-0.03937*
1,1,0.02172,-0.00886,0.03937*
%
%ADD257ROUNDEDRECTD257*%
%ADD258C,0.07290*%
%ADD259R,0.07290X0.07290*%
%ADD260C,0.13976*%
%ADD261C,0.05912*%
%ADD262C,0.01968*%
%ADD263C,0.06400*%
%ADD264C,0.10669*%
%ADD265R,0.07290X0.07290*%
%ADD266C,0.25400*%
%ADD267C,0.03550*%
%ADD268R,0.05912X0.05912*%
%ADD269C,0.06699*%
%ADD270C,0.09061*%
%ADD271C,0.01772*%
G36*
X211990Y338532D02*
X212029D01*
X212038Y338531D01*
X212069Y338528D01*
X212106Y338516D01*
X212179Y338487D01*
X212213Y338468D01*
X212220Y338462D01*
X212244Y338443D01*
X212299Y338387D01*
Y338387D01*
X212299D01*
X212324Y338357D01*
X212343Y338322D01*
X212373Y338250D01*
X212377Y338235D01*
X212384Y338212D01*
X212388Y338173D01*
Y338134D01*
Y336563D01*
X213801D01*
X213809Y336562D01*
X213840Y336559D01*
X213878Y336548D01*
X213950Y336518D01*
X213985Y336499D01*
X213992Y336494D01*
X214016Y336474D01*
X214071Y336419D01*
Y336419D01*
X214071D01*
X214096Y336388D01*
X214114Y336354D01*
X214144Y336281D01*
X214149Y336267D01*
X214156Y336244D01*
X214160Y336205D01*
Y336165D01*
Y327110D01*
Y327071D01*
X214159Y327063D01*
X214156Y327032D01*
X214144Y326994D01*
X214114Y326922D01*
X214096Y326887D01*
X214090Y326881D01*
X214071Y326857D01*
X214016Y326801D01*
X213999Y326788D01*
X213985Y326776D01*
X213950Y326758D01*
X213878Y326728D01*
X213840Y326716D01*
X213801Y326712D01*
X212388D01*
Y325142D01*
Y325103D01*
X212387Y325094D01*
X212384Y325063D01*
X212373Y325026D01*
X212343Y324953D01*
X212324Y324919D01*
X212319Y324912D01*
X212299Y324888D01*
X212244Y324833D01*
X212227Y324819D01*
X212213Y324808D01*
X212179Y324789D01*
X212106Y324759D01*
X212069Y324748D01*
X212029Y324744D01*
X211361D01*
X211321Y324748D01*
X211284Y324759D01*
X211211Y324789D01*
X211176Y324808D01*
X211163Y324819D01*
X211146Y324833D01*
X211091Y324888D01*
X211077Y324905D01*
X211066Y324919D01*
X211047Y324953D01*
X211017Y325026D01*
Y325026D01*
Y325026D01*
X211017Y325026D01*
X211012Y325044D01*
X211006Y325063D01*
Y325063D01*
X211006Y325063D01*
X211004Y325083D01*
X211002Y325103D01*
X211002Y325142D01*
Y325142D01*
Y325142D01*
Y326712D01*
X210420D01*
Y325142D01*
Y325103D01*
X210419Y325094D01*
X210416Y325063D01*
X210404Y325026D01*
X210374Y324953D01*
X210356Y324919D01*
X210350Y324912D01*
X210331Y324888D01*
X210275Y324833D01*
X210259Y324819D01*
X210245Y324808D01*
X210210Y324789D01*
X210138Y324759D01*
X210100Y324748D01*
X210061Y324744D01*
X209392D01*
X209353Y324748D01*
X209315Y324759D01*
X209243Y324789D01*
X209208Y324808D01*
X209194Y324819D01*
X209177Y324833D01*
X209122Y324888D01*
X209108Y324905D01*
X209097Y324919D01*
X209079Y324953D01*
X209049Y325026D01*
X209037Y325063D01*
X209033Y325103D01*
Y325142D01*
Y326712D01*
X207620D01*
X207581Y326716D01*
X207543Y326728D01*
X207471Y326758D01*
X207436Y326776D01*
X207423Y326788D01*
X207406Y326801D01*
X207350Y326857D01*
X207337Y326873D01*
X207326Y326887D01*
X207307Y326922D01*
X207277Y326994D01*
X207265Y327032D01*
X207262Y327071D01*
Y327110D01*
Y336165D01*
Y336205D01*
X207265Y336244D01*
X207277Y336281D01*
X207307Y336354D01*
X207326Y336389D01*
X207337Y336402D01*
X207350Y336419D01*
X207406Y336474D01*
X207406D01*
Y336474D01*
X207436Y336499D01*
X207471Y336518D01*
X207543Y336548D01*
X207558Y336552D01*
X207581Y336559D01*
X207620Y336563D01*
X209033D01*
Y338134D01*
Y338173D01*
X209037Y338212D01*
X209049Y338250D01*
X209079Y338322D01*
X209097Y338357D01*
X209108Y338371D01*
X209122Y338387D01*
X209177Y338443D01*
X209177D01*
Y338443D01*
X209208Y338468D01*
X209243Y338487D01*
X209315Y338516D01*
X209332Y338521D01*
X209353Y338528D01*
X209353Y338528D01*
X209353D01*
X209365Y338529D01*
X209392Y338532D01*
X209431Y338532D01*
X209431D01*
X209431D01*
X210022D01*
X210022Y338532D01*
X210061D01*
X210069Y338531D01*
X210100Y338528D01*
X210138Y338516D01*
X210210Y338487D01*
X210245Y338468D01*
X210251Y338462D01*
X210275Y338443D01*
X210331Y338387D01*
Y338387D01*
X210331D01*
X210356Y338357D01*
X210374Y338322D01*
X210404Y338250D01*
X210409Y338235D01*
X210416Y338212D01*
X210420Y338173D01*
Y338134D01*
Y336563D01*
X211002D01*
Y338134D01*
X211002Y338134D01*
Y338173D01*
X211006Y338212D01*
X211017Y338250D01*
X211047Y338322D01*
X211066Y338357D01*
X211077Y338371D01*
X211091Y338387D01*
X211146Y338443D01*
X211146D01*
Y338443D01*
X211176Y338468D01*
X211211Y338487D01*
X211284Y338516D01*
X211300Y338521D01*
X211321Y338528D01*
X211321Y338528D01*
X211321D01*
X211333Y338529D01*
X211360Y338532D01*
X211400Y338532D01*
X211400D01*
X211400D01*
X211990D01*
X211990Y338532D01*
D02*
G37*
G36*
X474289Y295768D02*
X466415D01*
Y299744D01*
X467418Y300280D01*
X468498Y301166D01*
X469383Y302245D01*
X470041Y303476D01*
X470446Y304812D01*
X470583Y306201D01*
X470446Y307590D01*
X470041Y308926D01*
X469383Y310157D01*
X468498Y311236D01*
X467418Y312122D01*
X466415Y312658D01*
Y316634D01*
X474289D01*
Y295768D01*
D02*
G37*
G36*
X460509Y312658D02*
X459506Y312122D01*
X458427Y311236D01*
X457541Y310157D01*
X456883Y308926D01*
X456478Y307590D01*
X456341Y306201D01*
X456478Y304812D01*
X456883Y303476D01*
X457541Y302245D01*
X458427Y301166D01*
X459506Y300280D01*
X460509Y299744D01*
Y295768D01*
X452635D01*
Y316634D01*
X460509D01*
Y312658D01*
D02*
G37*
G36*
X158366Y187205D02*
X154390D01*
X153854Y188208D01*
X152968Y189287D01*
X151889Y190173D01*
X150658Y190831D01*
X149322Y191236D01*
X147933Y191373D01*
X146544Y191236D01*
X145208Y190831D01*
X143977Y190173D01*
X142898Y189287D01*
X142012Y188208D01*
X141476Y187205D01*
X137500D01*
Y195079D01*
X158366D01*
Y187205D01*
D02*
G37*
G36*
Y173425D02*
X137500D01*
Y181299D01*
X141476D01*
X142012Y180296D01*
X142898Y179217D01*
X143977Y178331D01*
X145208Y177673D01*
X146544Y177268D01*
X147933Y177131D01*
X149322Y177268D01*
X150658Y177673D01*
X151889Y178331D01*
X152968Y179217D01*
X153854Y180296D01*
X154390Y181299D01*
X158366D01*
Y173425D01*
D02*
G37*
D36*
X241368Y396021D02*
D03*
Y393462D02*
D03*
Y390903D02*
D03*
Y388344D02*
D03*
X253502Y396021D02*
D03*
Y393462D02*
D03*
Y390903D02*
D03*
Y388344D02*
D03*
D37*
X364469Y409645D02*
D03*
X361910D02*
D03*
X359350D02*
D03*
X356791D02*
D03*
X364469Y397512D02*
D03*
X361910D02*
D03*
X359350D02*
D03*
X356791D02*
D03*
X332325D02*
D03*
X334884D02*
D03*
X337443D02*
D03*
X340002D02*
D03*
X332325Y409645D02*
D03*
X334884D02*
D03*
X337443D02*
D03*
X340002D02*
D03*
X291283D02*
D03*
X288724D02*
D03*
X286165D02*
D03*
X283606D02*
D03*
X291283Y397512D02*
D03*
X288724D02*
D03*
X286165D02*
D03*
X283606D02*
D03*
X307866D02*
D03*
X310425D02*
D03*
X312984D02*
D03*
X315543D02*
D03*
X307866Y409645D02*
D03*
X310425D02*
D03*
X312984D02*
D03*
X315543D02*
D03*
D47*
X541719Y322572D02*
D03*
X546719D02*
D03*
X551719D02*
D03*
X556719D02*
D03*
Y279658D02*
D03*
X551719D02*
D03*
X546719D02*
D03*
X541719D02*
D03*
X370015Y291399D02*
D03*
X375015D02*
D03*
X380015D02*
D03*
X385015D02*
D03*
Y248486D02*
D03*
X380015D02*
D03*
X375015D02*
D03*
X370015D02*
D03*
D84*
X165329Y127536D02*
D03*
X155329D02*
D03*
Y161636D02*
D03*
X176057D02*
D03*
X186057D02*
D03*
Y127536D02*
D03*
D85*
X165329Y161636D02*
D03*
X176057Y127536D02*
D03*
D86*
X277613Y165020D02*
D03*
X311713Y175827D02*
D03*
D87*
X277613Y155020D02*
D03*
X311713D02*
D03*
Y165020D02*
D03*
X277613Y175827D02*
D03*
Y185827D02*
D03*
X311713D02*
D03*
D93*
X207382Y123930D02*
D03*
Y121430D02*
D03*
Y118930D02*
D03*
Y116430D02*
D03*
Y113930D02*
D03*
Y111430D02*
D03*
Y108930D02*
D03*
Y106430D02*
D03*
X228839D02*
D03*
Y108930D02*
D03*
Y111430D02*
D03*
Y113930D02*
D03*
Y116430D02*
D03*
Y118930D02*
D03*
Y121430D02*
D03*
Y123930D02*
D03*
D121*
X253756Y421908D02*
D03*
Y419349D02*
D03*
Y416790D02*
D03*
Y414231D02*
D03*
X242732D02*
D03*
Y416790D02*
D03*
Y419349D02*
D03*
Y421908D02*
D03*
X205521Y417619D02*
D03*
Y415060D02*
D03*
Y412500D02*
D03*
Y409941D02*
D03*
X216545D02*
D03*
Y412500D02*
D03*
Y415060D02*
D03*
Y417619D02*
D03*
D139*
X12795Y433071D02*
X12303Y433923D01*
X11319D01*
X10827Y433071D01*
X11319Y432219D01*
X12303D01*
X12795Y433071D01*
X619095Y409449D02*
X618602Y410301D01*
X617618D01*
X617126Y409449D01*
X617618Y408596D01*
X618602D01*
X619095Y409449D01*
X579724Y49213D02*
X579232Y50065D01*
X578248D01*
X577756Y49213D01*
X578248Y48360D01*
X579232D01*
X579724Y49213D01*
X56102Y19685D02*
X55610Y20537D01*
X54626D01*
X54134Y19685D01*
X54626Y18833D01*
X55610D01*
X56102Y19685D01*
D140*
X248758Y392182D02*
D03*
D141*
X360630Y404901D02*
D03*
X336163D02*
D03*
X287445D02*
D03*
X311705D02*
D03*
D142*
X252750Y396021D02*
D03*
Y393462D02*
D03*
Y390903D02*
D03*
Y388344D02*
D03*
D143*
X364468Y408893D02*
D03*
X361910Y408893D02*
D03*
X359350D02*
D03*
X356791D02*
D03*
X332325D02*
D03*
X334884D02*
D03*
X337443D02*
D03*
X340002Y408893D02*
D03*
X291283D02*
D03*
X288724Y408893D02*
D03*
X286165D02*
D03*
X283606D02*
D03*
X307865D02*
D03*
X310425Y408894D02*
D03*
X312984D02*
D03*
X315542Y408893D02*
D03*
D144*
X536004Y189784D02*
D03*
X518287D02*
D03*
D145*
X240778Y169068D02*
D03*
D146*
X88724Y46457D02*
D03*
X88776Y105935D02*
D03*
D147*
X59010Y76222D02*
D03*
X118490Y76170D02*
D03*
D148*
X408731Y75729D02*
D03*
X408770Y174537D02*
D03*
D149*
X359358Y125141D02*
D03*
X458154Y125113D02*
D03*
D150*
X188797Y16950D02*
D03*
X188797Y23250D02*
D03*
X506892Y335764D02*
D03*
Y329465D02*
D03*
X511959D02*
D03*
Y335764D02*
D03*
X517026D02*
D03*
Y329465D02*
D03*
X522092Y335764D02*
D03*
Y329465D02*
D03*
X377481Y371217D02*
D03*
X377481Y364917D02*
D03*
X551886Y190322D02*
D03*
Y196621D02*
D03*
X217244Y14712D02*
D03*
Y21011D02*
D03*
X210745D02*
D03*
Y14712D02*
D03*
X292642Y78880D02*
D03*
Y85180D02*
D03*
X86205Y292717D02*
D03*
X86204Y286417D02*
D03*
X152419Y239570D02*
D03*
Y245869D02*
D03*
X149428Y286320D02*
D03*
X149428Y292619D02*
D03*
X148031Y112598D02*
D03*
Y118898D02*
D03*
X153200Y112598D02*
D03*
Y118898D02*
D03*
X158292Y112599D02*
D03*
Y118899D02*
D03*
X146250Y29921D02*
D03*
Y36220D02*
D03*
X396320Y296752D02*
D03*
X396321Y303051D02*
D03*
X393602Y342028D02*
D03*
Y348327D02*
D03*
X369436Y300318D02*
D03*
X369436Y306617D02*
D03*
X587789Y355441D02*
D03*
X587789Y361741D02*
D03*
X592907Y376308D02*
D03*
X592907Y382607D02*
D03*
X611795Y437534D02*
D03*
X611795Y431235D02*
D03*
X17136Y355506D02*
D03*
X17136Y361805D02*
D03*
X43110Y437598D02*
D03*
X43110Y431299D02*
D03*
X22254Y382671D02*
D03*
X22254Y376372D02*
D03*
X128839Y347863D02*
D03*
X128839Y354162D02*
D03*
X101980Y354162D02*
D03*
X101980Y347863D02*
D03*
X80512Y324373D02*
D03*
X80512Y318073D02*
D03*
X80512Y335813D02*
D03*
X80512Y329514D02*
D03*
X106731Y335488D02*
D03*
X106731Y329189D02*
D03*
X106731Y317815D02*
D03*
X106731Y324114D02*
D03*
X271457Y350098D02*
D03*
Y356398D02*
D03*
X265059Y188299D02*
D03*
X265059Y194598D02*
D03*
X259941Y188299D02*
D03*
X259941Y194598D02*
D03*
X321654Y201083D02*
D03*
X321654Y194783D02*
D03*
X287547Y107046D02*
D03*
Y100747D02*
D03*
X124803Y332874D02*
D03*
Y326575D02*
D03*
X47156Y367022D02*
D03*
Y373321D02*
D03*
X454604Y336392D02*
D03*
X454604Y342691D02*
D03*
X439446Y296752D02*
D03*
Y303051D02*
D03*
X326772Y194783D02*
D03*
X326772Y201083D02*
D03*
X150886Y332874D02*
D03*
Y326575D02*
D03*
X243100Y99368D02*
D03*
X243100Y105667D02*
D03*
X179573Y230264D02*
D03*
X179573Y223965D02*
D03*
X355622Y37510D02*
D03*
Y43809D02*
D03*
X327382Y36561D02*
D03*
X327382Y42860D02*
D03*
X82382Y208948D02*
D03*
X82382Y215248D02*
D03*
X89025Y208970D02*
D03*
X89025Y215270D02*
D03*
X179573Y235570D02*
D03*
Y241869D02*
D03*
X89025Y220521D02*
D03*
Y226820D02*
D03*
X179573Y247185D02*
D03*
Y253485D02*
D03*
X228011Y337088D02*
D03*
X228011Y343387D02*
D03*
X323639Y294739D02*
D03*
X323639Y288440D02*
D03*
X358805Y288440D02*
D03*
X358805Y294739D02*
D03*
X337860Y294739D02*
D03*
Y288440D02*
D03*
X343096Y294739D02*
D03*
Y288440D02*
D03*
X348332Y294739D02*
D03*
Y288440D02*
D03*
X353569Y294739D02*
D03*
Y288440D02*
D03*
X332624D02*
D03*
Y294739D02*
D03*
X139842Y99029D02*
D03*
X139842Y92730D02*
D03*
X131037Y95085D02*
D03*
X131037Y88785D02*
D03*
X565791Y148117D02*
D03*
X565791Y141817D02*
D03*
X565791Y130666D02*
D03*
X565791Y124367D02*
D03*
X502263Y138516D02*
D03*
X502263Y132217D02*
D03*
X502600Y157416D02*
D03*
X502600Y151117D02*
D03*
X385015Y241074D02*
D03*
X385015Y234775D02*
D03*
X370015Y234838D02*
D03*
X370016Y241137D02*
D03*
X489285Y60611D02*
D03*
X489285Y54312D02*
D03*
X494910Y60611D02*
D03*
X494910Y54312D02*
D03*
X510967Y189725D02*
D03*
Y183426D02*
D03*
X500657Y189725D02*
D03*
Y183426D02*
D03*
X505850Y183426D02*
D03*
X505850Y189725D02*
D03*
X251476Y232367D02*
D03*
Y226068D02*
D03*
X315937Y360630D02*
D03*
Y354331D02*
D03*
X291579Y360630D02*
D03*
Y354331D02*
D03*
X47156Y355506D02*
D03*
Y361805D02*
D03*
X617809Y355441D02*
D03*
Y361741D02*
D03*
Y373256D02*
D03*
Y366957D02*
D03*
X34754Y376372D02*
D03*
Y382671D02*
D03*
X605407Y376308D02*
D03*
X605407Y382607D02*
D03*
X29653Y376372D02*
D03*
Y382671D02*
D03*
X600306Y376308D02*
D03*
X600306Y382607D02*
D03*
X340543Y360630D02*
D03*
Y354331D02*
D03*
X364469Y360630D02*
D03*
Y354331D02*
D03*
X100625Y38721D02*
D03*
Y32421D02*
D03*
X604371Y198622D02*
D03*
Y204921D02*
D03*
D151*
X108107Y300000D02*
D03*
X255344Y382382D02*
D03*
X432939Y220374D02*
D03*
X473351Y217900D02*
D03*
X61357Y227189D02*
D03*
X145335Y273820D02*
D03*
X145208Y279223D02*
D03*
X152342Y304335D02*
D03*
X171103Y304429D02*
D03*
X577486Y360234D02*
D03*
X501279Y344390D02*
D03*
X220618Y299325D02*
D03*
X6833Y360299D02*
D03*
X188000Y352419D02*
D03*
X362706Y43809D02*
D03*
X78682Y278937D02*
D03*
X86205Y300394D02*
D03*
X78703Y273966D02*
D03*
X522092Y263189D02*
D03*
X517520Y256988D02*
D03*
X512303Y263189D02*
D03*
X507092Y256988D02*
D03*
X210711Y425643D02*
D03*
X469120Y64242D02*
D03*
X32620Y145920D02*
D03*
D152*
X434795Y382028D02*
D03*
Y374941D02*
D03*
X385015Y300421D02*
D03*
Y307507D02*
D03*
X586608Y367056D02*
D03*
Y374142D02*
D03*
X15955Y374207D02*
D03*
Y367120D02*
D03*
X199644Y435064D02*
D03*
Y427977D02*
D03*
X525663Y360960D02*
D03*
Y353874D02*
D03*
X188835Y325423D02*
D03*
Y332509D02*
D03*
X18565Y171496D02*
D03*
Y178582D02*
D03*
X458247Y237285D02*
D03*
Y244371D02*
D03*
X73860Y208494D02*
D03*
Y215581D02*
D03*
X46500Y61546D02*
D03*
Y68632D02*
D03*
X344900Y91257D02*
D03*
Y98343D02*
D03*
X476504Y154325D02*
D03*
Y161411D02*
D03*
X489528Y219693D02*
D03*
Y226780D02*
D03*
D153*
X613838Y292035D02*
D03*
X608838D02*
D03*
X603838D02*
D03*
X598838D02*
D03*
X593838D02*
D03*
X588838D02*
D03*
X583838D02*
D03*
X578838D02*
D03*
Y329436D02*
D03*
X583838D02*
D03*
X588838D02*
D03*
X593838D02*
D03*
X598838D02*
D03*
X603838D02*
D03*
X608838D02*
D03*
X613838D02*
D03*
X497092Y319028D02*
D03*
X502092D02*
D03*
X507092D02*
D03*
X512092D02*
D03*
X517092D02*
D03*
X522092D02*
D03*
X527092D02*
D03*
X532092D02*
D03*
Y281627D02*
D03*
X527092D02*
D03*
X522092D02*
D03*
X517092D02*
D03*
X512092D02*
D03*
X507092D02*
D03*
X502092D02*
D03*
X497092D02*
D03*
X43185Y292099D02*
D03*
X38185D02*
D03*
X33185D02*
D03*
X28185D02*
D03*
X23185D02*
D03*
X18185D02*
D03*
X13185D02*
D03*
X8185D02*
D03*
Y329501D02*
D03*
X13185D02*
D03*
X18185D02*
D03*
X23185D02*
D03*
X28185D02*
D03*
X33185D02*
D03*
X38185D02*
D03*
X43185D02*
D03*
X358708Y279374D02*
D03*
X353708D02*
D03*
X348708D02*
D03*
X343708D02*
D03*
X338708D02*
D03*
X333708D02*
D03*
X328708D02*
D03*
X323708D02*
D03*
Y241973D02*
D03*
X328708D02*
D03*
X333708D02*
D03*
X338708D02*
D03*
X343708D02*
D03*
X348708D02*
D03*
X353708D02*
D03*
X358708D02*
D03*
D154*
X494449Y332828D02*
D03*
X501536D02*
D03*
X40072Y161929D02*
D03*
X32986D02*
D03*
X237290Y330738D02*
D03*
X230203D02*
D03*
X506561Y369047D02*
D03*
X513648D02*
D03*
X538287Y337500D02*
D03*
X531201D02*
D03*
X258827Y165236D02*
D03*
X251740D02*
D03*
Y172801D02*
D03*
X258827D02*
D03*
X212029Y281979D02*
D03*
X219115D02*
D03*
X32986Y169403D02*
D03*
X40072D02*
D03*
X472667Y227718D02*
D03*
X479754D02*
D03*
X472667Y235192D02*
D03*
X479754D02*
D03*
X502290Y266212D02*
D03*
X495204D02*
D03*
X143465Y86430D02*
D03*
X136378D02*
D03*
X67062Y115859D02*
D03*
X59975D02*
D03*
X381743Y190000D02*
D03*
X374657D02*
D03*
X440133Y230345D02*
D03*
X433046D02*
D03*
X46366Y153996D02*
D03*
X39280D02*
D03*
D155*
X495443Y326528D02*
D03*
X501742Y326528D02*
D03*
X416925Y350657D02*
D03*
X423224D02*
D03*
Y356386D02*
D03*
X416925D02*
D03*
X423224Y362091D02*
D03*
X416925D02*
D03*
X537894Y331197D02*
D03*
X531595Y331197D02*
D03*
X284183Y379135D02*
D03*
X277884Y379135D02*
D03*
X277884Y384252D02*
D03*
X284183D02*
D03*
X467045Y33847D02*
D03*
X473345Y33847D02*
D03*
X451950Y33600D02*
D03*
X458250Y33600D02*
D03*
X422333Y42235D02*
D03*
X428632Y42235D02*
D03*
X566715Y207276D02*
D03*
X560416D02*
D03*
X322244Y224705D02*
D03*
X328543D02*
D03*
X210345Y52861D02*
D03*
X216644D02*
D03*
Y59111D02*
D03*
X210345D02*
D03*
X226663Y90568D02*
D03*
X232963D02*
D03*
X86554Y305906D02*
D03*
X92853D02*
D03*
Y310989D02*
D03*
X86554D02*
D03*
X58366Y305906D02*
D03*
X64665D02*
D03*
Y310989D02*
D03*
X58366D02*
D03*
X199902Y124592D02*
D03*
X193602Y124592D02*
D03*
X122612Y13674D02*
D03*
X116313D02*
D03*
X122525Y21196D02*
D03*
X116225D02*
D03*
X116225Y30571D02*
D03*
X122525Y30571D02*
D03*
X423917Y405079D02*
D03*
X417618Y405079D02*
D03*
X406226D02*
D03*
X412525D02*
D03*
X400689Y368012D02*
D03*
X406988Y368012D02*
D03*
X424545Y336887D02*
D03*
X418245Y336887D02*
D03*
X406532D02*
D03*
X412831D02*
D03*
X401216D02*
D03*
X394916D02*
D03*
X88071Y273820D02*
D03*
X94370D02*
D03*
X105810D02*
D03*
X99510D02*
D03*
X64707Y292613D02*
D03*
X58408D02*
D03*
X64707Y297540D02*
D03*
X58408D02*
D03*
X126980Y303643D02*
D03*
X133280D02*
D03*
X133281Y298299D02*
D03*
X126982D02*
D03*
X606874Y338813D02*
D03*
X613173Y338813D02*
D03*
X614588Y283071D02*
D03*
X608289Y283071D02*
D03*
X606874Y343932D02*
D03*
X613173Y343932D02*
D03*
X36220Y343996D02*
D03*
X42520Y343996D02*
D03*
X153839Y353445D02*
D03*
X160138Y353445D02*
D03*
X138436Y337992D02*
D03*
X144735Y337992D02*
D03*
X127067Y313556D02*
D03*
X133366D02*
D03*
X144735D02*
D03*
X138436D02*
D03*
X71653Y353445D02*
D03*
X77953Y353445D02*
D03*
X69193Y338359D02*
D03*
X75492D02*
D03*
X101613Y337765D02*
D03*
X95314D02*
D03*
X159449Y337992D02*
D03*
X153150Y337992D02*
D03*
X179647Y118640D02*
D03*
X185946D02*
D03*
X175928Y193209D02*
D03*
X182227Y193209D02*
D03*
X138779Y209154D02*
D03*
X145079D02*
D03*
X170866Y337992D02*
D03*
X164567Y337992D02*
D03*
X138779Y252149D02*
D03*
X145079Y252149D02*
D03*
X495558Y272553D02*
D03*
X501857Y272553D02*
D03*
X162734Y273820D02*
D03*
X169033D02*
D03*
X321706Y161713D02*
D03*
X328005D02*
D03*
X548675Y391929D02*
D03*
X554974Y391929D02*
D03*
X328005Y151476D02*
D03*
X321706D02*
D03*
X543504Y391929D02*
D03*
X537205Y391929D02*
D03*
X236220Y124592D02*
D03*
X242520Y124592D02*
D03*
X321706Y156595D02*
D03*
X328005D02*
D03*
X549699Y382224D02*
D03*
X555998Y382224D02*
D03*
X133366Y337992D02*
D03*
X127067Y337992D02*
D03*
X506281Y376590D02*
D03*
X512580Y376590D02*
D03*
X506347Y382635D02*
D03*
X512647Y382635D02*
D03*
X358858Y227756D02*
D03*
X352559Y227756D02*
D03*
X36220Y338878D02*
D03*
X42520Y338878D02*
D03*
X157594Y273820D02*
D03*
X151294D02*
D03*
X151181Y313556D02*
D03*
X157480D02*
D03*
X162598D02*
D03*
X168898D02*
D03*
X587227Y203956D02*
D03*
X580928D02*
D03*
X587239Y209283D02*
D03*
X580940D02*
D03*
X284183Y374016D02*
D03*
X277884D02*
D03*
X566705Y201052D02*
D03*
X560406D02*
D03*
X263349Y92645D02*
D03*
X269648D02*
D03*
X427880Y246339D02*
D03*
X421581D02*
D03*
X439431Y246339D02*
D03*
X433131Y246339D02*
D03*
X433153Y239696D02*
D03*
X439453Y239696D02*
D03*
X402532Y309733D02*
D03*
X408831D02*
D03*
X542421Y271441D02*
D03*
X536122Y271441D02*
D03*
X358858Y232874D02*
D03*
X352559Y232874D02*
D03*
X59121Y139300D02*
D03*
X52821D02*
D03*
X52923Y133141D02*
D03*
X59223D02*
D03*
X502834Y165337D02*
D03*
X496535Y165337D02*
D03*
X502834Y83447D02*
D03*
X496535Y83447D02*
D03*
X499427Y124584D02*
D03*
X493128Y124584D02*
D03*
X279075Y92579D02*
D03*
X285374Y92579D02*
D03*
X326583Y379135D02*
D03*
X332882Y379135D02*
D03*
X302284Y379135D02*
D03*
X308583Y379135D02*
D03*
X351068Y379135D02*
D03*
X357368Y379135D02*
D03*
X43835Y282000D02*
D03*
X37535Y282000D02*
D03*
X238538Y69318D02*
D03*
X244838Y69318D02*
D03*
X442550Y59800D02*
D03*
X436250Y59800D02*
D03*
X439650Y54600D02*
D03*
X445950Y54600D02*
D03*
X460550Y65600D02*
D03*
X454250Y65600D02*
D03*
X517017Y199958D02*
D03*
X523316Y199958D02*
D03*
X534817Y199333D02*
D03*
X541117Y199333D02*
D03*
X558120Y180826D02*
D03*
X551820Y180826D02*
D03*
X332882Y384252D02*
D03*
X326583D02*
D03*
X308583D02*
D03*
X302284D02*
D03*
X357368D02*
D03*
X351068D02*
D03*
X357368Y374016D02*
D03*
X351068D02*
D03*
X326583D02*
D03*
X332882D02*
D03*
X257972Y218898D02*
D03*
X264272D02*
D03*
X302284Y374016D02*
D03*
X308583D02*
D03*
X321706Y183760D02*
D03*
X328005D02*
D03*
X30275Y120641D02*
D03*
X36575D02*
D03*
X30275Y126891D02*
D03*
X36575D02*
D03*
X90641Y114428D02*
D03*
X84341D02*
D03*
X611242Y198470D02*
D03*
X617541D02*
D03*
X232963Y78068D02*
D03*
X226663D02*
D03*
X232963Y84318D02*
D03*
X226663D02*
D03*
X349843Y105471D02*
D03*
X343544D02*
D03*
X36575Y133141D02*
D03*
X30275D02*
D03*
D156*
X372906Y357862D02*
D03*
X372906Y344476D02*
D03*
X382158Y344476D02*
D03*
X382158Y357862D02*
D03*
X545289Y375302D02*
D03*
Y361916D02*
D03*
X554128D02*
D03*
Y375302D02*
D03*
D157*
X193508Y384143D02*
D03*
X193508Y388080D02*
D03*
X350400Y92831D02*
D03*
X350400Y96768D02*
D03*
X126870Y69882D02*
D03*
X126870Y65945D02*
D03*
X197607Y365280D02*
D03*
X197608Y361343D02*
D03*
X193508Y373569D02*
D03*
X193508Y369632D02*
D03*
X223060Y342706D02*
D03*
X223061Y338769D02*
D03*
X193508Y361343D02*
D03*
X193508Y365280D02*
D03*
X239181Y354006D02*
D03*
X239181Y357943D02*
D03*
X235546Y354006D02*
D03*
X235546Y357943D02*
D03*
X198611Y330670D02*
D03*
X198611Y326733D02*
D03*
X195027Y330670D02*
D03*
X195027Y326733D02*
D03*
X423940Y68898D02*
D03*
X423940Y64961D02*
D03*
X135400Y95689D02*
D03*
X135400Y91752D02*
D03*
X126693Y89941D02*
D03*
X126693Y93878D02*
D03*
X49375Y55098D02*
D03*
X49375Y51161D02*
D03*
X126693Y82835D02*
D03*
X126693Y86772D02*
D03*
X350935Y119255D02*
D03*
X350936Y115318D02*
D03*
X350886Y138737D02*
D03*
X350887Y134800D02*
D03*
X351330Y164568D02*
D03*
X351330Y160632D02*
D03*
X468600Y131085D02*
D03*
X468600Y135022D02*
D03*
X468600Y111298D02*
D03*
X468600Y115235D02*
D03*
X468270Y159028D02*
D03*
X468270Y155091D02*
D03*
X466346Y85854D02*
D03*
X466346Y89791D02*
D03*
X435479Y63919D02*
D03*
X435478Y67856D02*
D03*
X137700Y71898D02*
D03*
X137700Y67961D02*
D03*
D158*
X417696Y426279D02*
D03*
X412578D02*
D03*
X415137Y417421D02*
D03*
X546161Y397244D02*
D03*
X543602Y406102D02*
D03*
X548721D02*
D03*
D159*
X592470Y446707D02*
D03*
X605069D02*
D03*
X595620D02*
D03*
X601919D02*
D03*
X598770D02*
D03*
X23720Y446709D02*
D03*
X36319D02*
D03*
X26870D02*
D03*
X33169D02*
D03*
X30020D02*
D03*
D160*
X470699Y247620D02*
D03*
X31017Y181830D02*
D03*
D161*
X473652Y242108D02*
D03*
X471683D02*
D03*
X469714D02*
D03*
X467746D02*
D03*
Y253131D02*
D03*
X469714D02*
D03*
X471683D02*
D03*
X473652D02*
D03*
X33970Y176318D02*
D03*
X32001D02*
D03*
X30033D02*
D03*
X28064D02*
D03*
Y187342D02*
D03*
X30033D02*
D03*
X32001D02*
D03*
X33970D02*
D03*
D162*
X465187Y244667D02*
D03*
Y246635D02*
D03*
Y248604D02*
D03*
Y250572D02*
D03*
X476211D02*
D03*
Y248604D02*
D03*
Y246635D02*
D03*
Y244667D02*
D03*
X25505Y178877D02*
D03*
Y180846D02*
D03*
Y182815D02*
D03*
Y184783D02*
D03*
X36529D02*
D03*
Y182815D02*
D03*
Y180846D02*
D03*
Y178877D02*
D03*
D163*
X406468Y66600D02*
D03*
X402531Y66600D02*
D03*
X399313Y66630D02*
D03*
X395376Y66630D02*
D03*
X25527Y193001D02*
D03*
X29464Y193001D02*
D03*
X591125Y389207D02*
D03*
X595062Y389207D02*
D03*
X602149Y389207D02*
D03*
X598212Y389207D02*
D03*
X31496Y389272D02*
D03*
X27559Y389272D02*
D03*
X20472Y389271D02*
D03*
X24409Y389272D02*
D03*
X193439Y392911D02*
D03*
X197376Y392912D02*
D03*
X245094Y357878D02*
D03*
X249031Y357878D02*
D03*
X228376Y381533D02*
D03*
X232313Y381533D02*
D03*
X228376Y378001D02*
D03*
X232313Y378001D02*
D03*
X232313Y372833D02*
D03*
X228376Y372833D02*
D03*
X228357Y369276D02*
D03*
X232294Y369276D02*
D03*
X228376Y365706D02*
D03*
X232313Y365706D02*
D03*
X220970Y330099D02*
D03*
X224907Y330099D02*
D03*
X198996Y336755D02*
D03*
X195059Y336755D02*
D03*
X469145Y258790D02*
D03*
X465208Y258790D02*
D03*
X130711Y77275D02*
D03*
X126774Y77275D02*
D03*
X109374Y39321D02*
D03*
X113311Y39321D02*
D03*
X111366Y114419D02*
D03*
X107429Y114419D02*
D03*
X54906Y107446D02*
D03*
X58843Y107446D02*
D03*
X444468Y64200D02*
D03*
X440531Y64200D02*
D03*
X378001Y184408D02*
D03*
X374064Y184408D02*
D03*
X405068Y184319D02*
D03*
X401131Y184319D02*
D03*
X426494Y184319D02*
D03*
X422557Y184319D02*
D03*
X451001Y184238D02*
D03*
X447064Y184238D02*
D03*
X438832Y67700D02*
D03*
X442768Y67700D02*
D03*
X133918Y77275D02*
D03*
X137855Y77275D02*
D03*
X205622Y392912D02*
D03*
X201685Y392911D02*
D03*
X384832Y65900D02*
D03*
X388769Y65900D02*
D03*
X377556Y65888D02*
D03*
X381493Y65888D02*
D03*
X423771Y61551D02*
D03*
X427708Y61551D02*
D03*
X416654Y61551D02*
D03*
X420591Y61551D02*
D03*
D164*
X592178Y210903D02*
D03*
Y204210D02*
D03*
X454309Y306201D02*
D03*
X472714D02*
D03*
D165*
X576928Y186118D02*
D03*
Y188677D02*
D03*
Y191236D02*
D03*
Y193795D02*
D03*
X559999Y186118D02*
D03*
X559999Y188677D02*
D03*
X559999Y191236D02*
D03*
X559999Y193795D02*
D03*
D166*
X492211Y235192D02*
D03*
Y247003D02*
D03*
X52529Y181214D02*
D03*
Y169403D02*
D03*
D167*
X511678Y165337D02*
D03*
Y159037D02*
D03*
Y162187D02*
D03*
Y149589D02*
D03*
Y155888D02*
D03*
Y152738D02*
D03*
Y140140D02*
D03*
Y143289D02*
D03*
Y146439D02*
D03*
Y130691D02*
D03*
Y136990D02*
D03*
Y133841D02*
D03*
X556954Y165337D02*
D03*
Y159037D02*
D03*
Y162187D02*
D03*
Y149589D02*
D03*
Y155888D02*
D03*
Y152738D02*
D03*
Y140140D02*
D03*
Y146439D02*
D03*
Y133841D02*
D03*
Y143289D02*
D03*
Y136990D02*
D03*
X511678Y108644D02*
D03*
Y111793D02*
D03*
Y102345D02*
D03*
Y105494D02*
D03*
Y124392D02*
D03*
Y127541D02*
D03*
Y114943D02*
D03*
Y121242D02*
D03*
Y118093D02*
D03*
Y96046D02*
D03*
Y99195D02*
D03*
Y89746D02*
D03*
Y92896D02*
D03*
Y83447D02*
D03*
Y86597D02*
D03*
X556954Y130691D02*
D03*
Y124392D02*
D03*
Y121242D02*
D03*
Y127541D02*
D03*
Y111793D02*
D03*
Y118093D02*
D03*
Y114943D02*
D03*
Y89746D02*
D03*
Y92896D02*
D03*
Y83447D02*
D03*
Y86597D02*
D03*
Y105494D02*
D03*
Y108644D02*
D03*
Y96046D02*
D03*
Y102345D02*
D03*
Y99195D02*
D03*
D168*
X200718Y291707D02*
D03*
X213316Y291707D02*
D03*
X468187Y324213D02*
D03*
X455588Y324213D02*
D03*
X213316Y316107D02*
D03*
X200718Y316107D02*
D03*
X168167Y223367D02*
D03*
X155568Y223367D02*
D03*
X412995Y253333D02*
D03*
X400396Y253333D02*
D03*
X200718Y303907D02*
D03*
X213316Y303907D02*
D03*
D169*
X480035Y50912D02*
D03*
X476295D02*
D03*
X483775D02*
D03*
Y60361D02*
D03*
X476295D02*
D03*
X480035D02*
D03*
D170*
X106590Y245323D02*
D03*
Y235520D02*
D03*
Y225717D02*
D03*
Y215914D02*
D03*
X139149Y245323D02*
D03*
Y235520D02*
D03*
Y225717D02*
D03*
Y215914D02*
D03*
D171*
X6833Y367421D02*
D03*
X577486Y367357D02*
D03*
X7620Y445876D02*
D03*
X511656Y354331D02*
D03*
X625492Y442618D02*
D03*
X563829Y215583D02*
D03*
D172*
X18607Y133141D02*
D03*
X24119D02*
D03*
Y126891D02*
D03*
X18607D02*
D03*
X24119Y120641D02*
D03*
X18607D02*
D03*
X239370Y84318D02*
D03*
X244882D02*
D03*
X239370Y78068D02*
D03*
X244882D02*
D03*
X239370Y90568D02*
D03*
X244882D02*
D03*
D173*
X166535Y179626D02*
D03*
X166535Y192224D02*
D03*
X96019Y248005D02*
D03*
X96019Y235406D02*
D03*
X425034Y312882D02*
D03*
X425034Y325481D02*
D03*
D174*
X176807Y179921D02*
D03*
X184807D02*
D03*
D175*
X147933Y175000D02*
D03*
Y193405D02*
D03*
D176*
X164272Y119488D02*
D03*
Y112008D02*
D03*
X173721Y115748D02*
D03*
X427349Y372392D02*
D03*
Y376132D02*
D03*
Y379873D02*
D03*
X416522D02*
D03*
Y376132D02*
D03*
Y372392D02*
D03*
D177*
X399445Y360156D02*
D03*
Y356416D02*
D03*
Y352675D02*
D03*
X408894D02*
D03*
Y356416D02*
D03*
Y360156D02*
D03*
X210345Y65703D02*
D03*
Y73184D02*
D03*
X219793D02*
D03*
Y69443D02*
D03*
Y65703D02*
D03*
X142618Y49705D02*
D03*
Y42224D02*
D03*
X133169D02*
D03*
Y45965D02*
D03*
Y49705D02*
D03*
D178*
X245817Y274705D02*
D03*
X405118Y344685D02*
D03*
D179*
X141535Y323622D02*
D03*
Y325590D02*
D03*
Y327559D02*
D03*
Y329528D02*
D03*
X130315D02*
D03*
Y327559D02*
D03*
Y325590D02*
D03*
Y323622D02*
D03*
X609587Y355805D02*
D03*
Y357774D02*
D03*
Y359742D02*
D03*
Y361711D02*
D03*
Y363679D02*
D03*
X593839D02*
D03*
Y361711D02*
D03*
Y359742D02*
D03*
Y357774D02*
D03*
Y355805D02*
D03*
X38934Y355870D02*
D03*
Y357838D02*
D03*
Y359807D02*
D03*
Y361775D02*
D03*
Y363744D02*
D03*
X23186D02*
D03*
Y361775D02*
D03*
Y359807D02*
D03*
Y357838D02*
D03*
Y355870D02*
D03*
X167985Y323622D02*
D03*
Y325590D02*
D03*
Y327559D02*
D03*
Y329528D02*
D03*
X156764D02*
D03*
Y327559D02*
D03*
Y325590D02*
D03*
Y323622D02*
D03*
X100924Y323652D02*
D03*
Y325621D02*
D03*
Y327589D02*
D03*
Y329558D02*
D03*
X89704D02*
D03*
Y327589D02*
D03*
Y325621D02*
D03*
Y323652D02*
D03*
X74705Y323622D02*
D03*
Y325591D02*
D03*
Y327559D02*
D03*
Y329528D02*
D03*
X63484D02*
D03*
Y327559D02*
D03*
Y325591D02*
D03*
Y323622D02*
D03*
D180*
X138878Y332185D02*
D03*
X136909D02*
D03*
X134941D02*
D03*
X132972D02*
D03*
Y320965D02*
D03*
X134941D02*
D03*
X136909D02*
D03*
X138878D02*
D03*
X605650Y367616D02*
D03*
X603681D02*
D03*
X601713D02*
D03*
X599744D02*
D03*
X597776D02*
D03*
Y351868D02*
D03*
X599744D02*
D03*
X601713D02*
D03*
X603681D02*
D03*
X605650D02*
D03*
X34997Y367681D02*
D03*
X33028D02*
D03*
X31060D02*
D03*
X29091D02*
D03*
X27123D02*
D03*
Y351933D02*
D03*
X29091D02*
D03*
X31060D02*
D03*
X33028D02*
D03*
X34997D02*
D03*
X165327Y332185D02*
D03*
X163359D02*
D03*
X161390D02*
D03*
X159422D02*
D03*
Y320965D02*
D03*
X161390D02*
D03*
X163359D02*
D03*
X165327D02*
D03*
X92361Y320995D02*
D03*
X94330D02*
D03*
X96298D02*
D03*
X98267D02*
D03*
Y332215D02*
D03*
X96298D02*
D03*
X94330D02*
D03*
X92361D02*
D03*
X66142Y320965D02*
D03*
X68110D02*
D03*
X70079D02*
D03*
X72047D02*
D03*
Y332185D02*
D03*
X70079D02*
D03*
X68110D02*
D03*
X66142D02*
D03*
D181*
X135925Y326575D02*
D03*
X162374D02*
D03*
D182*
X131722Y33071D02*
D03*
X140778Y29331D02*
D03*
Y36811D02*
D03*
X273019Y103896D02*
D03*
X282075Y100156D02*
D03*
Y107637D02*
D03*
D183*
X497832Y391132D02*
D03*
Y376132D02*
D03*
Y361133D02*
D03*
X443737D02*
D03*
Y376132D02*
D03*
Y391132D02*
D03*
D184*
X92149Y284981D02*
D03*
Y290886D02*
D03*
X105142D02*
D03*
Y284981D02*
D03*
X168365D02*
D03*
Y290886D02*
D03*
X155373D02*
D03*
Y284981D02*
D03*
D185*
X94709Y294430D02*
D03*
X96677D02*
D03*
X98646D02*
D03*
X100614D02*
D03*
X102583D02*
D03*
Y281438D02*
D03*
X100614D02*
D03*
X98646D02*
D03*
X96677D02*
D03*
X94709D02*
D03*
X157933D02*
D03*
X159901D02*
D03*
X161870D02*
D03*
X163838D02*
D03*
X165807D02*
D03*
Y294430D02*
D03*
X163838D02*
D03*
X161870D02*
D03*
X159901D02*
D03*
X157933D02*
D03*
D186*
X98646Y287933D02*
D03*
X161870D02*
D03*
D187*
X601713Y359742D02*
D03*
X31060Y359807D02*
D03*
D188*
X48962Y430905D02*
D03*
Y437992D02*
D03*
X37295D02*
D03*
Y430905D02*
D03*
X617646Y430841D02*
D03*
Y437928D02*
D03*
X285059Y425505D02*
D03*
Y418419D02*
D03*
X605979Y430841D02*
D03*
Y437928D02*
D03*
X278573Y425505D02*
D03*
Y418419D02*
D03*
X358169Y418701D02*
D03*
Y425787D02*
D03*
X351659Y425848D02*
D03*
Y418762D02*
D03*
X309358Y418521D02*
D03*
Y425607D02*
D03*
X302973D02*
D03*
Y418521D02*
D03*
X333747Y418712D02*
D03*
Y425799D02*
D03*
X327272Y425943D02*
D03*
Y418857D02*
D03*
D189*
X95314Y326605D02*
D03*
X69094Y326575D02*
D03*
D190*
X106980Y361722D02*
D03*
X101980D02*
D03*
X96980D02*
D03*
X91980D02*
D03*
X86980D02*
D03*
X81980D02*
D03*
X76980D02*
D03*
X71980D02*
D03*
Y395304D02*
D03*
X76980D02*
D03*
X81980D02*
D03*
X86980D02*
D03*
X91980D02*
D03*
X96980D02*
D03*
X101980D02*
D03*
X106980D02*
D03*
X158839Y361623D02*
D03*
X153839D02*
D03*
X148839D02*
D03*
X143839D02*
D03*
X138839D02*
D03*
X133839D02*
D03*
X128839D02*
D03*
X123839D02*
D03*
Y395206D02*
D03*
X128839D02*
D03*
X133839D02*
D03*
X138839D02*
D03*
X143839D02*
D03*
X148839D02*
D03*
X153839D02*
D03*
X158838D02*
D03*
D191*
X468088Y333795D02*
D03*
Y341795D02*
D03*
D192*
X205127Y378806D02*
D03*
D193*
X212608Y372901D02*
D03*
Y374869D02*
D03*
Y376837D02*
D03*
Y378806D02*
D03*
Y380774D02*
D03*
Y382743D02*
D03*
Y384712D02*
D03*
X197647D02*
D03*
Y382743D02*
D03*
Y380774D02*
D03*
Y378806D02*
D03*
Y376837D02*
D03*
Y374869D02*
D03*
Y372901D02*
D03*
D194*
X209064Y388255D02*
D03*
X207096D02*
D03*
X205127D02*
D03*
X203159D02*
D03*
X201190D02*
D03*
Y369357D02*
D03*
X203159D02*
D03*
X205127D02*
D03*
X207096D02*
D03*
X209064D02*
D03*
D195*
X231511Y319738D02*
D03*
Y306738D02*
D03*
D196*
X264665Y212542D02*
D03*
X257185D02*
D03*
X260925Y203487D02*
D03*
X344361Y34890D02*
D03*
X340621Y43945D02*
D03*
X348101D02*
D03*
D197*
X281428Y360778D02*
D03*
X277687Y350148D02*
D03*
X285168D02*
D03*
X305827Y360778D02*
D03*
X302087Y350148D02*
D03*
X309567D02*
D03*
X330126Y360778D02*
D03*
X326386Y350148D02*
D03*
X333866D02*
D03*
X354626Y360778D02*
D03*
X350886Y350148D02*
D03*
X358366D02*
D03*
X231722Y399473D02*
D03*
X227982Y388843D02*
D03*
X235462D02*
D03*
D198*
X312106Y194587D02*
D03*
Y199587D02*
D03*
Y204587D02*
D03*
Y209587D02*
D03*
Y214587D02*
D03*
Y219587D02*
D03*
Y224587D02*
D03*
Y229587D02*
D03*
X274705D02*
D03*
Y224587D02*
D03*
Y219587D02*
D03*
Y214587D02*
D03*
Y209587D02*
D03*
Y204587D02*
D03*
Y199587D02*
D03*
Y194587D02*
D03*
D199*
X180678Y205403D02*
D03*
X155324D02*
D03*
D200*
X554921Y351378D02*
D03*
X545866D02*
D03*
Y335433D02*
D03*
X554921D02*
D03*
X381988Y317323D02*
D03*
X372933D02*
D03*
Y333268D02*
D03*
X381988D02*
D03*
D201*
X219715Y362012D02*
D03*
X208100D02*
D03*
X255151Y405586D02*
D03*
X243537D02*
D03*
X206800Y400916D02*
D03*
X218415D02*
D03*
X258382Y350833D02*
D03*
X246768D02*
D03*
D202*
X324856Y177461D02*
D03*
X321115Y168012D02*
D03*
X328596D02*
D03*
X614391Y213995D02*
D03*
X610651Y204546D02*
D03*
X618131D02*
D03*
D203*
X210711Y331638D02*
D03*
D204*
X205199Y327701D02*
D03*
Y329669D02*
D03*
Y331638D02*
D03*
Y333606D02*
D03*
Y335575D02*
D03*
X216223D02*
D03*
Y333606D02*
D03*
Y331638D02*
D03*
Y329669D02*
D03*
Y327701D02*
D03*
D205*
X179272Y17441D02*
D03*
Y22441D02*
D03*
Y27441D02*
D03*
Y37441D02*
D03*
Y42441D02*
D03*
Y47441D02*
D03*
Y52441D02*
D03*
Y57441D02*
D03*
Y62441D02*
D03*
X163248Y17441D02*
D03*
Y22441D02*
D03*
Y27441D02*
D03*
Y32441D02*
D03*
Y37441D02*
D03*
Y42441D02*
D03*
Y47441D02*
D03*
Y52441D02*
D03*
Y57441D02*
D03*
Y62441D02*
D03*
X234114Y62443D02*
D03*
Y57443D02*
D03*
Y52443D02*
D03*
Y42443D02*
D03*
Y37443D02*
D03*
Y32443D02*
D03*
Y27443D02*
D03*
Y22443D02*
D03*
Y17443D02*
D03*
X250138Y62443D02*
D03*
Y57443D02*
D03*
Y52443D02*
D03*
Y47443D02*
D03*
Y42443D02*
D03*
Y37443D02*
D03*
Y32443D02*
D03*
Y27443D02*
D03*
Y22443D02*
D03*
Y17443D02*
D03*
D206*
X240792Y169087D02*
D03*
D207*
X235280Y172039D02*
D03*
Y170071D02*
D03*
Y168102D02*
D03*
Y166134D02*
D03*
X246304Y172039D02*
D03*
Y170071D02*
D03*
Y168102D02*
D03*
Y166134D02*
D03*
D208*
X403078Y263904D02*
D03*
X412881D02*
D03*
X422684D02*
D03*
X432487D02*
D03*
X403078Y296463D02*
D03*
X412881D02*
D03*
X422684D02*
D03*
X432487D02*
D03*
D209*
X441415Y313012D02*
D03*
Y338366D02*
D03*
D210*
X528445Y399547D02*
D03*
X520571Y403248D02*
D03*
X514173Y399449D02*
D03*
X506299Y403150D02*
D03*
D211*
X528445Y406949D02*
D03*
X514173Y406850D02*
D03*
D212*
X518093Y391132D02*
D03*
X505219D02*
D03*
X517922Y361133D02*
D03*
X505048D02*
D03*
D213*
X517789Y376909D02*
D03*
X525663Y380650D02*
D03*
Y373169D02*
D03*
D214*
X261319Y224949D02*
D03*
X258760Y232430D02*
D03*
X263878D02*
D03*
D215*
X246013Y370733D02*
D03*
D216*
X253494Y375654D02*
D03*
Y373686D02*
D03*
Y371717D02*
D03*
Y369749D02*
D03*
Y367780D02*
D03*
Y365812D02*
D03*
X238533D02*
D03*
Y367780D02*
D03*
Y369749D02*
D03*
Y371717D02*
D03*
Y373686D02*
D03*
Y375654D02*
D03*
D217*
X250935Y363252D02*
D03*
X248966D02*
D03*
X246998D02*
D03*
X245029D02*
D03*
X243061D02*
D03*
X241092D02*
D03*
Y378213D02*
D03*
X243061D02*
D03*
X245029D02*
D03*
X246998D02*
D03*
X248966D02*
D03*
X250935D02*
D03*
D218*
X585945Y194517D02*
D03*
X585945Y184675D02*
D03*
D219*
X188092Y227784D02*
D03*
D220*
X489423Y80583D02*
D03*
X484969Y85037D02*
D03*
D221*
X333622Y34430D02*
D03*
Y44666D02*
D03*
D222*
X59026Y58479D02*
D03*
Y62416D02*
D03*
Y60448D02*
D03*
Y52574D02*
D03*
Y56511D02*
D03*
Y54542D02*
D03*
Y68322D02*
D03*
Y66353D02*
D03*
Y70290D02*
D03*
Y64385D02*
D03*
Y80133D02*
D03*
Y84070D02*
D03*
Y82102D02*
D03*
Y74227D02*
D03*
Y72259D02*
D03*
Y78164D02*
D03*
Y76196D02*
D03*
Y95881D02*
D03*
Y93913D02*
D03*
Y99818D02*
D03*
Y97850D02*
D03*
Y88007D02*
D03*
Y86039D02*
D03*
Y91944D02*
D03*
Y89976D02*
D03*
X118474Y54542D02*
D03*
Y52574D02*
D03*
Y56511D02*
D03*
Y60448D02*
D03*
Y58479D02*
D03*
Y62416D02*
D03*
Y66353D02*
D03*
Y64385D02*
D03*
Y70290D02*
D03*
Y68322D02*
D03*
Y80133D02*
D03*
Y84070D02*
D03*
Y82102D02*
D03*
Y74227D02*
D03*
Y72259D02*
D03*
Y78164D02*
D03*
Y76196D02*
D03*
Y95881D02*
D03*
Y93913D02*
D03*
Y99818D02*
D03*
Y97850D02*
D03*
Y88007D02*
D03*
Y86039D02*
D03*
Y91944D02*
D03*
Y89976D02*
D03*
X458159Y82810D02*
D03*
Y84778D02*
D03*
Y86747D02*
D03*
Y88715D02*
D03*
Y90684D02*
D03*
Y92652D02*
D03*
Y94621D02*
D03*
Y96589D02*
D03*
Y98558D02*
D03*
Y100527D02*
D03*
Y102495D02*
D03*
Y104464D02*
D03*
Y106432D02*
D03*
Y108401D02*
D03*
Y110369D02*
D03*
Y112338D02*
D03*
Y114306D02*
D03*
Y116275D02*
D03*
Y118243D02*
D03*
Y120212D02*
D03*
Y122180D02*
D03*
Y124149D02*
D03*
Y126117D02*
D03*
Y128086D02*
D03*
Y130054D02*
D03*
Y132023D02*
D03*
Y133991D02*
D03*
Y135960D02*
D03*
Y137928D02*
D03*
Y139897D02*
D03*
Y141865D02*
D03*
Y143834D02*
D03*
Y145802D02*
D03*
Y147771D02*
D03*
Y149739D02*
D03*
Y151708D02*
D03*
Y153676D02*
D03*
Y155645D02*
D03*
Y157613D02*
D03*
Y159582D02*
D03*
Y161550D02*
D03*
Y163519D02*
D03*
Y165487D02*
D03*
Y167456D02*
D03*
X359341D02*
D03*
Y165487D02*
D03*
Y163519D02*
D03*
Y161550D02*
D03*
Y159582D02*
D03*
Y157613D02*
D03*
Y155645D02*
D03*
Y153676D02*
D03*
Y151708D02*
D03*
Y149739D02*
D03*
Y147771D02*
D03*
Y145802D02*
D03*
Y143834D02*
D03*
Y141865D02*
D03*
Y139897D02*
D03*
Y137928D02*
D03*
Y135960D02*
D03*
Y133991D02*
D03*
Y132023D02*
D03*
Y130054D02*
D03*
Y128086D02*
D03*
Y126117D02*
D03*
Y124149D02*
D03*
Y122180D02*
D03*
Y120212D02*
D03*
Y118243D02*
D03*
Y116275D02*
D03*
Y114306D02*
D03*
Y112338D02*
D03*
Y110369D02*
D03*
Y108401D02*
D03*
Y106432D02*
D03*
Y104464D02*
D03*
Y102495D02*
D03*
Y100527D02*
D03*
Y98558D02*
D03*
Y96589D02*
D03*
Y94621D02*
D03*
Y92652D02*
D03*
Y90684D02*
D03*
Y88715D02*
D03*
Y86747D02*
D03*
Y84778D02*
D03*
Y82810D02*
D03*
D223*
X65128Y46472D02*
D03*
X67096D02*
D03*
X74970D02*
D03*
X76939D02*
D03*
X69065D02*
D03*
X73002D02*
D03*
X71033D02*
D03*
X78907D02*
D03*
X84813D02*
D03*
X86782D02*
D03*
X80876D02*
D03*
X82844D02*
D03*
X65128Y105920D02*
D03*
X73002D02*
D03*
X74970D02*
D03*
X67096D02*
D03*
X71033D02*
D03*
X76939D02*
D03*
X78907D02*
D03*
X69065D02*
D03*
X84813D02*
D03*
X86782D02*
D03*
X80876D02*
D03*
X82844D02*
D03*
X92687Y46472D02*
D03*
X88750D02*
D03*
X90719D02*
D03*
X98593D02*
D03*
X100561D02*
D03*
X94656D02*
D03*
X96624D02*
D03*
X106467D02*
D03*
X102530D02*
D03*
X104498D02*
D03*
X110404D02*
D03*
X112372D02*
D03*
X108435D02*
D03*
X88750Y105920D02*
D03*
X94656D02*
D03*
X96624D02*
D03*
X90719D02*
D03*
X92687D02*
D03*
X102530D02*
D03*
X104498D02*
D03*
X98593D02*
D03*
X100561D02*
D03*
X110404D02*
D03*
X112372D02*
D03*
X106467D02*
D03*
X108435D02*
D03*
X366427Y75723D02*
D03*
X368396D02*
D03*
X370364D02*
D03*
X372333D02*
D03*
X374301D02*
D03*
X376270D02*
D03*
X378238D02*
D03*
X380207D02*
D03*
X382175D02*
D03*
X384144D02*
D03*
X386112D02*
D03*
X388081D02*
D03*
X390049D02*
D03*
X392018D02*
D03*
X393986D02*
D03*
X395955D02*
D03*
X397923D02*
D03*
X399892D02*
D03*
X401860D02*
D03*
X403829D02*
D03*
X405797D02*
D03*
X407766D02*
D03*
X409734D02*
D03*
X411703D02*
D03*
X413671D02*
D03*
X415640D02*
D03*
X417608D02*
D03*
X419577D02*
D03*
X421545D02*
D03*
X423514D02*
D03*
X425482D02*
D03*
X427451D02*
D03*
X429419D02*
D03*
X431388D02*
D03*
X433356D02*
D03*
X435325D02*
D03*
X437293D02*
D03*
X439262D02*
D03*
X441230D02*
D03*
X443199D02*
D03*
X445167D02*
D03*
X447136D02*
D03*
X449104D02*
D03*
X451073D02*
D03*
Y174542D02*
D03*
X449104D02*
D03*
X447136D02*
D03*
X445167D02*
D03*
X443199D02*
D03*
X441230D02*
D03*
X439262D02*
D03*
X437293D02*
D03*
X435325D02*
D03*
X433356D02*
D03*
X431388D02*
D03*
X429419D02*
D03*
X427451D02*
D03*
X425482D02*
D03*
X423514D02*
D03*
X421545D02*
D03*
X419577D02*
D03*
X417608D02*
D03*
X415640D02*
D03*
X413671D02*
D03*
X411703D02*
D03*
X409734D02*
D03*
X407766D02*
D03*
X405797D02*
D03*
X403829D02*
D03*
X401860D02*
D03*
X399892D02*
D03*
X397923D02*
D03*
X395955D02*
D03*
X393986D02*
D03*
X392018D02*
D03*
X390049D02*
D03*
X388081D02*
D03*
X386112D02*
D03*
X384144D02*
D03*
X382175D02*
D03*
X380207D02*
D03*
X378238D02*
D03*
X376270D02*
D03*
X374301D02*
D03*
X372333D02*
D03*
X370364D02*
D03*
X368396D02*
D03*
X366427D02*
D03*
D224*
X73031Y227189D02*
D03*
Y251008D02*
D03*
D225*
X97479Y209280D02*
D03*
Y225343D02*
D03*
D226*
X86010Y245450D02*
D03*
Y236788D02*
D03*
X145775Y245841D02*
D03*
Y237179D02*
D03*
D227*
X173679Y245054D02*
D03*
Y241904D02*
D03*
Y238754D02*
D03*
Y235605D02*
D03*
X158718D02*
D03*
Y238754D02*
D03*
Y241904D02*
D03*
Y245054D02*
D03*
D228*
X166198Y240329D02*
D03*
D229*
X321028Y4687D02*
D03*
X269453Y9411D02*
D03*
D230*
X298193Y60593D02*
D03*
X275752D02*
D03*
D231*
X281225Y61478D02*
D03*
D232*
X285555Y17837D02*
D03*
X281225Y17049D02*
D03*
X276894Y17837D02*
D03*
X272563D02*
D03*
X289886Y16754D02*
D03*
X294217Y17837D02*
D03*
X298547Y19411D02*
D03*
X302878Y17837D02*
D03*
D233*
X147871Y13674D02*
D03*
X131729D02*
D03*
X147871Y19974D02*
D03*
X131729D02*
D03*
D234*
X139800Y20367D02*
D03*
D235*
X248244Y418070D02*
D03*
X211033Y413780D02*
D03*
D236*
X439121Y254793D02*
D03*
X423058D02*
D03*
D237*
X402951Y243324D02*
D03*
X411613D02*
D03*
X402560Y303089D02*
D03*
X411222D02*
D03*
D238*
X421212Y230345D02*
D03*
X397393D02*
D03*
D239*
X403347Y330993D02*
D03*
X406497D02*
D03*
X409647D02*
D03*
X412796D02*
D03*
Y316032D02*
D03*
X409647D02*
D03*
X406497D02*
D03*
X403347D02*
D03*
D240*
X408072Y323512D02*
D03*
D241*
X146614Y215934D02*
D03*
D242*
Y225974D02*
D03*
D243*
X432466Y303928D02*
D03*
D244*
X422427D02*
D03*
D245*
X142414Y69465D02*
D03*
Y76158D02*
D03*
X147532Y69465D02*
D03*
Y76158D02*
D03*
D246*
X418994Y55879D02*
D03*
X425687D02*
D03*
X418994Y50761D02*
D03*
X425687D02*
D03*
D247*
X378101Y59032D02*
D03*
X387943D02*
D03*
D248*
X461043Y59800D02*
D03*
X453957D02*
D03*
D249*
X196190Y344962D02*
D03*
X206426D02*
D03*
D250*
X518295Y193710D02*
D03*
X518295Y191742D02*
D03*
Y189773D02*
D03*
Y187805D02*
D03*
X536012Y187804D02*
D03*
Y189773D02*
D03*
X536012Y191742D02*
D03*
X536012Y193710D02*
D03*
X518295Y185836D02*
D03*
X536012Y185836D02*
D03*
D251*
X285255Y85034D02*
D03*
Y75034D02*
D03*
Y80034D02*
D03*
Y70034D02*
D03*
X263995Y75034D02*
D03*
Y85034D02*
D03*
Y80034D02*
D03*
Y70034D02*
D03*
D252*
X191800Y426739D02*
D03*
Y435598D02*
D03*
X172259Y426610D02*
D03*
Y435468D02*
D03*
D253*
X210344Y29790D02*
D03*
Y45932D02*
D03*
X216644Y29790D02*
D03*
Y45932D02*
D03*
D254*
X217037Y37861D02*
D03*
D255*
X350364Y367355D02*
D03*
X359222D02*
D03*
X276903D02*
D03*
X285761D02*
D03*
X325602D02*
D03*
X334460D02*
D03*
X301303D02*
D03*
X310161D02*
D03*
D256*
X590108Y455861D02*
D03*
X607431D02*
D03*
X21358Y455862D02*
D03*
X38681D02*
D03*
D257*
X584400Y446707D02*
D03*
Y464424D02*
D03*
X613140D02*
D03*
Y446707D02*
D03*
X15650Y446709D02*
D03*
Y464425D02*
D03*
X44390D02*
D03*
Y446709D02*
D03*
D258*
X457913Y14370D02*
D03*
X427913Y24370D02*
D03*
X437913D02*
D03*
X447913D02*
D03*
Y14370D02*
D03*
X437913D02*
D03*
X427913D02*
D03*
X92243Y15376D02*
D03*
X102243D02*
D03*
X32500Y64370D02*
D03*
Y44370D02*
D03*
Y54370D02*
D03*
X22500D02*
D03*
Y64370D02*
D03*
X32500Y34370D02*
D03*
X22500D02*
D03*
X32500Y24370D02*
D03*
X22500Y14370D02*
D03*
Y44370D02*
D03*
Y24370D02*
D03*
X208611Y211839D02*
D03*
X198611D02*
D03*
Y241839D02*
D03*
Y231839D02*
D03*
X208611D02*
D03*
Y221839D02*
D03*
X198611D02*
D03*
X254125Y104192D02*
D03*
X264125D02*
D03*
X213433Y174767D02*
D03*
Y164767D02*
D03*
D259*
X457913Y24370D02*
D03*
D260*
X76100Y450400D02*
D03*
X106100D02*
D03*
X563400D02*
D03*
X523400D02*
D03*
X467366Y450402D02*
D03*
X507366D02*
D03*
X122137D02*
D03*
X152137D02*
D03*
D261*
X83600Y415400D02*
D03*
X88600Y425400D02*
D03*
X93600Y415400D02*
D03*
X98600Y425400D02*
D03*
X530900D02*
D03*
X535900Y415400D02*
D03*
X555900D02*
D03*
X550900Y425400D02*
D03*
X545900Y415400D02*
D03*
X540900Y425400D02*
D03*
X484866Y425402D02*
D03*
X489866Y415402D02*
D03*
X494866Y425402D02*
D03*
X499866Y415402D02*
D03*
X479866D02*
D03*
X474866Y425402D02*
D03*
X129637Y415402D02*
D03*
X134637Y425402D02*
D03*
X139637Y415402D02*
D03*
X144637Y425402D02*
D03*
X399331Y24370D02*
D03*
X379331D02*
D03*
X409331Y14370D02*
D03*
X389331Y24370D02*
D03*
X359331D02*
D03*
X369331D02*
D03*
X349331D02*
D03*
X339331Y14370D02*
D03*
Y24370D02*
D03*
X399331Y14370D02*
D03*
X389331D02*
D03*
X359331D02*
D03*
X349331D02*
D03*
X379331D02*
D03*
X369331D02*
D03*
X329331Y24370D02*
D03*
Y14370D02*
D03*
X496504Y14370D02*
D03*
X506504D02*
D03*
X476504D02*
D03*
X486504D02*
D03*
X476504Y24370D02*
D03*
X486504D02*
D03*
X496504D02*
D03*
X506504D02*
D03*
X546504Y14370D02*
D03*
X556504D02*
D03*
X526504D02*
D03*
X536504D02*
D03*
X566504D02*
D03*
X576504D02*
D03*
X516504Y24370D02*
D03*
Y14370D02*
D03*
X526504Y24370D02*
D03*
X546504D02*
D03*
X536504D02*
D03*
X566504D02*
D03*
X586504Y14370D02*
D03*
X556504Y24370D02*
D03*
X576504D02*
D03*
D262*
X248244Y414330D02*
D03*
Y421810D02*
D03*
X250409Y418070D02*
D03*
X246079D02*
D03*
X208867Y413780D02*
D03*
X213198D02*
D03*
X211033Y417520D02*
D03*
Y410040D02*
D03*
X205127Y378806D02*
D03*
Y375656D02*
D03*
Y372507D02*
D03*
X209458Y378806D02*
D03*
X205127Y381956D02*
D03*
Y385105D02*
D03*
X200797Y378806D02*
D03*
X208447Y331638D02*
D03*
X212974D02*
D03*
X210711Y327898D02*
D03*
Y335378D02*
D03*
X246013Y370733D02*
D03*
X250344D02*
D03*
X246013Y375063D02*
D03*
X241683Y370733D02*
D03*
X246013Y366402D02*
D03*
D263*
X409489Y433622D02*
D03*
X421300D02*
D03*
X433111D02*
D03*
Y445433D02*
D03*
X421300D02*
D03*
X409489D02*
D03*
X283124Y445441D02*
D03*
X294935D02*
D03*
X306746D02*
D03*
X342179D02*
D03*
X330368D02*
D03*
X365801D02*
D03*
X283124Y433642D02*
D03*
X294935D02*
D03*
X306746D02*
D03*
X342179D02*
D03*
X330368D02*
D03*
X365801D02*
D03*
X318557Y445441D02*
D03*
X353990D02*
D03*
X318557Y433642D02*
D03*
X353990D02*
D03*
X211565Y433622D02*
D03*
X223376D02*
D03*
X235187D02*
D03*
Y445433D02*
D03*
X223376D02*
D03*
X211565D02*
D03*
X181890Y433622D02*
D03*
Y445433D02*
D03*
D264*
X401024Y462441D02*
D03*
X441576D02*
D03*
X274659Y462449D02*
D03*
X374265D02*
D03*
X203100Y462441D02*
D03*
X243651D02*
D03*
X190355Y462441D02*
D03*
X173425D02*
D03*
D265*
X32500Y14370D02*
D03*
X208611Y241839D02*
D03*
D266*
X594488Y411417D02*
D03*
X385827Y411417D02*
D03*
X185039D02*
D03*
X27559Y411417D02*
D03*
Y98425D02*
D03*
X185039D02*
D03*
X307087D02*
D03*
X602362D02*
D03*
D267*
X594488Y420866D02*
D03*
X586305Y416142D02*
D03*
Y406693D02*
D03*
X594488Y401968D02*
D03*
X602671Y406693D02*
D03*
Y416142D02*
D03*
X394010Y416142D02*
D03*
Y406693D02*
D03*
X385827Y401968D02*
D03*
X377644Y406693D02*
D03*
Y416142D02*
D03*
X385827Y420866D02*
D03*
X185039D02*
D03*
X176856Y416142D02*
D03*
Y406693D02*
D03*
X185039Y401968D02*
D03*
X193222Y406693D02*
D03*
Y416142D02*
D03*
X35742Y416142D02*
D03*
Y406693D02*
D03*
X27559Y401968D02*
D03*
X19376Y406693D02*
D03*
Y416142D02*
D03*
X27559Y420866D02*
D03*
Y107874D02*
D03*
X19376Y103149D02*
D03*
Y93701D02*
D03*
X27559Y88976D02*
D03*
X35742Y93701D02*
D03*
Y103149D02*
D03*
X193222D02*
D03*
Y93701D02*
D03*
X185039Y88976D02*
D03*
X176856Y93701D02*
D03*
Y103149D02*
D03*
X185039Y107874D02*
D03*
X307087D02*
D03*
X298904Y103149D02*
D03*
Y93701D02*
D03*
X307087Y88976D02*
D03*
X315270Y93701D02*
D03*
Y103149D02*
D03*
X610545D02*
D03*
Y93701D02*
D03*
X602362Y88976D02*
D03*
X594179Y93701D02*
D03*
Y103149D02*
D03*
X602362Y107874D02*
D03*
D268*
X409331Y24370D02*
D03*
X586504Y24370D02*
D03*
D269*
X606712Y239514D02*
D03*
X587027D02*
D03*
D270*
X533057D02*
D03*
X552742D02*
D03*
D271*
X246651Y392182D02*
D03*
X250214D02*
D03*
X248435Y396021D02*
D03*
Y388344D02*
D03*
X364469Y404578D02*
D03*
X356791D02*
D03*
X360630Y406358D02*
D03*
Y402795D02*
D03*
X336163D02*
D03*
Y406358D02*
D03*
X332325Y404578D02*
D03*
X340002D02*
D03*
X291283D02*
D03*
X283606D02*
D03*
X287445Y406358D02*
D03*
Y402795D02*
D03*
X311705D02*
D03*
Y406358D02*
D03*
X307866Y404578D02*
D03*
X315543D02*
D03*
M02*
