G04*
G04 #@! TF.GenerationSoftware,Altium Limited,Altium Designer,20.0.10 (225)*
G04*
G04 Layer_Color=32896*
%FSLAX25Y25*%
%MOIN*%
G70*
G01*
G75*
%ADD12C,0.00591*%
%ADD15C,0.00787*%
%ADD16C,0.01181*%
%ADD22C,0.00600*%
G36*
X207705Y246839D02*
X213610D01*
Y240934D01*
X214791Y242115D01*
Y248020D01*
X214791Y248020D01*
X214791Y248020D01*
X208886D01*
X207705Y246839D01*
D02*
G37*
G36*
X408425Y29370D02*
X414330D01*
Y23465D01*
X415512Y24646D01*
Y30551D01*
X415512Y30551D01*
X415512Y30551D01*
X409606D01*
X408425Y29370D01*
D02*
G37*
G36*
X585598Y29370D02*
X591503D01*
Y23465D01*
X592684Y24646D01*
Y30551D01*
X592684Y30551D01*
X592684Y30551D01*
X586779D01*
X585598Y29370D01*
D02*
G37*
G36*
X458994Y31700D02*
X458125D01*
Y34977D01*
X458118Y34970D01*
X458102Y34957D01*
X458076Y34934D01*
X458040Y34905D01*
X457994Y34868D01*
X457938Y34826D01*
X457876Y34777D01*
X457804Y34727D01*
X457725Y34675D01*
X457640Y34619D01*
X457548Y34563D01*
X457449Y34511D01*
X457344Y34459D01*
X457233Y34406D01*
X457118Y34360D01*
X457000Y34317D01*
Y35108D01*
X457003D01*
X457016Y35114D01*
X457033Y35121D01*
X457059Y35131D01*
X457092Y35144D01*
X457128Y35157D01*
X457171Y35177D01*
X457220Y35200D01*
X457272Y35229D01*
X457328Y35259D01*
X457390Y35292D01*
X457453Y35331D01*
X457521Y35374D01*
X457590Y35419D01*
X457663Y35472D01*
X457738Y35528D01*
X457741Y35531D01*
X457754Y35541D01*
X457777Y35561D01*
X457804Y35583D01*
X457836Y35613D01*
X457872Y35649D01*
X457912Y35688D01*
X457958Y35734D01*
X458000Y35787D01*
X458046Y35843D01*
X458092Y35902D01*
X458138Y35967D01*
X458181Y36033D01*
X458220Y36105D01*
X458256Y36180D01*
X458286Y36256D01*
X458994D01*
Y31700D01*
D02*
G37*
G36*
X279234Y22013D02*
X274561D01*
Y34723D01*
X279234D01*
Y22013D01*
D02*
G37*
G36*
X287934D02*
X283261D01*
Y34729D01*
X287934D01*
Y22013D01*
D02*
G37*
G36*
X296534D02*
X291861D01*
Y34726D01*
X296534D01*
Y22013D01*
D02*
G37*
G36*
X315487Y6061D02*
X302747D01*
Y10734D01*
X315487D01*
Y6061D01*
D02*
G37*
%LPC*%
G36*
X276912Y33936D02*
X275348D01*
Y31468D01*
D01*
Y32612D01*
X275351Y32587D01*
Y32557D01*
X275354Y32524D01*
X275356Y32483D01*
X275359Y32442D01*
X275367Y32352D01*
X275384Y32257D01*
X275403Y32167D01*
X275416Y32123D01*
X275430Y32082D01*
Y32079D01*
X275433Y32074D01*
X275438Y32063D01*
X275446Y32049D01*
X275455Y32030D01*
X275465Y32011D01*
X275490Y31962D01*
X275526Y31907D01*
X275567Y31850D01*
X275616Y31793D01*
X275670Y31738D01*
X275673Y31735D01*
X275678Y31733D01*
X275687Y31724D01*
X275700Y31716D01*
X275714Y31705D01*
X275733Y31692D01*
X275755Y31678D01*
X275780Y31662D01*
X275810Y31645D01*
X275839Y31629D01*
X275908Y31593D01*
X275984Y31561D01*
X276069Y31530D01*
X276175Y32358D01*
X276173D01*
X276167Y32361D01*
X276159D01*
X276148Y32363D01*
X276115Y32371D01*
X276080Y32385D01*
X276039Y32399D01*
X275998Y32418D01*
X275960Y32440D01*
X275930Y32467D01*
X275927Y32470D01*
X275919Y32481D01*
X275908Y32497D01*
X275894Y32522D01*
X275881Y32549D01*
X275870Y32582D01*
X275861Y32617D01*
X275859Y32658D01*
Y32666D01*
X275861Y32677D01*
Y32691D01*
X275864Y32707D01*
X275870Y32726D01*
X275883Y32773D01*
X275894Y32797D01*
X275908Y32822D01*
X275924Y32849D01*
X275943Y32874D01*
X275968Y32901D01*
X275995Y32926D01*
X276025Y32950D01*
X276061Y32972D01*
X276063D01*
X276069Y32975D01*
X276077Y32980D01*
X276091Y32986D01*
X276110Y32991D01*
X276132Y32999D01*
X276162Y33007D01*
X276194Y33018D01*
X276235Y33027D01*
X276279Y33037D01*
X276331Y33048D01*
X276388Y33059D01*
X276454Y33068D01*
X276525Y33078D01*
X276604Y33087D01*
X276691Y33095D01*
X276689Y33092D01*
X276686Y33089D01*
X276678Y33081D01*
X276667Y33070D01*
X276639Y33040D01*
X276607Y32999D01*
X276568Y32953D01*
X276533Y32901D01*
X276498Y32846D01*
X276467Y32786D01*
Y32784D01*
X276465Y32778D01*
X276462Y32770D01*
X276456Y32759D01*
X276451Y32743D01*
X276446Y32726D01*
X276437Y32704D01*
X276432Y32683D01*
X276418Y32631D01*
X276407Y32568D01*
X276399Y32500D01*
X276396Y32423D01*
Y32404D01*
X276399Y32385D01*
X276402Y32355D01*
X276405Y32322D01*
X276413Y32281D01*
X276421Y32235D01*
X276432Y32186D01*
X276448Y32134D01*
X276465Y32079D01*
X276489Y32025D01*
X276517Y31967D01*
X276549Y31910D01*
X276588Y31853D01*
X276631Y31795D01*
X276680Y31743D01*
X276683Y31741D01*
X276694Y31733D01*
X276710Y31719D01*
X276732Y31700D01*
X276760Y31681D01*
X276795Y31656D01*
X276833Y31631D01*
X276880Y31607D01*
X276929Y31580D01*
X276983Y31555D01*
X277044Y31530D01*
X277106Y31511D01*
X277174Y31492D01*
X277248Y31479D01*
X277325Y31471D01*
X277404Y31468D01*
X277434D01*
X277456Y31471D01*
X277480Y31473D01*
X277513Y31476D01*
X277546Y31479D01*
X277584Y31484D01*
X277625Y31492D01*
X277669Y31501D01*
X277759Y31528D01*
X277808Y31541D01*
X277854Y31561D01*
X277901Y31582D01*
X277947Y31607D01*
X277950Y31610D01*
X277958Y31612D01*
X277972Y31621D01*
X277988Y31634D01*
X278007Y31648D01*
X278032Y31664D01*
X278056Y31686D01*
X278086Y31708D01*
X278116Y31735D01*
X278146Y31765D01*
X278176Y31795D01*
X278206Y31831D01*
X278267Y31907D01*
X278294Y31951D01*
X278318Y31995D01*
X278321Y31997D01*
X278324Y32006D01*
X278329Y32019D01*
X278338Y32038D01*
X278348Y32063D01*
X278359Y32093D01*
X278370Y32128D01*
X278384Y32167D01*
X278395Y32208D01*
X278406Y32257D01*
X278417Y32306D01*
X278428Y32363D01*
X278436Y32421D01*
X278441Y32483D01*
X278447Y32549D01*
Y32661D01*
X278444Y32691D01*
X278441Y32729D01*
X278438Y32773D01*
X278433Y32822D01*
X278428Y32876D01*
X278419Y32931D01*
X278409Y32991D01*
X278397Y33048D01*
X278381Y33111D01*
X278362Y33171D01*
X278343Y33229D01*
X278318Y33286D01*
X278291Y33338D01*
X278288Y33340D01*
X278283Y33349D01*
X278275Y33365D01*
X278261Y33384D01*
X278245Y33406D01*
X278226Y33433D01*
X278201Y33463D01*
X278171Y33493D01*
X278138Y33529D01*
X278103Y33564D01*
X278062Y33600D01*
X278018Y33635D01*
X277969Y33671D01*
X277917Y33706D01*
X277860Y33742D01*
X277800Y33772D01*
X277797Y33775D01*
X277783Y33780D01*
X277764Y33788D01*
X277740Y33796D01*
X277704Y33810D01*
X277663Y33824D01*
X277617Y33837D01*
X277562Y33854D01*
X277502Y33870D01*
X277437Y33884D01*
X277363Y33897D01*
X277284Y33911D01*
X277199Y33919D01*
X277109Y33928D01*
X277013Y33933D01*
X276912Y33936D01*
D02*
G37*
G36*
X278395Y31146D02*
X277456D01*
X277431Y31143D01*
X277401Y31140D01*
X277363Y31137D01*
X277319Y31132D01*
X277270Y31124D01*
X277216Y31113D01*
X277161Y31097D01*
X277103Y31080D01*
X277044Y31058D01*
X276983Y31031D01*
X276926Y30998D01*
X276869Y30963D01*
X276814Y30922D01*
X276765Y30873D01*
X276762Y30870D01*
X276754Y30859D01*
X276740Y30843D01*
X276727Y30821D01*
X276705Y30793D01*
X276686Y30758D01*
X276661Y30714D01*
X276639Y30665D01*
X276615Y30610D01*
X276590Y30551D01*
X276571Y30482D01*
X276552Y30406D01*
X276536Y30324D01*
X276522Y30237D01*
X276514Y30141D01*
X276511Y30040D01*
Y29535D01*
X275400D01*
Y31146D01*
Y28607D01*
X278395D01*
Y30163D01*
X278392Y30190D01*
Y30223D01*
X278387Y30267D01*
X278381Y30313D01*
X278376Y30368D01*
X278365Y30425D01*
X278351Y30485D01*
X278338Y30545D01*
X278316Y30608D01*
X278294Y30671D01*
X278267Y30731D01*
X278234Y30791D01*
X278198Y30845D01*
X278155Y30895D01*
X278152Y30897D01*
X278144Y30905D01*
X278130Y30919D01*
X278111Y30933D01*
X278086Y30952D01*
X278056Y30974D01*
X278021Y30996D01*
X277980Y31020D01*
X277933Y31045D01*
X277884Y31066D01*
X277827Y31088D01*
X277767Y31107D01*
X277701Y31124D01*
X277630Y31135D01*
X277554Y31143D01*
X277475Y31146D01*
X278395D01*
D02*
G37*
G36*
X276418Y28145D02*
X276345D01*
X276323Y28143D01*
X276298Y28140D01*
X276268Y28137D01*
X276235Y28132D01*
X276197Y28126D01*
X276159Y28118D01*
X276118Y28107D01*
X276072Y28093D01*
X276028Y28077D01*
X275981Y28058D01*
X275935Y28039D01*
X275889Y28012D01*
X275842Y27984D01*
X275839Y27981D01*
X275831Y27976D01*
X275820Y27968D01*
X275801Y27954D01*
X275782Y27938D01*
X275758Y27919D01*
X275733Y27897D01*
X275706Y27870D01*
X275676Y27840D01*
X275646Y27807D01*
X275616Y27769D01*
X275586Y27730D01*
X275556Y27687D01*
X275526Y27640D01*
X275498Y27591D01*
X275474Y27539D01*
Y27536D01*
X275468Y27526D01*
X275463Y27509D01*
X275455Y27487D01*
X275444Y27460D01*
X275433Y27425D01*
X275422Y27386D01*
X275411Y27343D01*
X275400Y27291D01*
X275389Y27236D01*
X275378Y27179D01*
X275367Y27113D01*
X275359Y27045D01*
X275354Y26974D01*
X275351Y26898D01*
X275348Y26819D01*
Y26767D01*
X275351Y26745D01*
Y26723D01*
X275354Y26696D01*
X275356Y26633D01*
X275364Y26562D01*
X275373Y26483D01*
X275384Y26401D01*
X275400Y26313D01*
X275419Y26223D01*
X275444Y26136D01*
X275471Y26049D01*
X275504Y25967D01*
X275545Y25890D01*
X275588Y25819D01*
X275613Y25789D01*
X275640Y25759D01*
X275643Y25757D01*
X275654Y25746D01*
X275670Y25732D01*
X275695Y25713D01*
X275722Y25691D01*
X275758Y25664D01*
X275799Y25637D01*
X275845Y25609D01*
X275897Y25579D01*
X275952Y25549D01*
X276014Y25522D01*
X276080Y25497D01*
X276151Y25473D01*
X276227Y25454D01*
X276306Y25440D01*
X276388Y25429D01*
X276446Y26308D01*
X276443D01*
X276437Y26311D01*
X276424D01*
X276410Y26313D01*
X276391Y26316D01*
X276372Y26322D01*
X276323Y26333D01*
X276271Y26349D01*
X276216Y26368D01*
X276162Y26393D01*
X276115Y26423D01*
X276113Y26425D01*
X276107Y26428D01*
X276099Y26439D01*
X276088Y26450D01*
X276074Y26464D01*
X276058Y26483D01*
X276042Y26505D01*
X276025Y26529D01*
X276009Y26557D01*
X275992Y26586D01*
X275976Y26619D01*
X275962Y26658D01*
X275952Y26696D01*
X275943Y26739D01*
X275938Y26783D01*
X275935Y26832D01*
Y26851D01*
X275938Y26865D01*
Y26881D01*
X275940Y26901D01*
X275946Y26944D01*
X275957Y26993D01*
X275973Y27045D01*
X275998Y27094D01*
X276028Y27138D01*
X276033Y27143D01*
X276044Y27154D01*
X276063Y27174D01*
X276091Y27193D01*
X276121Y27212D01*
X276159Y27231D01*
X276200Y27242D01*
X276244Y27247D01*
X276249D01*
X276263Y27244D01*
X276285Y27242D01*
X276312Y27233D01*
X276345Y27223D01*
X276380Y27204D01*
X276416Y27179D01*
X276451Y27143D01*
X276456Y27138D01*
X276459Y27132D01*
X276467Y27122D01*
X276476Y27108D01*
X276484Y27092D01*
X276495Y27070D01*
X276508Y27045D01*
X276522Y27015D01*
X276536Y26982D01*
X276549Y26944D01*
X276563Y26901D01*
X276579Y26851D01*
X276596Y26797D01*
X276609Y26734D01*
X276626Y26668D01*
Y26666D01*
X276628Y26663D01*
Y26652D01*
X276631Y26641D01*
X276637Y26627D01*
X276639Y26611D01*
X276650Y26570D01*
X276664Y26518D01*
X276680Y26461D01*
X276699Y26398D01*
X276721Y26333D01*
X276746Y26262D01*
X276773Y26188D01*
X276836Y26046D01*
X276871Y25978D01*
X276907Y25912D01*
X276948Y25852D01*
X276989Y25800D01*
X276992Y25798D01*
X277000Y25789D01*
X277013Y25776D01*
X277030Y25759D01*
X277052Y25740D01*
X277079Y25718D01*
X277112Y25694D01*
X277147Y25672D01*
X277185Y25647D01*
X277229Y25623D01*
X277278Y25601D01*
X277327Y25582D01*
X277385Y25565D01*
X277442Y25552D01*
X277502Y25544D01*
X277568Y25541D01*
X277570D01*
X277578D01*
X277590D01*
X277606Y25544D01*
X277628Y25546D01*
X277652Y25549D01*
X277680Y25552D01*
X277710Y25557D01*
X277775Y25574D01*
X277849Y25598D01*
X277887Y25612D01*
X277928Y25631D01*
X277966Y25650D01*
X278004Y25675D01*
X278007Y25677D01*
X278013Y25680D01*
X278024Y25688D01*
X278037Y25699D01*
X278056Y25713D01*
X278075Y25732D01*
X278097Y25751D01*
X278122Y25776D01*
X278146Y25803D01*
X278174Y25830D01*
X278201Y25866D01*
X278226Y25901D01*
X278253Y25940D01*
X278280Y25983D01*
X278305Y26027D01*
X278327Y26076D01*
X278329Y26079D01*
X278332Y26090D01*
X278338Y26103D01*
X278346Y26125D01*
X278354Y26152D01*
X278365Y26185D01*
X278376Y26223D01*
X278387Y26270D01*
X278397Y26319D01*
X278409Y26374D01*
X278419Y26434D01*
X278428Y26499D01*
X278436Y26570D01*
X278441Y26647D01*
X278447Y26728D01*
Y25429D01*
Y26868D01*
X278444Y26909D01*
X278441Y26955D01*
X278436Y27010D01*
X278428Y27072D01*
X278419Y27138D01*
X278409Y27206D01*
X278395Y27277D01*
X278376Y27351D01*
X278357Y27425D01*
X278332Y27496D01*
X278302Y27564D01*
X278269Y27627D01*
X278231Y27687D01*
X278228Y27689D01*
X278220Y27700D01*
X278209Y27714D01*
X278190Y27736D01*
X278168Y27758D01*
X278138Y27785D01*
X278105Y27815D01*
X278067Y27845D01*
X278021Y27878D01*
X277972Y27908D01*
X277917Y27938D01*
X277854Y27968D01*
X277789Y27992D01*
X277715Y28014D01*
X277636Y28033D01*
X277551Y28047D01*
X277502Y27176D01*
X277505D01*
X277510Y27174D01*
X277521D01*
X277535Y27168D01*
X277551Y27165D01*
X277570Y27160D01*
X277614Y27143D01*
X277663Y27124D01*
X277712Y27100D01*
X277759Y27067D01*
X277797Y27029D01*
X277800Y27023D01*
X277811Y27010D01*
X277827Y26982D01*
X277843Y26950D01*
X277860Y26903D01*
X277876Y26851D01*
X277887Y26791D01*
X277890Y26720D01*
Y26693D01*
X277887Y26666D01*
X277882Y26630D01*
X277873Y26589D01*
X277860Y26551D01*
X277843Y26510D01*
X277819Y26477D01*
X277816Y26475D01*
X277808Y26464D01*
X277792Y26453D01*
X277772Y26436D01*
X277748Y26423D01*
X277720Y26409D01*
X277688Y26398D01*
X277652Y26395D01*
X277649D01*
X277641D01*
X277628Y26398D01*
X277609Y26404D01*
X277590Y26412D01*
X277568Y26423D01*
X277546Y26439D01*
X277524Y26461D01*
X277521Y26464D01*
X277513Y26475D01*
X277502Y26496D01*
X277497Y26510D01*
X277488Y26526D01*
X277480Y26546D01*
X277472Y26567D01*
X277461Y26592D01*
X277453Y26622D01*
X277442Y26652D01*
X277434Y26690D01*
X277423Y26728D01*
X277415Y26772D01*
Y26775D01*
X277412Y26780D01*
Y26788D01*
X277409Y26799D01*
X277407Y26813D01*
X277401Y26829D01*
X277393Y26870D01*
X277379Y26922D01*
X277366Y26980D01*
X277349Y27042D01*
X277333Y27111D01*
X277314Y27179D01*
X277292Y27253D01*
X277245Y27397D01*
X277224Y27466D01*
X277199Y27531D01*
X277172Y27591D01*
X277147Y27643D01*
X277145Y27646D01*
X277142Y27654D01*
X277134Y27668D01*
X277123Y27687D01*
X277109Y27709D01*
X277095Y27733D01*
X277054Y27790D01*
X277008Y27850D01*
X276951Y27916D01*
X276885Y27973D01*
X276850Y28001D01*
X276814Y28025D01*
X276811Y28028D01*
X276806Y28031D01*
X276795Y28036D01*
X276779Y28044D01*
X276762Y28052D01*
X276740Y28063D01*
X276713Y28074D01*
X276686Y28085D01*
X276653Y28096D01*
X276620Y28107D01*
X276544Y28126D01*
X276462Y28140D01*
X276418Y28145D01*
D02*
G37*
G36*
X278395Y25170D02*
Y23726D01*
X276137D01*
Y25170D01*
X278395D01*
X275400D01*
Y22800D01*
X278395D01*
Y25170D01*
D02*
G37*
%LPD*%
G36*
X276836Y33933D02*
X276809D01*
X276779Y33930D01*
X276749Y33928D01*
X276713Y33925D01*
X276637Y33917D01*
X276552Y33908D01*
X276459Y33892D01*
X276364Y33876D01*
X276265Y33854D01*
X276167Y33824D01*
X276069Y33791D01*
X275973Y33753D01*
X275883Y33706D01*
X275801Y33654D01*
X275725Y33594D01*
X275719Y33592D01*
X275709Y33578D01*
X275689Y33559D01*
X275665Y33532D01*
X275638Y33496D01*
X275605Y33455D01*
X275572Y33406D01*
X275536Y33349D01*
X275501Y33283D01*
X275468Y33212D01*
X275435Y33136D01*
X275408Y33051D01*
X275384Y32958D01*
X275364Y32863D01*
X275354Y32759D01*
X275348Y32647D01*
Y33936D01*
X276858D01*
X276836Y33933D01*
D02*
G37*
G36*
X277448Y33059D02*
X277467D01*
X277491Y33057D01*
X277546Y33046D01*
X277606Y33032D01*
X277671Y33010D01*
X277731Y32980D01*
X277762Y32961D01*
X277789Y32939D01*
X277792D01*
X277794Y32934D01*
X277811Y32917D01*
X277832Y32893D01*
X277860Y32857D01*
X277884Y32814D01*
X277906Y32762D01*
X277923Y32704D01*
X277925Y32674D01*
X277928Y32642D01*
Y32625D01*
X277925Y32614D01*
X277923Y32584D01*
X277912Y32546D01*
X277898Y32502D01*
X277876Y32459D01*
X277843Y32412D01*
X277824Y32390D01*
X277802Y32369D01*
X277800D01*
X277797Y32363D01*
X277789Y32358D01*
X277778Y32352D01*
X277767Y32344D01*
X277750Y32333D01*
X277731Y32325D01*
X277710Y32314D01*
X277685Y32303D01*
X277655Y32295D01*
X277625Y32284D01*
X277592Y32276D01*
X277554Y32270D01*
X277516Y32265D01*
X277475Y32259D01*
X277428D01*
X277426D01*
X277417D01*
X277404D01*
X277387Y32262D01*
X277366D01*
X277341Y32265D01*
X277286Y32273D01*
X277224Y32287D01*
X277161Y32306D01*
X277098Y32333D01*
X277071Y32352D01*
X277044Y32371D01*
X277041Y32374D01*
X277038Y32377D01*
X277024Y32393D01*
X277003Y32418D01*
X276978Y32451D01*
X276953Y32491D01*
X276934Y32541D01*
X276918Y32595D01*
X276915Y32625D01*
X276912Y32655D01*
Y32672D01*
X276915Y32685D01*
X276921Y32715D01*
X276929Y32756D01*
X276945Y32803D01*
X276967Y32852D01*
X277000Y32898D01*
X277019Y32923D01*
X277041Y32945D01*
X277044Y32947D01*
X277046Y32950D01*
X277054Y32956D01*
X277065Y32964D01*
X277079Y32972D01*
X277093Y32983D01*
X277112Y32994D01*
X277134Y33005D01*
X277158Y33016D01*
X277185Y33024D01*
X277248Y33043D01*
X277322Y33057D01*
X277363Y33062D01*
X277407D01*
X277409D01*
X277417D01*
X277431D01*
X277448Y33059D01*
D02*
G37*
G36*
X277472Y30242D02*
X277497Y30239D01*
X277532Y30234D01*
X277568Y30220D01*
X277609Y30204D01*
X277649Y30182D01*
X277688Y30149D01*
X277693Y30144D01*
X277704Y30130D01*
X277710Y30119D01*
X277718Y30106D01*
X277729Y30089D01*
X277737Y30070D01*
X277745Y30048D01*
X277756Y30024D01*
X277764Y29994D01*
X277770Y29961D01*
X277778Y29925D01*
X277781Y29887D01*
X277786Y29843D01*
Y29535D01*
X277117D01*
Y29783D01*
X277120Y29802D01*
Y29824D01*
X277123Y29849D01*
X277128Y29906D01*
X277139Y29969D01*
X277155Y30032D01*
X277180Y30089D01*
X277194Y30114D01*
X277210Y30136D01*
X277216Y30141D01*
X277226Y30152D01*
X277248Y30171D01*
X277275Y30190D01*
X277308Y30209D01*
X277349Y30228D01*
X277396Y30239D01*
X277448Y30245D01*
X277450D01*
X277453D01*
X277461D01*
X277472Y30242D01*
D02*
G37*
%LPC*%
G36*
X285017Y33941D02*
X284048D01*
X284952D01*
X284935Y33938D01*
X284916D01*
X284892Y33936D01*
X284867Y33933D01*
X284837Y33928D01*
X284772Y33917D01*
X284701Y33897D01*
X284627Y33873D01*
X284553Y33837D01*
X284550D01*
X284545Y33832D01*
X284534Y33827D01*
X284520Y33818D01*
X284504Y33810D01*
X284488Y33796D01*
X284444Y33766D01*
X284395Y33731D01*
X284346Y33687D01*
X284297Y33638D01*
X284253Y33584D01*
Y33581D01*
X284247Y33578D01*
X284242Y33567D01*
X284237Y33556D01*
X284226Y33542D01*
X284217Y33523D01*
X284207Y33504D01*
X284193Y33480D01*
X284168Y33425D01*
X284144Y33362D01*
X284119Y33289D01*
X284097Y33209D01*
Y33207D01*
X284095Y33199D01*
X284092Y33188D01*
X284089Y33171D01*
X284086Y33149D01*
X284081Y33125D01*
X284078Y33098D01*
X284073Y33065D01*
X284067Y33032D01*
X284065Y32994D01*
X284056Y32915D01*
X284051Y32825D01*
X284048Y32732D01*
Y32565D01*
Y32685D01*
X284051Y32653D01*
Y32614D01*
X284054Y32568D01*
X284056Y32519D01*
X284062Y32464D01*
X284067Y32404D01*
X284075Y32347D01*
X284095Y32224D01*
X284108Y32167D01*
X284122Y32109D01*
X284141Y32055D01*
X284160Y32006D01*
X284163Y32003D01*
X284166Y31995D01*
X284171Y31981D01*
X284182Y31965D01*
X284193Y31943D01*
X284207Y31918D01*
X284245Y31864D01*
X284291Y31801D01*
X284346Y31738D01*
X284414Y31678D01*
X284449Y31651D01*
X284490Y31623D01*
X284493D01*
X284501Y31618D01*
X284512Y31612D01*
X284529Y31604D01*
X284550Y31593D01*
X284575Y31582D01*
X284602Y31571D01*
X284632Y31561D01*
X284668Y31547D01*
X284706Y31536D01*
X284788Y31514D01*
X284881Y31501D01*
X284930Y31498D01*
X284979Y31495D01*
X284048D01*
X287147D01*
Y32710D01*
X287144Y32726D01*
Y32767D01*
X287139Y32816D01*
X287136Y32874D01*
X287128Y32936D01*
X287119Y33005D01*
X287106Y33076D01*
X287092Y33147D01*
X287073Y33220D01*
X287051Y33294D01*
X287024Y33365D01*
X286994Y33433D01*
X286958Y33496D01*
X286917Y33553D01*
X286915Y33556D01*
X286906Y33567D01*
X286893Y33581D01*
X286876Y33600D01*
X286855Y33622D01*
X286827Y33646D01*
X286794Y33671D01*
X286759Y33698D01*
X286721Y33726D01*
X286677Y33750D01*
X286628Y33775D01*
X286579Y33796D01*
X286524Y33816D01*
X286467Y33829D01*
X286404Y33840D01*
X286341Y33843D01*
X286339D01*
X286333D01*
X286322D01*
X286306Y33840D01*
X286290D01*
X286268Y33837D01*
X286243Y33835D01*
X286219Y33829D01*
X286158Y33816D01*
X286096Y33794D01*
X286027Y33766D01*
X285962Y33728D01*
X285959D01*
X285956Y33726D01*
X285940Y33712D01*
X285913Y33690D01*
X285880Y33663D01*
X285842Y33625D01*
X285801Y33578D01*
X285754Y33523D01*
X285708Y33458D01*
Y33461D01*
X285702Y33469D01*
X285697Y33483D01*
X285686Y33499D01*
X285675Y33518D01*
X285662Y33542D01*
X285626Y33594D01*
X285582Y33654D01*
X285530Y33715D01*
X285468Y33772D01*
X285435Y33796D01*
X285400Y33821D01*
X285397Y33824D01*
X285391Y33827D01*
X285380Y33832D01*
X285367Y33840D01*
X285348Y33848D01*
X285326Y33859D01*
X285301Y33870D01*
X285274Y33881D01*
X285244Y33892D01*
X285211Y33903D01*
X285140Y33922D01*
X285058Y33936D01*
X285017Y33941D01*
D02*
G37*
G36*
X287095Y31146D02*
D01*
Y30485D01*
Y31146D01*
D02*
G37*
G36*
D02*
X286156D01*
X286131Y31143D01*
X286101Y31140D01*
X286063Y31137D01*
X286019Y31132D01*
X285970Y31124D01*
X285915Y31113D01*
X285861Y31097D01*
X285804Y31080D01*
X285743Y31058D01*
X285683Y31031D01*
X285626Y30998D01*
X285569Y30963D01*
X285514Y30922D01*
X285465Y30873D01*
X285462Y30870D01*
X285454Y30859D01*
X285440Y30843D01*
X285427Y30821D01*
X285405Y30793D01*
X285386Y30758D01*
X285361Y30714D01*
X285339Y30665D01*
X285315Y30610D01*
X285290Y30551D01*
X285271Y30482D01*
X285252Y30406D01*
X285236Y30324D01*
X285222Y30237D01*
X285214Y30141D01*
X285211Y30040D01*
Y29535D01*
X284100D01*
Y28607D01*
X287095D01*
Y30182D01*
Y30163D01*
X287092Y30190D01*
Y30223D01*
X287087Y30267D01*
X287081Y30313D01*
X287076Y30368D01*
X287065Y30425D01*
X287051Y30485D01*
X287037Y30545D01*
X287016Y30608D01*
X286994Y30671D01*
X286966Y30731D01*
X286934Y30791D01*
X286898Y30845D01*
X286855Y30895D01*
X286852Y30897D01*
X286844Y30905D01*
X286830Y30919D01*
X286811Y30933D01*
X286786Y30952D01*
X286756Y30974D01*
X286721Y30996D01*
X286680Y31020D01*
X286633Y31045D01*
X286584Y31066D01*
X286527Y31088D01*
X286467Y31107D01*
X286401Y31124D01*
X286330Y31135D01*
X286254Y31143D01*
X286175Y31146D01*
X287095D01*
D02*
G37*
G36*
X285118Y28145D02*
X285045D01*
X285023Y28143D01*
X284998Y28140D01*
X284968Y28137D01*
X284935Y28132D01*
X284897Y28126D01*
X284859Y28118D01*
X284818Y28107D01*
X284772Y28093D01*
X284728Y28077D01*
X284682Y28058D01*
X284635Y28039D01*
X284589Y28012D01*
X284542Y27984D01*
X284540Y27981D01*
X284531Y27976D01*
X284520Y27968D01*
X284501Y27954D01*
X284482Y27938D01*
X284458Y27919D01*
X284433Y27897D01*
X284406Y27870D01*
X284376Y27840D01*
X284346Y27807D01*
X284316Y27769D01*
X284286Y27730D01*
X284256Y27687D01*
X284226Y27640D01*
X284198Y27591D01*
X284174Y27539D01*
Y27536D01*
X284168Y27526D01*
X284163Y27509D01*
X284155Y27487D01*
X284144Y27460D01*
X284133Y27425D01*
X284122Y27386D01*
X284111Y27343D01*
X284100Y27291D01*
X284089Y27236D01*
X284078Y27179D01*
X284067Y27113D01*
X284059Y27045D01*
X284054Y26974D01*
X284051Y26898D01*
X284048Y26819D01*
Y26767D01*
X284051Y26745D01*
Y26723D01*
X284054Y26696D01*
X284056Y26633D01*
X284065Y26562D01*
X284073Y26483D01*
X284084Y26401D01*
X284100Y26313D01*
X284119Y26223D01*
X284144Y26136D01*
X284171Y26049D01*
X284204Y25967D01*
X284245Y25890D01*
X284288Y25819D01*
X284313Y25789D01*
X284340Y25759D01*
X284343Y25757D01*
X284354Y25746D01*
X284370Y25732D01*
X284395Y25713D01*
X284422Y25691D01*
X284458Y25664D01*
X284499Y25637D01*
X284545Y25609D01*
X284597Y25579D01*
X284651Y25549D01*
X284714Y25522D01*
X284780Y25497D01*
X284851Y25473D01*
X284927Y25454D01*
X285006Y25440D01*
X285088Y25429D01*
X285146Y26308D01*
X285143D01*
X285137Y26311D01*
X285124D01*
X285110Y26313D01*
X285091Y26316D01*
X285072Y26322D01*
X285023Y26333D01*
X284971Y26349D01*
X284916Y26368D01*
X284862Y26393D01*
X284815Y26423D01*
X284812Y26425D01*
X284807Y26428D01*
X284799Y26439D01*
X284788Y26450D01*
X284774Y26464D01*
X284758Y26483D01*
X284742Y26505D01*
X284725Y26529D01*
X284709Y26557D01*
X284692Y26586D01*
X284676Y26619D01*
X284662Y26658D01*
X284651Y26696D01*
X284643Y26739D01*
X284638Y26783D01*
X284635Y26832D01*
Y26851D01*
X284638Y26865D01*
Y26881D01*
X284641Y26901D01*
X284646Y26944D01*
X284657Y26993D01*
X284673Y27045D01*
X284698Y27094D01*
X284728Y27138D01*
X284733Y27143D01*
X284744Y27154D01*
X284763Y27174D01*
X284791Y27193D01*
X284821Y27212D01*
X284859Y27231D01*
X284900Y27242D01*
X284944Y27247D01*
X284949D01*
X284963Y27244D01*
X284984Y27242D01*
X285012Y27233D01*
X285045Y27223D01*
X285080Y27204D01*
X285116Y27179D01*
X285151Y27143D01*
X285156Y27138D01*
X285159Y27132D01*
X285167Y27122D01*
X285176Y27108D01*
X285184Y27092D01*
X285195Y27070D01*
X285208Y27045D01*
X285222Y27015D01*
X285236Y26982D01*
X285249Y26944D01*
X285263Y26901D01*
X285279Y26851D01*
X285296Y26797D01*
X285309Y26734D01*
X285326Y26668D01*
Y26666D01*
X285329Y26663D01*
Y26652D01*
X285331Y26641D01*
X285337Y26627D01*
X285339Y26611D01*
X285350Y26570D01*
X285364Y26518D01*
X285380Y26461D01*
X285400Y26398D01*
X285421Y26333D01*
X285446Y26262D01*
X285473Y26188D01*
X285536Y26046D01*
X285572Y25978D01*
X285607Y25912D01*
X285648Y25852D01*
X285689Y25800D01*
X285692Y25798D01*
X285700Y25789D01*
X285713Y25776D01*
X285730Y25759D01*
X285752Y25740D01*
X285779Y25718D01*
X285812Y25694D01*
X285847Y25672D01*
X285885Y25647D01*
X285929Y25623D01*
X285978Y25601D01*
X286027Y25582D01*
X286085Y25565D01*
X286142Y25552D01*
X286202Y25544D01*
X286268Y25541D01*
X286270D01*
X286279D01*
X286290D01*
X286306Y25544D01*
X286328Y25546D01*
X286352Y25549D01*
X286380Y25552D01*
X286410Y25557D01*
X286475Y25574D01*
X286549Y25598D01*
X286587Y25612D01*
X286628Y25631D01*
X286666Y25650D01*
X286704Y25675D01*
X286707Y25677D01*
X286713Y25680D01*
X286723Y25688D01*
X286737Y25699D01*
X286756Y25713D01*
X286775Y25732D01*
X286797Y25751D01*
X286822Y25776D01*
X286846Y25803D01*
X286874Y25830D01*
X286901Y25866D01*
X286926Y25901D01*
X286953Y25940D01*
X286980Y25983D01*
X287005Y26027D01*
X287027Y26076D01*
X287029Y26079D01*
X287032Y26090D01*
X287037Y26103D01*
X287046Y26125D01*
X287054Y26152D01*
X287065Y26185D01*
X287076Y26223D01*
X287087Y26270D01*
X287098Y26319D01*
X287108Y26374D01*
X287119Y26434D01*
X287128Y26499D01*
X287136Y26570D01*
X287141Y26647D01*
X287147Y26728D01*
Y25429D01*
Y26868D01*
X287144Y26909D01*
X287141Y26955D01*
X287136Y27010D01*
X287128Y27072D01*
X287119Y27138D01*
X287108Y27206D01*
X287095Y27277D01*
X287076Y27351D01*
X287057Y27425D01*
X287032Y27496D01*
X287002Y27564D01*
X286969Y27627D01*
X286931Y27687D01*
X286928Y27689D01*
X286920Y27700D01*
X286909Y27714D01*
X286890Y27736D01*
X286868Y27758D01*
X286838Y27785D01*
X286805Y27815D01*
X286767Y27845D01*
X286721Y27878D01*
X286672Y27908D01*
X286617Y27938D01*
X286554Y27968D01*
X286489Y27992D01*
X286415Y28014D01*
X286336Y28033D01*
X286251Y28047D01*
X286202Y27176D01*
X286205D01*
X286210Y27174D01*
X286221D01*
X286235Y27168D01*
X286251Y27165D01*
X286270Y27160D01*
X286314Y27143D01*
X286363Y27124D01*
X286412Y27100D01*
X286459Y27067D01*
X286497Y27029D01*
X286500Y27023D01*
X286511Y27010D01*
X286527Y26982D01*
X286543Y26950D01*
X286560Y26903D01*
X286576Y26851D01*
X286587Y26791D01*
X286590Y26720D01*
Y26693D01*
X286587Y26666D01*
X286582Y26630D01*
X286573Y26589D01*
X286560Y26551D01*
X286543Y26510D01*
X286519Y26477D01*
X286516Y26475D01*
X286508Y26464D01*
X286491Y26453D01*
X286472Y26436D01*
X286448Y26423D01*
X286420Y26409D01*
X286388Y26398D01*
X286352Y26395D01*
X286350D01*
X286341D01*
X286328Y26398D01*
X286309Y26404D01*
X286290Y26412D01*
X286268Y26423D01*
X286246Y26439D01*
X286224Y26461D01*
X286221Y26464D01*
X286213Y26475D01*
X286202Y26496D01*
X286197Y26510D01*
X286189Y26526D01*
X286180Y26546D01*
X286172Y26567D01*
X286161Y26592D01*
X286153Y26622D01*
X286142Y26652D01*
X286134Y26690D01*
X286123Y26728D01*
X286115Y26772D01*
Y26775D01*
X286112Y26780D01*
Y26788D01*
X286109Y26799D01*
X286107Y26813D01*
X286101Y26829D01*
X286093Y26870D01*
X286079Y26922D01*
X286066Y26980D01*
X286049Y27042D01*
X286033Y27111D01*
X286014Y27179D01*
X285992Y27253D01*
X285946Y27397D01*
X285924Y27466D01*
X285899Y27531D01*
X285872Y27591D01*
X285847Y27643D01*
X285844Y27646D01*
X285842Y27654D01*
X285834Y27668D01*
X285823Y27687D01*
X285809Y27709D01*
X285795Y27733D01*
X285754Y27790D01*
X285708Y27850D01*
X285651Y27916D01*
X285585Y27973D01*
X285550Y28001D01*
X285514Y28025D01*
X285511Y28028D01*
X285506Y28031D01*
X285495Y28036D01*
X285479Y28044D01*
X285462Y28052D01*
X285440Y28063D01*
X285413Y28074D01*
X285386Y28085D01*
X285353Y28096D01*
X285320Y28107D01*
X285244Y28126D01*
X285162Y28140D01*
X285118Y28145D01*
D02*
G37*
G36*
X287095Y25170D02*
Y23726D01*
X284837D01*
Y25170D01*
X287095D01*
X284100D01*
Y22800D01*
X287095D01*
Y25170D01*
D02*
G37*
%LPD*%
G36*
X286314Y33048D02*
X286344Y33046D01*
X286380Y33040D01*
X286420Y33027D01*
X286461Y33010D01*
X286502Y32986D01*
X286541Y32953D01*
X286546Y32947D01*
X286557Y32936D01*
X286571Y32915D01*
X286590Y32887D01*
X286609Y32852D01*
X286623Y32811D01*
X286633Y32762D01*
X286639Y32710D01*
Y32696D01*
X286636Y32685D01*
X286633Y32658D01*
X286628Y32623D01*
X286614Y32584D01*
X286598Y32543D01*
X286576Y32502D01*
X286543Y32464D01*
X286538Y32462D01*
X286527Y32451D01*
X286505Y32434D01*
X286478Y32418D01*
X286442Y32401D01*
X286399Y32385D01*
X286352Y32374D01*
X286298Y32371D01*
X286295D01*
X286292D01*
X286284D01*
X286273Y32374D01*
X286243Y32377D01*
X286208Y32382D01*
X286169Y32396D01*
X286126Y32412D01*
X286085Y32434D01*
X286047Y32467D01*
X286044Y32472D01*
X286033Y32483D01*
X286017Y32505D01*
X286000Y32535D01*
X285984Y32571D01*
X285967Y32614D01*
X285956Y32666D01*
X285954Y32724D01*
Y32737D01*
X285956Y32748D01*
X285959Y32773D01*
X285965Y32805D01*
X285976Y32844D01*
X285992Y32882D01*
X286017Y32923D01*
X286047Y32958D01*
X286052Y32961D01*
X286063Y32972D01*
X286085Y32988D01*
X286112Y33005D01*
X286147Y33021D01*
X286189Y33037D01*
X286235Y33048D01*
X286290Y33051D01*
X286292D01*
X286298D01*
X286306D01*
X286314Y33048D01*
D02*
G37*
G36*
X285042Y33103D02*
X285058D01*
X285080Y33100D01*
X285124Y33092D01*
X285176Y33076D01*
X285230Y33054D01*
X285285Y33027D01*
X285309Y33007D01*
X285334Y32986D01*
X285337D01*
X285339Y32980D01*
X285353Y32964D01*
X285375Y32939D01*
X285400Y32906D01*
X285421Y32866D01*
X285443Y32819D01*
X285457Y32767D01*
X285462Y32740D01*
Y32693D01*
X285459Y32683D01*
X285457Y32655D01*
X285446Y32617D01*
X285432Y32576D01*
X285410Y32530D01*
X285380Y32483D01*
X285361Y32462D01*
X285339Y32440D01*
X285334Y32434D01*
X285326Y32429D01*
X285318Y32421D01*
X285290Y32404D01*
X285252Y32382D01*
X285203Y32361D01*
X285148Y32344D01*
X285080Y32330D01*
X285006Y32325D01*
X285004D01*
X284998D01*
X284987D01*
X284974Y32328D01*
X284957D01*
X284938Y32330D01*
X284892Y32341D01*
X284843Y32355D01*
X284788Y32377D01*
X284733Y32407D01*
X284709Y32423D01*
X284684Y32445D01*
Y32448D01*
X284679Y32451D01*
X284665Y32467D01*
X284643Y32491D01*
X284621Y32524D01*
X284600Y32565D01*
X284578Y32612D01*
X284564Y32664D01*
X284561Y32691D01*
X284559Y32718D01*
Y32732D01*
X284561Y32743D01*
X284564Y32773D01*
X284575Y32808D01*
X284589Y32849D01*
X284611Y32895D01*
X284643Y32939D01*
X284662Y32964D01*
X284684Y32986D01*
X284687Y32988D01*
X284690Y32991D01*
X284698Y32997D01*
X284709Y33005D01*
X284736Y33024D01*
X284774Y33046D01*
X284821Y33068D01*
X284875Y33087D01*
X284938Y33100D01*
X284974Y33106D01*
X285009D01*
X285012D01*
X285017D01*
X285028D01*
X285042Y33103D01*
D02*
G37*
G36*
X287147Y31495D02*
X285004D01*
X285023Y31498D01*
X285047D01*
X285072Y31501D01*
X285102Y31506D01*
X285135Y31511D01*
X285206Y31525D01*
X285279Y31547D01*
X285356Y31577D01*
X285391Y31593D01*
X285427Y31615D01*
X285430Y31618D01*
X285435Y31621D01*
X285443Y31629D01*
X285457Y31640D01*
X285473Y31651D01*
X285490Y31667D01*
X285509Y31686D01*
X285530Y31708D01*
X285552Y31733D01*
X285577Y31763D01*
X285599Y31793D01*
X285623Y31828D01*
X285645Y31864D01*
X285667Y31905D01*
X285689Y31948D01*
X285708Y31995D01*
Y31992D01*
X285713Y31986D01*
X285719Y31975D01*
X285727Y31962D01*
X285735Y31945D01*
X285749Y31929D01*
X285776Y31885D01*
X285812Y31839D01*
X285850Y31790D01*
X285896Y31746D01*
X285943Y31708D01*
X285946D01*
X285951Y31703D01*
X285959Y31697D01*
X285973Y31689D01*
X285989Y31681D01*
X286011Y31670D01*
X286033Y31659D01*
X286060Y31648D01*
X286118Y31626D01*
X286186Y31607D01*
X286265Y31593D01*
X286306Y31591D01*
X286347Y31588D01*
X286352D01*
X286363D01*
X286382Y31591D01*
X286410Y31593D01*
X286442Y31599D01*
X286478Y31607D01*
X286519Y31618D01*
X286565Y31631D01*
X286612Y31651D01*
X286664Y31675D01*
X286713Y31703D01*
X286765Y31735D01*
X286816Y31776D01*
X286865Y31823D01*
X286915Y31877D01*
X286961Y31940D01*
X286964Y31943D01*
X286969Y31954D01*
X286977Y31967D01*
X286991Y31989D01*
X287005Y32019D01*
X287021Y32052D01*
X287037Y32090D01*
X287054Y32134D01*
X287070Y32183D01*
X287089Y32240D01*
X287103Y32300D01*
X287117Y32363D01*
X287130Y32434D01*
X287139Y32508D01*
X287144Y32587D01*
X287147Y32669D01*
Y31495D01*
D02*
G37*
G36*
X286172Y30242D02*
X286197Y30239D01*
X286232Y30234D01*
X286268Y30220D01*
X286309Y30204D01*
X286350Y30182D01*
X286388Y30149D01*
X286393Y30144D01*
X286404Y30130D01*
X286410Y30119D01*
X286418Y30106D01*
X286429Y30089D01*
X286437Y30070D01*
X286445Y30048D01*
X286456Y30024D01*
X286464Y29994D01*
X286470Y29961D01*
X286478Y29925D01*
X286481Y29887D01*
X286486Y29843D01*
Y29535D01*
X285817D01*
Y29783D01*
X285820Y29802D01*
Y29824D01*
X285823Y29849D01*
X285828Y29906D01*
X285839Y29969D01*
X285855Y30032D01*
X285880Y30089D01*
X285894Y30114D01*
X285910Y30136D01*
X285915Y30141D01*
X285926Y30152D01*
X285948Y30171D01*
X285976Y30190D01*
X286008Y30209D01*
X286049Y30228D01*
X286096Y30239D01*
X286147Y30245D01*
X286150D01*
X286153D01*
X286161D01*
X286172Y30242D01*
D02*
G37*
%LPC*%
G36*
X295695Y33938D02*
X292700D01*
X295132D01*
X295130Y33936D01*
X295119Y33925D01*
X295105Y33908D01*
X295083Y33887D01*
X295056Y33859D01*
X295023Y33827D01*
X294988Y33791D01*
X294947Y33753D01*
X294903Y33712D01*
X294854Y33671D01*
X294805Y33627D01*
X294750Y33581D01*
X294636Y33493D01*
X294513Y33409D01*
X294507Y33406D01*
X294494Y33398D01*
X294472Y33384D01*
X294442Y33365D01*
X294404Y33343D01*
X294360Y33319D01*
X294308Y33291D01*
X294248Y33261D01*
X294185Y33229D01*
X294114Y33196D01*
X294040Y33163D01*
X293961Y33128D01*
X293879Y33095D01*
X293792Y33062D01*
X293705Y33032D01*
X293612Y33002D01*
X293606D01*
X293595Y32997D01*
X293574Y32991D01*
X293544Y32983D01*
X293505Y32972D01*
X293462Y32961D01*
X293412Y32950D01*
X293353Y32936D01*
X293290Y32923D01*
X293221Y32912D01*
X293145Y32898D01*
X293066Y32885D01*
X292981Y32874D01*
X292891Y32863D01*
X292798Y32852D01*
X292700Y32844D01*
Y32014D01*
X292703D01*
X292708D01*
X292719Y32017D01*
X292733Y32019D01*
X292749Y32022D01*
X292771Y32025D01*
X292796Y32027D01*
X292823Y32033D01*
X292853Y32036D01*
X292886Y32041D01*
X292957Y32055D01*
X293039Y32071D01*
X293129Y32087D01*
X293221Y32107D01*
X293322Y32131D01*
X293424Y32156D01*
X293527Y32183D01*
X293732Y32246D01*
X293833Y32281D01*
X293929Y32320D01*
X293931D01*
X293934Y32322D01*
X293942Y32325D01*
X293950Y32330D01*
X293978Y32341D01*
X294016Y32361D01*
X294062Y32382D01*
X294117Y32412D01*
X294177Y32445D01*
X294248Y32483D01*
X294324Y32527D01*
X294406Y32576D01*
X294494Y32631D01*
X294586Y32691D01*
X294685Y32756D01*
X294786Y32830D01*
X294887Y32906D01*
X294993Y32988D01*
Y31509D01*
X292700D01*
X295695D01*
Y33938D01*
D02*
G37*
G36*
Y31146D02*
D01*
Y30485D01*
Y31146D01*
D02*
G37*
G36*
D02*
X294756D01*
X294731Y31143D01*
X294701Y31140D01*
X294663Y31137D01*
X294619Y31132D01*
X294570Y31124D01*
X294515Y31113D01*
X294461Y31097D01*
X294404Y31080D01*
X294343Y31058D01*
X294283Y31031D01*
X294226Y30998D01*
X294169Y30963D01*
X294114Y30922D01*
X294065Y30873D01*
X294062Y30870D01*
X294054Y30859D01*
X294040Y30843D01*
X294027Y30821D01*
X294005Y30793D01*
X293986Y30758D01*
X293961Y30714D01*
X293939Y30665D01*
X293915Y30610D01*
X293890Y30551D01*
X293871Y30482D01*
X293852Y30406D01*
X293836Y30324D01*
X293822Y30237D01*
X293814Y30141D01*
X293811Y30040D01*
Y29535D01*
X292700D01*
Y28607D01*
X295695D01*
Y30182D01*
Y30163D01*
X295692Y30190D01*
Y30223D01*
X295687Y30267D01*
X295681Y30313D01*
X295676Y30368D01*
X295665Y30425D01*
X295651Y30485D01*
X295637Y30545D01*
X295616Y30608D01*
X295594Y30671D01*
X295567Y30731D01*
X295534Y30791D01*
X295498Y30845D01*
X295455Y30895D01*
X295452Y30897D01*
X295444Y30905D01*
X295430Y30919D01*
X295411Y30933D01*
X295386Y30952D01*
X295356Y30974D01*
X295321Y30996D01*
X295280Y31020D01*
X295233Y31045D01*
X295184Y31066D01*
X295127Y31088D01*
X295067Y31107D01*
X295001Y31124D01*
X294930Y31135D01*
X294854Y31143D01*
X294775Y31146D01*
X295695D01*
D02*
G37*
G36*
X293718Y28145D02*
X293645D01*
X293623Y28143D01*
X293598Y28140D01*
X293568Y28137D01*
X293535Y28132D01*
X293497Y28126D01*
X293459Y28118D01*
X293418Y28107D01*
X293372Y28093D01*
X293328Y28077D01*
X293282Y28058D01*
X293235Y28039D01*
X293189Y28012D01*
X293142Y27984D01*
X293140Y27981D01*
X293131Y27976D01*
X293120Y27968D01*
X293101Y27954D01*
X293082Y27938D01*
X293058Y27919D01*
X293033Y27897D01*
X293006Y27870D01*
X292976Y27840D01*
X292946Y27807D01*
X292916Y27769D01*
X292886Y27730D01*
X292856Y27687D01*
X292826Y27640D01*
X292798Y27591D01*
X292774Y27539D01*
Y27536D01*
X292768Y27526D01*
X292763Y27509D01*
X292755Y27487D01*
X292744Y27460D01*
X292733Y27425D01*
X292722Y27386D01*
X292711Y27343D01*
X292700Y27291D01*
X292689Y27236D01*
X292678Y27179D01*
X292667Y27113D01*
X292659Y27045D01*
X292654Y26974D01*
X292651Y26898D01*
X292648Y26819D01*
Y26767D01*
X292651Y26745D01*
Y26723D01*
X292654Y26696D01*
X292656Y26633D01*
X292665Y26562D01*
X292673Y26483D01*
X292684Y26401D01*
X292700Y26313D01*
X292719Y26223D01*
X292744Y26136D01*
X292771Y26049D01*
X292804Y25967D01*
X292845Y25890D01*
X292888Y25819D01*
X292913Y25789D01*
X292940Y25759D01*
X292943Y25757D01*
X292954Y25746D01*
X292970Y25732D01*
X292995Y25713D01*
X293022Y25691D01*
X293058Y25664D01*
X293099Y25637D01*
X293145Y25609D01*
X293197Y25579D01*
X293251Y25549D01*
X293314Y25522D01*
X293380Y25497D01*
X293451Y25473D01*
X293527Y25454D01*
X293606Y25440D01*
X293688Y25429D01*
X293746Y26308D01*
X293743D01*
X293737Y26311D01*
X293724D01*
X293710Y26313D01*
X293691Y26316D01*
X293672Y26322D01*
X293623Y26333D01*
X293571Y26349D01*
X293516Y26368D01*
X293462Y26393D01*
X293415Y26423D01*
X293412Y26425D01*
X293407Y26428D01*
X293399Y26439D01*
X293388Y26450D01*
X293374Y26464D01*
X293358Y26483D01*
X293342Y26505D01*
X293325Y26529D01*
X293309Y26557D01*
X293292Y26586D01*
X293276Y26619D01*
X293262Y26658D01*
X293251Y26696D01*
X293243Y26739D01*
X293238Y26783D01*
X293235Y26832D01*
Y26851D01*
X293238Y26865D01*
Y26881D01*
X293240Y26901D01*
X293246Y26944D01*
X293257Y26993D01*
X293273Y27045D01*
X293298Y27094D01*
X293328Y27138D01*
X293333Y27143D01*
X293344Y27154D01*
X293363Y27174D01*
X293391Y27193D01*
X293421Y27212D01*
X293459Y27231D01*
X293500Y27242D01*
X293544Y27247D01*
X293549D01*
X293563Y27244D01*
X293584Y27242D01*
X293612Y27233D01*
X293645Y27223D01*
X293680Y27204D01*
X293716Y27179D01*
X293751Y27143D01*
X293757Y27138D01*
X293759Y27132D01*
X293767Y27122D01*
X293776Y27108D01*
X293784Y27092D01*
X293795Y27070D01*
X293808Y27045D01*
X293822Y27015D01*
X293836Y26982D01*
X293849Y26944D01*
X293863Y26901D01*
X293879Y26851D01*
X293896Y26797D01*
X293909Y26734D01*
X293926Y26668D01*
Y26666D01*
X293929Y26663D01*
Y26652D01*
X293931Y26641D01*
X293937Y26627D01*
X293939Y26611D01*
X293950Y26570D01*
X293964Y26518D01*
X293980Y26461D01*
X294000Y26398D01*
X294021Y26333D01*
X294046Y26262D01*
X294073Y26188D01*
X294136Y26046D01*
X294172Y25978D01*
X294207Y25912D01*
X294248Y25852D01*
X294289Y25800D01*
X294292Y25798D01*
X294300Y25789D01*
X294313Y25776D01*
X294330Y25759D01*
X294352Y25740D01*
X294379Y25718D01*
X294412Y25694D01*
X294447Y25672D01*
X294485Y25647D01*
X294529Y25623D01*
X294578Y25601D01*
X294627Y25582D01*
X294685Y25565D01*
X294742Y25552D01*
X294802Y25544D01*
X294868Y25541D01*
X294870D01*
X294879D01*
X294889D01*
X294906Y25544D01*
X294928Y25546D01*
X294952Y25549D01*
X294980Y25552D01*
X295010Y25557D01*
X295075Y25574D01*
X295149Y25598D01*
X295187Y25612D01*
X295228Y25631D01*
X295266Y25650D01*
X295304Y25675D01*
X295307Y25677D01*
X295313Y25680D01*
X295323Y25688D01*
X295337Y25699D01*
X295356Y25713D01*
X295375Y25732D01*
X295397Y25751D01*
X295422Y25776D01*
X295446Y25803D01*
X295474Y25830D01*
X295501Y25866D01*
X295526Y25901D01*
X295553Y25940D01*
X295580Y25983D01*
X295605Y26027D01*
X295627Y26076D01*
X295629Y26079D01*
X295632Y26090D01*
X295637Y26103D01*
X295646Y26125D01*
X295654Y26152D01*
X295665Y26185D01*
X295676Y26223D01*
X295687Y26270D01*
X295697Y26319D01*
X295708Y26374D01*
X295719Y26434D01*
X295728Y26499D01*
X295736Y26570D01*
X295741Y26647D01*
X295747Y26728D01*
Y25429D01*
Y26868D01*
X295744Y26909D01*
X295741Y26955D01*
X295736Y27010D01*
X295728Y27072D01*
X295719Y27138D01*
X295708Y27206D01*
X295695Y27277D01*
X295676Y27351D01*
X295657Y27425D01*
X295632Y27496D01*
X295602Y27564D01*
X295569Y27627D01*
X295531Y27687D01*
X295528Y27689D01*
X295520Y27700D01*
X295509Y27714D01*
X295490Y27736D01*
X295468Y27758D01*
X295438Y27785D01*
X295405Y27815D01*
X295367Y27845D01*
X295321Y27878D01*
X295272Y27908D01*
X295217Y27938D01*
X295154Y27968D01*
X295089Y27992D01*
X295015Y28014D01*
X294936Y28033D01*
X294851Y28047D01*
X294802Y27176D01*
X294805D01*
X294810Y27174D01*
X294821D01*
X294835Y27168D01*
X294851Y27165D01*
X294870Y27160D01*
X294914Y27143D01*
X294963Y27124D01*
X295012Y27100D01*
X295059Y27067D01*
X295097Y27029D01*
X295100Y27023D01*
X295111Y27010D01*
X295127Y26982D01*
X295143Y26950D01*
X295160Y26903D01*
X295176Y26851D01*
X295187Y26791D01*
X295190Y26720D01*
Y26693D01*
X295187Y26666D01*
X295182Y26630D01*
X295173Y26589D01*
X295160Y26551D01*
X295143Y26510D01*
X295119Y26477D01*
X295116Y26475D01*
X295108Y26464D01*
X295092Y26453D01*
X295072Y26436D01*
X295048Y26423D01*
X295021Y26409D01*
X294988Y26398D01*
X294952Y26395D01*
X294950D01*
X294941D01*
X294928Y26398D01*
X294909Y26404D01*
X294889Y26412D01*
X294868Y26423D01*
X294846Y26439D01*
X294824Y26461D01*
X294821Y26464D01*
X294813Y26475D01*
X294802Y26496D01*
X294797Y26510D01*
X294789Y26526D01*
X294780Y26546D01*
X294772Y26567D01*
X294761Y26592D01*
X294753Y26622D01*
X294742Y26652D01*
X294734Y26690D01*
X294723Y26728D01*
X294715Y26772D01*
Y26775D01*
X294712Y26780D01*
Y26788D01*
X294709Y26799D01*
X294707Y26813D01*
X294701Y26829D01*
X294693Y26870D01*
X294679Y26922D01*
X294666Y26980D01*
X294649Y27042D01*
X294633Y27111D01*
X294614Y27179D01*
X294592Y27253D01*
X294546Y27397D01*
X294524Y27466D01*
X294499Y27531D01*
X294472Y27591D01*
X294447Y27643D01*
X294444Y27646D01*
X294442Y27654D01*
X294434Y27668D01*
X294423Y27687D01*
X294409Y27709D01*
X294395Y27733D01*
X294354Y27790D01*
X294308Y27850D01*
X294251Y27916D01*
X294185Y27973D01*
X294150Y28001D01*
X294114Y28025D01*
X294111Y28028D01*
X294106Y28031D01*
X294095Y28036D01*
X294079Y28044D01*
X294062Y28052D01*
X294040Y28063D01*
X294013Y28074D01*
X293986Y28085D01*
X293953Y28096D01*
X293920Y28107D01*
X293844Y28126D01*
X293762Y28140D01*
X293718Y28145D01*
D02*
G37*
G36*
X295695Y25170D02*
Y23726D01*
X293437D01*
Y25170D01*
X295695D01*
X292700D01*
Y22800D01*
X295695D01*
Y25170D01*
D02*
G37*
%LPD*%
G36*
X294772Y30242D02*
X294797Y30239D01*
X294832Y30234D01*
X294868Y30220D01*
X294909Y30204D01*
X294950Y30182D01*
X294988Y30149D01*
X294993Y30144D01*
X295004Y30130D01*
X295010Y30119D01*
X295018Y30106D01*
X295029Y30089D01*
X295037Y30070D01*
X295045Y30048D01*
X295056Y30024D01*
X295064Y29994D01*
X295070Y29961D01*
X295078Y29925D01*
X295081Y29887D01*
X295086Y29843D01*
Y29535D01*
X294417D01*
Y29783D01*
X294420Y29802D01*
Y29824D01*
X294423Y29849D01*
X294428Y29906D01*
X294439Y29969D01*
X294455Y30032D01*
X294480Y30089D01*
X294494Y30114D01*
X294510Y30136D01*
X294515Y30141D01*
X294526Y30152D01*
X294548Y30171D01*
X294576Y30190D01*
X294608Y30209D01*
X294649Y30228D01*
X294696Y30239D01*
X294747Y30245D01*
X294750D01*
X294753D01*
X294761D01*
X294772Y30242D01*
D02*
G37*
%LPC*%
G36*
X304716Y9947D02*
X304656D01*
X304626Y9944D01*
X304593Y9941D01*
X304553Y9939D01*
X304512Y9936D01*
X304421Y9925D01*
X304326Y9911D01*
X304236Y9889D01*
X304192Y9876D01*
X304151Y9862D01*
X304149D01*
X304143Y9859D01*
X304132Y9854D01*
X304116Y9846D01*
X304099Y9838D01*
X304078Y9827D01*
X304031Y9802D01*
X303977Y9766D01*
X303919Y9725D01*
X303862Y9676D01*
X303807Y9619D01*
X303805Y9616D01*
X303802Y9611D01*
X303794Y9603D01*
X303785Y9592D01*
X303774Y9575D01*
X303761Y9556D01*
X303745Y9534D01*
X303731Y9510D01*
X303714Y9483D01*
X303695Y9453D01*
X303660Y9384D01*
X303627Y9308D01*
X303597Y9221D01*
X304424Y9120D01*
Y9122D01*
X304427Y9128D01*
Y9136D01*
X304430Y9147D01*
X304438Y9177D01*
X304452Y9215D01*
X304465Y9253D01*
X304484Y9294D01*
X304509Y9332D01*
X304536Y9363D01*
X304539Y9365D01*
X304550Y9373D01*
X304566Y9387D01*
X304588Y9401D01*
X304615Y9412D01*
X304648Y9425D01*
X304684Y9433D01*
X304725Y9436D01*
X304744D01*
X304757Y9433D01*
X304774Y9431D01*
X304796Y9425D01*
X304839Y9412D01*
X304864Y9401D01*
X304891Y9387D01*
X304916Y9371D01*
X304943Y9349D01*
X304967Y9327D01*
X304992Y9300D01*
X305017Y9267D01*
X305038Y9231D01*
Y9229D01*
X305041Y9223D01*
X305047Y9215D01*
X305052Y9201D01*
X305058Y9182D01*
X305066Y9160D01*
X305074Y9130D01*
X305085Y9098D01*
X305093Y9057D01*
X305104Y9013D01*
X305115Y8961D01*
X305123Y8904D01*
X305134Y8838D01*
X305142Y8767D01*
X305151Y8688D01*
X305159Y8601D01*
X305156Y8603D01*
X305153Y8606D01*
X305145Y8614D01*
X305134Y8625D01*
X305104Y8653D01*
X305066Y8685D01*
X305019Y8721D01*
X304967Y8759D01*
X304913Y8795D01*
X304856Y8825D01*
X304853D01*
X304847Y8827D01*
X304839Y8833D01*
X304828Y8836D01*
X304812Y8841D01*
X304796Y8849D01*
X304774Y8855D01*
X304749Y8863D01*
X304697Y8874D01*
X304634Y8887D01*
X304566Y8896D01*
X304490Y8898D01*
X304471D01*
X304452Y8896D01*
X304421Y8893D01*
X304389Y8890D01*
X304348Y8882D01*
X304304Y8874D01*
X304255Y8863D01*
X304203Y8846D01*
X304149Y8827D01*
X304091Y8805D01*
X304034Y8778D01*
X303977Y8745D01*
X303922Y8707D01*
X303865Y8664D01*
X303813Y8612D01*
X303810Y8609D01*
X303802Y8598D01*
X303788Y8582D01*
X303769Y8560D01*
X303747Y8533D01*
X303725Y8497D01*
X303698Y8459D01*
X303674Y8412D01*
X303646Y8363D01*
X303622Y8309D01*
X303600Y8249D01*
X303578Y8186D01*
X303559Y8115D01*
X303545Y8044D01*
X303537Y7967D01*
X303534Y7886D01*
Y7856D01*
X303537Y7836D01*
X303540Y7809D01*
X303542Y7779D01*
X303545Y7744D01*
X303551Y7705D01*
X303559Y7664D01*
X303570Y7623D01*
X303594Y7531D01*
X303611Y7484D01*
X303630Y7435D01*
X303652Y7389D01*
X303676Y7342D01*
X303679Y7339D01*
X303682Y7331D01*
X303690Y7320D01*
X303701Y7301D01*
X303717Y7282D01*
X303734Y7258D01*
X303753Y7233D01*
X303777Y7206D01*
X303802Y7176D01*
X303832Y7146D01*
X303865Y7116D01*
X303897Y7086D01*
X303936Y7056D01*
X303977Y7026D01*
X304017Y6998D01*
X304064Y6974D01*
X304067D01*
X304075Y6968D01*
X304088Y6963D01*
X304108Y6955D01*
X304132Y6944D01*
X304162Y6933D01*
X304195Y6922D01*
X304236Y6911D01*
X304277Y6900D01*
X304326Y6889D01*
X304375Y6878D01*
X304433Y6867D01*
X304490Y6859D01*
X304553Y6854D01*
X304618Y6851D01*
X304686Y6848D01*
X304730D01*
X304760Y6851D01*
X304798Y6854D01*
X304842Y6856D01*
X304891Y6862D01*
X304943Y6867D01*
X305000Y6875D01*
X305058Y6886D01*
X305181Y6914D01*
X305238Y6930D01*
X305298Y6952D01*
X305355Y6974D01*
X305407Y7001D01*
X305410Y7004D01*
X305418Y7009D01*
X305434Y7017D01*
X305453Y7031D01*
X305475Y7047D01*
X305503Y7067D01*
X305533Y7091D01*
X305563Y7118D01*
X305598Y7151D01*
X305634Y7187D01*
X305669Y7228D01*
X305705Y7271D01*
X305740Y7320D01*
X305776Y7372D01*
X305808Y7430D01*
X305841Y7490D01*
X305844Y7492D01*
X305849Y7506D01*
X305855Y7525D01*
X305866Y7550D01*
X305879Y7585D01*
X305893Y7626D01*
X305907Y7673D01*
X305920Y7727D01*
X305937Y7787D01*
X305950Y7856D01*
X305964Y7926D01*
X305978Y8006D01*
X305989Y8093D01*
X305994Y8183D01*
X305999Y8279D01*
X306002Y8380D01*
Y8415D01*
X305999Y8434D01*
Y8456D01*
Y8483D01*
X305997Y8513D01*
X305994Y8544D01*
X305991Y8579D01*
X305983Y8655D01*
X305975Y8740D01*
X305959Y8833D01*
X305942Y8928D01*
X305918Y9027D01*
X305890Y9125D01*
X305857Y9223D01*
X305819Y9319D01*
X305773Y9409D01*
X305721Y9491D01*
X305661Y9567D01*
X305658Y9573D01*
X305645Y9584D01*
X305626Y9603D01*
X305598Y9627D01*
X305563Y9655D01*
X305522Y9687D01*
X305473Y9723D01*
X305415Y9758D01*
X305350Y9791D01*
X305281Y9827D01*
X305202Y9859D01*
X305118Y9887D01*
X305028Y9911D01*
X304929Y9930D01*
X304826Y9941D01*
X304716Y9947D01*
D02*
G37*
G36*
X314700Y9895D02*
X313774D01*
Y7637D01*
X312330D01*
Y6900D01*
X314700D01*
Y9895D01*
D02*
G37*
G36*
X308893D02*
X307337D01*
X307310Y9892D01*
X307277D01*
X307233Y9887D01*
X307187Y9881D01*
X307132Y9876D01*
X307075Y9865D01*
X307015Y9851D01*
X306955Y9838D01*
X306892Y9816D01*
X306829Y9794D01*
X306769Y9766D01*
X306709Y9734D01*
X306655Y9698D01*
X306606Y9655D01*
X306603Y9652D01*
X306595Y9644D01*
X306581Y9630D01*
X306567Y9611D01*
X306548Y9586D01*
X306526Y9556D01*
X306505Y9521D01*
X306480Y9480D01*
X306455Y9433D01*
X306434Y9384D01*
X306412Y9327D01*
X306393Y9267D01*
X306376Y9201D01*
X306365Y9130D01*
X306357Y9054D01*
X306354Y8975D01*
Y8956D01*
X306357Y8931D01*
X306360Y8901D01*
X306363Y8863D01*
X306368Y8819D01*
X306376Y8770D01*
X306387Y8715D01*
X306403Y8661D01*
X306420Y8603D01*
X306442Y8544D01*
X306469Y8483D01*
X306502Y8426D01*
X306537Y8369D01*
X306578Y8314D01*
X306627Y8265D01*
X306630Y8262D01*
X306641Y8254D01*
X306657Y8240D01*
X306679Y8227D01*
X306707Y8205D01*
X306742Y8186D01*
X306786Y8161D01*
X306835Y8139D01*
X306890Y8115D01*
X306949Y8090D01*
X307018Y8071D01*
X307094Y8052D01*
X307176Y8036D01*
X307263Y8022D01*
X307359Y8014D01*
X307460Y8011D01*
X307965D01*
Y6900D01*
X308893D01*
Y9895D01*
D02*
G37*
G36*
X310771Y9947D02*
X310632D01*
X310591Y9944D01*
X310545Y9941D01*
X310490Y9936D01*
X310428Y9928D01*
X310362Y9919D01*
X310294Y9909D01*
X310223Y9895D01*
X310149Y9876D01*
X310075Y9857D01*
X310004Y9832D01*
X309936Y9802D01*
X309873Y9769D01*
X309813Y9731D01*
X309811Y9728D01*
X309800Y9720D01*
X309786Y9709D01*
X309764Y9690D01*
X309742Y9668D01*
X309715Y9638D01*
X309685Y9605D01*
X309655Y9567D01*
X309622Y9521D01*
X309592Y9472D01*
X309562Y9417D01*
X309532Y9354D01*
X309507Y9289D01*
X309486Y9215D01*
X309467Y9136D01*
X309453Y9051D01*
X310324Y9002D01*
Y9005D01*
X310327Y9010D01*
Y9021D01*
X310332Y9035D01*
X310335Y9051D01*
X310340Y9070D01*
X310357Y9114D01*
X310376Y9163D01*
X310400Y9212D01*
X310433Y9259D01*
X310471Y9297D01*
X310477Y9300D01*
X310490Y9311D01*
X310518Y9327D01*
X310550Y9343D01*
X310597Y9360D01*
X310649Y9376D01*
X310709Y9387D01*
X310780Y9390D01*
X310807D01*
X310834Y9387D01*
X310870Y9382D01*
X310911Y9373D01*
X310949Y9360D01*
X310990Y9343D01*
X311023Y9319D01*
X311025Y9316D01*
X311036Y9308D01*
X311047Y9291D01*
X311064Y9272D01*
X311077Y9248D01*
X311091Y9221D01*
X311102Y9188D01*
X311105Y9152D01*
Y9149D01*
Y9141D01*
X311102Y9128D01*
X311096Y9109D01*
X311088Y9089D01*
X311077Y9068D01*
X311061Y9046D01*
X311039Y9024D01*
X311036Y9021D01*
X311025Y9013D01*
X311004Y9002D01*
X310990Y8997D01*
X310974Y8988D01*
X310954Y8980D01*
X310933Y8972D01*
X310908Y8961D01*
X310878Y8953D01*
X310848Y8942D01*
X310810Y8934D01*
X310771Y8923D01*
X310728Y8915D01*
X310725D01*
X310720Y8912D01*
X310712D01*
X310701Y8909D01*
X310687Y8907D01*
X310670Y8901D01*
X310630Y8893D01*
X310578Y8879D01*
X310520Y8866D01*
X310458Y8849D01*
X310389Y8833D01*
X310321Y8814D01*
X310247Y8792D01*
X310103Y8745D01*
X310034Y8724D01*
X309969Y8699D01*
X309909Y8672D01*
X309857Y8647D01*
X309854Y8644D01*
X309846Y8642D01*
X309832Y8634D01*
X309813Y8623D01*
X309791Y8609D01*
X309767Y8595D01*
X309710Y8554D01*
X309649Y8508D01*
X309584Y8451D01*
X309527Y8385D01*
X309499Y8350D01*
X309475Y8314D01*
X309472Y8311D01*
X309469Y8306D01*
X309464Y8295D01*
X309456Y8279D01*
X309448Y8262D01*
X309437Y8240D01*
X309426Y8213D01*
X309415Y8186D01*
X309404Y8153D01*
X309393Y8120D01*
X309374Y8044D01*
X309360Y7962D01*
X309355Y7918D01*
Y7845D01*
X309357Y7823D01*
X309360Y7798D01*
X309363Y7768D01*
X309368Y7735D01*
X309374Y7697D01*
X309382Y7659D01*
X309393Y7618D01*
X309406Y7572D01*
X309423Y7528D01*
X309442Y7481D01*
X309461Y7435D01*
X309488Y7389D01*
X309516Y7342D01*
X309519Y7339D01*
X309524Y7331D01*
X309532Y7320D01*
X309546Y7301D01*
X309562Y7282D01*
X309581Y7258D01*
X309603Y7233D01*
X309630Y7206D01*
X309660Y7176D01*
X309693Y7146D01*
X309731Y7116D01*
X309770Y7086D01*
X309813Y7056D01*
X309860Y7026D01*
X309909Y6998D01*
X309961Y6974D01*
X309963D01*
X309974Y6968D01*
X309991Y6963D01*
X310013Y6955D01*
X310040Y6944D01*
X310075Y6933D01*
X310114Y6922D01*
X310157Y6911D01*
X310209Y6900D01*
X310264Y6889D01*
X310321Y6878D01*
X310387Y6867D01*
X310455Y6859D01*
X310526Y6854D01*
X310602Y6851D01*
X310681Y6848D01*
X310733D01*
X310755Y6851D01*
X310777D01*
X310804Y6854D01*
X310867Y6856D01*
X310938Y6865D01*
X311017Y6873D01*
X311099Y6884D01*
X311187Y6900D01*
X311277Y6919D01*
X311364Y6944D01*
X311451Y6971D01*
X311533Y7004D01*
X311610Y7045D01*
X311681Y7088D01*
X311711Y7113D01*
X311741Y7140D01*
X311743Y7143D01*
X311754Y7154D01*
X311768Y7170D01*
X311787Y7195D01*
X311809Y7222D01*
X311836Y7258D01*
X311863Y7299D01*
X311891Y7345D01*
X311921Y7397D01*
X311951Y7451D01*
X311978Y7514D01*
X312003Y7580D01*
X312027Y7651D01*
X312046Y7727D01*
X312060Y7806D01*
X312071Y7888D01*
X311192Y7946D01*
Y7943D01*
X311189Y7937D01*
Y7924D01*
X311187Y7910D01*
X311184Y7891D01*
X311178Y7872D01*
X311167Y7823D01*
X311151Y7771D01*
X311132Y7716D01*
X311107Y7662D01*
X311077Y7615D01*
X311075Y7613D01*
X311072Y7607D01*
X311061Y7599D01*
X311050Y7588D01*
X311036Y7574D01*
X311017Y7558D01*
X310995Y7542D01*
X310971Y7525D01*
X310944Y7509D01*
X310913Y7492D01*
X310881Y7476D01*
X310842Y7462D01*
X310804Y7451D01*
X310761Y7443D01*
X310717Y7438D01*
X310668Y7435D01*
X310649D01*
X310635Y7438D01*
X310619D01*
X310599Y7440D01*
X310556Y7446D01*
X310507Y7457D01*
X310455Y7473D01*
X310406Y7498D01*
X310362Y7528D01*
X310357Y7533D01*
X310346Y7544D01*
X310327Y7563D01*
X310307Y7591D01*
X310288Y7621D01*
X310269Y7659D01*
X310258Y7700D01*
X310253Y7744D01*
Y7749D01*
X310256Y7763D01*
X310258Y7784D01*
X310266Y7812D01*
X310277Y7845D01*
X310297Y7880D01*
X310321Y7916D01*
X310357Y7951D01*
X310362Y7957D01*
X310367Y7959D01*
X310378Y7967D01*
X310392Y7976D01*
X310408Y7984D01*
X310430Y7995D01*
X310455Y8008D01*
X310485Y8022D01*
X310518Y8036D01*
X310556Y8049D01*
X310599Y8063D01*
X310649Y8079D01*
X310703Y8096D01*
X310766Y8109D01*
X310832Y8126D01*
X310834D01*
X310837Y8128D01*
X310848D01*
X310859Y8131D01*
X310873Y8137D01*
X310889Y8139D01*
X310930Y8150D01*
X310982Y8164D01*
X311039Y8180D01*
X311102Y8200D01*
X311167Y8221D01*
X311238Y8246D01*
X311312Y8273D01*
X311454Y8336D01*
X311522Y8371D01*
X311588Y8407D01*
X311648Y8448D01*
X311700Y8489D01*
X311702Y8492D01*
X311711Y8500D01*
X311724Y8513D01*
X311741Y8530D01*
X311760Y8552D01*
X311782Y8579D01*
X311806Y8612D01*
X311828Y8647D01*
X311853Y8685D01*
X311877Y8729D01*
X311899Y8778D01*
X311918Y8827D01*
X311934Y8885D01*
X311948Y8942D01*
X311956Y9002D01*
X311959Y9068D01*
Y9070D01*
Y9078D01*
Y9089D01*
X311956Y9106D01*
X311954Y9128D01*
X311951Y9152D01*
X311948Y9180D01*
X311943Y9210D01*
X311926Y9275D01*
X311902Y9349D01*
X311888Y9387D01*
X311869Y9428D01*
X311850Y9466D01*
X311825Y9504D01*
X311823Y9507D01*
X311820Y9513D01*
X311812Y9523D01*
X311801Y9537D01*
X311787Y9556D01*
X311768Y9575D01*
X311749Y9597D01*
X311724Y9622D01*
X311697Y9646D01*
X311670Y9674D01*
X311634Y9701D01*
X311599Y9725D01*
X311561Y9753D01*
X311517Y9780D01*
X311473Y9805D01*
X311424Y9827D01*
X311421Y9829D01*
X311410Y9832D01*
X311397Y9838D01*
X311375Y9846D01*
X311348Y9854D01*
X311315Y9865D01*
X311277Y9876D01*
X311230Y9887D01*
X311181Y9898D01*
X311126Y9909D01*
X311066Y9919D01*
X311001Y9928D01*
X310930Y9936D01*
X310853Y9941D01*
X310771Y9947D01*
D02*
G37*
%LPD*%
G36*
X304752Y8380D02*
X304766D01*
X304782Y8377D01*
X304823Y8366D01*
X304869Y8350D01*
X304918Y8328D01*
X304967Y8295D01*
X304992Y8273D01*
X305014Y8251D01*
Y8249D01*
X305019Y8246D01*
X305025Y8238D01*
X305033Y8227D01*
X305041Y8213D01*
X305052Y8200D01*
X305060Y8180D01*
X305071Y8158D01*
X305082Y8134D01*
X305093Y8107D01*
X305112Y8044D01*
X305126Y7970D01*
X305129Y7929D01*
X305131Y7886D01*
Y7883D01*
Y7875D01*
Y7861D01*
X305129Y7845D01*
Y7825D01*
X305126Y7801D01*
X305115Y7746D01*
X305101Y7686D01*
X305080Y7621D01*
X305049Y7561D01*
X305030Y7531D01*
X305009Y7503D01*
X305006Y7501D01*
X305003Y7498D01*
X304987Y7481D01*
X304959Y7460D01*
X304924Y7435D01*
X304880Y7411D01*
X304831Y7389D01*
X304771Y7372D01*
X304741Y7370D01*
X304708Y7367D01*
X304692D01*
X304681Y7370D01*
X304651Y7372D01*
X304613Y7383D01*
X304569Y7397D01*
X304523Y7419D01*
X304479Y7449D01*
X304457Y7468D01*
X304435Y7490D01*
Y7492D01*
X304430Y7495D01*
X304424Y7503D01*
X304419Y7514D01*
X304408Y7525D01*
X304400Y7542D01*
X304389Y7561D01*
X304378Y7582D01*
X304370Y7607D01*
X304359Y7634D01*
X304348Y7667D01*
X304340Y7700D01*
X304334Y7735D01*
X304329Y7774D01*
X304323Y7817D01*
Y7861D01*
Y7864D01*
Y7872D01*
Y7886D01*
X304326Y7902D01*
Y7924D01*
X304329Y7948D01*
X304337Y8006D01*
X304351Y8068D01*
X304372Y8131D01*
X304400Y8194D01*
X304419Y8221D01*
X304438Y8249D01*
Y8251D01*
X304443Y8254D01*
X304457Y8270D01*
X304484Y8292D01*
X304517Y8317D01*
X304558Y8341D01*
X304607Y8361D01*
X304662Y8377D01*
X304692Y8380D01*
X304722Y8382D01*
X304738D01*
X304752Y8380D01*
D02*
G37*
G36*
X307965Y8617D02*
X307717D01*
X307698Y8620D01*
X307676D01*
X307651Y8623D01*
X307594Y8628D01*
X307531Y8639D01*
X307468Y8655D01*
X307411Y8680D01*
X307386Y8694D01*
X307365Y8710D01*
X307359Y8715D01*
X307348Y8726D01*
X307329Y8748D01*
X307310Y8776D01*
X307291Y8808D01*
X307272Y8849D01*
X307261Y8896D01*
X307255Y8947D01*
Y8950D01*
Y8953D01*
Y8961D01*
X307258Y8972D01*
X307261Y8997D01*
X307266Y9032D01*
X307280Y9068D01*
X307296Y9109D01*
X307318Y9149D01*
X307351Y9188D01*
X307356Y9193D01*
X307370Y9204D01*
X307381Y9210D01*
X307395Y9218D01*
X307411Y9229D01*
X307430Y9237D01*
X307452Y9245D01*
X307476Y9256D01*
X307506Y9264D01*
X307539Y9270D01*
X307575Y9278D01*
X307613Y9281D01*
X307657Y9286D01*
X307965D01*
Y8617D01*
D02*
G37*
D12*
X288692Y5868D02*
X291546D01*
X280129Y5868D02*
X282983D01*
X280129Y10986D02*
X282983D01*
X288692Y10986D02*
X291546D01*
X280129Y5868D02*
Y10986D01*
X291546Y5868D02*
Y10986D01*
X301136Y38244D02*
X306255D01*
X301136D02*
Y49661D01*
X306255D01*
Y38244D02*
Y49661D01*
X290245Y38244D02*
X295363D01*
X290245D02*
Y49661D01*
X295363D01*
Y38244D02*
Y49661D01*
X295691Y38244D02*
X300809D01*
X295691D02*
Y49661D01*
X300809D01*
Y38244D02*
Y49661D01*
X283129Y49590D02*
X288247D01*
Y38173D02*
Y49590D01*
X283129Y38173D02*
X288247D01*
X283129D02*
Y49590D01*
X274564Y37845D02*
X279682D01*
X274564D02*
Y49263D01*
X279682D01*
Y37845D02*
Y49263D01*
X306582Y38244D02*
X311700D01*
X306582D02*
Y49661D01*
X311700D01*
Y38244D02*
Y49661D01*
X591161Y236955D02*
X602578D01*
Y242073D01*
X591161D02*
X602578D01*
X591161Y236955D02*
Y242073D01*
X415512Y24646D02*
Y30551D01*
X409606Y30551D02*
X415512Y30551D01*
X414330Y23465D02*
X415512Y24646D01*
X408425Y29370D02*
X409606Y30551D01*
X585598Y29370D02*
X586779Y30551D01*
X591503Y23465D02*
X592684Y24646D01*
X586779Y30551D02*
X592684Y30551D01*
X592684Y24646D02*
Y30551D01*
X207705Y246839D02*
X208886Y248020D01*
X213610Y240934D02*
X214791Y242115D01*
X208886Y248020D02*
X214791Y248020D01*
X214791Y242115D02*
Y248020D01*
X339342Y451241D02*
X342196D01*
X330779Y451241D02*
X333633D01*
X330779Y456359D02*
X333633D01*
X339342Y456359D02*
X342196D01*
X330779Y451241D02*
Y456359D01*
X342196Y451241D02*
Y456359D01*
X315413Y451241D02*
X318267D01*
X306850Y451241D02*
X309704D01*
X306850Y456359D02*
X309704D01*
X315413Y456359D02*
X318267D01*
X306850Y451241D02*
Y456359D01*
X318267Y451241D02*
Y456359D01*
X362638Y451241D02*
X365493D01*
X354075Y451241D02*
X356930D01*
X354075Y456359D02*
X356930D01*
X362638Y456359D02*
X365493D01*
X354075Y451241D02*
Y456359D01*
X365493Y451241D02*
Y456359D01*
X291913Y451241D02*
X294768D01*
X283350Y451241D02*
X286205D01*
X283350Y456359D02*
X286205D01*
X291913Y456359D02*
X294768D01*
X283350Y451241D02*
Y456359D01*
X294768Y451241D02*
Y456359D01*
D15*
X414330Y9626D02*
Y29114D01*
X323700D02*
X414330D01*
X323700Y9626D02*
X414330D01*
X323700D02*
Y29114D01*
X471543Y9626D02*
Y29114D01*
Y9626D02*
X591503D01*
X471543Y29114D02*
X591503D01*
Y9626D02*
Y29114D01*
X193886Y207902D02*
X194674Y207115D01*
X212548D02*
X213335Y207902D01*
X194674Y207115D02*
X212548D01*
X194674Y246563D02*
X213335D01*
X193886Y245776D02*
X194674Y246563D01*
X193886Y207902D02*
Y245776D01*
X213335Y207902D02*
Y246563D01*
D16*
X535900Y376634D02*
Y387868D01*
X534450Y389319D02*
X535900Y387868D01*
X533656Y389319D02*
X534450D01*
X511794D02*
X533656D01*
D22*
X278699Y52200D02*
X275500D01*
X278699D02*
Y53571D01*
X278547Y54028D01*
X278395Y54181D01*
X278090Y54333D01*
X277785D01*
X277481Y54181D01*
X277328Y54028D01*
X277176Y53571D01*
Y52200D01*
Y53266D02*
X275500Y54333D01*
X278090Y55049D02*
X278242Y55354D01*
X278699Y55811D01*
X275500D01*
X278699Y58919D02*
X276566Y57395D01*
Y59680D01*
X278699Y58919D02*
X275500D01*
X278699Y60549D02*
Y62225D01*
X277481Y61310D01*
Y61768D01*
X277328Y62072D01*
X277176Y62225D01*
X276719Y62377D01*
X276414D01*
X275957Y62225D01*
X275652Y61920D01*
X275500Y61463D01*
Y61006D01*
X275652Y60549D01*
X275805Y60396D01*
X276109Y60244D01*
X299899Y52600D02*
X296700D01*
X299899D02*
Y53971D01*
X299747Y54428D01*
X299595Y54580D01*
X299290Y54733D01*
X298985D01*
X298680Y54580D01*
X298528Y54428D01*
X298376Y53971D01*
Y52600D01*
Y53666D02*
X296700Y54733D01*
X299290Y55449D02*
X299442Y55754D01*
X299899Y56211D01*
X296700D01*
X299899Y59319D02*
X297766Y57795D01*
Y60080D01*
X299899Y59319D02*
X296700D01*
X299899Y61558D02*
X299747Y61101D01*
X299290Y60796D01*
X298528Y60644D01*
X298071D01*
X297309Y60796D01*
X296852Y61101D01*
X296700Y61558D01*
Y61863D01*
X296852Y62320D01*
X297309Y62625D01*
X298071Y62777D01*
X298528D01*
X299290Y62625D01*
X299747Y62320D01*
X299899Y61863D01*
Y61558D01*
X287299Y52500D02*
X284100D01*
X287299D02*
Y53871D01*
X287147Y54328D01*
X286995Y54480D01*
X286690Y54633D01*
X286385D01*
X286081Y54480D01*
X285928Y54328D01*
X285776Y53871D01*
Y52500D01*
Y53566D02*
X284100Y54633D01*
X286690Y55349D02*
X286842Y55654D01*
X287299Y56111D01*
X284100D01*
X287299Y59219D02*
X285166Y57695D01*
Y59980D01*
X287299Y59219D02*
X284100D01*
X286538Y60696D02*
X286690D01*
X286995Y60849D01*
X287147Y61001D01*
X287299Y61306D01*
Y61915D01*
X287147Y62220D01*
X286995Y62372D01*
X286690Y62524D01*
X286385D01*
X286081Y62372D01*
X285624Y62068D01*
X284100Y60544D01*
Y62677D01*
X294399Y52600D02*
X291200D01*
X294399D02*
Y53971D01*
X294247Y54428D01*
X294095Y54580D01*
X293790Y54733D01*
X293485D01*
X293180Y54580D01*
X293028Y54428D01*
X292876Y53971D01*
Y52600D01*
Y53666D02*
X291200Y54733D01*
X293790Y55449D02*
X293942Y55754D01*
X294399Y56211D01*
X291200D01*
X294399Y59319D02*
X292266Y57795D01*
Y60080D01*
X294399Y59319D02*
X291200D01*
X293790Y60644D02*
X293942Y60949D01*
X294399Y61406D01*
X291200D01*
X310699Y52600D02*
X307500D01*
X310699D02*
Y53971D01*
X310547Y54428D01*
X310395Y54580D01*
X310090Y54733D01*
X309785D01*
X309481Y54580D01*
X309328Y54428D01*
X309176Y53971D01*
Y52600D01*
Y53666D02*
X307500Y54733D01*
X310090Y55449D02*
X310242Y55754D01*
X310699Y56211D01*
X307500D01*
X310699Y58100D02*
Y59776D01*
X309481Y58862D01*
Y59319D01*
X309328Y59623D01*
X309176Y59776D01*
X308719Y59928D01*
X308414D01*
X307957Y59776D01*
X307652Y59471D01*
X307500Y59014D01*
Y58557D01*
X307652Y58100D01*
X307805Y57947D01*
X308109Y57795D01*
X310699Y61406D02*
X310547Y60949D01*
X310242Y60796D01*
X309938D01*
X309633Y60949D01*
X309481Y61253D01*
X309328Y61863D01*
X309176Y62320D01*
X308871Y62625D01*
X308566Y62777D01*
X308109D01*
X307805Y62625D01*
X307652Y62472D01*
X307500Y62015D01*
Y61406D01*
X307652Y60949D01*
X307805Y60796D01*
X308109Y60644D01*
X308566D01*
X308871Y60796D01*
X309176Y61101D01*
X309328Y61558D01*
X309481Y62168D01*
X309633Y62472D01*
X309938Y62625D01*
X310242D01*
X310547Y62472D01*
X310699Y62015D01*
Y61406D01*
X305299Y52600D02*
X302100D01*
X305299D02*
Y53971D01*
X305147Y54428D01*
X304995Y54580D01*
X304690Y54733D01*
X304385D01*
X304081Y54580D01*
X303928Y54428D01*
X303776Y53971D01*
Y52600D01*
Y53666D02*
X302100Y54733D01*
X304690Y55449D02*
X304842Y55754D01*
X305299Y56211D01*
X302100D01*
X305299Y58100D02*
Y59776D01*
X304081Y58862D01*
Y59319D01*
X303928Y59623D01*
X303776Y59776D01*
X303319Y59928D01*
X303014D01*
X302557Y59776D01*
X302252Y59471D01*
X302100Y59014D01*
Y58557D01*
X302252Y58100D01*
X302405Y57947D01*
X302709Y57795D01*
X304233Y62625D02*
X303776Y62472D01*
X303471Y62168D01*
X303319Y61710D01*
Y61558D01*
X303471Y61101D01*
X303776Y60796D01*
X304233Y60644D01*
X304385D01*
X304842Y60796D01*
X305147Y61101D01*
X305299Y61558D01*
Y61710D01*
X305147Y62168D01*
X304842Y62472D01*
X304233Y62625D01*
X303471D01*
X302709Y62472D01*
X302252Y62168D01*
X302100Y61710D01*
Y61406D01*
X302252Y60949D01*
X302557Y60796D01*
X274915Y9238D02*
X275067Y9542D01*
X275372Y9847D01*
X275676Y9999D01*
X276286D01*
X276591Y9847D01*
X276895Y9542D01*
X277048Y9238D01*
X277200Y8781D01*
Y8019D01*
X277048Y7562D01*
X276895Y7257D01*
X276591Y6952D01*
X276286Y6800D01*
X275676D01*
X275372Y6952D01*
X275067Y7257D01*
X274915Y7562D01*
X274016Y9390D02*
X273711Y9542D01*
X273254Y9999D01*
Y6800D01*
X270908Y9999D02*
X271365Y9847D01*
X271517Y9542D01*
Y9238D01*
X271365Y8933D01*
X271060Y8781D01*
X270451Y8628D01*
X269994Y8476D01*
X269689Y8171D01*
X269537Y7866D01*
Y7409D01*
X269689Y7105D01*
X269842Y6952D01*
X270299Y6800D01*
X270908D01*
X271365Y6952D01*
X271517Y7105D01*
X271670Y7409D01*
Y7866D01*
X271517Y8171D01*
X271213Y8476D01*
X270756Y8628D01*
X270146Y8781D01*
X269842Y8933D01*
X269689Y9238D01*
Y9542D01*
X269842Y9847D01*
X270299Y9999D01*
X270908D01*
X268821Y9390D02*
X268516Y9542D01*
X268059Y9999D01*
Y6800D01*
X339415Y461738D02*
X339567Y462042D01*
X339872Y462347D01*
X340177Y462499D01*
X340786D01*
X341091Y462347D01*
X341395Y462042D01*
X341548Y461738D01*
X341700Y461280D01*
Y460519D01*
X341548Y460062D01*
X341395Y459757D01*
X341091Y459452D01*
X340786Y459300D01*
X340177D01*
X339872Y459452D01*
X339567Y459757D01*
X339415Y460062D01*
X338516Y461890D02*
X338211Y462042D01*
X337754Y462499D01*
Y459300D01*
X334037Y462499D02*
X335560Y459300D01*
X336170Y462499D02*
X334037D01*
X332559D02*
X333016Y462347D01*
X333169Y462042D01*
Y461738D01*
X333016Y461433D01*
X332712Y461280D01*
X332102Y461128D01*
X331645Y460976D01*
X331340Y460671D01*
X331188Y460366D01*
Y459909D01*
X331340Y459605D01*
X331493Y459452D01*
X331950Y459300D01*
X332559D01*
X333016Y459452D01*
X333169Y459605D01*
X333321Y459909D01*
Y460366D01*
X333169Y460671D01*
X332864Y460976D01*
X332407Y461128D01*
X331797Y461280D01*
X331493Y461433D01*
X331340Y461738D01*
Y462042D01*
X331493Y462347D01*
X331950Y462499D01*
X332559D01*
X315415Y461738D02*
X315567Y462042D01*
X315872Y462347D01*
X316177Y462499D01*
X316786D01*
X317091Y462347D01*
X317395Y462042D01*
X317548Y461738D01*
X317700Y461280D01*
Y460519D01*
X317548Y460062D01*
X317395Y459757D01*
X317091Y459452D01*
X316786Y459300D01*
X316177D01*
X315872Y459452D01*
X315567Y459757D01*
X315415Y460062D01*
X314516Y461890D02*
X314211Y462042D01*
X313754Y462499D01*
Y459300D01*
X310037Y462499D02*
X311560Y459300D01*
X312170Y462499D02*
X310037D01*
X307340Y461433D02*
X307493Y460976D01*
X307797Y460671D01*
X308254Y460519D01*
X308407D01*
X308864Y460671D01*
X309169Y460976D01*
X309321Y461433D01*
Y461585D01*
X309169Y462042D01*
X308864Y462347D01*
X308407Y462499D01*
X308254D01*
X307797Y462347D01*
X307493Y462042D01*
X307340Y461433D01*
Y460671D01*
X307493Y459909D01*
X307797Y459452D01*
X308254Y459300D01*
X308559D01*
X309016Y459452D01*
X309169Y459757D01*
X362715Y461738D02*
X362867Y462042D01*
X363172Y462347D01*
X363476Y462499D01*
X364086D01*
X364391Y462347D01*
X364695Y462042D01*
X364848Y461738D01*
X365000Y461280D01*
Y460519D01*
X364848Y460062D01*
X364695Y459757D01*
X364391Y459452D01*
X364086Y459300D01*
X363476D01*
X363172Y459452D01*
X362867Y459757D01*
X362715Y460062D01*
X361816Y461890D02*
X361511Y462042D01*
X361054Y462499D01*
Y459300D01*
X357337Y462499D02*
X358860Y459300D01*
X359470Y462499D02*
X357337D01*
X354488D02*
X356012Y459300D01*
X356621Y462499D02*
X354488D01*
X292015Y461738D02*
X292167Y462042D01*
X292472Y462347D01*
X292776Y462499D01*
X293386D01*
X293691Y462347D01*
X293995Y462042D01*
X294148Y461738D01*
X294300Y461280D01*
Y460519D01*
X294148Y460062D01*
X293995Y459757D01*
X293691Y459452D01*
X293386Y459300D01*
X292776D01*
X292472Y459452D01*
X292167Y459757D01*
X292015Y460062D01*
X291116Y461890D02*
X290811Y462042D01*
X290354Y462499D01*
Y459300D01*
X288008Y462499D02*
X288465Y462347D01*
X288617Y462042D01*
Y461738D01*
X288465Y461433D01*
X288160Y461280D01*
X287551Y461128D01*
X287094Y460976D01*
X286789Y460671D01*
X286637Y460366D01*
Y459909D01*
X286789Y459605D01*
X286942Y459452D01*
X287399Y459300D01*
X288008D01*
X288465Y459452D01*
X288617Y459605D01*
X288770Y459909D01*
Y460366D01*
X288617Y460671D01*
X288313Y460976D01*
X287856Y461128D01*
X287246Y461280D01*
X286942Y461433D01*
X286789Y461738D01*
Y462042D01*
X286942Y462347D01*
X287399Y462499D01*
X288008D01*
X285007D02*
X285464Y462347D01*
X285769Y461890D01*
X285921Y461128D01*
Y460671D01*
X285769Y459909D01*
X285464Y459452D01*
X285007Y459300D01*
X284702D01*
X284245Y459452D01*
X283940Y459909D01*
X283788Y460671D01*
Y461128D01*
X283940Y461890D01*
X284245Y462347D01*
X284702Y462499D01*
X285007D01*
X602000Y248199D02*
Y245000D01*
Y248199D02*
X600629D01*
X600172Y248047D01*
X600020Y247895D01*
X599867Y247590D01*
Y247285D01*
X600020Y246981D01*
X600172Y246828D01*
X600629Y246676D01*
X602000D01*
X600934D02*
X599867Y245000D01*
X599151Y247590D02*
X598846Y247742D01*
X598389Y248199D01*
Y245000D01*
X596500Y248199D02*
X594824D01*
X595739Y246981D01*
X595282D01*
X594977Y246828D01*
X594824Y246676D01*
X594672Y246219D01*
Y245914D01*
X594824Y245457D01*
X595129Y245152D01*
X595586Y245000D01*
X596043D01*
X596500Y245152D01*
X596653Y245305D01*
X596805Y245609D01*
X591823Y248199D02*
X593347Y245000D01*
X593956Y248199D02*
X591823D01*
X590876Y36599D02*
Y34162D01*
X591029Y33705D01*
X591181Y33552D01*
X591486Y33400D01*
X591791D01*
X592095Y33552D01*
X592248Y33705D01*
X592400Y34162D01*
Y34466D01*
X590054Y34923D02*
X588683D01*
X588226Y35076D01*
X588073Y35228D01*
X587921Y35533D01*
Y35990D01*
X588073Y36295D01*
X588226Y36447D01*
X588683Y36599D01*
X590054D01*
Y33400D01*
X587205Y35990D02*
X586900Y36142D01*
X586443Y36599D01*
Y33400D01*
X413677Y36599D02*
Y34162D01*
X413829Y33705D01*
X413981Y33552D01*
X414286Y33400D01*
X414591D01*
X414895Y33552D01*
X415048Y33705D01*
X415200Y34162D01*
Y34466D01*
X412854Y34923D02*
X411483D01*
X411026Y35076D01*
X410873Y35228D01*
X410721Y35533D01*
Y35990D01*
X410873Y36295D01*
X411026Y36447D01*
X411483Y36599D01*
X412854D01*
Y33400D01*
X409853Y35838D02*
Y35990D01*
X409700Y36295D01*
X409548Y36447D01*
X409243Y36599D01*
X408634D01*
X408329Y36447D01*
X408177Y36295D01*
X408024Y35990D01*
Y35685D01*
X408177Y35381D01*
X408481Y34923D01*
X410005Y33400D01*
X407872D01*
M02*
