G04*
G04 #@! TF.GenerationSoftware,Altium Limited,Altium Designer,20.0.10 (225)*
G04*
G04 Layer_Color=16711935*
%FSLAX25Y25*%
%MOIN*%
G70*
G01*
G75*
%ADD139C,0.10236*%
%ADD150R,0.03550X0.03550*%
G04:AMPARAMS|DCode=151|XSize=43.37mil|YSize=43.37mil|CornerRadius=5.94mil|HoleSize=0mil|Usage=FLASHONLY|Rotation=90.000|XOffset=0mil|YOffset=0mil|HoleType=Round|Shape=RoundedRectangle|*
%AMROUNDEDRECTD151*
21,1,0.04337,0.03150,0,0,90.0*
21,1,0.03150,0.04337,0,0,90.0*
1,1,0.01187,0.01575,0.01575*
1,1,0.01187,0.01575,-0.01575*
1,1,0.01187,-0.01575,-0.01575*
1,1,0.01187,-0.01575,0.01575*
%
%ADD151ROUNDEDRECTD151*%
%ADD155R,0.03550X0.03550*%
G04:AMPARAMS|DCode=171|XSize=43.37mil|YSize=43.37mil|CornerRadius=5.94mil|HoleSize=0mil|Usage=FLASHONLY|Rotation=180.000|XOffset=0mil|YOffset=0mil|HoleType=Round|Shape=RoundedRectangle|*
%AMROUNDEDRECTD171*
21,1,0.04337,0.03150,0,0,180.0*
21,1,0.03150,0.04337,0,0,180.0*
1,1,0.01187,-0.01575,0.01575*
1,1,0.01187,0.01575,0.01575*
1,1,0.01187,0.01575,-0.01575*
1,1,0.01187,-0.01575,-0.01575*
%
%ADD171ROUNDEDRECTD171*%
%ADD256C,0.03943*%
%ADD258C,0.07290*%
%ADD259R,0.07290X0.07290*%
%ADD260C,0.13976*%
%ADD261C,0.05912*%
%ADD262C,0.01968*%
%ADD263C,0.06400*%
%ADD264C,0.10669*%
%ADD265R,0.07290X0.07290*%
%ADD266C,0.25400*%
%ADD267C,0.03550*%
%ADD268R,0.05912X0.05912*%
%ADD269C,0.06699*%
%ADD270C,0.09061*%
%ADD271C,0.01772*%
G04:AMPARAMS|DCode=370|XSize=110.3mil|YSize=70.93mil|CornerRadius=18.73mil|HoleSize=0mil|Usage=FLASHONLY|Rotation=90.000|XOffset=0mil|YOffset=0mil|HoleType=Round|Shape=RoundedRectangle|*
%AMROUNDEDRECTD370*
21,1,0.11030,0.03347,0,0,90.0*
21,1,0.07284,0.07093,0,0,90.0*
1,1,0.03746,0.01673,0.03642*
1,1,0.03746,0.01673,-0.03642*
1,1,0.03746,-0.01673,-0.03642*
1,1,0.03746,-0.01673,0.03642*
%
%ADD370ROUNDEDRECTD370*%
D139*
X65453Y67592D02*
X64961Y68445D01*
X63976D01*
X63484Y67592D01*
X63976Y66740D01*
X64961D01*
X65453Y67592D01*
X599409Y446850D02*
X598917Y447703D01*
X597933D01*
X597441Y446850D01*
X597933Y445998D01*
X598917D01*
X599409Y446850D01*
X30512D02*
X30020Y447703D01*
X29035D01*
X28543Y446850D01*
X29035Y445998D01*
X30020D01*
X30512Y446850D01*
X611221Y19685D02*
X610728Y20537D01*
X609744D01*
X609252Y19685D01*
X609744Y18833D01*
X610728D01*
X611221Y19685D01*
D150*
X303696Y47102D02*
D03*
Y40803D02*
D03*
X292804Y47102D02*
D03*
Y40803D02*
D03*
X298250Y47102D02*
D03*
Y40803D02*
D03*
X285688Y40732D02*
D03*
Y47031D02*
D03*
X277123Y46704D02*
D03*
Y40404D02*
D03*
X309141Y47102D02*
D03*
Y40803D02*
D03*
D151*
X294217Y17837D02*
D03*
X298547Y8427D02*
D03*
X276894Y17837D02*
D03*
D155*
X288987Y8427D02*
D03*
X282688Y8427D02*
D03*
X593720Y239514D02*
D03*
X600019D02*
D03*
X339637Y453800D02*
D03*
X333338Y453800D02*
D03*
X315708Y453800D02*
D03*
X309409Y453800D02*
D03*
X362934Y453800D02*
D03*
X356634Y453800D02*
D03*
X292209Y453800D02*
D03*
X285909Y453800D02*
D03*
D171*
X285555Y17837D02*
D03*
D256*
X590108Y455861D02*
D03*
X607431D02*
D03*
X21358Y455862D02*
D03*
X38681D02*
D03*
D258*
X457913Y14370D02*
D03*
X427913Y24370D02*
D03*
X437913D02*
D03*
X447913D02*
D03*
Y14370D02*
D03*
X437913D02*
D03*
X427913D02*
D03*
X92243Y15376D02*
D03*
X102243D02*
D03*
X32500Y64370D02*
D03*
Y44370D02*
D03*
Y54370D02*
D03*
X22500D02*
D03*
Y64370D02*
D03*
X32500Y34370D02*
D03*
X22500D02*
D03*
X32500Y24370D02*
D03*
X22500Y14370D02*
D03*
Y44370D02*
D03*
Y24370D02*
D03*
X208611Y211839D02*
D03*
X198611D02*
D03*
Y241839D02*
D03*
Y231839D02*
D03*
X208611D02*
D03*
Y221839D02*
D03*
X198611D02*
D03*
X254125Y104192D02*
D03*
X264125D02*
D03*
X213433Y174767D02*
D03*
Y164767D02*
D03*
D259*
X457913Y24370D02*
D03*
D260*
X76100Y450400D02*
D03*
X106100D02*
D03*
X563400D02*
D03*
X523400D02*
D03*
X467366Y450402D02*
D03*
X507366D02*
D03*
X122137D02*
D03*
X152137D02*
D03*
D261*
X83600Y415400D02*
D03*
X88600Y425400D02*
D03*
X93600Y415400D02*
D03*
X98600Y425400D02*
D03*
X530900D02*
D03*
X535900Y415400D02*
D03*
X555900D02*
D03*
X550900Y425400D02*
D03*
X545900Y415400D02*
D03*
X540900Y425400D02*
D03*
X484866Y425402D02*
D03*
X489866Y415402D02*
D03*
X494866Y425402D02*
D03*
X499866Y415402D02*
D03*
X479866D02*
D03*
X474866Y425402D02*
D03*
X129637Y415402D02*
D03*
X134637Y425402D02*
D03*
X139637Y415402D02*
D03*
X144637Y425402D02*
D03*
X399331Y24370D02*
D03*
X379331D02*
D03*
X409331Y14370D02*
D03*
X389331Y24370D02*
D03*
X359331D02*
D03*
X369331D02*
D03*
X349331D02*
D03*
X339331Y14370D02*
D03*
Y24370D02*
D03*
X399331Y14370D02*
D03*
X389331D02*
D03*
X359331D02*
D03*
X349331D02*
D03*
X379331D02*
D03*
X369331D02*
D03*
X329331Y24370D02*
D03*
Y14370D02*
D03*
X496504Y14370D02*
D03*
X506504D02*
D03*
X476504D02*
D03*
X486504D02*
D03*
X476504Y24370D02*
D03*
X486504D02*
D03*
X496504D02*
D03*
X506504D02*
D03*
X546504Y14370D02*
D03*
X556504D02*
D03*
X526504D02*
D03*
X536504D02*
D03*
X566504D02*
D03*
X576504D02*
D03*
X516504Y24370D02*
D03*
Y14370D02*
D03*
X526504Y24370D02*
D03*
X546504D02*
D03*
X536504D02*
D03*
X566504D02*
D03*
X586504Y14370D02*
D03*
X556504Y24370D02*
D03*
X576504D02*
D03*
D262*
X248244Y414330D02*
D03*
Y421810D02*
D03*
X250409Y418070D02*
D03*
X246079D02*
D03*
X208867Y413780D02*
D03*
X213198D02*
D03*
X211033Y417520D02*
D03*
Y410040D02*
D03*
X205127Y378806D02*
D03*
Y375656D02*
D03*
Y372507D02*
D03*
X209458Y378806D02*
D03*
X205127Y381956D02*
D03*
Y385105D02*
D03*
X200797Y378806D02*
D03*
X208447Y331638D02*
D03*
X212974D02*
D03*
X210711Y327898D02*
D03*
Y335378D02*
D03*
X246013Y370733D02*
D03*
X250344D02*
D03*
X246013Y375063D02*
D03*
X241683Y370733D02*
D03*
X246013Y366402D02*
D03*
D263*
X409489Y433622D02*
D03*
X421300D02*
D03*
X433111D02*
D03*
Y445433D02*
D03*
X421300D02*
D03*
X409489D02*
D03*
X283124Y445441D02*
D03*
X294935D02*
D03*
X306746D02*
D03*
X342179D02*
D03*
X330368D02*
D03*
X365801D02*
D03*
X283124Y433642D02*
D03*
X294935D02*
D03*
X306746D02*
D03*
X342179D02*
D03*
X330368D02*
D03*
X365801D02*
D03*
X318557Y445441D02*
D03*
X353990D02*
D03*
X318557Y433642D02*
D03*
X353990D02*
D03*
X211565Y433622D02*
D03*
X223376D02*
D03*
X235187D02*
D03*
Y445433D02*
D03*
X223376D02*
D03*
X211565D02*
D03*
X181890Y433622D02*
D03*
Y445433D02*
D03*
D264*
X401024Y462441D02*
D03*
X441576D02*
D03*
X274659Y462449D02*
D03*
X374265D02*
D03*
X203100Y462441D02*
D03*
X243651D02*
D03*
X190355Y462441D02*
D03*
X173425D02*
D03*
D265*
X32500Y14370D02*
D03*
X208611Y241839D02*
D03*
D266*
X594488Y411417D02*
D03*
X385827Y411417D02*
D03*
X185039D02*
D03*
X27559Y411417D02*
D03*
Y98425D02*
D03*
X185039D02*
D03*
X307087D02*
D03*
X602362D02*
D03*
D267*
X594488Y420866D02*
D03*
X586305Y416142D02*
D03*
Y406693D02*
D03*
X594488Y401968D02*
D03*
X602671Y406693D02*
D03*
Y416142D02*
D03*
X394010Y416142D02*
D03*
Y406693D02*
D03*
X385827Y401968D02*
D03*
X377644Y406693D02*
D03*
Y416142D02*
D03*
X385827Y420866D02*
D03*
X185039D02*
D03*
X176856Y416142D02*
D03*
Y406693D02*
D03*
X185039Y401968D02*
D03*
X193222Y406693D02*
D03*
Y416142D02*
D03*
X35742Y416142D02*
D03*
Y406693D02*
D03*
X27559Y401968D02*
D03*
X19376Y406693D02*
D03*
Y416142D02*
D03*
X27559Y420866D02*
D03*
Y107874D02*
D03*
X19376Y103149D02*
D03*
Y93701D02*
D03*
X27559Y88976D02*
D03*
X35742Y93701D02*
D03*
Y103149D02*
D03*
X193222D02*
D03*
Y93701D02*
D03*
X185039Y88976D02*
D03*
X176856Y93701D02*
D03*
Y103149D02*
D03*
X185039Y107874D02*
D03*
X307087D02*
D03*
X298904Y103149D02*
D03*
Y93701D02*
D03*
X307087Y88976D02*
D03*
X315270Y93701D02*
D03*
Y103149D02*
D03*
X610545D02*
D03*
Y93701D02*
D03*
X602362Y88976D02*
D03*
X594179Y93701D02*
D03*
Y103149D02*
D03*
X602362Y107874D02*
D03*
D268*
X409331Y24370D02*
D03*
X586504Y24370D02*
D03*
D269*
X606712Y239514D02*
D03*
X587027D02*
D03*
D270*
X533057D02*
D03*
X552742D02*
D03*
D271*
X246651Y392182D02*
D03*
X250214D02*
D03*
X248435Y396021D02*
D03*
X251998D02*
D03*
X248435Y388344D02*
D03*
X251998D02*
D03*
X253777Y392182D02*
D03*
X360630Y409921D02*
D03*
X364469Y408142D02*
D03*
Y404578D02*
D03*
X356791Y408142D02*
D03*
Y404578D02*
D03*
X360630Y406358D02*
D03*
Y402795D02*
D03*
X336163D02*
D03*
Y406358D02*
D03*
X332325Y404578D02*
D03*
Y408142D02*
D03*
X340002Y404578D02*
D03*
Y408142D02*
D03*
X336163Y409921D02*
D03*
X287445D02*
D03*
X291283Y408142D02*
D03*
Y404578D02*
D03*
X283606Y408142D02*
D03*
Y404578D02*
D03*
X287445Y406358D02*
D03*
Y402795D02*
D03*
X311705D02*
D03*
Y406358D02*
D03*
X307866Y404578D02*
D03*
Y408142D02*
D03*
X315543Y404578D02*
D03*
Y408142D02*
D03*
X311705Y409921D02*
D03*
D370*
X584400Y446707D02*
D03*
Y464424D02*
D03*
X613140D02*
D03*
Y446707D02*
D03*
X15650Y446709D02*
D03*
Y464425D02*
D03*
X44390D02*
D03*
Y446709D02*
D03*
M02*
