G04*
G04 #@! TF.GenerationSoftware,Altium Limited,Altium Designer,20.0.10 (225)*
G04*
G04 Layer_Color=8421504*
%FSLAX25Y25*%
%MOIN*%
G70*
G01*
G75*
%ADD24C,0.00394*%
G04:AMPARAMS|DCode=35|XSize=44.29mil|YSize=27.76mil|CornerRadius=1.94mil|HoleSize=0mil|Usage=FLASHONLY|Rotation=270.000|XOffset=0mil|YOffset=0mil|HoleType=Round|Shape=RoundedRectangle|*
%AMROUNDEDRECTD35*
21,1,0.04429,0.02387,0,0,270.0*
21,1,0.04041,0.02776,0,0,270.0*
1,1,0.00389,-0.01194,-0.02020*
1,1,0.00389,-0.01194,0.02020*
1,1,0.00389,0.01194,0.02020*
1,1,0.00389,0.01194,-0.02020*
%
%ADD35ROUNDEDRECTD35*%
G04:AMPARAMS|DCode=36|XSize=23.62mil|YSize=11.81mil|CornerRadius=1.95mil|HoleSize=0mil|Usage=FLASHONLY|Rotation=180.000|XOffset=0mil|YOffset=0mil|HoleType=Round|Shape=RoundedRectangle|*
%AMROUNDEDRECTD36*
21,1,0.02362,0.00791,0,0,180.0*
21,1,0.01972,0.01181,0,0,180.0*
1,1,0.00390,-0.00986,0.00396*
1,1,0.00390,0.00986,0.00396*
1,1,0.00390,0.00986,-0.00396*
1,1,0.00390,-0.00986,-0.00396*
%
%ADD36ROUNDEDRECTD36*%
G04:AMPARAMS|DCode=37|XSize=23.62mil|YSize=11.81mil|CornerRadius=1.95mil|HoleSize=0mil|Usage=FLASHONLY|Rotation=270.000|XOffset=0mil|YOffset=0mil|HoleType=Round|Shape=RoundedRectangle|*
%AMROUNDEDRECTD37*
21,1,0.02362,0.00791,0,0,270.0*
21,1,0.01972,0.01181,0,0,270.0*
1,1,0.00390,-0.00396,-0.00986*
1,1,0.00390,-0.00396,0.00986*
1,1,0.00390,0.00396,0.00986*
1,1,0.00390,0.00396,-0.00986*
%
%ADD37ROUNDEDRECTD37*%
G04:AMPARAMS|DCode=38|XSize=44.29mil|YSize=27.76mil|CornerRadius=1.94mil|HoleSize=0mil|Usage=FLASHONLY|Rotation=0.000|XOffset=0mil|YOffset=0mil|HoleType=Round|Shape=RoundedRectangle|*
%AMROUNDEDRECTD38*
21,1,0.04429,0.02387,0,0,0.0*
21,1,0.04041,0.02776,0,0,0.0*
1,1,0.00389,0.02020,-0.01194*
1,1,0.00389,-0.02020,-0.01194*
1,1,0.00389,-0.02020,0.01194*
1,1,0.00389,0.02020,0.01194*
%
%ADD38ROUNDEDRECTD38*%
G04:AMPARAMS|DCode=39|XSize=36.22mil|YSize=36.22mil|CornerRadius=1.99mil|HoleSize=0mil|Usage=FLASHONLY|Rotation=90.000|XOffset=0mil|YOffset=0mil|HoleType=Round|Shape=RoundedRectangle|*
%AMROUNDEDRECTD39*
21,1,0.03622,0.03224,0,0,90.0*
21,1,0.03224,0.03622,0,0,90.0*
1,1,0.00398,0.01612,0.01612*
1,1,0.00398,0.01612,-0.01612*
1,1,0.00398,-0.01612,-0.01612*
1,1,0.00398,-0.01612,0.01612*
%
%ADD39ROUNDEDRECTD39*%
G04:AMPARAMS|DCode=40|XSize=44.02mil|YSize=62.36mil|CornerRadius=3.08mil|HoleSize=0mil|Usage=FLASHONLY|Rotation=180.000|XOffset=0mil|YOffset=0mil|HoleType=Round|Shape=RoundedRectangle|*
%AMROUNDEDRECTD40*
21,1,0.04402,0.05620,0,0,180.0*
21,1,0.03785,0.06236,0,0,180.0*
1,1,0.00616,-0.01893,0.02810*
1,1,0.00616,0.01893,0.02810*
1,1,0.00616,0.01893,-0.02810*
1,1,0.00616,-0.01893,-0.02810*
%
%ADD40ROUNDEDRECTD40*%
G04:AMPARAMS|DCode=41|XSize=59.06mil|YSize=41.73mil|CornerRadius=10.43mil|HoleSize=0mil|Usage=FLASHONLY|Rotation=180.000|XOffset=0mil|YOffset=0mil|HoleType=Round|Shape=RoundedRectangle|*
%AMROUNDEDRECTD41*
21,1,0.05906,0.02087,0,0,180.0*
21,1,0.03819,0.04173,0,0,180.0*
1,1,0.02087,-0.01909,0.01043*
1,1,0.02087,0.01909,0.01043*
1,1,0.02087,0.01909,-0.01043*
1,1,0.02087,-0.01909,-0.01043*
%
%ADD41ROUNDEDRECTD41*%
G04:AMPARAMS|DCode=42|XSize=9.84mil|YSize=13.39mil|CornerRadius=2.46mil|HoleSize=0mil|Usage=FLASHONLY|Rotation=180.000|XOffset=0mil|YOffset=0mil|HoleType=Round|Shape=RoundedRectangle|*
%AMROUNDEDRECTD42*
21,1,0.00984,0.00847,0,0,180.0*
21,1,0.00492,0.01339,0,0,180.0*
1,1,0.00492,-0.00246,0.00423*
1,1,0.00492,0.00246,0.00423*
1,1,0.00492,0.00246,-0.00423*
1,1,0.00492,-0.00246,-0.00423*
%
%ADD42ROUNDEDRECTD42*%
G04:AMPARAMS|DCode=43|XSize=68.9mil|YSize=51.58mil|CornerRadius=12.89mil|HoleSize=0mil|Usage=FLASHONLY|Rotation=0.000|XOffset=0mil|YOffset=0mil|HoleType=Round|Shape=RoundedRectangle|*
%AMROUNDEDRECTD43*
21,1,0.06890,0.02579,0,0,0.0*
21,1,0.04311,0.05158,0,0,0.0*
1,1,0.02579,0.02156,-0.01289*
1,1,0.02579,-0.02156,-0.01289*
1,1,0.02579,-0.02156,0.01289*
1,1,0.02579,0.02156,0.01289*
%
%ADD43ROUNDEDRECTD43*%
G04:AMPARAMS|DCode=44|XSize=68.9mil|YSize=51.58mil|CornerRadius=12.89mil|HoleSize=0mil|Usage=FLASHONLY|Rotation=90.000|XOffset=0mil|YOffset=0mil|HoleType=Round|Shape=RoundedRectangle|*
%AMROUNDEDRECTD44*
21,1,0.06890,0.02579,0,0,90.0*
21,1,0.04311,0.05158,0,0,90.0*
1,1,0.02579,0.01289,0.02156*
1,1,0.02579,0.01289,-0.02156*
1,1,0.02579,-0.01289,-0.02156*
1,1,0.02579,-0.01289,0.02156*
%
%ADD44ROUNDEDRECTD44*%
%ADD45R,0.07087X0.07087*%
%ADD46R,0.02362X0.07480*%
%ADD47R,0.02362X0.07087*%
%ADD48R,0.06299X0.06299*%
G04:AMPARAMS|DCode=49|XSize=15.75mil|YSize=33.47mil|CornerRadius=1.97mil|HoleSize=0mil|Usage=FLASHONLY|Rotation=0.000|XOffset=0mil|YOffset=0mil|HoleType=Round|Shape=RoundedRectangle|*
%AMROUNDEDRECTD49*
21,1,0.01575,0.02953,0,0,0.0*
21,1,0.01181,0.03347,0,0,0.0*
1,1,0.00394,0.00591,-0.01476*
1,1,0.00394,-0.00591,-0.01476*
1,1,0.00394,-0.00591,0.01476*
1,1,0.00394,0.00591,0.01476*
%
%ADD49ROUNDEDRECTD49*%
G04:AMPARAMS|DCode=50|XSize=94.49mil|YSize=19.68mil|CornerRadius=4.92mil|HoleSize=0mil|Usage=FLASHONLY|Rotation=90.000|XOffset=0mil|YOffset=0mil|HoleType=Round|Shape=RoundedRectangle|*
%AMROUNDEDRECTD50*
21,1,0.09449,0.00984,0,0,90.0*
21,1,0.08465,0.01968,0,0,90.0*
1,1,0.00984,0.00492,0.04232*
1,1,0.00984,0.00492,-0.04232*
1,1,0.00984,-0.00492,-0.04232*
1,1,0.00984,-0.00492,0.04232*
%
%ADD50ROUNDEDRECTD50*%
%ADD51R,0.00100X0.00100*%
%ADD52R,0.00945X0.02362*%
%ADD53R,0.02362X0.00945*%
%ADD54O,0.05906X0.01575*%
%ADD55R,0.14567X0.04331*%
%ADD56R,0.04724X0.02165*%
%ADD57R,0.02362X0.04331*%
G04:AMPARAMS|DCode=58|XSize=34.25mil|YSize=27.95mil|CornerRadius=1.96mil|HoleSize=0mil|Usage=FLASHONLY|Rotation=180.000|XOffset=0mil|YOffset=0mil|HoleType=Round|Shape=RoundedRectangle|*
%AMROUNDEDRECTD58*
21,1,0.03425,0.02404,0,0,180.0*
21,1,0.03034,0.02795,0,0,180.0*
1,1,0.00391,-0.01517,0.01202*
1,1,0.00391,0.01517,0.01202*
1,1,0.00391,0.01517,-0.01202*
1,1,0.00391,-0.01517,-0.01202*
%
%ADD58ROUNDEDRECTD58*%
G04:AMPARAMS|DCode=59|XSize=35.43mil|YSize=27.56mil|CornerRadius=6.89mil|HoleSize=0mil|Usage=FLASHONLY|Rotation=270.000|XOffset=0mil|YOffset=0mil|HoleType=Round|Shape=RoundedRectangle|*
%AMROUNDEDRECTD59*
21,1,0.03543,0.01378,0,0,270.0*
21,1,0.02165,0.02756,0,0,270.0*
1,1,0.01378,-0.00689,-0.01083*
1,1,0.01378,-0.00689,0.01083*
1,1,0.01378,0.00689,0.01083*
1,1,0.01378,0.00689,-0.01083*
%
%ADD59ROUNDEDRECTD59*%
%ADD60R,0.05000X0.06300*%
%ADD61R,0.01968X0.01968*%
%ADD62R,0.03937X0.02362*%
%ADD63R,0.04331X0.02559*%
%ADD64R,0.09563X0.03063*%
%ADD65O,0.03150X0.00984*%
%ADD66O,0.00984X0.03150*%
%ADD67R,0.06496X0.06496*%
%ADD68R,0.04134X0.02362*%
%ADD69R,0.07480X0.05512*%
%ADD70R,0.13500X0.07000*%
G04:AMPARAMS|DCode=71|XSize=9.45mil|YSize=23.62mil|CornerRadius=1.98mil|HoleSize=0mil|Usage=FLASHONLY|Rotation=270.000|XOffset=0mil|YOffset=0mil|HoleType=Round|Shape=RoundedRectangle|*
%AMROUNDEDRECTD71*
21,1,0.00945,0.01965,0,0,270.0*
21,1,0.00548,0.02362,0,0,270.0*
1,1,0.00397,-0.00983,-0.00274*
1,1,0.00397,-0.00983,0.00274*
1,1,0.00397,0.00983,0.00274*
1,1,0.00397,0.00983,-0.00274*
%
%ADD71ROUNDEDRECTD71*%
G04:AMPARAMS|DCode=72|XSize=9.45mil|YSize=23.62mil|CornerRadius=1.98mil|HoleSize=0mil|Usage=FLASHONLY|Rotation=0.000|XOffset=0mil|YOffset=0mil|HoleType=Round|Shape=RoundedRectangle|*
%AMROUNDEDRECTD72*
21,1,0.00945,0.01965,0,0,0.0*
21,1,0.00548,0.02362,0,0,0.0*
1,1,0.00397,0.00274,-0.00983*
1,1,0.00397,-0.00274,-0.00983*
1,1,0.00397,-0.00274,0.00983*
1,1,0.00397,0.00274,0.00983*
%
%ADD72ROUNDEDRECTD72*%
%ADD73R,0.06496X0.06496*%
%ADD74R,0.02992X0.06575*%
%ADD75R,0.06300X0.05000*%
%ADD76O,0.02362X0.00945*%
%ADD77O,0.00945X0.02362*%
%ADD78R,0.17700X0.07100*%
%ADD79R,0.02362X0.04134*%
%ADD80R,0.02854X0.03937*%
%ADD81R,0.07480X0.02362*%
G04:AMPARAMS|DCode=82|XSize=100.39mil|YSize=109.06mil|CornerRadius=2.51mil|HoleSize=0mil|Usage=FLASHONLY|Rotation=0.000|XOffset=0mil|YOffset=0mil|HoleType=Round|Shape=RoundedRectangle|*
%AMROUNDEDRECTD82*
21,1,0.10039,0.10404,0,0,0.0*
21,1,0.09537,0.10906,0,0,0.0*
1,1,0.00502,0.04769,-0.05202*
1,1,0.00502,-0.04769,-0.05202*
1,1,0.00502,-0.04769,0.05202*
1,1,0.00502,0.04769,0.05202*
%
%ADD82ROUNDEDRECTD82*%
%ADD83R,0.06693X0.07284*%
G04:AMPARAMS|DCode=84|XSize=67mil|YSize=41mil|CornerRadius=10.25mil|HoleSize=0mil|Usage=FLASHONLY|Rotation=270.000|XOffset=0mil|YOffset=0mil|HoleType=Round|Shape=RoundedRectangle|*
%AMROUNDEDRECTD84*
21,1,0.06700,0.02050,0,0,270.0*
21,1,0.04650,0.04100,0,0,270.0*
1,1,0.02050,-0.01025,-0.02325*
1,1,0.02050,-0.01025,0.02325*
1,1,0.02050,0.01025,0.02325*
1,1,0.02050,0.01025,-0.02325*
%
%ADD84ROUNDEDRECTD84*%
%ADD85R,0.04100X0.06700*%
%ADD86R,0.06700X0.04100*%
G04:AMPARAMS|DCode=87|XSize=67mil|YSize=41mil|CornerRadius=10.25mil|HoleSize=0mil|Usage=FLASHONLY|Rotation=0.000|XOffset=0mil|YOffset=0mil|HoleType=Round|Shape=RoundedRectangle|*
%AMROUNDEDRECTD87*
21,1,0.06700,0.02050,0,0,0.0*
21,1,0.04650,0.04100,0,0,0.0*
1,1,0.02050,0.02325,-0.01025*
1,1,0.02050,-0.02325,-0.01025*
1,1,0.02050,-0.02325,0.01025*
1,1,0.02050,0.02325,0.01025*
%
%ADD87ROUNDEDRECTD87*%
%ADD88R,0.06102X0.07480*%
%ADD89R,0.02362X0.03937*%
G04:AMPARAMS|DCode=90|XSize=46.28mil|YSize=75.8mil|CornerRadius=0mil|HoleSize=0mil|Usage=FLASHONLY|Rotation=180.000|XOffset=0mil|YOffset=0mil|HoleType=Round|Shape=RoundedRectangle|*
%AMROUNDEDRECTD90*
21,1,0.04628,0.07580,0,0,180.0*
21,1,0.04628,0.07580,0,0,180.0*
1,1,0.00000,-0.02314,0.03790*
1,1,0.00000,0.02314,0.03790*
1,1,0.00000,0.02314,-0.03790*
1,1,0.00000,-0.02314,-0.03790*
%
%ADD90ROUNDEDRECTD90*%
G04:AMPARAMS|DCode=91|XSize=23.62mil|YSize=9.84mil|CornerRadius=1.97mil|HoleSize=0mil|Usage=FLASHONLY|Rotation=180.000|XOffset=0mil|YOffset=0mil|HoleType=Round|Shape=RoundedRectangle|*
%AMROUNDEDRECTD91*
21,1,0.02362,0.00591,0,0,180.0*
21,1,0.01968,0.00984,0,0,180.0*
1,1,0.00394,-0.00984,0.00295*
1,1,0.00394,0.00984,0.00295*
1,1,0.00394,0.00984,-0.00295*
1,1,0.00394,-0.00984,-0.00295*
%
%ADD91ROUNDEDRECTD91*%
%ADD92R,0.11024X0.02756*%
%ADD93O,0.05709X0.01575*%
%ADD94R,0.06496X0.09370*%
%ADD95R,0.02756X0.00984*%
%ADD96R,0.01968X0.01968*%
G04:AMPARAMS|DCode=97|XSize=34.25mil|YSize=27.95mil|CornerRadius=1.96mil|HoleSize=0mil|Usage=FLASHONLY|Rotation=270.000|XOffset=0mil|YOffset=0mil|HoleType=Round|Shape=RoundedRectangle|*
%AMROUNDEDRECTD97*
21,1,0.03425,0.02404,0,0,270.0*
21,1,0.03034,0.02795,0,0,270.0*
1,1,0.00391,-0.01202,-0.01517*
1,1,0.00391,-0.01202,0.01517*
1,1,0.00391,0.01202,0.01517*
1,1,0.00391,0.01202,-0.01517*
%
%ADD97ROUNDEDRECTD97*%
G04:AMPARAMS|DCode=98|XSize=100.39mil|YSize=109.06mil|CornerRadius=2.51mil|HoleSize=0mil|Usage=FLASHONLY|Rotation=90.000|XOffset=0mil|YOffset=0mil|HoleType=Round|Shape=RoundedRectangle|*
%AMROUNDEDRECTD98*
21,1,0.10039,0.10404,0,0,90.0*
21,1,0.09537,0.10906,0,0,90.0*
1,1,0.00502,0.05202,0.04769*
1,1,0.00502,0.05202,-0.04769*
1,1,0.00502,-0.05202,-0.04769*
1,1,0.00502,-0.05202,0.04769*
%
%ADD98ROUNDEDRECTD98*%
%ADD99R,0.03307X0.03307*%
%ADD100R,0.03307X0.03543*%
%ADD101R,0.03583X0.04803*%
%ADD102R,0.03543X0.03150*%
%ADD103R,0.02756X0.03543*%
G04:AMPARAMS|DCode=104|XSize=1mil|YSize=1mil|CornerRadius=0mil|HoleSize=0mil|Usage=FLASHONLY|Rotation=270.000|XOffset=0mil|YOffset=0mil|HoleType=Round|Shape=RoundedRectangle|*
%AMROUNDEDRECTD104*
21,1,0.00100,0.00100,0,0,270.0*
21,1,0.00100,0.00100,0,0,270.0*
1,1,0.00000,-0.00050,-0.00050*
1,1,0.00000,-0.00050,0.00050*
1,1,0.00000,0.00050,0.00050*
1,1,0.00000,0.00050,-0.00050*
%
%ADD104ROUNDEDRECTD104*%
G04:AMPARAMS|DCode=105|XSize=9.45mil|YSize=23.62mil|CornerRadius=1.94mil|HoleSize=0mil|Usage=FLASHONLY|Rotation=270.000|XOffset=0mil|YOffset=0mil|HoleType=Round|Shape=RoundedRectangle|*
%AMROUNDEDRECTD105*
21,1,0.00945,0.01975,0,0,270.0*
21,1,0.00558,0.02362,0,0,270.0*
1,1,0.00387,-0.00987,-0.00279*
1,1,0.00387,-0.00987,0.00279*
1,1,0.00387,0.00987,0.00279*
1,1,0.00387,0.00987,-0.00279*
%
%ADD105ROUNDEDRECTD105*%
G04:AMPARAMS|DCode=106|XSize=9.45mil|YSize=23.62mil|CornerRadius=1.94mil|HoleSize=0mil|Usage=FLASHONLY|Rotation=0.000|XOffset=0mil|YOffset=0mil|HoleType=Round|Shape=RoundedRectangle|*
%AMROUNDEDRECTD106*
21,1,0.00945,0.01975,0,0,0.0*
21,1,0.00558,0.02362,0,0,0.0*
1,1,0.00387,0.00279,-0.00987*
1,1,0.00387,-0.00279,-0.00987*
1,1,0.00387,-0.00279,0.00987*
1,1,0.00387,0.00279,0.00987*
%
%ADD106ROUNDEDRECTD106*%
%ADD107R,0.07087X0.03937*%
%ADD108R,0.07000X0.13500*%
%ADD109R,0.03937X0.05512*%
%ADD110O,0.07087X0.01181*%
%ADD111O,0.01181X0.07087*%
%ADD112R,0.09646X0.10039*%
%ADD113R,0.07441X0.04882*%
G04:AMPARAMS|DCode=114|XSize=11.81mil|YSize=23.62mil|CornerRadius=1.95mil|HoleSize=0mil|Usage=FLASHONLY|Rotation=270.000|XOffset=0mil|YOffset=0mil|HoleType=Round|Shape=RoundedRectangle|*
%AMROUNDEDRECTD114*
21,1,0.01181,0.01972,0,0,270.0*
21,1,0.00791,0.02362,0,0,270.0*
1,1,0.00390,-0.00986,-0.00396*
1,1,0.00390,-0.00986,0.00396*
1,1,0.00390,0.00986,0.00396*
1,1,0.00390,0.00986,-0.00396*
%
%ADD114ROUNDEDRECTD114*%
%ADD115R,0.05512X0.07480*%
%ADD116R,0.05118X0.05512*%
%ADD117R,0.03937X0.03740*%
%ADD118R,0.03150X0.05906*%
%ADD119R,0.03543X0.03937*%
%ADD120R,0.03150X0.03150*%
%ADD121R,0.02362X0.01181*%
%ADD122R,0.04882X0.07441*%
%ADD123R,0.10039X0.09646*%
G04:AMPARAMS|DCode=124|XSize=11.81mil|YSize=23.62mil|CornerRadius=1.95mil|HoleSize=0mil|Usage=FLASHONLY|Rotation=0.000|XOffset=0mil|YOffset=0mil|HoleType=Round|Shape=RoundedRectangle|*
%AMROUNDEDRECTD124*
21,1,0.01181,0.01972,0,0,0.0*
21,1,0.00791,0.02362,0,0,0.0*
1,1,0.00390,0.00396,-0.00986*
1,1,0.00390,-0.00396,-0.00986*
1,1,0.00390,-0.00396,0.00986*
1,1,0.00390,0.00396,0.00986*
%
%ADD124ROUNDEDRECTD124*%
%ADD125R,0.05512X0.03543*%
%ADD126R,0.05512X0.08661*%
%ADD127R,0.03543X0.05512*%
%ADD128R,0.08661X0.05512*%
%ADD129R,0.03937X0.04724*%
%ADD130R,0.04724X0.03937*%
%ADD131R,0.03937X0.07087*%
%ADD132R,0.04331X0.10236*%
%ADD133R,0.04921X0.01181*%
G04:AMPARAMS|DCode=134|XSize=23.62mil|YSize=59.06mil|CornerRadius=5.91mil|HoleSize=0mil|Usage=FLASHONLY|Rotation=90.000|XOffset=0mil|YOffset=0mil|HoleType=Round|Shape=RoundedRectangle|*
%AMROUNDEDRECTD134*
21,1,0.02362,0.04724,0,0,90.0*
21,1,0.01181,0.05906,0,0,90.0*
1,1,0.01181,0.02362,0.00591*
1,1,0.01181,0.02362,-0.00591*
1,1,0.01181,-0.02362,-0.00591*
1,1,0.01181,-0.02362,0.00591*
%
%ADD134ROUNDEDRECTD134*%
G04:AMPARAMS|DCode=135|XSize=17.72mil|YSize=33.47mil|CornerRadius=4.43mil|HoleSize=0mil|Usage=FLASHONLY|Rotation=0.000|XOffset=0mil|YOffset=0mil|HoleType=Round|Shape=RoundedRectangle|*
%AMROUNDEDRECTD135*
21,1,0.01772,0.02461,0,0,0.0*
21,1,0.00886,0.03347,0,0,0.0*
1,1,0.00886,0.00443,-0.01230*
1,1,0.00886,-0.00443,-0.01230*
1,1,0.00886,-0.00443,0.01230*
1,1,0.00886,0.00443,0.01230*
%
%ADD135ROUNDEDRECTD135*%
%ADD136R,0.03937X0.03543*%
%ADD137R,0.03150X0.03150*%
G04:AMPARAMS|DCode=138|XSize=17.72mil|YSize=33.47mil|CornerRadius=4.43mil|HoleSize=0mil|Usage=FLASHONLY|Rotation=90.000|XOffset=0mil|YOffset=0mil|HoleType=Round|Shape=RoundedRectangle|*
%AMROUNDEDRECTD138*
21,1,0.01772,0.02461,0,0,90.0*
21,1,0.00886,0.03347,0,0,90.0*
1,1,0.00886,0.01230,0.00443*
1,1,0.00886,0.01230,-0.00443*
1,1,0.00886,-0.01230,-0.00443*
1,1,0.00886,-0.01230,0.00443*
%
%ADD138ROUNDEDRECTD138*%
G36*
X39362Y437076D02*
X37295Y436221D01*
X35228Y437076D01*
X35228Y439665D01*
X39362D01*
X39362Y437076D01*
D02*
G37*
G36*
X51029Y437076D02*
X48962Y436221D01*
X46895Y437076D01*
X46895Y439665D01*
X51029D01*
Y437076D01*
D02*
G37*
G36*
X608046Y437011D02*
X605979Y436156D01*
X603912Y437011D01*
X603912Y439601D01*
X608046D01*
X608046Y437011D01*
D02*
G37*
G36*
X619713Y437011D02*
X617646Y436156D01*
X615579Y437011D01*
X615579Y439601D01*
X619713D01*
Y437011D01*
D02*
G37*
G36*
X44587Y436946D02*
X43110Y436024D01*
X41634Y436946D01*
Y439075D01*
X44587D01*
Y436946D01*
D02*
G37*
G36*
X613271Y436882D02*
X611795Y435959D01*
X610318Y436882D01*
Y439010D01*
X613271D01*
Y436882D01*
D02*
G37*
G36*
X202302Y434392D02*
X199644Y433292D01*
X196987Y434392D01*
Y436737D01*
X202302D01*
Y434392D01*
D02*
G37*
G36*
X44587Y431951D02*
X44587Y429823D01*
X41634Y429823D01*
Y431951D01*
X43110Y432874D01*
X44587Y431951D01*
D02*
G37*
G36*
X613271Y431887D02*
X613271Y429758D01*
X610318Y429758D01*
Y431887D01*
X611795Y432809D01*
X613271Y431887D01*
D02*
G37*
G36*
X39362Y431822D02*
X39362Y429232D01*
X35228D01*
Y431822D01*
X37295Y432677D01*
X39362Y431822D01*
D02*
G37*
G36*
X51029D02*
Y429232D01*
X46895D01*
X46895Y431822D01*
X48962Y432677D01*
X51029Y431822D01*
D02*
G37*
G36*
X608046Y431757D02*
X608046Y429168D01*
X603912D01*
Y431757D01*
X605979Y432613D01*
X608046Y431757D01*
D02*
G37*
G36*
X619713D02*
Y429168D01*
X615579D01*
X615579Y431757D01*
X617646Y432613D01*
X619713Y431757D01*
D02*
G37*
G36*
X202302Y428649D02*
Y426304D01*
X196987D01*
Y428649D01*
X199644Y429749D01*
X202302Y428649D01*
D02*
G37*
G36*
X329339Y425027D02*
X327272Y424172D01*
X325205Y425027D01*
Y427617D01*
X329339D01*
X329339Y425027D01*
D02*
G37*
G36*
X353726Y424932D02*
X351659Y424077D01*
X349592Y424932D01*
Y427522D01*
X353726D01*
X353726Y424932D01*
D02*
G37*
G36*
X335814Y424882D02*
X333747Y424027D01*
X331680Y424882D01*
Y427472D01*
X335814D01*
X335814Y424882D01*
D02*
G37*
G36*
X360236Y424871D02*
X358169Y424016D01*
X356102Y424871D01*
Y427461D01*
X360236D01*
X360236Y424871D01*
D02*
G37*
G36*
X311425Y424691D02*
X309358Y423836D01*
X307291Y424691D01*
Y427281D01*
X311425D01*
X311425Y424691D01*
D02*
G37*
G36*
X305040D02*
X302973Y423836D01*
X300906Y424691D01*
Y427281D01*
X305040D01*
X305040Y424691D01*
D02*
G37*
G36*
X287126Y424589D02*
X285059Y423734D01*
X282992Y424589D01*
Y427178D01*
X287126D01*
X287126Y424589D01*
D02*
G37*
G36*
X280640D02*
X278573Y423734D01*
X276506Y424589D01*
Y427178D01*
X280640D01*
X280640Y424589D01*
D02*
G37*
G36*
X250985Y422673D02*
X251021Y422662D01*
X251054Y422644D01*
X251082Y422621D01*
X251106Y422592D01*
X251123Y422559D01*
X251134Y422523D01*
X251138Y422487D01*
Y418653D01*
X251134Y418616D01*
X251123Y418581D01*
X251106Y418548D01*
X251082Y418519D01*
X251054Y418496D01*
X251021Y418478D01*
X250985Y418467D01*
X250948Y418464D01*
X245540D01*
X245503Y418467D01*
X245467Y418478D01*
X245435Y418496D01*
X245406Y418519D01*
X245382Y418548D01*
X245365Y418581D01*
X245354Y418616D01*
X245350Y418653D01*
Y422487D01*
X245354Y422523D01*
X245365Y422559D01*
X245382Y422592D01*
X245406Y422621D01*
X245435Y422644D01*
X245467Y422662D01*
X245503Y422673D01*
X245540Y422676D01*
X250948D01*
X250985Y422673D01*
D02*
G37*
G36*
X329339Y419773D02*
X329339Y417183D01*
X325205D01*
Y419773D01*
X327272Y420628D01*
X329339Y419773D01*
D02*
G37*
G36*
X353726Y419678D02*
X353726Y417088D01*
X349592D01*
Y419678D01*
X351659Y420533D01*
X353726Y419678D01*
D02*
G37*
G36*
X335814Y419628D02*
X335814Y417039D01*
X331680D01*
Y419628D01*
X333747Y420484D01*
X335814Y419628D01*
D02*
G37*
G36*
X360236Y419617D02*
X360236Y417028D01*
X356102D01*
Y419617D01*
X358169Y420472D01*
X360236Y419617D01*
D02*
G37*
G36*
X311425Y419437D02*
X311425Y416847D01*
X307291D01*
Y419437D01*
X309358Y420292D01*
X311425Y419437D01*
D02*
G37*
G36*
X305040D02*
X305040Y416847D01*
X300906D01*
Y419437D01*
X302973Y420292D01*
X305040Y419437D01*
D02*
G37*
G36*
X287126Y419335D02*
X287126Y416745D01*
X282992D01*
Y419335D01*
X285059Y420190D01*
X287126Y419335D01*
D02*
G37*
G36*
X280640D02*
X280640Y416745D01*
X276506D01*
Y419335D01*
X278573Y420190D01*
X280640Y419335D01*
D02*
G37*
G36*
X213774Y418383D02*
X213809Y418372D01*
X213842Y418354D01*
X213871Y418331D01*
X213894Y418302D01*
X213912Y418269D01*
X213923Y418234D01*
X213926Y418197D01*
Y414363D01*
X213923Y414326D01*
X213912Y414291D01*
X213894Y414258D01*
X213871Y414229D01*
X213842Y414206D01*
X213809Y414188D01*
X213774Y414177D01*
X213737Y414174D01*
X208329D01*
X208292Y414177D01*
X208256Y414188D01*
X208223Y414206D01*
X208194Y414229D01*
X208171Y414258D01*
X208153Y414291D01*
X208143Y414326D01*
X208139Y414363D01*
Y418197D01*
X208143Y418234D01*
X208153Y418269D01*
X208171Y418302D01*
X208194Y418331D01*
X208223Y418354D01*
X208256Y418372D01*
X208292Y418383D01*
X208329Y418386D01*
X213737D01*
X213774Y418383D01*
D02*
G37*
G36*
X250985Y417672D02*
X251021Y417662D01*
X251054Y417644D01*
X251082Y417621D01*
X251106Y417592D01*
X251123Y417559D01*
X251134Y417523D01*
X251138Y417487D01*
Y413653D01*
X251134Y413616D01*
X251123Y413581D01*
X251106Y413548D01*
X251082Y413519D01*
X251054Y413495D01*
X251021Y413478D01*
X250985Y413467D01*
X250948Y413463D01*
X245540D01*
X245503Y413467D01*
X245467Y413478D01*
X245435Y413495D01*
X245406Y413519D01*
X245382Y413548D01*
X245365Y413581D01*
X245354Y413616D01*
X245350Y413653D01*
Y417487D01*
X245354Y417523D01*
X245365Y417559D01*
X245382Y417592D01*
X245406Y417621D01*
X245435Y417644D01*
X245467Y417662D01*
X245503Y417672D01*
X245540Y417676D01*
X250948D01*
X250985Y417672D01*
D02*
G37*
G36*
X213774Y413383D02*
X213809Y413372D01*
X213842Y413354D01*
X213871Y413331D01*
X213894Y413302D01*
X213912Y413269D01*
X213923Y413234D01*
X213926Y413197D01*
Y409363D01*
X213923Y409326D01*
X213912Y409291D01*
X213894Y409258D01*
X213871Y409229D01*
X213842Y409206D01*
X213809Y409188D01*
X213774Y409177D01*
X213737Y409174D01*
X208329D01*
X208292Y409177D01*
X208256Y409188D01*
X208223Y409206D01*
X208194Y409229D01*
X208171Y409258D01*
X208153Y409291D01*
X208143Y409326D01*
X208139Y409363D01*
Y413197D01*
X208143Y413234D01*
X208153Y413269D01*
X208171Y413302D01*
X208194Y413331D01*
X208223Y413354D01*
X208256Y413372D01*
X208292Y413383D01*
X208329Y413386D01*
X213737D01*
X213774Y413383D01*
D02*
G37*
G36*
X414001Y403602D02*
X411873D01*
X410950Y405079D01*
X411873Y406555D01*
X414001D01*
Y403602D01*
D02*
G37*
G36*
X407800Y405079D02*
X406878Y403602D01*
X404749D01*
X404749Y406555D01*
X406878D01*
X407800Y405079D01*
D02*
G37*
G36*
X425394Y403602D02*
X423265D01*
X422342Y405079D01*
X423265Y406555D01*
X425394D01*
X425394Y403602D01*
D02*
G37*
G36*
X419193Y405079D02*
X418270Y403602D01*
X416142D01*
Y406555D01*
X418270D01*
X419193Y405079D01*
D02*
G37*
G36*
X206311Y393896D02*
X206508Y393699D01*
Y392124D01*
X206311Y391927D01*
X205228D01*
X204638Y392912D01*
X205228Y393896D01*
X206311Y393896D01*
D02*
G37*
G36*
X198065D02*
X198262Y393699D01*
Y392124D01*
X198065Y391927D01*
X196982D01*
X196392Y392912D01*
X196982Y393896D01*
X198065Y393896D01*
D02*
G37*
G36*
X202669Y392912D02*
X202079Y391927D01*
X200996Y391927D01*
X200799Y392124D01*
Y393699D01*
X200996Y393896D01*
X202079Y393896D01*
X202669Y392912D01*
D02*
G37*
G36*
X194423D02*
X193833Y391927D01*
X192750Y391927D01*
X192553Y392124D01*
Y393699D01*
X192750Y393896D01*
X193833Y393896D01*
X194423Y392912D01*
D02*
G37*
G36*
X544980Y390453D02*
X542852D01*
X541929Y391929D01*
X542852Y393406D01*
X544980D01*
Y390453D01*
D02*
G37*
G36*
X538779Y391929D02*
X537857Y390453D01*
X535728Y390453D01*
X535728Y393406D01*
X537857D01*
X538779Y391929D01*
D02*
G37*
G36*
X556450Y390453D02*
X554322D01*
X553399Y391929D01*
X554322Y393406D01*
X556450Y393406D01*
X556450Y390453D01*
D02*
G37*
G36*
X550250Y391929D02*
X549327Y390453D01*
X547198D01*
Y393406D01*
X549327D01*
X550250Y391929D01*
D02*
G37*
G36*
X28543Y389272D02*
X27953Y388287D01*
X26870D01*
X26673Y388484D01*
X26673Y390059D01*
X26870Y390256D01*
X27953Y390256D01*
X28543Y389272D01*
D02*
G37*
G36*
X32382Y390059D02*
X32382Y388484D01*
X32185Y388287D01*
X31102D01*
X30512Y389272D01*
X31102Y390256D01*
X32185Y390256D01*
X32382Y390059D01*
D02*
G37*
G36*
X21457Y389272D02*
X20866Y388287D01*
X19783Y388287D01*
X19587Y388484D01*
X19587Y390059D01*
X19783Y390256D01*
X20866D01*
X21457Y389272D01*
D02*
G37*
G36*
X25295Y390059D02*
X25295Y388484D01*
X25098Y388287D01*
X24016Y388287D01*
X23425Y389272D01*
X24016Y390256D01*
X25098D01*
X25295Y390059D01*
D02*
G37*
G36*
X599196Y389207D02*
X598606Y388223D01*
X597523D01*
X597326Y388420D01*
X597326Y389995D01*
X597523Y390191D01*
X598606Y390191D01*
X599196Y389207D01*
D02*
G37*
G36*
X603035Y389995D02*
X603035Y388420D01*
X602838Y388223D01*
X601755D01*
X601165Y389207D01*
X601755Y390191D01*
X602838Y390191D01*
X603035Y389995D01*
D02*
G37*
G36*
X592110Y389207D02*
X591519Y388223D01*
X590437Y388223D01*
X590240Y388420D01*
X590240Y389995D01*
X590437Y390191D01*
X591519D01*
X592110Y389207D01*
D02*
G37*
G36*
X595948Y389995D02*
X595948Y388420D01*
X595751Y388223D01*
X594669Y388223D01*
X594078Y389207D01*
X594669Y390191D01*
X595751D01*
X595948Y389995D01*
D02*
G37*
G36*
X194492Y388769D02*
Y387686D01*
X193508Y387096D01*
X192523Y387686D01*
X192523Y388769D01*
X192720Y388966D01*
X194295D01*
X194492Y388769D01*
D02*
G37*
G36*
X194492Y384537D02*
X194492Y383454D01*
X194295Y383257D01*
X192720D01*
X192523Y383454D01*
X192523Y384537D01*
X193508Y385127D01*
X194492Y384537D01*
D02*
G37*
G36*
X358844Y382776D02*
X356716D01*
X355793Y384252D01*
X356716Y385728D01*
X358844D01*
Y382776D01*
D02*
G37*
G36*
X352643Y384252D02*
X351721Y382776D01*
X349592D01*
Y385728D01*
X351721D01*
X352643Y384252D01*
D02*
G37*
G36*
X334358Y382776D02*
X332230D01*
X331307Y384252D01*
X332230Y385728D01*
X334358D01*
Y382776D01*
D02*
G37*
G36*
X328157Y384252D02*
X327235Y382776D01*
X325106D01*
Y385728D01*
X327235D01*
X328157Y384252D01*
D02*
G37*
G36*
X310060Y382776D02*
X307931D01*
X307009Y384252D01*
X307931Y385728D01*
X310060D01*
Y382776D01*
D02*
G37*
G36*
X303859Y384252D02*
X302936Y382776D01*
X300808D01*
Y385728D01*
X302936D01*
X303859Y384252D01*
D02*
G37*
G36*
X285660Y382776D02*
X283531D01*
X282609Y384252D01*
X283531Y385728D01*
X285660D01*
Y382776D01*
D02*
G37*
G36*
X279459Y384252D02*
X278536Y382776D01*
X276408D01*
Y385728D01*
X278536D01*
X279459Y384252D01*
D02*
G37*
G36*
X514123Y381158D02*
X511995D01*
X511072Y382635D01*
X511995Y384111D01*
X514123Y384111D01*
X514123Y381158D01*
D02*
G37*
G36*
X507922Y382635D02*
X506999Y381158D01*
X504871D01*
Y384111D01*
X506999D01*
X507922Y382635D01*
D02*
G37*
G36*
X36230Y382019D02*
X34754Y381097D01*
X33278Y382019D01*
Y384148D01*
X36230D01*
Y382019D01*
D02*
G37*
G36*
X31129D02*
X29653Y381097D01*
X28177Y382019D01*
Y384148D01*
X31129D01*
Y382019D01*
D02*
G37*
G36*
X23731D02*
X22254Y381097D01*
X20778Y382019D01*
X20778Y384148D01*
X23731Y384148D01*
Y382019D01*
D02*
G37*
G36*
X594383Y381955D02*
X592907Y381032D01*
X591431Y381955D01*
X591431Y384083D01*
X594383Y384083D01*
Y381955D01*
D02*
G37*
G36*
X606883D02*
X605407Y381032D01*
X603931Y381955D01*
X603931Y384083D01*
X606883Y384083D01*
X606883Y381955D01*
D02*
G37*
G36*
X601782D02*
X600306Y381032D01*
X598830Y381955D01*
X598830Y384083D01*
X601782Y384083D01*
X601782Y381955D01*
D02*
G37*
G36*
X557475Y380748D02*
X555346D01*
X554424Y382224D01*
X555346Y383701D01*
X557475Y383701D01*
X557475Y380748D01*
D02*
G37*
G36*
X551274Y382224D02*
X550351Y380748D01*
X548223D01*
Y383701D01*
X550351D01*
X551274Y382224D01*
D02*
G37*
G36*
X233002Y382517D02*
X233198Y382320D01*
Y380745D01*
X233002Y380549D01*
X231919D01*
X231328Y381533D01*
X231919Y382517D01*
X233002Y382517D01*
D02*
G37*
G36*
X229360Y381533D02*
X228769Y380549D01*
X227687Y380549D01*
X227490Y380745D01*
Y382320D01*
X227687Y382517D01*
X228769Y382517D01*
X229360Y381533D01*
D02*
G37*
G36*
X437452Y381356D02*
X434795Y380256D01*
X432137Y381356D01*
Y383701D01*
X437452D01*
X437452Y381356D01*
D02*
G37*
G36*
X358844Y377659D02*
X356716D01*
X355793Y379135D01*
X356716Y380611D01*
X358844Y380611D01*
X358844Y377659D01*
D02*
G37*
G36*
X352643Y379135D02*
X351721Y377659D01*
X349592D01*
Y380611D01*
X351721D01*
X352643Y379135D01*
D02*
G37*
G36*
X334358Y377659D02*
X332230D01*
X331307Y379135D01*
X332230Y380611D01*
X334358Y380611D01*
X334358Y377659D01*
D02*
G37*
G36*
X328157Y379135D02*
X327235Y377659D01*
X325106D01*
Y380611D01*
X327235D01*
X328157Y379135D01*
D02*
G37*
G36*
X310060Y377659D02*
X307931D01*
X307008Y379135D01*
X307931Y380611D01*
X310060Y380611D01*
X310060Y377659D01*
D02*
G37*
G36*
X303859Y379135D02*
X302936Y377659D01*
X300808D01*
Y380611D01*
X302936D01*
X303859Y379135D01*
D02*
G37*
G36*
X285660Y377659D02*
X283531D01*
X282609Y379135D01*
X283531Y380611D01*
X285660Y380611D01*
X285660Y377659D01*
D02*
G37*
G36*
X279459Y379135D02*
X278536Y377659D01*
X276408D01*
Y380611D01*
X278536D01*
X279459Y379135D01*
D02*
G37*
G36*
X233002Y378986D02*
X233198Y378789D01*
Y377214D01*
X233002Y377017D01*
X231919D01*
X231328Y378001D01*
X231919Y378986D01*
X233002Y378986D01*
D02*
G37*
G36*
X229360Y378001D02*
X228769Y377017D01*
X227687Y377017D01*
X227490Y377214D01*
Y378789D01*
X227687Y378986D01*
X228769Y378986D01*
X229360Y378001D01*
D02*
G37*
G36*
X514056Y375113D02*
X511928D01*
X511005Y376590D01*
X511928Y378066D01*
X514056Y378066D01*
X514056Y375113D01*
D02*
G37*
G36*
X507856Y376590D02*
X506933Y375113D01*
X504804D01*
Y378066D01*
X506933D01*
X507856Y376590D01*
D02*
G37*
G36*
X23731Y377024D02*
Y374896D01*
X20778D01*
Y377024D01*
X22254Y377947D01*
X23731Y377024D01*
D02*
G37*
G36*
X36230D02*
Y374896D01*
X33278D01*
Y377024D01*
X34754Y377947D01*
X36230Y377024D01*
D02*
G37*
G36*
X31129D02*
Y374896D01*
X28177D01*
Y377024D01*
X29653Y377947D01*
X31129Y377024D01*
D02*
G37*
G36*
X594383Y376960D02*
Y374831D01*
X591431D01*
Y376960D01*
X592907Y377882D01*
X594383Y376960D01*
D02*
G37*
G36*
X606883Y376960D02*
X606883Y374831D01*
X603931Y374831D01*
X603931Y376960D01*
X605407Y377882D01*
X606883Y376960D01*
D02*
G37*
G36*
X601782D02*
X601782Y374831D01*
X598830Y374831D01*
X598830Y376960D01*
X600306Y377882D01*
X601782Y376960D01*
D02*
G37*
G36*
X437452Y375613D02*
X437452Y373268D01*
X432137Y373268D01*
Y375613D01*
X434795Y376713D01*
X437452Y375613D01*
D02*
G37*
G36*
X194492Y374258D02*
Y373176D01*
X193508Y372585D01*
X192523Y373176D01*
X192523Y374258D01*
X192720Y374455D01*
X194295D01*
X194492Y374258D01*
D02*
G37*
G36*
X358844Y372539D02*
X356716D01*
X355793Y374016D01*
X356716Y375492D01*
X358844D01*
Y372539D01*
D02*
G37*
G36*
X352643Y374016D02*
X351721Y372539D01*
X349592D01*
Y375492D01*
X351721D01*
X352643Y374016D01*
D02*
G37*
G36*
X334358Y372539D02*
X332230D01*
X331307Y374016D01*
X332230Y375492D01*
X334358D01*
Y372539D01*
D02*
G37*
G36*
X328157Y374016D02*
X327235Y372539D01*
X325106D01*
Y375492D01*
X327235D01*
X328157Y374016D01*
D02*
G37*
G36*
X310060Y372539D02*
X307931D01*
X307009Y374016D01*
X307931Y375492D01*
X310060D01*
Y372539D01*
D02*
G37*
G36*
X303859Y374016D02*
X302936Y372539D01*
X300808D01*
Y375492D01*
X302936D01*
X303859Y374016D01*
D02*
G37*
G36*
X285660Y372539D02*
X283531D01*
X282609Y374016D01*
X283531Y375492D01*
X285660D01*
Y372539D01*
D02*
G37*
G36*
X279459Y374016D02*
X278536Y372539D01*
X276408D01*
Y375492D01*
X278536D01*
X279459Y374016D01*
D02*
G37*
G36*
X18612Y375880D02*
Y373535D01*
X15955Y372435D01*
X13297Y373535D01*
X13297Y375880D01*
X18612Y375880D01*
D02*
G37*
G36*
X589265Y375815D02*
Y373470D01*
X586608Y372371D01*
X583951Y373470D01*
X583951Y375815D01*
X589265Y375815D01*
D02*
G37*
G36*
X229360Y372833D02*
X228769Y371849D01*
X227687D01*
X227490Y372045D01*
X227490Y373620D01*
X227687Y373817D01*
X228769Y373817D01*
X229360Y372833D01*
D02*
G37*
G36*
X233198Y373620D02*
X233198Y372045D01*
X233002Y371849D01*
X231919D01*
X231328Y372833D01*
X231919Y373817D01*
X233002Y373817D01*
X233198Y373620D01*
D02*
G37*
G36*
X48632Y372669D02*
X47156Y371746D01*
X45679Y372669D01*
Y374797D01*
X48632D01*
Y372669D01*
D02*
G37*
G36*
X619285Y372604D02*
X617809Y371682D01*
X616332Y372604D01*
Y374733D01*
X619285D01*
Y372604D01*
D02*
G37*
G36*
X250941Y375808D02*
X250976Y375797D01*
X251009Y375780D01*
X251037Y375757D01*
X251061Y375728D01*
X251078Y375696D01*
X251089Y375661D01*
X251092Y375624D01*
Y371314D01*
X251089Y371277D01*
X251078Y371242D01*
X251061Y371210D01*
X251037Y371181D01*
X251009Y371158D01*
X250976Y371141D01*
X250941Y371130D01*
X250905Y371127D01*
X246595D01*
X246558Y371130D01*
X246523Y371141D01*
X246490Y371158D01*
X246462Y371181D01*
X246439Y371210D01*
X246421Y371242D01*
X246411Y371277D01*
X246407Y371314D01*
Y375624D01*
X246411Y375661D01*
X246421Y375696D01*
X246439Y375728D01*
X246462Y375757D01*
X246490Y375780D01*
X246523Y375797D01*
X246558Y375808D01*
X246595Y375812D01*
X250905D01*
X250941Y375808D01*
D02*
G37*
G36*
X245469D02*
X245504Y375797D01*
X245536Y375780D01*
X245565Y375757D01*
X245588Y375728D01*
X245605Y375696D01*
X245616Y375661D01*
X245620Y375624D01*
Y371314D01*
X245616Y371277D01*
X245605Y371242D01*
X245588Y371210D01*
X245565Y371181D01*
X245536Y371158D01*
X245504Y371141D01*
X245469Y371130D01*
X245432Y371127D01*
X241122D01*
X241086Y371130D01*
X241050Y371141D01*
X241018Y371158D01*
X240989Y371181D01*
X240966Y371210D01*
X240949Y371242D01*
X240938Y371277D01*
X240935Y371314D01*
Y375624D01*
X240938Y375661D01*
X240949Y375696D01*
X240966Y375728D01*
X240989Y375757D01*
X241018Y375780D01*
X241050Y375797D01*
X241086Y375808D01*
X241122Y375812D01*
X245432D01*
X245469Y375808D01*
D02*
G37*
G36*
X378958Y370565D02*
X377482Y369642D01*
X376005Y370565D01*
X376005Y372693D01*
X378958Y372693D01*
Y370565D01*
D02*
G37*
G36*
X194492Y370026D02*
X194492Y368943D01*
X194295Y368746D01*
X192720D01*
X192523Y368943D01*
X192523Y370026D01*
X193508Y370617D01*
X194492Y370026D01*
D02*
G37*
G36*
X232982Y370260D02*
X233179Y370063D01*
Y368489D01*
X232982Y368292D01*
X231900D01*
X231309Y369276D01*
X231900Y370260D01*
X232982Y370260D01*
D02*
G37*
G36*
X229341Y369276D02*
X228750Y368292D01*
X227667Y368292D01*
X227471Y368489D01*
Y370063D01*
X227668Y370260D01*
X228750Y370260D01*
X229341Y369276D01*
D02*
G37*
G36*
X408465Y366535D02*
X406336D01*
X405413Y368012D01*
X406336Y369488D01*
X408465D01*
Y366535D01*
D02*
G37*
G36*
X402264Y368012D02*
X401341Y366535D01*
X399213Y366535D01*
X399213Y369488D01*
X401341D01*
X402264Y368012D01*
D02*
G37*
G36*
X515321Y371705D02*
X515321Y366390D01*
X512976D01*
X511876Y369047D01*
X512976Y371705D01*
X515321Y371705D01*
D02*
G37*
G36*
X508333Y369047D02*
X507233Y366390D01*
X504888D01*
Y371705D01*
X507233Y371705D01*
X508333Y369047D01*
D02*
G37*
G36*
X250941Y370336D02*
X250976Y370325D01*
X251009Y370307D01*
X251037Y370284D01*
X251061Y370256D01*
X251078Y370223D01*
X251089Y370188D01*
X251092Y370152D01*
Y365842D01*
X251089Y365805D01*
X251078Y365770D01*
X251061Y365737D01*
X251037Y365709D01*
X251009Y365686D01*
X250976Y365668D01*
X250941Y365658D01*
X250905Y365654D01*
X246595D01*
X246558Y365658D01*
X246523Y365668D01*
X246490Y365686D01*
X246462Y365709D01*
X246439Y365737D01*
X246421Y365770D01*
X246411Y365805D01*
X246407Y365842D01*
Y370152D01*
X246411Y370188D01*
X246421Y370223D01*
X246439Y370256D01*
X246462Y370284D01*
X246490Y370307D01*
X246523Y370325D01*
X246558Y370336D01*
X246595Y370339D01*
X250905D01*
X250941Y370336D01*
D02*
G37*
G36*
X245469D02*
X245504Y370325D01*
X245536Y370307D01*
X245565Y370284D01*
X245588Y370256D01*
X245605Y370223D01*
X245616Y370188D01*
X245620Y370152D01*
Y365842D01*
X245616Y365805D01*
X245605Y365770D01*
X245588Y365737D01*
X245565Y365709D01*
X245536Y365686D01*
X245504Y365668D01*
X245469Y365658D01*
X245432Y365654D01*
X241122D01*
X241086Y365658D01*
X241050Y365668D01*
X241018Y365686D01*
X240989Y365709D01*
X240966Y365737D01*
X240949Y365770D01*
X240938Y365805D01*
X240935Y365842D01*
Y370152D01*
X240938Y370188D01*
X240949Y370223D01*
X240966Y370256D01*
X240989Y370284D01*
X241018Y370307D01*
X241050Y370325D01*
X241086Y370336D01*
X241122Y370339D01*
X245432D01*
X245469Y370336D01*
D02*
G37*
G36*
X48632Y367674D02*
Y365545D01*
X45679D01*
Y367674D01*
X47156Y368597D01*
X48632Y367674D01*
D02*
G37*
G36*
X619285Y367609D02*
Y365481D01*
X616332D01*
Y367609D01*
X617809Y368532D01*
X619285Y367609D01*
D02*
G37*
G36*
X18612Y367792D02*
Y365447D01*
X13297D01*
X13297Y367792D01*
X15955Y368892D01*
X18612Y367792D01*
D02*
G37*
G36*
X589265Y367728D02*
Y365382D01*
X583951D01*
X583951Y367728D01*
X586608Y368827D01*
X589265Y367728D01*
D02*
G37*
G36*
X233002Y366690D02*
X233198Y366494D01*
Y364919D01*
X233002Y364722D01*
X231919D01*
X231328Y365706D01*
X231919Y366690D01*
X233002Y366690D01*
D02*
G37*
G36*
X229360Y365706D02*
X228769Y364722D01*
X227687Y364722D01*
X227490Y364919D01*
Y366494D01*
X227687Y366690D01*
X228769Y366690D01*
X229360Y365706D01*
D02*
G37*
G36*
X198395Y366166D02*
X198592Y365969D01*
Y364886D01*
X197608Y364296D01*
X196623Y364886D01*
X196623Y365969D01*
X196820Y366166D01*
X198395Y366166D01*
D02*
G37*
G36*
X194492Y365969D02*
Y364886D01*
X193508Y364296D01*
X192523Y364886D01*
X192523Y365969D01*
X192720Y366166D01*
X194295D01*
X194492Y365969D01*
D02*
G37*
G36*
X378958Y365569D02*
Y363441D01*
X376005D01*
X376005Y365569D01*
X377481Y366492D01*
X378958Y365569D01*
D02*
G37*
G36*
X424701Y360615D02*
X422572D01*
X421649Y362091D01*
X422572Y363568D01*
X424701D01*
Y360615D01*
D02*
G37*
G36*
X418500Y362091D02*
X417577Y360615D01*
X415449D01*
Y363568D01*
X417577D01*
X418500Y362091D01*
D02*
G37*
G36*
X198592Y361737D02*
Y360654D01*
X198395Y360457D01*
X196820Y360457D01*
X196623Y360654D01*
X196623Y361737D01*
X197608Y362327D01*
X198592Y361737D01*
D02*
G37*
G36*
X194492Y361737D02*
X194492Y360654D01*
X194295Y360457D01*
X192720D01*
X192523Y360654D01*
X192523Y361737D01*
X193508Y362327D01*
X194492Y361737D01*
D02*
G37*
G36*
X48632Y361153D02*
X47156Y360230D01*
X45679Y361153D01*
Y363281D01*
X48632D01*
Y361153D01*
D02*
G37*
G36*
X18612D02*
X17136Y360230D01*
X15660Y361153D01*
Y363281D01*
X18612D01*
Y361153D01*
D02*
G37*
G36*
X619285Y361088D02*
X617809Y360166D01*
X616332Y361088D01*
Y363217D01*
X619285D01*
Y361088D01*
D02*
G37*
G36*
X589265D02*
X587789Y360166D01*
X586313Y361088D01*
Y363217D01*
X589265D01*
Y361088D01*
D02*
G37*
G36*
X528320Y360288D02*
X525663Y359189D01*
X523005Y360288D01*
Y362634D01*
X528320D01*
Y360288D01*
D02*
G37*
G36*
X365945Y359978D02*
X364469Y359055D01*
X362992Y359978D01*
Y362106D01*
X365945D01*
Y359978D01*
D02*
G37*
G36*
X342020D02*
X340543Y359055D01*
X339067Y359978D01*
Y362106D01*
X342020D01*
Y359978D01*
D02*
G37*
G36*
X317413D02*
X315937Y359055D01*
X314461Y359978D01*
Y362106D01*
X317413D01*
Y359978D01*
D02*
G37*
G36*
X293055D02*
X291579Y359055D01*
X290102Y359978D01*
Y362106D01*
X293055D01*
Y359978D01*
D02*
G37*
G36*
X240165Y358632D02*
Y357550D01*
X239181Y356959D01*
X238196Y357550D01*
X238196Y358632D01*
X238393Y358829D01*
X239968D01*
X240165Y358632D01*
D02*
G37*
G36*
X236530D02*
Y357550D01*
X235546Y356959D01*
X234562Y357550D01*
X234562Y358632D01*
X234759Y358829D01*
X236333D01*
X236530Y358632D01*
D02*
G37*
G36*
X249721Y358863D02*
X249917Y358666D01*
Y357091D01*
X249721Y356894D01*
X248638D01*
X248047Y357878D01*
X248638Y358863D01*
X249721Y358863D01*
D02*
G37*
G36*
X246079Y357878D02*
X245488Y356894D01*
X244406Y356894D01*
X244209Y357091D01*
Y358666D01*
X244406Y358863D01*
X245488Y358863D01*
X246079Y357878D01*
D02*
G37*
G36*
X424701Y354909D02*
X422572D01*
X421649Y356386D01*
X422572Y357862D01*
X424701D01*
Y354909D01*
D02*
G37*
G36*
X418500Y356386D02*
X417577Y354909D01*
X415449D01*
Y357862D01*
X417577D01*
X418500Y356386D01*
D02*
G37*
G36*
X272933Y355746D02*
X271457Y354823D01*
X269980Y355746D01*
Y357874D01*
X272933D01*
Y355746D01*
D02*
G37*
G36*
X48632Y356158D02*
Y354029D01*
X45679D01*
Y356158D01*
X47156Y357081D01*
X48632Y356158D01*
D02*
G37*
G36*
X18612D02*
X18612Y354029D01*
X15660Y354029D01*
Y356158D01*
X17136Y357081D01*
X18612Y356158D01*
D02*
G37*
G36*
X619285Y356093D02*
Y353965D01*
X616332D01*
Y356093D01*
X617809Y357016D01*
X619285Y356093D01*
D02*
G37*
G36*
X589265D02*
X589265Y353965D01*
X586313Y353965D01*
Y356093D01*
X587789Y357016D01*
X589265Y356093D01*
D02*
G37*
G36*
X240165Y354400D02*
X240165Y353317D01*
X239968Y353120D01*
X238393D01*
X238197Y353317D01*
X238196Y354400D01*
X239181Y354991D01*
X240165Y354400D01*
D02*
G37*
G36*
X236530D02*
X236530Y353317D01*
X236333Y353120D01*
X234759D01*
X234562Y353317D01*
X234562Y354400D01*
X235546Y354991D01*
X236530Y354400D01*
D02*
G37*
G36*
X365945Y354983D02*
Y352854D01*
X362992D01*
Y354983D01*
X364469Y355906D01*
X365945Y354983D01*
D02*
G37*
G36*
X342020D02*
Y352854D01*
X339067D01*
Y354983D01*
X340543Y355906D01*
X342020Y354983D01*
D02*
G37*
G36*
X317413D02*
Y352854D01*
X314461D01*
Y354983D01*
X315937Y355906D01*
X317413Y354983D01*
D02*
G37*
G36*
X293055D02*
Y352854D01*
X290102D01*
Y354983D01*
X291579Y355906D01*
X293055Y354983D01*
D02*
G37*
G36*
X130315Y353510D02*
X128839Y352588D01*
X127362Y353510D01*
Y355639D01*
X130315D01*
Y353510D01*
D02*
G37*
G36*
X103457Y353510D02*
X101980Y352588D01*
X100504Y353510D01*
X100504Y355639D01*
X103457Y355639D01*
Y353510D01*
D02*
G37*
G36*
X528320Y354546D02*
Y352201D01*
X523005D01*
Y354546D01*
X525663Y355645D01*
X528320Y354546D01*
D02*
G37*
G36*
X161614Y351969D02*
X159486D01*
X158563Y353445D01*
X159486Y354921D01*
X161614D01*
Y351969D01*
D02*
G37*
G36*
X79429D02*
X77301D01*
X76378Y353445D01*
X77301Y354921D01*
X79429D01*
Y351969D01*
D02*
G37*
G36*
X155413Y353445D02*
X154491Y351969D01*
X152362Y351969D01*
X152362Y354921D01*
X154491D01*
X155413Y353445D01*
D02*
G37*
G36*
X73228D02*
X72306Y351969D01*
X70177Y351969D01*
X70177Y354921D01*
X72306D01*
X73228Y353445D01*
D02*
G37*
G36*
X424701Y349180D02*
X422572D01*
X421649Y350657D01*
X422572Y352133D01*
X424701D01*
Y349180D01*
D02*
G37*
G36*
X418500Y350657D02*
X417577Y349180D01*
X415449D01*
Y352133D01*
X417577D01*
X418500Y350657D01*
D02*
G37*
G36*
X272933Y350750D02*
Y348622D01*
X269980D01*
Y350750D01*
X271457Y351673D01*
X272933Y350750D01*
D02*
G37*
G36*
X395079Y347675D02*
X393602Y346752D01*
X392126Y347675D01*
Y349803D01*
X395079D01*
Y347675D01*
D02*
G37*
G36*
X130315Y348515D02*
X130315Y346387D01*
X127362Y346387D01*
Y348515D01*
X128839Y349438D01*
X130315Y348515D01*
D02*
G37*
G36*
X103457Y348515D02*
Y346387D01*
X100504D01*
Y348515D01*
X101980Y349438D01*
X103457Y348515D01*
D02*
G37*
G36*
X43996Y342520D02*
X41868D01*
X40945Y343996D01*
X41868Y345472D01*
X43996Y345472D01*
X43996Y342520D01*
D02*
G37*
G36*
X37795Y343996D02*
X36873Y342520D01*
X34744D01*
Y345472D01*
X36873D01*
X37795Y343996D01*
D02*
G37*
G36*
X614649Y342455D02*
X612521D01*
X611598Y343932D01*
X612521Y345408D01*
X614649Y345408D01*
X614649Y342455D01*
D02*
G37*
G36*
X608448Y343932D02*
X607525Y342455D01*
X605397D01*
Y345408D01*
X607525D01*
X608448Y343932D01*
D02*
G37*
G36*
X229487Y342735D02*
X228011Y341813D01*
X226534Y342735D01*
Y344864D01*
X229487D01*
Y342735D01*
D02*
G37*
G36*
X223848Y343592D02*
X224045Y343395D01*
Y342313D01*
X223061Y341722D01*
X222076Y342313D01*
X222076Y343395D01*
X222273Y343592D01*
X223848Y343592D01*
D02*
G37*
G36*
X456080Y342039D02*
X454604Y341116D01*
X453128Y342039D01*
Y344167D01*
X456080D01*
Y342039D01*
D02*
G37*
G36*
X395079Y342680D02*
Y340551D01*
X392126D01*
Y342680D01*
X393602Y343602D01*
X395079Y342680D01*
D02*
G37*
G36*
X224045Y339163D02*
Y338080D01*
X223848Y337883D01*
X222273Y337883D01*
X222076Y338080D01*
X222076Y339163D01*
X223061Y339754D01*
X224045Y339163D01*
D02*
G37*
G36*
X43996Y337402D02*
X41868D01*
X40945Y338878D01*
X41868Y340354D01*
X43996D01*
Y337402D01*
D02*
G37*
G36*
X37795Y338878D02*
X36873Y337402D01*
X34744Y337402D01*
X34744Y340354D01*
X36873D01*
X37795Y338878D01*
D02*
G37*
G36*
X614649Y337337D02*
X612521D01*
X611598Y338813D01*
X612521Y340290D01*
X614649D01*
Y337337D01*
D02*
G37*
G36*
X608448Y338813D02*
X607525Y337337D01*
X605397Y337337D01*
X605397Y340290D01*
X607525D01*
X608448Y338813D01*
D02*
G37*
G36*
X76968Y336883D02*
X74840D01*
X73917Y338359D01*
X74840Y339836D01*
X76968D01*
Y336883D01*
D02*
G37*
G36*
X70768Y338359D02*
X69845Y336883D01*
X67716D01*
Y339836D01*
X69845D01*
X70768Y338359D01*
D02*
G37*
G36*
X172343Y336516D02*
X170214D01*
X169291Y337992D01*
X170214Y339469D01*
X172343D01*
Y336516D01*
D02*
G37*
G36*
X146212D02*
X144083D01*
X143160Y337992D01*
X144083Y339469D01*
X146212D01*
Y336516D01*
D02*
G37*
G36*
X134843D02*
X132714D01*
X131791Y337992D01*
X132714Y339469D01*
X134843Y339469D01*
X134843Y336516D01*
D02*
G37*
G36*
X128642Y337992D02*
X127719Y336516D01*
X125591D01*
Y339469D01*
X127719D01*
X128642Y337992D01*
D02*
G37*
G36*
X166142D02*
X165219Y336516D01*
X163091Y336516D01*
X163091Y339469D01*
X165219D01*
X166142Y337992D01*
D02*
G37*
G36*
X140011D02*
X139088Y336516D01*
X136960Y336516D01*
X136960Y339469D01*
X139088D01*
X140011Y337992D01*
D02*
G37*
G36*
X160925Y336516D02*
X158797D01*
X157874Y337992D01*
X158797Y339469D01*
X160925Y339469D01*
X160925Y336516D01*
D02*
G37*
G36*
X154724Y337992D02*
X153802Y336516D01*
X151673D01*
Y339469D01*
X153802D01*
X154724Y337992D01*
D02*
G37*
G36*
X103090Y336289D02*
X100961D01*
X100039Y337765D01*
X100961Y339242D01*
X103090D01*
Y336289D01*
D02*
G37*
G36*
X96889Y337765D02*
X95966Y336289D01*
X93838D01*
Y339242D01*
X95966D01*
X96889Y337765D01*
D02*
G37*
G36*
X199685Y337739D02*
X199882Y337543D01*
Y335968D01*
X199685Y335771D01*
X198603Y335771D01*
X198012Y336755D01*
X198603Y337739D01*
X199685Y337739D01*
D02*
G37*
G36*
X196044Y336755D02*
X195453Y335771D01*
X194370Y335771D01*
X194174Y335968D01*
Y337543D01*
X194370Y337739D01*
X195453D01*
X196044Y336755D01*
D02*
G37*
G36*
X229487Y337740D02*
X229487Y335612D01*
X226534Y335612D01*
Y337740D01*
X228011Y338663D01*
X229487Y337740D01*
D02*
G37*
G36*
X414308Y335411D02*
X412179D01*
X411257Y336887D01*
X412179Y338364D01*
X414308D01*
Y335411D01*
D02*
G37*
G36*
X408107Y336887D02*
X407184Y335411D01*
X405056D01*
Y338364D01*
X407184D01*
X408107Y336887D01*
D02*
G37*
G36*
X402692Y335411D02*
X400563D01*
X399641Y336887D01*
X400563Y338364D01*
X402692D01*
Y335411D01*
D02*
G37*
G36*
X396491Y336887D02*
X395568Y335411D01*
X393440D01*
Y338364D01*
X395568D01*
X396491Y336887D01*
D02*
G37*
G36*
X426021Y335411D02*
X423892D01*
X422970Y336887D01*
X423892Y338364D01*
X426021Y338364D01*
X426021Y335411D01*
D02*
G37*
G36*
X419820Y336887D02*
X418897Y335411D01*
X416769D01*
Y338364D01*
X418897D01*
X419820Y336887D01*
D02*
G37*
G36*
X456080Y337044D02*
X456080Y334915D01*
X453128Y334915D01*
Y337044D01*
X454604Y337967D01*
X456080Y337044D01*
D02*
G37*
G36*
X539961Y334843D02*
X537615Y334842D01*
X536516Y337500D01*
X537615Y340158D01*
X539961D01*
Y334843D01*
D02*
G37*
G36*
X532972Y337500D02*
X531873Y334842D01*
X529528Y334843D01*
X529528Y340158D01*
X531873D01*
X532972Y337500D01*
D02*
G37*
G36*
X81988Y335161D02*
X80512Y334239D01*
X79035Y335161D01*
Y337290D01*
X81988D01*
Y335161D01*
D02*
G37*
G36*
X523569Y335112D02*
X522092Y334189D01*
X520616Y335112D01*
Y337240D01*
X523569D01*
Y335112D01*
D02*
G37*
G36*
X518502D02*
X517026Y334189D01*
X515549Y335112D01*
Y337240D01*
X518502D01*
Y335112D01*
D02*
G37*
G36*
X513435D02*
X511959Y334189D01*
X510483Y335112D01*
Y337240D01*
X513435D01*
Y335112D01*
D02*
G37*
G36*
X508369D02*
X506892Y334189D01*
X505416Y335112D01*
Y337240D01*
X508369D01*
Y335112D01*
D02*
G37*
G36*
X108208Y334836D02*
X106731Y333913D01*
X105255Y334836D01*
Y336964D01*
X108208D01*
Y334836D01*
D02*
G37*
G36*
X152362Y332222D02*
X150886Y331299D01*
X149409Y332222D01*
Y334350D01*
X152362D01*
Y332222D01*
D02*
G37*
G36*
X126279D02*
X124803Y331299D01*
X123327Y332222D01*
Y334350D01*
X126279D01*
Y332222D01*
D02*
G37*
G36*
X191492Y334183D02*
Y331837D01*
X188835Y330738D01*
X186178Y331837D01*
X186178Y334183D01*
X191492Y334183D01*
D02*
G37*
G36*
X503209Y335485D02*
X503209Y330170D01*
X500864D01*
X499764Y332828D01*
X500864Y335485D01*
X503209Y335485D01*
D02*
G37*
G36*
X496221Y332828D02*
X495121Y330170D01*
X492776D01*
Y335485D01*
X495121Y335485D01*
X496221Y332828D01*
D02*
G37*
G36*
X539370Y329720D02*
X537242D01*
X536319Y331197D01*
X537242Y332673D01*
X539370Y332673D01*
X539370Y329720D01*
D02*
G37*
G36*
X533169Y331197D02*
X532247Y329720D01*
X530118D01*
Y332673D01*
X532247D01*
X533169Y331197D01*
D02*
G37*
G36*
X199595Y331359D02*
X199595Y330276D01*
X198611Y329686D01*
X197626Y330276D01*
Y331359D01*
X197823Y331556D01*
X199398Y331556D01*
X199595Y331359D01*
D02*
G37*
G36*
X196011D02*
X196011Y330276D01*
X195027Y329686D01*
X194043Y330276D01*
Y331359D01*
X194240Y331556D01*
X195815Y331556D01*
X196011Y331359D01*
D02*
G37*
G36*
X225596Y331083D02*
X225793Y330886D01*
Y329311D01*
X225596Y329115D01*
X224514D01*
X223923Y330099D01*
X224514Y331083D01*
X225596Y331083D01*
D02*
G37*
G36*
X221954Y330099D02*
X221364Y329115D01*
X220281Y329115D01*
X220084Y329311D01*
Y330886D01*
X220281Y331083D01*
X221364Y331083D01*
X221954Y330099D01*
D02*
G37*
G36*
X238963Y328080D02*
X236618Y328080D01*
X235518Y330738D01*
X236618Y333395D01*
X238963D01*
Y328080D01*
D02*
G37*
G36*
X231975Y330738D02*
X230875Y328080D01*
X228530Y328080D01*
X228530Y333395D01*
X230875D01*
X231975Y330738D01*
D02*
G37*
G36*
X81988Y330166D02*
X81988Y328038D01*
X79035Y328038D01*
Y330166D01*
X80512Y331089D01*
X81988Y330166D01*
D02*
G37*
G36*
X523569Y330117D02*
Y327988D01*
X520616D01*
Y330117D01*
X522092Y331039D01*
X523569Y330117D01*
D02*
G37*
G36*
X518502D02*
Y327988D01*
X515549D01*
Y330117D01*
X517026Y331039D01*
X518502Y330117D01*
D02*
G37*
G36*
X513435D02*
Y327988D01*
X510483D01*
Y330117D01*
X511959Y331039D01*
X513435Y330117D01*
D02*
G37*
G36*
X508369D02*
Y327988D01*
X505416D01*
Y330117D01*
X506892Y331039D01*
X508369Y330117D01*
D02*
G37*
G36*
X108208Y329841D02*
X108208Y327712D01*
X105255Y327712D01*
Y329841D01*
X106731Y330764D01*
X108208Y329841D01*
D02*
G37*
G36*
X199595Y327127D02*
X199595Y326044D01*
X199398Y325847D01*
X197823Y325847D01*
X197626Y326044D01*
Y327127D01*
X198611Y327717D01*
X199595Y327127D01*
D02*
G37*
G36*
X196011D02*
X196011Y326044D01*
X195815Y325847D01*
X194240Y325847D01*
X194043Y326044D01*
Y327127D01*
X195027Y327717D01*
X196011Y327127D01*
D02*
G37*
G36*
X152362Y327227D02*
Y325098D01*
X149409D01*
Y327227D01*
X150886Y328150D01*
X152362Y327227D01*
D02*
G37*
G36*
X126279D02*
Y325098D01*
X123327D01*
Y327227D01*
X124803Y328150D01*
X126279Y327227D01*
D02*
G37*
G36*
X503218Y325051D02*
X501090D01*
X500167Y326528D01*
X501090Y328004D01*
X503218Y328004D01*
X503218Y325051D01*
D02*
G37*
G36*
X497017Y326528D02*
X496095Y325051D01*
X493966D01*
Y328004D01*
X496095D01*
X497017Y326528D01*
D02*
G37*
G36*
X191492Y326095D02*
Y323749D01*
X186178D01*
X186178Y326095D01*
X188835Y327194D01*
X191492Y326095D01*
D02*
G37*
G36*
X429857Y324497D02*
X425034Y322823D01*
X420211Y324497D01*
Y328138D01*
X429857D01*
Y324497D01*
D02*
G37*
G36*
X81988Y323721D02*
X80512Y322798D01*
X79035Y323721D01*
X79035Y325849D01*
X81988Y325849D01*
Y323721D01*
D02*
G37*
G36*
X108208Y323462D02*
X106731Y322539D01*
X105255Y323462D01*
X105255Y325590D01*
X108208Y325590D01*
Y323462D01*
D02*
G37*
G36*
X458246Y324213D02*
X456572Y319390D01*
X452931D01*
Y329035D01*
X456572D01*
X458246Y324213D01*
D02*
G37*
G36*
X470844Y319390D02*
X467202D01*
X465529Y324212D01*
X467202Y329035D01*
X470844D01*
Y319390D01*
D02*
G37*
G36*
X81988Y318725D02*
Y316597D01*
X79035D01*
Y318725D01*
X80512Y319648D01*
X81988Y318725D01*
D02*
G37*
G36*
X108208Y318467D02*
Y316339D01*
X105255D01*
Y318467D01*
X106731Y319390D01*
X108208Y318467D01*
D02*
G37*
G36*
X170374Y312080D02*
X168246D01*
X167323Y313556D01*
X168246Y315032D01*
X170374D01*
Y312080D01*
D02*
G37*
G36*
X164173Y313556D02*
X163251Y312080D01*
X161122D01*
Y315032D01*
X163251D01*
X164173Y313556D01*
D02*
G37*
G36*
X158957Y312080D02*
X156828D01*
X155905Y313556D01*
X156828Y315032D01*
X158957D01*
Y312080D01*
D02*
G37*
G36*
X152756Y313556D02*
X151833Y312080D01*
X149705D01*
Y315032D01*
X151833D01*
X152756Y313556D01*
D02*
G37*
G36*
X146212Y312080D02*
X144083D01*
X143160Y313556D01*
X144083Y315032D01*
X146212D01*
Y312080D01*
D02*
G37*
G36*
X140011Y313556D02*
X139088Y312080D01*
X136960D01*
Y315032D01*
X139088D01*
X140011Y313556D01*
D02*
G37*
G36*
X134843Y312080D02*
X132714D01*
X131791Y313556D01*
X132714Y315032D01*
X134843D01*
Y312080D01*
D02*
G37*
G36*
X128642Y313556D02*
X127719Y312080D01*
X125591D01*
Y315032D01*
X127719D01*
X128642Y313556D01*
D02*
G37*
G36*
X203375Y316107D02*
X201702Y311284D01*
X198060D01*
Y320930D01*
X201702D01*
X203375Y316107D01*
D02*
G37*
G36*
X215973Y311284D02*
X212332D01*
X210658Y316107D01*
X212332Y320930D01*
X215973D01*
Y311284D01*
D02*
G37*
G36*
X429857Y313867D02*
Y310225D01*
X420211D01*
Y313867D01*
X425034Y315540D01*
X429857Y313867D01*
D02*
G37*
G36*
X94330Y309513D02*
X92201D01*
X91279Y310989D01*
X92201Y312466D01*
X94330D01*
Y309513D01*
D02*
G37*
G36*
X88129Y310989D02*
X87206Y309513D01*
X85078D01*
Y312466D01*
X87206D01*
X88129Y310989D01*
D02*
G37*
G36*
X66142Y309513D02*
X64013D01*
X63090Y310989D01*
X64013Y312466D01*
X66142D01*
Y309513D01*
D02*
G37*
G36*
X59941Y310989D02*
X59018Y309513D01*
X56890D01*
Y312466D01*
X59018D01*
X59941Y310989D01*
D02*
G37*
G36*
X410307Y308256D02*
X408179D01*
X407256Y309733D01*
X408179Y311209D01*
X410307D01*
Y308256D01*
D02*
G37*
G36*
X404106Y309733D02*
X403184Y308256D01*
X401055D01*
Y311209D01*
X403184D01*
X404106Y309733D01*
D02*
G37*
G36*
X387673Y306835D02*
X385015Y305736D01*
X382358Y306835D01*
Y309180D01*
X387673D01*
X387673Y306835D01*
D02*
G37*
G36*
X370913Y305965D02*
X369436Y305042D01*
X367960Y305965D01*
Y308093D01*
X370913D01*
Y305965D01*
D02*
G37*
G36*
X94330Y304429D02*
X92201D01*
X91279Y305906D01*
X92201Y307382D01*
X94330D01*
Y304429D01*
D02*
G37*
G36*
X88129Y305906D02*
X87206Y304429D01*
X85078D01*
Y307382D01*
X87206D01*
X88129Y305906D01*
D02*
G37*
G36*
X66142Y304429D02*
X64013D01*
X63090Y305906D01*
X64013Y307382D01*
X66142D01*
Y304429D01*
D02*
G37*
G36*
X59941Y305906D02*
X59018Y304429D01*
X56890D01*
Y307382D01*
X59018D01*
X59941Y305906D01*
D02*
G37*
G36*
X134756Y302166D02*
X132628D01*
X131705Y303643D01*
X132628Y305119D01*
X134756D01*
Y302166D01*
D02*
G37*
G36*
X128555Y303643D02*
X127633Y302166D01*
X125504D01*
Y305119D01*
X127633D01*
X128555Y303643D01*
D02*
G37*
G36*
X440923Y302399D02*
X439446Y301476D01*
X437970Y302399D01*
Y304528D01*
X440923D01*
Y302399D01*
D02*
G37*
G36*
X397797Y302399D02*
X396321Y301476D01*
X394844Y302399D01*
X394844Y304528D01*
X397797Y304528D01*
Y302399D01*
D02*
G37*
G36*
X203375Y303907D02*
X201702Y299084D01*
X198060D01*
Y308730D01*
X201702D01*
X203375Y303907D01*
D02*
G37*
G36*
X215973Y299084D02*
X212332D01*
X210658Y303907D01*
X212332Y308730D01*
X215973D01*
Y299084D01*
D02*
G37*
G36*
X370913Y300970D02*
X370913Y298841D01*
X367960Y298841D01*
Y300970D01*
X369436Y301892D01*
X370913Y300970D01*
D02*
G37*
G36*
X387673Y301093D02*
X387673Y298747D01*
X382358Y298747D01*
Y301093D01*
X385015Y302192D01*
X387673Y301093D01*
D02*
G37*
G36*
X134757Y296823D02*
X132629D01*
X131706Y298299D01*
X132629Y299776D01*
X134757D01*
Y296823D01*
D02*
G37*
G36*
X128557Y298299D02*
X127634Y296823D01*
X125505D01*
Y299776D01*
X127634D01*
X128557Y298299D01*
D02*
G37*
G36*
X66184Y296064D02*
X64055D01*
X63132Y297540D01*
X64055Y299016D01*
X66184D01*
Y296064D01*
D02*
G37*
G36*
X59983Y297540D02*
X59060Y296064D01*
X56932D01*
Y299016D01*
X59060D01*
X59983Y297540D01*
D02*
G37*
G36*
X474289Y295768D02*
X466415D01*
Y299744D01*
X467418Y300280D01*
X468498Y301166D01*
X469383Y302245D01*
X470041Y303476D01*
X470446Y304812D01*
X470583Y306201D01*
X470446Y307590D01*
X470041Y308926D01*
X469383Y310157D01*
X468498Y311236D01*
X467418Y312122D01*
X466415Y312658D01*
Y316634D01*
X474289D01*
Y295768D01*
D02*
G37*
G36*
X460509Y312658D02*
X459506Y312122D01*
X458427Y311236D01*
X457541Y310157D01*
X456883Y308926D01*
X456478Y307590D01*
X456341Y306201D01*
X456478Y304812D01*
X456883Y303476D01*
X457541Y302245D01*
X458427Y301166D01*
X459506Y300280D01*
X460509Y299744D01*
Y295768D01*
X452635D01*
Y316634D01*
X460509D01*
Y312658D01*
D02*
G37*
G36*
X440923Y297404D02*
Y295276D01*
X437970D01*
Y297404D01*
X439446Y298327D01*
X440923Y297404D01*
D02*
G37*
G36*
X397797Y297404D02*
Y295276D01*
X394844D01*
Y297404D01*
X396320Y298327D01*
X397797Y297404D01*
D02*
G37*
G36*
X360281Y294087D02*
X358805Y293164D01*
X357328Y294087D01*
X357328Y296215D01*
X360281Y296215D01*
Y294087D01*
D02*
G37*
G36*
X355045Y294087D02*
X353569Y293164D01*
X352092Y294087D01*
Y296215D01*
X355045D01*
Y294087D01*
D02*
G37*
G36*
X349809D02*
X348332Y293164D01*
X346856Y294087D01*
Y296215D01*
X349809D01*
Y294087D01*
D02*
G37*
G36*
X344572D02*
X343096Y293164D01*
X341620Y294087D01*
Y296215D01*
X344572D01*
Y294087D01*
D02*
G37*
G36*
X339336D02*
X337860Y293164D01*
X336384Y294087D01*
Y296215D01*
X339336D01*
Y294087D01*
D02*
G37*
G36*
X334100D02*
X332624Y293164D01*
X331147Y294087D01*
Y296215D01*
X334100D01*
Y294087D01*
D02*
G37*
G36*
X325115D02*
X323639Y293164D01*
X322162Y294087D01*
Y296215D01*
X325115D01*
Y294087D01*
D02*
G37*
G36*
X87681Y292064D02*
X86205Y291142D01*
X84728Y292064D01*
X84728Y294193D01*
X87681Y294193D01*
Y292064D01*
D02*
G37*
G36*
X66184Y291137D02*
X64055D01*
X63132Y292613D01*
X64055Y294089D01*
X66184D01*
Y291137D01*
D02*
G37*
G36*
X59983Y292613D02*
X59060Y291137D01*
X56932D01*
Y294089D01*
X59060D01*
X59983Y292613D01*
D02*
G37*
G36*
X150905Y291967D02*
X149428Y291044D01*
X147952Y291967D01*
X147952Y294095D01*
X150905Y294095D01*
Y291967D01*
D02*
G37*
G36*
X360281Y289092D02*
Y286963D01*
X357328D01*
Y289092D01*
X358805Y290014D01*
X360281Y289092D01*
D02*
G37*
G36*
X355045Y289092D02*
Y286963D01*
X352092D01*
Y289092D01*
X353569Y290014D01*
X355045Y289092D01*
D02*
G37*
G36*
X349809D02*
Y286963D01*
X346856D01*
Y289092D01*
X348332Y290014D01*
X349809Y289092D01*
D02*
G37*
G36*
X344572D02*
Y286963D01*
X341620D01*
Y289092D01*
X343096Y290014D01*
X344572Y289092D01*
D02*
G37*
G36*
X339336D02*
Y286963D01*
X336384D01*
Y289092D01*
X337860Y290014D01*
X339336Y289092D01*
D02*
G37*
G36*
X334100D02*
Y286963D01*
X331147D01*
Y289092D01*
X332624Y290014D01*
X334100Y289092D01*
D02*
G37*
G36*
X325115D02*
X325115Y286963D01*
X322162Y286963D01*
Y289092D01*
X323639Y290014D01*
X325115Y289092D01*
D02*
G37*
G36*
X203375Y291707D02*
X201702Y286884D01*
X198060D01*
Y296530D01*
X201702D01*
X203375Y291707D01*
D02*
G37*
G36*
X215973Y286884D02*
X212332D01*
X210658Y291707D01*
X212332Y296530D01*
X215973D01*
Y286884D01*
D02*
G37*
G36*
X87681Y287069D02*
Y284941D01*
X84728D01*
Y287069D01*
X86204Y287992D01*
X87681Y287069D01*
D02*
G37*
G36*
X150905Y286972D02*
Y284843D01*
X147952D01*
Y286972D01*
X149428Y287895D01*
X150905Y286972D01*
D02*
G37*
G36*
X616064Y281594D02*
X613936D01*
X613013Y283071D01*
X613936Y284547D01*
X616064D01*
Y281594D01*
D02*
G37*
G36*
X609864Y283071D02*
X608941Y281594D01*
X606812Y281594D01*
X606812Y284547D01*
X608941D01*
X609864Y283071D01*
D02*
G37*
G36*
X45311Y280524D02*
X43183D01*
X42260Y282000D01*
X43183Y283476D01*
X45311D01*
Y280524D01*
D02*
G37*
G36*
X39110Y282000D02*
X38188Y280524D01*
X36059Y280524D01*
X36059Y283476D01*
X38188D01*
X39110Y282000D01*
D02*
G37*
G36*
X220788Y279322D02*
X218443D01*
X217343Y281979D01*
X218443Y284637D01*
X220788D01*
Y279322D01*
D02*
G37*
G36*
X213800Y281979D02*
X212701Y279322D01*
X210355D01*
Y284637D01*
X212701D01*
X213800Y281979D01*
D02*
G37*
G36*
X170510Y272343D02*
X168381D01*
X167459Y273820D01*
X168381Y275296D01*
X170510D01*
Y272343D01*
D02*
G37*
G36*
X164309Y273820D02*
X163386Y272343D01*
X161258D01*
Y275296D01*
X163386D01*
X164309Y273820D01*
D02*
G37*
G36*
X159070Y272343D02*
X156941D01*
X156019Y273820D01*
X156941Y275296D01*
X159070D01*
Y272343D01*
D02*
G37*
G36*
X152869Y273820D02*
X151946Y272343D01*
X149818D01*
Y275296D01*
X151946D01*
X152869Y273820D01*
D02*
G37*
G36*
X107286Y272343D02*
X105157D01*
X104235Y273820D01*
X105157Y275296D01*
X107286D01*
Y272343D01*
D02*
G37*
G36*
X101085Y273820D02*
X100162Y272343D01*
X98034D01*
Y275296D01*
X100162D01*
X101085Y273820D01*
D02*
G37*
G36*
X95846Y272343D02*
X93718D01*
X92795Y273820D01*
X93718Y275296D01*
X95846D01*
Y272343D01*
D02*
G37*
G36*
X89645Y273820D02*
X88723Y272343D01*
X86594D01*
Y275296D01*
X88723D01*
X89645Y273820D01*
D02*
G37*
G36*
X503333Y271076D02*
X501205D01*
X500282Y272553D01*
X501205Y274029D01*
X503333Y274029D01*
X503333Y271076D01*
D02*
G37*
G36*
X497132Y272553D02*
X496210Y271076D01*
X494081D01*
Y274029D01*
X496210D01*
X497132Y272553D01*
D02*
G37*
G36*
X543898Y269964D02*
X541769D01*
X540846Y271441D01*
X541769Y272917D01*
X543898Y272917D01*
X543898Y269964D01*
D02*
G37*
G36*
X537697Y271441D02*
X536774Y269964D01*
X534646D01*
Y272917D01*
X536774D01*
X537697Y271441D01*
D02*
G37*
G36*
X503964Y268869D02*
X503964Y263555D01*
X501618D01*
X500519Y266212D01*
X501618Y268869D01*
X503964Y268869D01*
D02*
G37*
G36*
X496975Y266212D02*
X495876Y263555D01*
X493531D01*
Y268869D01*
X495876Y268869D01*
X496975Y266212D01*
D02*
G37*
G36*
X466193Y258790D02*
X465602Y257806D01*
X464520D01*
X464323Y258003D01*
X464323Y259577D01*
X464520Y259774D01*
X465602Y259774D01*
X466193Y258790D01*
D02*
G37*
G36*
X470031Y259577D02*
X470031Y258003D01*
X469835Y257806D01*
X468752D01*
X468161Y258790D01*
X468752Y259774D01*
X469835Y259774D01*
X470031Y259577D01*
D02*
G37*
G36*
X181050Y252833D02*
X179573Y251910D01*
X178097Y252833D01*
Y254961D01*
X181050D01*
Y252833D01*
D02*
G37*
G36*
X146555Y250672D02*
X144427D01*
X143504Y252149D01*
X144427Y253625D01*
X146555Y253625D01*
X146555Y250672D01*
D02*
G37*
G36*
X140354Y252149D02*
X139432Y250672D01*
X137303D01*
Y253625D01*
X139432D01*
X140354Y252149D01*
D02*
G37*
G36*
X403054Y253333D02*
X401381Y248510D01*
X397739D01*
Y258156D01*
X401381D01*
X403054Y253333D01*
D02*
G37*
G36*
X415652Y248510D02*
X412010D01*
X410337Y253333D01*
X412010Y258155D01*
X415652D01*
Y248510D01*
D02*
G37*
G36*
X181050Y247837D02*
Y245709D01*
X178097D01*
Y247837D01*
X179573Y248760D01*
X181050Y247837D01*
D02*
G37*
G36*
X100842Y247020D02*
X96019Y245347D01*
X91196Y247020D01*
Y250662D01*
X100842D01*
Y247020D01*
D02*
G37*
G36*
X429357Y244863D02*
X427228D01*
X426305Y246339D01*
X427228Y247815D01*
X429357D01*
Y244863D01*
D02*
G37*
G36*
X423156Y246339D02*
X422233Y244863D01*
X420105D01*
Y247815D01*
X422233D01*
X423156Y246339D01*
D02*
G37*
G36*
X440907Y244863D02*
X438778D01*
X437856Y246339D01*
X438778Y247815D01*
X440907Y247815D01*
X440907Y244863D01*
D02*
G37*
G36*
X434706Y246339D02*
X433783Y244863D01*
X431655D01*
Y247815D01*
X433783D01*
X434706Y246339D01*
D02*
G37*
G36*
X473603Y250667D02*
X473637Y250657D01*
X473669Y250640D01*
X473696Y250617D01*
X473719Y250589D01*
X473736Y250558D01*
X473746Y250523D01*
X473750Y250488D01*
Y244751D01*
X473746Y244716D01*
X473736Y244681D01*
X473719Y244650D01*
X473696Y244622D01*
X473669Y244599D01*
X473637Y244582D01*
X473603Y244572D01*
X473567Y244568D01*
X467831D01*
X467795Y244572D01*
X467761Y244582D01*
X467729Y244599D01*
X467701Y244622D01*
X467678Y244650D01*
X467662Y244681D01*
X467651Y244716D01*
X467648Y244751D01*
Y250488D01*
X467651Y250523D01*
X467662Y250558D01*
X467678Y250589D01*
X467701Y250617D01*
X467729Y250640D01*
X467761Y250657D01*
X467795Y250667D01*
X467831Y250671D01*
X473567D01*
X473603Y250667D01*
D02*
G37*
G36*
X153895Y245217D02*
X152419Y244295D01*
X150942Y245217D01*
Y247346D01*
X153895D01*
Y245217D01*
D02*
G37*
G36*
X460905Y243699D02*
X458247Y242600D01*
X455589Y243699D01*
Y246045D01*
X460905D01*
X460905Y243699D01*
D02*
G37*
G36*
X181050Y241217D02*
X179573Y240294D01*
X178097Y241217D01*
Y243345D01*
X181050D01*
Y241217D01*
D02*
G37*
G36*
X371492Y240485D02*
X370016Y239563D01*
X368539Y240485D01*
X368539Y242614D01*
X371492Y242614D01*
Y240485D01*
D02*
G37*
G36*
X386492Y240422D02*
X385015Y239499D01*
X383539Y240422D01*
Y242550D01*
X386492D01*
Y240422D01*
D02*
G37*
G36*
X440929Y238219D02*
X438800D01*
X437878Y239696D01*
X438800Y241172D01*
X440929Y241172D01*
X440929Y238219D01*
D02*
G37*
G36*
X434728Y239696D02*
X433805Y238219D01*
X431677D01*
Y241172D01*
X433805D01*
X434728Y239696D01*
D02*
G37*
G36*
X153895Y240222D02*
Y238094D01*
X150942D01*
Y240222D01*
X152419Y241145D01*
X153895Y240222D01*
D02*
G37*
G36*
X460905Y237957D02*
X460905Y235612D01*
X455589Y235612D01*
Y237957D01*
X458247Y239056D01*
X460905Y237957D01*
D02*
G37*
G36*
X181050Y236222D02*
Y234093D01*
X178097D01*
Y236222D01*
X179573Y237144D01*
X181050Y236222D01*
D02*
G37*
G36*
X371492Y235490D02*
Y233362D01*
X368539D01*
Y235490D01*
X370015Y236413D01*
X371492Y235490D01*
D02*
G37*
G36*
X386492Y235427D02*
X386492Y233298D01*
X383539Y233298D01*
Y235427D01*
X385015Y236350D01*
X386492Y235427D01*
D02*
G37*
G36*
X100842Y236390D02*
Y232749D01*
X91196D01*
Y236390D01*
X96019Y238064D01*
X100842Y236390D01*
D02*
G37*
G36*
X481427Y232534D02*
X479082Y232534D01*
X477982Y235192D01*
X479082Y237849D01*
X481427D01*
Y232534D01*
D02*
G37*
G36*
X474439Y235192D02*
X473339Y232534D01*
X470994Y232534D01*
X470994Y237849D01*
X473339D01*
X474439Y235192D01*
D02*
G37*
G36*
X360335Y231398D02*
X358206D01*
X357283Y232874D01*
X358206Y234350D01*
X360335Y234350D01*
X360335Y231398D01*
D02*
G37*
G36*
X354134Y232874D02*
X353211Y231398D01*
X351083D01*
Y234350D01*
X353211D01*
X354134Y232874D01*
D02*
G37*
G36*
X252953Y231715D02*
X251476Y230793D01*
X250000Y231715D01*
Y233844D01*
X252953D01*
Y231715D01*
D02*
G37*
G36*
X181050Y229612D02*
X179573Y228689D01*
X178097Y229612D01*
Y231740D01*
X181050D01*
Y229612D01*
D02*
G37*
G36*
X441806Y227688D02*
X439461D01*
X438361Y230345D01*
X439461Y233003D01*
X441806D01*
Y227688D01*
D02*
G37*
G36*
X434818Y230345D02*
X433718Y227688D01*
X431373D01*
Y233003D01*
X433718D01*
X434818Y230345D01*
D02*
G37*
G36*
X360335Y226279D02*
X358206D01*
X357283Y227756D01*
X358206Y229232D01*
X360335D01*
Y226279D01*
D02*
G37*
G36*
X354134Y227756D02*
X353211Y226279D01*
X351083Y226279D01*
X351083Y229232D01*
X353211D01*
X354134Y227756D01*
D02*
G37*
G36*
X90501Y226168D02*
X89025Y225245D01*
X87549Y226168D01*
Y228296D01*
X90501D01*
Y226168D01*
D02*
G37*
G36*
X481427Y225060D02*
X479082Y225060D01*
X477982Y227718D01*
X479082Y230375D01*
X481427D01*
Y225060D01*
D02*
G37*
G36*
X474439Y227718D02*
X473339Y225060D01*
X470994Y225060D01*
X470994Y230375D01*
X473339D01*
X474439Y227718D01*
D02*
G37*
G36*
X492186Y226108D02*
X489528Y225008D01*
X486871Y226108D01*
Y228453D01*
X492186Y228453D01*
Y226108D01*
D02*
G37*
G36*
X252953Y226720D02*
Y224592D01*
X250000D01*
Y226720D01*
X251476Y227643D01*
X252953Y226720D01*
D02*
G37*
G36*
X330020Y223228D02*
X327891D01*
X326969Y224705D01*
X327891Y226181D01*
X330020D01*
Y223228D01*
D02*
G37*
G36*
X323819Y224705D02*
X322896Y223228D01*
X320768D01*
Y226181D01*
X322896D01*
X323819Y224705D01*
D02*
G37*
G36*
X181050Y224617D02*
X181050Y222489D01*
X178097Y222489D01*
Y224617D01*
X179573Y225540D01*
X181050Y224617D01*
D02*
G37*
G36*
X90501Y221173D02*
Y219044D01*
X87549D01*
Y221173D01*
X89025Y222096D01*
X90501Y221173D01*
D02*
G37*
G36*
X158226Y223367D02*
X156553Y218544D01*
X152911D01*
Y228190D01*
X156553D01*
X158226Y223367D01*
D02*
G37*
G36*
X170824Y218544D02*
X167183D01*
X165509Y223367D01*
X167183Y228190D01*
X170824D01*
Y218544D01*
D02*
G37*
G36*
X492186Y220365D02*
X492186Y218020D01*
X486871Y218020D01*
Y220365D01*
X489528Y221465D01*
X492186Y220365D01*
D02*
G37*
G36*
X265748Y217421D02*
X263620D01*
X262697Y218898D01*
X263620Y220374D01*
X265748D01*
Y217421D01*
D02*
G37*
G36*
X259547Y218898D02*
X258625Y217421D01*
X256496D01*
Y220374D01*
X258625D01*
X259547Y218898D01*
D02*
G37*
G36*
X76517Y214909D02*
X73860Y213809D01*
X71202Y214909D01*
Y217254D01*
X76517D01*
Y214909D01*
D02*
G37*
G36*
X90501Y214617D02*
X89025Y213695D01*
X87549Y214617D01*
Y216746D01*
X90501D01*
Y214617D01*
D02*
G37*
G36*
X83858Y214596D02*
X82382Y213673D01*
X80905Y214596D01*
Y216724D01*
X83858D01*
Y214596D01*
D02*
G37*
G36*
X588715Y207807D02*
X586587D01*
X585664Y209283D01*
X586587Y210759D01*
X588715D01*
Y207807D01*
D02*
G37*
G36*
X582514Y209283D02*
X581592Y207807D01*
X579463D01*
Y210759D01*
X581592D01*
X582514Y209283D01*
D02*
G37*
G36*
X146555Y207677D02*
X144427D01*
X143504Y209154D01*
X144427Y210630D01*
X146555D01*
Y207677D01*
D02*
G37*
G36*
X140354Y209154D02*
X139432Y207677D01*
X137303D01*
Y210630D01*
X139432D01*
X140354Y209154D01*
D02*
G37*
G36*
X90501Y209622D02*
X90501Y207494D01*
X87549Y207494D01*
Y209622D01*
X89025Y210545D01*
X90501Y209622D01*
D02*
G37*
G36*
X83858Y209600D02*
X83858Y207472D01*
X80905Y207472D01*
Y209600D01*
X82382Y210523D01*
X83858Y209600D01*
D02*
G37*
G36*
X76517Y209166D02*
Y206821D01*
X71202D01*
Y209166D01*
X73860Y210266D01*
X76517Y209166D01*
D02*
G37*
G36*
X568192Y205799D02*
X566063D01*
X565141Y207276D01*
X566063Y208752D01*
X568192D01*
Y205799D01*
D02*
G37*
G36*
X561991Y207276D02*
X561068Y205799D01*
X558940D01*
Y208752D01*
X561068D01*
X561991Y207276D01*
D02*
G37*
G36*
X605848Y204269D02*
X604371Y203346D01*
X602895Y204269D01*
Y206398D01*
X605848D01*
Y204269D01*
D02*
G37*
G36*
X588704Y202480D02*
X586575D01*
X585653Y203956D01*
X586575Y205433D01*
X588704D01*
Y202480D01*
D02*
G37*
G36*
X582503Y203956D02*
X581580Y202480D01*
X579452D01*
Y205433D01*
X581580D01*
X582503Y203956D01*
D02*
G37*
G36*
X568181Y199576D02*
X566053D01*
X565130Y201052D01*
X566053Y202529D01*
X568181D01*
Y199576D01*
D02*
G37*
G36*
X561980Y201052D02*
X561058Y199576D01*
X558929D01*
Y202529D01*
X561058D01*
X561980Y201052D01*
D02*
G37*
G36*
X328248Y200431D02*
X326772Y199508D01*
X325295Y200431D01*
X325295Y202559D01*
X328248Y202559D01*
Y200431D01*
D02*
G37*
G36*
X323130D02*
X321654Y199508D01*
X320177Y200431D01*
X320177Y202559D01*
X323130Y202559D01*
Y200431D01*
D02*
G37*
G36*
X524793Y198482D02*
X522664D01*
X521742Y199958D01*
X522664Y201435D01*
X524793Y201435D01*
X524793Y198482D01*
D02*
G37*
G36*
X518592Y199958D02*
X517669Y198482D01*
X515541D01*
Y201435D01*
X517669D01*
X518592Y199958D01*
D02*
G37*
G36*
X542593Y197857D02*
X540464D01*
X539542Y199333D01*
X540464Y200810D01*
X542593Y200810D01*
X542593Y197857D01*
D02*
G37*
G36*
X536392Y199333D02*
X535469Y197857D01*
X533341D01*
Y200810D01*
X535469D01*
X536392Y199333D01*
D02*
G37*
G36*
X605848Y199274D02*
Y197146D01*
X602895D01*
Y199274D01*
X604371Y200197D01*
X605848Y199274D01*
D02*
G37*
G36*
X619017Y196994D02*
X616889D01*
X615966Y198470D01*
X616889Y199947D01*
X619017D01*
Y196994D01*
D02*
G37*
G36*
X612816Y198470D02*
X611894Y196994D01*
X609765D01*
Y199947D01*
X611894D01*
X612816Y198470D01*
D02*
G37*
G36*
X553362Y195969D02*
X551886Y195046D01*
X550409Y195969D01*
Y198097D01*
X553362D01*
Y195969D01*
D02*
G37*
G36*
X328248Y195436D02*
Y193307D01*
X325295D01*
Y195436D01*
X326772Y196358D01*
X328248Y195436D01*
D02*
G37*
G36*
X323130D02*
Y193307D01*
X320177D01*
Y195436D01*
X321654Y196358D01*
X323130Y195436D01*
D02*
G37*
G36*
X266535Y193946D02*
X265059Y193023D01*
X263583Y193946D01*
Y196074D01*
X266535D01*
Y193946D01*
D02*
G37*
G36*
X261417D02*
X259941Y193023D01*
X258465Y193946D01*
Y196074D01*
X261417D01*
Y193946D01*
D02*
G37*
G36*
X26511Y193001D02*
X25921Y192017D01*
X24838D01*
X24641Y192213D01*
X24641Y193788D01*
X24838Y193985D01*
X25921Y193985D01*
X26511Y193001D01*
D02*
G37*
G36*
X30350Y193788D02*
X30350Y192213D01*
X30153Y192017D01*
X29070D01*
X28480Y193001D01*
X29070Y193985D01*
X30153Y193985D01*
X30350Y193788D01*
D02*
G37*
G36*
X183704Y191732D02*
X181575D01*
X180652Y193209D01*
X181575Y194685D01*
X183704D01*
Y191732D01*
D02*
G37*
G36*
X177503Y193209D02*
X176580Y191732D01*
X174452Y191732D01*
X174452Y194685D01*
X176580D01*
X177503Y193209D01*
D02*
G37*
G36*
X171358Y191240D02*
X166535Y189567D01*
X161713Y191240D01*
Y194882D01*
X171358D01*
Y191240D01*
D02*
G37*
G36*
X553362Y190974D02*
Y188845D01*
X550409D01*
Y190974D01*
X551886Y191896D01*
X553362Y190974D01*
D02*
G37*
G36*
X512443Y189073D02*
X510967Y188151D01*
X509490Y189073D01*
Y191202D01*
X512443D01*
Y189073D01*
D02*
G37*
G36*
X502133D02*
X500657Y188151D01*
X499180Y189073D01*
Y191202D01*
X502133D01*
Y189073D01*
D02*
G37*
G36*
X507327Y189073D02*
X505850Y188151D01*
X504374Y189073D01*
X504374Y191202D01*
X507327Y191202D01*
Y189073D01*
D02*
G37*
G36*
X383417Y187343D02*
X381071Y187343D01*
X379972Y190000D01*
X381071Y192657D01*
X383417D01*
Y187343D01*
D02*
G37*
G36*
X376428Y190000D02*
X375329Y187343D01*
X372983Y187343D01*
X372984Y192657D01*
X375329D01*
X376428Y190000D01*
D02*
G37*
G36*
X158366Y187205D02*
X154390D01*
X153854Y188208D01*
X152968Y189287D01*
X151889Y190173D01*
X150658Y190831D01*
X149322Y191236D01*
X147933Y191373D01*
X146544Y191236D01*
X145208Y190831D01*
X143977Y190173D01*
X142898Y189287D01*
X142012Y188208D01*
X141476Y187205D01*
X137500D01*
Y195079D01*
X158366D01*
Y187205D01*
D02*
G37*
G36*
X266535Y188951D02*
X266535Y186822D01*
X263583Y186822D01*
Y188951D01*
X265059Y189874D01*
X266535Y188951D01*
D02*
G37*
G36*
X261417D02*
X261417Y186822D01*
X258465Y186822D01*
Y188951D01*
X259941Y189874D01*
X261417Y188951D01*
D02*
G37*
G36*
X375048Y184408D02*
X374458Y183424D01*
X373375Y183424D01*
X373178Y183621D01*
X373178Y185195D01*
X373375Y185392D01*
X374458D01*
X375048Y184408D01*
D02*
G37*
G36*
X378887Y185195D02*
X378887Y183621D01*
X378690Y183424D01*
X377607Y183424D01*
X377017Y184408D01*
X377607Y185392D01*
X378690D01*
X378887Y185195D01*
D02*
G37*
G36*
X423541Y184319D02*
X422951Y183335D01*
X421868Y183335D01*
X421671Y183532D01*
X421671Y185106D01*
X421868Y185303D01*
X422951D01*
X423541Y184319D01*
D02*
G37*
G36*
X402116D02*
X401525Y183335D01*
X400443Y183335D01*
X400246Y183532D01*
X400246Y185106D01*
X400443Y185303D01*
X401525D01*
X402116Y184319D01*
D02*
G37*
G36*
X427380Y185106D02*
X427380Y183532D01*
X427183Y183335D01*
X426100Y183335D01*
X425510Y184319D01*
X426100Y185303D01*
X427183D01*
X427380Y185106D01*
D02*
G37*
G36*
X405954D02*
X405954Y183532D01*
X405758Y183335D01*
X404675Y183335D01*
X404084Y184319D01*
X404675Y185303D01*
X405758D01*
X405954Y185106D01*
D02*
G37*
G36*
X448049Y184238D02*
X447458Y183254D01*
X446375Y183254D01*
X446178Y183450D01*
X446178Y185025D01*
X446375Y185222D01*
X447458D01*
X448049Y184238D01*
D02*
G37*
G36*
X451887Y185025D02*
X451887Y183450D01*
X451690Y183254D01*
X450608Y183254D01*
X450017Y184238D01*
X450608Y185222D01*
X451690D01*
X451887Y185025D01*
D02*
G37*
G36*
X329482Y182283D02*
X327353D01*
X326431Y183760D01*
X327353Y185236D01*
X329482D01*
Y182283D01*
D02*
G37*
G36*
X323281Y183760D02*
X322358Y182283D01*
X320230D01*
Y185236D01*
X322358D01*
X323281Y183760D01*
D02*
G37*
G36*
X512443Y184078D02*
Y181950D01*
X509490D01*
Y184078D01*
X510967Y185001D01*
X512443Y184078D01*
D02*
G37*
G36*
X507327Y184078D02*
Y181950D01*
X504374D01*
Y184078D01*
X505850Y185001D01*
X507327Y184078D01*
D02*
G37*
G36*
X502133Y184078D02*
Y181950D01*
X499180D01*
Y184078D01*
X500657Y185001D01*
X502133Y184078D01*
D02*
G37*
G36*
X559596Y179350D02*
X557468D01*
X556545Y180826D01*
X557468Y182302D01*
X559596D01*
Y179350D01*
D02*
G37*
G36*
X553395Y180826D02*
X552472Y179350D01*
X550344Y179350D01*
X550344Y182302D01*
X552472D01*
X553395Y180826D01*
D02*
G37*
G36*
X33921Y184878D02*
X33955Y184868D01*
X33987Y184851D01*
X34015Y184828D01*
X34038Y184800D01*
X34054Y184768D01*
X34065Y184734D01*
X34068Y184698D01*
Y178962D01*
X34065Y178926D01*
X34054Y178892D01*
X34038Y178860D01*
X34015Y178833D01*
X33987Y178810D01*
X33955Y178793D01*
X33921Y178783D01*
X33885Y178779D01*
X28149D01*
X28113Y178783D01*
X28079Y178793D01*
X28047Y178810D01*
X28020Y178833D01*
X27997Y178860D01*
X27980Y178892D01*
X27970Y178926D01*
X27966Y178962D01*
Y184698D01*
X27970Y184734D01*
X27980Y184768D01*
X27997Y184800D01*
X28020Y184828D01*
X28047Y184851D01*
X28079Y184868D01*
X28113Y184878D01*
X28149Y184881D01*
X33885D01*
X33921Y184878D01*
D02*
G37*
G36*
X158366Y173425D02*
X137500D01*
Y181299D01*
X141476D01*
X142012Y180296D01*
X142898Y179217D01*
X143977Y178331D01*
X145208Y177673D01*
X146544Y177268D01*
X147933Y177131D01*
X149322Y177268D01*
X150658Y177673D01*
X151889Y178331D01*
X152968Y179217D01*
X153854Y180296D01*
X154390Y181299D01*
X158366D01*
Y173425D01*
D02*
G37*
G36*
X171358Y180611D02*
Y176969D01*
X161712D01*
Y180611D01*
X166535Y182284D01*
X171358Y180611D01*
D02*
G37*
G36*
X21223Y177910D02*
X18565Y176811D01*
X15908Y177910D01*
Y180255D01*
X21223D01*
X21223Y177910D01*
D02*
G37*
G36*
X260500Y170143D02*
X258155D01*
X257055Y172801D01*
X258155Y175458D01*
X260500D01*
Y170143D01*
D02*
G37*
G36*
X253512Y172801D02*
X252412Y170143D01*
X250067D01*
Y175458D01*
X252412D01*
X253512Y172801D01*
D02*
G37*
G36*
X21223Y172168D02*
X21223Y169822D01*
X15908Y169822D01*
Y172168D01*
X18565Y173267D01*
X21223Y172168D01*
D02*
G37*
G36*
X41745Y166745D02*
X39400Y166745D01*
X38301Y169403D01*
X39400Y172060D01*
X41745D01*
Y166745D01*
D02*
G37*
G36*
X34757Y169403D02*
X33658Y166745D01*
X31312Y166745D01*
X31312Y172060D01*
X33658D01*
X34757Y169403D01*
D02*
G37*
G36*
X504311Y163860D02*
X502182D01*
X501259Y165337D01*
X502182Y166813D01*
X504311D01*
Y163860D01*
D02*
G37*
G36*
X498110Y165337D02*
X497187Y163860D01*
X495059Y163860D01*
X495059Y166813D01*
X497187D01*
X498110Y165337D01*
D02*
G37*
G36*
X352314Y165258D02*
X352314Y164175D01*
X351330Y163584D01*
X350346Y164175D01*
Y165258D01*
X350543Y165454D01*
X352117Y165454D01*
X352314Y165258D01*
D02*
G37*
G36*
X260500Y162578D02*
X258155D01*
X257055Y165236D01*
X258155Y167893D01*
X260500D01*
Y162578D01*
D02*
G37*
G36*
X253512Y165236D02*
X252412Y162578D01*
X250067D01*
Y167893D01*
X252412D01*
X253512Y165236D01*
D02*
G37*
G36*
X329482Y160236D02*
X327353D01*
X326431Y161713D01*
X327353Y163189D01*
X329482D01*
Y160236D01*
D02*
G37*
G36*
X323281Y161713D02*
X322358Y160236D01*
X320230D01*
Y163189D01*
X322358D01*
X323281Y161713D01*
D02*
G37*
G36*
X352314Y161025D02*
X352314Y159942D01*
X352117Y159746D01*
X350543Y159746D01*
X350346Y159942D01*
Y161025D01*
X351330Y161616D01*
X352314Y161025D01*
D02*
G37*
G36*
X479161Y163084D02*
Y160739D01*
X476504Y159640D01*
X473846Y160739D01*
X473846Y163084D01*
X479161Y163084D01*
D02*
G37*
G36*
X41745Y159271D02*
X39400Y159271D01*
X38301Y161929D01*
X39400Y164586D01*
X41745D01*
Y159271D01*
D02*
G37*
G36*
X34757Y161929D02*
X33658Y159271D01*
X31312Y159271D01*
X31312Y164586D01*
X33658D01*
X34757Y161929D01*
D02*
G37*
G36*
X469254Y159717D02*
X469254Y158634D01*
X468270Y158044D01*
X467286Y158634D01*
Y159717D01*
X467483Y159914D01*
X469058Y159914D01*
X469254Y159717D01*
D02*
G37*
G36*
X504076Y156764D02*
X502600Y155842D01*
X501124Y156764D01*
Y158893D01*
X504076D01*
Y156764D01*
D02*
G37*
G36*
X329482Y155118D02*
X327353D01*
X326431Y156595D01*
X327353Y158071D01*
X329482D01*
Y155118D01*
D02*
G37*
G36*
X323281Y156595D02*
X322358Y155118D01*
X320230D01*
Y158071D01*
X322358D01*
X323281Y156595D01*
D02*
G37*
G36*
X469254Y155485D02*
X469254Y154402D01*
X469058Y154205D01*
X467483Y154205D01*
X467286Y154402D01*
Y155485D01*
X468270Y156075D01*
X469254Y155485D01*
D02*
G37*
G36*
X479161Y154997D02*
Y152651D01*
X473846D01*
X473846Y154997D01*
X476504Y156096D01*
X479161Y154997D01*
D02*
G37*
G36*
X48040Y156653D02*
X48040Y151338D01*
X45694D01*
X44595Y153996D01*
X45694Y156653D01*
X48040Y156653D01*
D02*
G37*
G36*
X41051Y153996D02*
X39952Y151338D01*
X37607D01*
X37607Y156653D01*
X39952D01*
X41051Y153996D01*
D02*
G37*
G36*
X329482Y150000D02*
X327353D01*
X326431Y151476D01*
X327353Y152953D01*
X329482D01*
Y150000D01*
D02*
G37*
G36*
X323281Y151476D02*
X322358Y150000D01*
X320230D01*
Y152953D01*
X322358D01*
X323281Y151476D01*
D02*
G37*
G36*
X504076Y151769D02*
X504076Y149641D01*
X501124Y149641D01*
Y151769D01*
X502600Y152692D01*
X504076Y151769D01*
D02*
G37*
G36*
X567267Y147465D02*
X565791Y146542D01*
X564315Y147465D01*
Y149593D01*
X567267D01*
Y147465D01*
D02*
G37*
G36*
Y142469D02*
X567267Y140341D01*
X564315Y140341D01*
Y142469D01*
X565791Y143392D01*
X567267Y142469D01*
D02*
G37*
G36*
X60597Y137824D02*
X58469D01*
X57546Y139300D01*
X58469Y140776D01*
X60597D01*
Y137824D01*
D02*
G37*
G36*
X54396Y139300D02*
X53474Y137824D01*
X51345D01*
Y140776D01*
X53474D01*
X54396Y139300D01*
D02*
G37*
G36*
X351871Y139426D02*
X351871Y138343D01*
X350886Y137753D01*
X349902Y138343D01*
Y139426D01*
X350099Y139623D01*
X351674Y139623D01*
X351871Y139426D01*
D02*
G37*
G36*
X503740Y137864D02*
X502263Y136942D01*
X500787Y137864D01*
Y139993D01*
X503740D01*
Y137864D01*
D02*
G37*
G36*
X469387Y135908D02*
X469584Y135711D01*
Y134628D01*
X468600Y134038D01*
X467616Y134628D01*
X467616Y135711D01*
X467813Y135908D01*
X469387Y135908D01*
D02*
G37*
G36*
X351871Y135194D02*
X351871Y134111D01*
X351674Y133914D01*
X350099Y133914D01*
X349902Y134111D01*
Y135194D01*
X350886Y135784D01*
X351871Y135194D01*
D02*
G37*
G36*
X60699Y131665D02*
X58570D01*
X57648Y133141D01*
X58570Y134617D01*
X60699D01*
Y131665D01*
D02*
G37*
G36*
X54498Y133141D02*
X53575Y131665D01*
X51447D01*
Y134617D01*
X53575D01*
X54498Y133141D01*
D02*
G37*
G36*
X38051Y131665D02*
X35923D01*
X35000Y133141D01*
X35923Y134617D01*
X38051D01*
Y131665D01*
D02*
G37*
G36*
X31850Y133141D02*
X30927Y131665D01*
X28799D01*
Y134617D01*
X30927D01*
X31850Y133141D01*
D02*
G37*
G36*
X503740Y132869D02*
X503740Y130741D01*
X500787Y130741D01*
Y132869D01*
X502263Y133792D01*
X503740Y132869D01*
D02*
G37*
G36*
X469584Y131479D02*
Y130396D01*
X469387Y130199D01*
X467813Y130199D01*
X467616Y130396D01*
X467616Y131479D01*
X468600Y132069D01*
X469584Y131479D01*
D02*
G37*
G36*
X567267Y130015D02*
X565791Y129092D01*
X564315Y130015D01*
Y132143D01*
X567267D01*
Y130015D01*
D02*
G37*
G36*
X38051Y125415D02*
X35923D01*
X35000Y126891D01*
X35923Y128367D01*
X38051D01*
Y125415D01*
D02*
G37*
G36*
X31850Y126891D02*
X30927Y125415D01*
X28799D01*
Y128367D01*
X30927D01*
X31850Y126891D01*
D02*
G37*
G36*
X243996Y123116D02*
X241867D01*
X240945Y124592D01*
X241867Y126069D01*
X243996D01*
Y123116D01*
D02*
G37*
G36*
X201378D02*
X199249D01*
X198327Y124592D01*
X199249Y126069D01*
X201378D01*
Y123116D01*
D02*
G37*
G36*
X237795Y124592D02*
X236872Y123116D01*
X234744Y123116D01*
X234744Y126069D01*
X236872D01*
X237795Y124592D01*
D02*
G37*
G36*
X195177D02*
X194254Y123116D01*
X192126Y123116D01*
X192126Y126069D01*
X194254D01*
X195177Y124592D01*
D02*
G37*
G36*
X500904Y123108D02*
X498775D01*
X497852Y124584D01*
X498775Y126060D01*
X500904D01*
Y123108D01*
D02*
G37*
G36*
X494703Y124584D02*
X493780Y123108D01*
X491652Y123108D01*
X491652Y126060D01*
X493780D01*
X494703Y124584D01*
D02*
G37*
G36*
X567267Y125019D02*
X567267Y122891D01*
X564315Y122891D01*
Y125019D01*
X565791Y125942D01*
X567267Y125019D01*
D02*
G37*
G36*
X38051Y119165D02*
X35923D01*
X35000Y120641D01*
X35923Y122117D01*
X38051D01*
Y119165D01*
D02*
G37*
G36*
X31850Y120641D02*
X30927Y119165D01*
X28799D01*
Y122117D01*
X30927D01*
X31850Y120641D01*
D02*
G37*
G36*
X351920Y119944D02*
X351920Y118861D01*
X350935Y118271D01*
X349951Y118861D01*
Y119944D01*
X350148Y120141D01*
X351723Y120141D01*
X351920Y119944D01*
D02*
G37*
G36*
X159768Y118246D02*
X158292Y117324D01*
X156815Y118246D01*
Y120375D01*
X159768D01*
Y118246D01*
D02*
G37*
G36*
X154676Y118246D02*
X153200Y117323D01*
X151724Y118246D01*
Y120374D01*
X154676D01*
Y118246D01*
D02*
G37*
G36*
X149508D02*
X148031Y117323D01*
X146555Y118246D01*
Y120374D01*
X149508D01*
Y118246D01*
D02*
G37*
G36*
X187422Y117164D02*
X185294D01*
X184371Y118640D01*
X185294Y120116D01*
X187422D01*
Y117164D01*
D02*
G37*
G36*
X181221Y118640D02*
X180299Y117164D01*
X178170D01*
Y120116D01*
X180299D01*
X181221Y118640D01*
D02*
G37*
G36*
X351920Y115711D02*
X351920Y114629D01*
X351723Y114432D01*
X350148Y114432D01*
X349951Y114629D01*
Y115711D01*
X350935Y116302D01*
X351920Y115711D01*
D02*
G37*
G36*
X469387Y116121D02*
X469584Y115924D01*
Y114842D01*
X468600Y114251D01*
X467616Y114842D01*
X467616Y115924D01*
X467813Y116121D01*
X469387Y116121D01*
D02*
G37*
G36*
X108413Y114419D02*
X107822Y113435D01*
X106740Y113435D01*
X106543Y113632D01*
X106543Y115207D01*
X106740Y115404D01*
X107822D01*
X108413Y114419D01*
D02*
G37*
G36*
X112251Y115207D02*
X112251Y113632D01*
X112055Y113435D01*
X110972Y113435D01*
X110381Y114419D01*
X110972Y115404D01*
X112055D01*
X112251Y115207D01*
D02*
G37*
G36*
X68735Y113201D02*
X66390Y113201D01*
X65290Y115859D01*
X66390Y118517D01*
X68735D01*
Y113201D01*
D02*
G37*
G36*
X61747Y115859D02*
X60647Y113201D01*
X58302Y113201D01*
X58302Y118517D01*
X60647D01*
X61747Y115859D01*
D02*
G37*
G36*
X92117Y112952D02*
X89988D01*
X89066Y114428D01*
X89988Y115904D01*
X92117D01*
Y112952D01*
D02*
G37*
G36*
X85916Y114428D02*
X84993Y112952D01*
X82865D01*
Y115904D01*
X84993D01*
X85916Y114428D01*
D02*
G37*
G36*
X159768Y113251D02*
Y111123D01*
X156815D01*
Y113251D01*
X158292Y114174D01*
X159768Y113251D01*
D02*
G37*
G36*
X154676Y113251D02*
Y111122D01*
X151724D01*
Y113251D01*
X153200Y114173D01*
X154676Y113251D01*
D02*
G37*
G36*
X149508D02*
Y111122D01*
X146555D01*
Y113251D01*
X148031Y114173D01*
X149508Y113251D01*
D02*
G37*
G36*
X469584Y111692D02*
Y110609D01*
X469387Y110413D01*
X467813Y110413D01*
X467616Y110609D01*
X467616Y111692D01*
X468600Y112283D01*
X469584Y111692D01*
D02*
G37*
G36*
X55891Y107446D02*
X55300Y106462D01*
X54217D01*
X54021Y106658D01*
X54021Y108233D01*
X54217Y108430D01*
X55300Y108430D01*
X55891Y107446D01*
D02*
G37*
G36*
X59729Y108233D02*
X59729Y106658D01*
X59532Y106462D01*
X58450D01*
X57859Y107446D01*
X58450Y108430D01*
X59532Y108430D01*
X59729Y108233D01*
D02*
G37*
G36*
X289023Y106394D02*
X287547Y105471D01*
X286071Y106394D01*
Y108522D01*
X289023D01*
Y106394D01*
D02*
G37*
G36*
X244576Y105016D02*
X243100Y104093D01*
X241624Y105016D01*
Y107144D01*
X244576D01*
Y105016D01*
D02*
G37*
G36*
X351319Y103995D02*
X349191D01*
X348268Y105471D01*
X349191Y106948D01*
X351319D01*
Y103995D01*
D02*
G37*
G36*
X345118Y105471D02*
X344196Y103995D01*
X342067D01*
Y106948D01*
X344196D01*
X345118Y105471D01*
D02*
G37*
G36*
X289023Y101399D02*
Y99270D01*
X286071D01*
Y101399D01*
X287547Y102322D01*
X289023Y101399D01*
D02*
G37*
G36*
X244576Y100020D02*
X244576Y97892D01*
X241624Y97892D01*
Y100020D01*
X243100Y100943D01*
X244576Y100020D01*
D02*
G37*
G36*
X141319Y98377D02*
X139842Y97454D01*
X138366Y98377D01*
X138366Y100505D01*
X141319Y100505D01*
Y98377D01*
D02*
G37*
G36*
X347557Y100016D02*
Y97671D01*
X344900Y96572D01*
X342243Y97671D01*
X342243Y100016D01*
X347557Y100016D01*
D02*
G37*
G36*
X351384Y97457D02*
X351384Y96375D01*
X350400Y95784D01*
X349416Y96375D01*
Y97457D01*
X349613Y97654D01*
X351187Y97654D01*
X351384Y97457D01*
D02*
G37*
G36*
X136384Y96378D02*
X136384Y95295D01*
X135400Y94705D01*
X134416Y95295D01*
Y96378D01*
X134612Y96575D01*
X136187Y96575D01*
X136384Y96378D01*
D02*
G37*
G36*
X132514Y94433D02*
X131037Y93510D01*
X129561Y94433D01*
Y96561D01*
X132514D01*
Y94433D01*
D02*
G37*
G36*
X127480Y94764D02*
X127677Y94567D01*
Y93484D01*
X126693Y92894D01*
X125709Y93484D01*
X125709Y94567D01*
X125906Y94764D01*
X127480Y94764D01*
D02*
G37*
G36*
X351384Y93225D02*
X351384Y92142D01*
X351187Y91946D01*
X349613Y91946D01*
X349416Y92142D01*
Y93225D01*
X350400Y93816D01*
X351384Y93225D01*
D02*
G37*
G36*
X141319Y93382D02*
Y91254D01*
X138366D01*
Y93382D01*
X139842Y94305D01*
X141319Y93382D01*
D02*
G37*
G36*
X271124Y91169D02*
X268996D01*
X268073Y92645D01*
X268996Y94122D01*
X271124D01*
Y91169D01*
D02*
G37*
G36*
X264923Y92645D02*
X264001Y91169D01*
X261872D01*
Y94122D01*
X264001D01*
X264923Y92645D01*
D02*
G37*
G36*
X286851Y91103D02*
X284722D01*
X283799Y92579D01*
X284722Y94056D01*
X286851Y94056D01*
X286851Y91103D01*
D02*
G37*
G36*
X280650Y92579D02*
X279727Y91103D01*
X277599D01*
Y94056D01*
X279727D01*
X280650Y92579D01*
D02*
G37*
G36*
X136384Y92146D02*
X136384Y91063D01*
X136187Y90866D01*
X134612Y90866D01*
X134416Y91063D01*
Y92146D01*
X135400Y92736D01*
X136384Y92146D01*
D02*
G37*
G36*
X347557Y91929D02*
Y89583D01*
X342243D01*
X342243Y91929D01*
X344900Y93028D01*
X347557Y91929D01*
D02*
G37*
G36*
X234439Y89092D02*
X232311D01*
X231388Y90568D01*
X232311Y92044D01*
X234439D01*
Y89092D01*
D02*
G37*
G36*
X228238Y90568D02*
X227315Y89092D01*
X225187D01*
Y92044D01*
X227315D01*
X228238Y90568D01*
D02*
G37*
G36*
X127677Y90335D02*
Y89252D01*
X127480Y89055D01*
X125906Y89055D01*
X125709Y89252D01*
X125709Y90335D01*
X126693Y90925D01*
X127677Y90335D01*
D02*
G37*
G36*
X467134Y90676D02*
X467331Y90480D01*
Y89397D01*
X466346Y88806D01*
X465362Y89397D01*
X465362Y90480D01*
X465559Y90676D01*
X467134Y90676D01*
D02*
G37*
G36*
X132514Y89438D02*
X132514Y87309D01*
X129561Y87309D01*
Y89438D01*
X131037Y90360D01*
X132514Y89438D01*
D02*
G37*
G36*
X127480Y87657D02*
X127677Y87461D01*
Y86378D01*
X126693Y85787D01*
X125709Y86378D01*
X125709Y87461D01*
X125906Y87657D01*
X127480Y87657D01*
D02*
G37*
G36*
X467331Y86247D02*
Y85165D01*
X467134Y84968D01*
X465559Y84968D01*
X465362Y85165D01*
X465362Y86247D01*
X466346Y86838D01*
X467331Y86247D01*
D02*
G37*
G36*
X145138Y89087D02*
X145138Y83772D01*
X142793D01*
X141693Y86430D01*
X142793Y89087D01*
X145138Y89087D01*
D02*
G37*
G36*
X138150Y86430D02*
X137050Y83772D01*
X134705D01*
Y89087D01*
X137050Y89087D01*
X138150Y86430D01*
D02*
G37*
G36*
X294118Y84528D02*
X292642Y83605D01*
X291165Y84528D01*
Y86656D01*
X294118D01*
Y84528D01*
D02*
G37*
G36*
X486474Y85620D02*
X486082Y83924D01*
X484386Y83532D01*
X482881Y85037D01*
X484969Y87125D01*
X486474Y85620D01*
D02*
G37*
G36*
X234439Y82842D02*
X232311D01*
X231388Y84318D01*
X232311Y85794D01*
X234439D01*
Y82842D01*
D02*
G37*
G36*
X228238Y84318D02*
X227315Y82842D01*
X225187D01*
Y85794D01*
X227315D01*
X228238Y84318D01*
D02*
G37*
G36*
X504311Y81971D02*
X502182D01*
X501259Y83447D01*
X502182Y84923D01*
X504311D01*
Y81971D01*
D02*
G37*
G36*
X498110Y83447D02*
X497187Y81971D01*
X495059Y81971D01*
X495059Y84923D01*
X497187D01*
X498110Y83447D01*
D02*
G37*
G36*
X127677Y83228D02*
Y82146D01*
X127480Y81949D01*
X125906Y81949D01*
X125709Y82146D01*
X125709Y83228D01*
X126693Y83819D01*
X127677Y83228D01*
D02*
G37*
G36*
X491511Y80583D02*
X489423Y78495D01*
X487918Y80000D01*
X488309Y81697D01*
X490006Y82088D01*
X491511Y80583D01*
D02*
G37*
G36*
X294118Y79532D02*
Y77404D01*
X291165D01*
Y79532D01*
X292642Y80455D01*
X294118Y79532D01*
D02*
G37*
G36*
X234439Y76592D02*
X232311D01*
X231388Y78068D01*
X232311Y79544D01*
X234439D01*
Y76592D01*
D02*
G37*
G36*
X228238Y78068D02*
X227315Y76592D01*
X225187D01*
Y79544D01*
X227315D01*
X228238Y78068D01*
D02*
G37*
G36*
X131400Y78259D02*
X131597Y78062D01*
Y76487D01*
X131400Y76291D01*
X130317D01*
X129727Y77275D01*
X130317Y78259D01*
X131400Y78259D01*
D02*
G37*
G36*
X127758Y77275D02*
X127168Y76291D01*
X126085Y76291D01*
X125888Y76487D01*
Y78062D01*
X126085Y78259D01*
X127168Y78259D01*
X127758Y77275D01*
D02*
G37*
G36*
X134902Y77275D02*
X134311Y76291D01*
X133229D01*
X133032Y76487D01*
X133032Y78062D01*
X133229Y78259D01*
X134311Y78259D01*
X134902Y77275D01*
D02*
G37*
G36*
X138741Y78062D02*
X138741Y76487D01*
X138544Y76291D01*
X137461D01*
X136871Y77275D01*
X137461Y78259D01*
X138544Y78259D01*
X138741Y78062D01*
D02*
G37*
G36*
X138684Y72587D02*
X138684Y71505D01*
X137700Y70914D01*
X136716Y71505D01*
Y72587D01*
X136913Y72784D01*
X138487Y72784D01*
X138684Y72587D01*
D02*
G37*
G36*
X127657Y70768D02*
X127854Y70571D01*
Y69488D01*
X126870Y68898D01*
X125886Y69488D01*
X125886Y70571D01*
X126083Y70768D01*
X127657Y70768D01*
D02*
G37*
G36*
X424924Y69587D02*
X424924Y68504D01*
X423940Y67913D01*
X422956Y68504D01*
X422956Y69587D01*
X423152Y69784D01*
X424727D01*
X424924Y69587D01*
D02*
G37*
G36*
X246314Y67842D02*
X244185D01*
X243263Y69318D01*
X244185Y70794D01*
X246314Y70794D01*
X246314Y67842D01*
D02*
G37*
G36*
X240113Y69318D02*
X239190Y67842D01*
X237062D01*
Y70794D01*
X239190D01*
X240113Y69318D01*
D02*
G37*
G36*
X138684Y68355D02*
X138684Y67272D01*
X138487Y67076D01*
X136913Y67076D01*
X136716Y67272D01*
Y68355D01*
X137700Y68946D01*
X138684Y68355D01*
D02*
G37*
G36*
X436266Y68742D02*
X436463Y68545D01*
Y67463D01*
X435479Y66872D01*
X434494Y67463D01*
X434494Y68545D01*
X434691Y68742D01*
X436266Y68742D01*
D02*
G37*
G36*
X49158Y70306D02*
Y67960D01*
X46500Y66861D01*
X43843Y67960D01*
X43843Y70306D01*
X49158Y70306D01*
D02*
G37*
G36*
X439816Y67700D02*
X439225Y66716D01*
X438142D01*
X437946Y66913D01*
X437946Y68487D01*
X438142Y68684D01*
X439225Y68684D01*
X439816Y67700D01*
D02*
G37*
G36*
X443654Y68487D02*
X443654Y66913D01*
X443458Y66716D01*
X442375D01*
X441784Y67700D01*
X442375Y68684D01*
X443458Y68684D01*
X443654Y68487D01*
D02*
G37*
G36*
X396360Y66630D02*
X395769Y65646D01*
X394687D01*
X394490Y65842D01*
X394490Y67417D01*
X394687Y67614D01*
X395769Y67614D01*
X396360Y66630D01*
D02*
G37*
G36*
X400198Y67417D02*
X400198Y65842D01*
X400001Y65646D01*
X398919D01*
X398328Y66630D01*
X398919Y67614D01*
X400002Y67614D01*
X400198Y67417D01*
D02*
G37*
G36*
X403516Y66600D02*
X402925Y65616D01*
X401842D01*
X401646Y65813D01*
X401646Y67387D01*
X401842Y67584D01*
X402925Y67584D01*
X403516Y66600D01*
D02*
G37*
G36*
X407354Y67387D02*
X407354Y65813D01*
X407158Y65616D01*
X406075D01*
X405484Y66600D01*
X406075Y67584D01*
X407158Y67584D01*
X407354Y67387D01*
D02*
G37*
G36*
X127854Y66339D02*
Y65256D01*
X127657Y65059D01*
X126083Y65059D01*
X125886Y65256D01*
X125886Y66339D01*
X126870Y66929D01*
X127854Y66339D01*
D02*
G37*
G36*
X385816Y65900D02*
X385225Y64916D01*
X384142Y64916D01*
X383946Y65113D01*
X383946Y66687D01*
X384142Y66884D01*
X385225D01*
X385816Y65900D01*
D02*
G37*
G36*
X389654Y66687D02*
X389654Y65113D01*
X389458Y64916D01*
X388375Y64916D01*
X387784Y65900D01*
X388375Y66884D01*
X389458D01*
X389654Y66687D01*
D02*
G37*
G36*
X378540Y65888D02*
X377950Y64904D01*
X376867Y64904D01*
X376670Y65101D01*
X376670Y66676D01*
X376867Y66872D01*
X377950D01*
X378540Y65888D01*
D02*
G37*
G36*
X382379Y66676D02*
X382379Y65101D01*
X382182Y64904D01*
X381099Y64904D01*
X380509Y65888D01*
X381099Y66872D01*
X382182D01*
X382379Y66676D01*
D02*
G37*
G36*
X462026Y64124D02*
X459898D01*
X458975Y65600D01*
X459898Y67076D01*
X462026D01*
Y64124D01*
D02*
G37*
G36*
X455825Y65600D02*
X454903Y64124D01*
X452774Y64124D01*
X452774Y67076D01*
X454903D01*
X455825Y65600D01*
D02*
G37*
G36*
X424924Y65354D02*
X424924Y64272D01*
X424727Y64075D01*
X423152D01*
X422956Y64272D01*
Y65354D01*
X423940Y65945D01*
X424924Y65354D01*
D02*
G37*
G36*
X441516Y64200D02*
X440925Y63216D01*
X439843Y63216D01*
X439646Y63413D01*
X439646Y64987D01*
X439843Y65184D01*
X440925D01*
X441516Y64200D01*
D02*
G37*
G36*
X445354Y64987D02*
X445354Y63413D01*
X445157Y63216D01*
X444075Y63216D01*
X443484Y64200D01*
X444075Y65184D01*
X445157D01*
X445354Y64987D01*
D02*
G37*
G36*
X436463Y64313D02*
Y63231D01*
X436266Y63034D01*
X434691Y63034D01*
X434494Y63231D01*
X434494Y64313D01*
X435479Y64904D01*
X436463Y64313D01*
D02*
G37*
G36*
X424756Y61551D02*
X424165Y60567D01*
X423082Y60567D01*
X422886Y60764D01*
X422886Y62339D01*
X423082Y62536D01*
X424165D01*
X424756Y61551D01*
D02*
G37*
G36*
X417638D02*
X417047Y60567D01*
X415965Y60567D01*
X415768Y60764D01*
X415768Y62339D01*
X415965Y62536D01*
X417047D01*
X417638Y61551D01*
D02*
G37*
G36*
X428594Y62339D02*
X428594Y60764D01*
X428397Y60567D01*
X427315Y60567D01*
X426724Y61551D01*
X427315Y62536D01*
X428397D01*
X428594Y62339D01*
D02*
G37*
G36*
X421476D02*
X421476Y60764D01*
X421279Y60567D01*
X420197Y60567D01*
X419606Y61551D01*
X420197Y62536D01*
X421279D01*
X421476Y62339D01*
D02*
G37*
G36*
X49158Y62218D02*
Y59872D01*
X43843D01*
X43843Y62218D01*
X46500Y63317D01*
X49158Y62218D01*
D02*
G37*
G36*
X496386Y59959D02*
X494910Y59036D01*
X493433Y59959D01*
Y62087D01*
X496386D01*
Y59959D01*
D02*
G37*
G36*
X490761D02*
X489285Y59036D01*
X487808Y59959D01*
Y62087D01*
X490761D01*
Y59959D01*
D02*
G37*
G36*
X444026Y58324D02*
X441897D01*
X440975Y59800D01*
X441897Y61276D01*
X444026D01*
Y58324D01*
D02*
G37*
G36*
X437825Y59800D02*
X436903Y58324D01*
X434774Y58324D01*
X434774Y61276D01*
X436903D01*
X437825Y59800D01*
D02*
G37*
G36*
X462717Y57733D02*
X460127Y57733D01*
X459272Y59800D01*
X460127Y61867D01*
X462717D01*
Y57733D01*
D02*
G37*
G36*
X455728Y59800D02*
X454873Y57733D01*
X452283Y57733D01*
Y61867D01*
X454873D01*
X455728Y59800D01*
D02*
G37*
G36*
X218120Y57635D02*
X215992D01*
X215069Y59111D01*
X215992Y60588D01*
X218120D01*
Y57635D01*
D02*
G37*
G36*
X211919Y59111D02*
X210997Y57635D01*
X208868D01*
Y60588D01*
X210997D01*
X211919Y59111D01*
D02*
G37*
G36*
X50359Y55787D02*
X50359Y54705D01*
X49375Y54114D01*
X48391Y54705D01*
Y55787D01*
X48588Y55984D01*
X50162Y55984D01*
X50359Y55787D01*
D02*
G37*
G36*
X447426Y53124D02*
X445297D01*
X444375Y54600D01*
X445297Y56076D01*
X447426Y56076D01*
X447426Y53124D01*
D02*
G37*
G36*
X441225Y54600D02*
X440303Y53124D01*
X438174D01*
Y56076D01*
X440303D01*
X441225Y54600D01*
D02*
G37*
G36*
X496386Y54964D02*
X496386Y52835D01*
X493433Y52835D01*
Y54964D01*
X494910Y55887D01*
X496386Y54964D01*
D02*
G37*
G36*
X490761D02*
X490761Y52835D01*
X487808Y52835D01*
Y54964D01*
X489285Y55887D01*
X490761Y54964D01*
D02*
G37*
G36*
X218120Y51385D02*
X215992D01*
X215069Y52861D01*
X215992Y54338D01*
X218120D01*
Y51385D01*
D02*
G37*
G36*
X211919Y52861D02*
X210997Y51385D01*
X208868D01*
Y54338D01*
X210997D01*
X211919Y52861D01*
D02*
G37*
G36*
X50359Y51555D02*
X50359Y50472D01*
X50162Y50276D01*
X48588Y50276D01*
X48391Y50472D01*
Y51555D01*
X49375Y52146D01*
X50359Y51555D01*
D02*
G37*
G36*
X357098Y43157D02*
X355622Y42235D01*
X354145Y43157D01*
Y45286D01*
X357098D01*
Y43157D01*
D02*
G37*
G36*
X328859Y42208D02*
X327382Y41285D01*
X325906Y42208D01*
X325906Y44336D01*
X328859Y44336D01*
Y42208D01*
D02*
G37*
G36*
X430108Y40758D02*
X427980D01*
X427057Y42235D01*
X427980Y43711D01*
X430108D01*
Y40758D01*
D02*
G37*
G36*
X423907Y42235D02*
X422985Y40758D01*
X420856Y40758D01*
X420856Y43711D01*
X422985D01*
X423907Y42235D01*
D02*
G37*
G36*
X110359Y39321D02*
X109768Y38337D01*
X108685D01*
X108489Y38533D01*
X108489Y40108D01*
X108685Y40305D01*
X109768Y40305D01*
X110359Y39321D01*
D02*
G37*
G36*
X114197Y40108D02*
X114197Y38533D01*
X114000Y38337D01*
X112918D01*
X112327Y39321D01*
X112918Y40305D01*
X114000Y40305D01*
X114197Y40108D01*
D02*
G37*
G36*
X102101Y38069D02*
X100625Y37146D01*
X99149Y38069D01*
Y40197D01*
X102101D01*
Y38069D01*
D02*
G37*
G36*
X357098Y38162D02*
Y36034D01*
X354145D01*
Y38162D01*
X355622Y39085D01*
X357098Y38162D01*
D02*
G37*
G36*
X328859Y37213D02*
Y35084D01*
X325906D01*
Y37213D01*
X327382Y38135D01*
X328859Y37213D01*
D02*
G37*
G36*
X147726Y35568D02*
X146250Y34646D01*
X144774Y35568D01*
Y37697D01*
X147726D01*
Y35568D01*
D02*
G37*
G36*
X474821Y32371D02*
X472692D01*
X471770Y33847D01*
X472692Y35324D01*
X474821D01*
Y32371D01*
D02*
G37*
G36*
X468620Y33847D02*
X467697Y32371D01*
X465569Y32371D01*
X465569Y35324D01*
X467697D01*
X468620Y33847D01*
D02*
G37*
G36*
X459726Y32124D02*
X457597D01*
X456675Y33600D01*
X457597Y35076D01*
X459726D01*
Y32124D01*
D02*
G37*
G36*
X453525Y33600D02*
X452602Y32124D01*
X450474Y32124D01*
X450474Y35076D01*
X452602D01*
X453525Y33600D01*
D02*
G37*
G36*
X102101Y33073D02*
Y30945D01*
X99149D01*
Y33073D01*
X100625Y33996D01*
X102101Y33073D01*
D02*
G37*
G36*
X124001Y29094D02*
X121873D01*
X120950Y30571D01*
X121873Y32047D01*
X124001D01*
Y29094D01*
D02*
G37*
G36*
X117800Y30571D02*
X116877Y29094D01*
X114749Y29094D01*
X114749Y32047D01*
X116877D01*
X117800Y30571D01*
D02*
G37*
G36*
X147726Y30573D02*
Y28445D01*
X144774D01*
Y30573D01*
X146250Y31496D01*
X147726Y30573D01*
D02*
G37*
G36*
X190273Y22598D02*
X188797Y21675D01*
X187320Y22598D01*
X187320Y24726D01*
X190273Y24726D01*
Y22598D01*
D02*
G37*
G36*
X124001Y19719D02*
X121873D01*
X120950Y21196D01*
X121873Y22672D01*
X124001D01*
Y19719D01*
D02*
G37*
G36*
X117800Y21196D02*
X116877Y19719D01*
X114749D01*
Y22672D01*
X116877D01*
X117800Y21196D01*
D02*
G37*
G36*
X218721Y20359D02*
X217244Y19436D01*
X215768Y20359D01*
Y22487D01*
X218721D01*
Y20359D01*
D02*
G37*
G36*
X212221D02*
X210745Y19436D01*
X209268Y20359D01*
Y22487D01*
X212221D01*
Y20359D01*
D02*
G37*
G36*
X190273Y17602D02*
Y15474D01*
X187320D01*
Y17602D01*
X188797Y18525D01*
X190273Y17602D01*
D02*
G37*
G36*
X218721Y15364D02*
Y13235D01*
X215768D01*
Y15364D01*
X217244Y16286D01*
X218721Y15364D01*
D02*
G37*
G36*
X212221D02*
Y13235D01*
X209268D01*
Y15364D01*
X210745Y16286D01*
X212221Y15364D01*
D02*
G37*
G36*
X124088Y12197D02*
X121960D01*
X121037Y13674D01*
X121960Y15150D01*
X124088D01*
Y12197D01*
D02*
G37*
G36*
X117887Y13674D02*
X116965Y12197D01*
X114836D01*
Y15150D01*
X116965D01*
X117887Y13674D01*
D02*
G37*
D24*
X192720Y383454D02*
X194295Y383454D01*
X192720Y388769D02*
X194295D01*
X401842Y65813D02*
Y67387D01*
X407158Y65813D02*
X407158Y67387D01*
X394687Y65842D02*
Y67417D01*
X400001Y65842D02*
X400001Y67417D01*
X349613Y97457D02*
X351187D01*
X349613Y92142D02*
X351187Y92142D01*
X30153Y192213D02*
X30153Y193788D01*
X24838Y192213D02*
Y193788D01*
X126083Y65256D02*
X127657D01*
X126083Y70571D02*
X127657Y70571D01*
X595751Y388420D02*
Y389995D01*
X590437Y388420D02*
X590437Y389995D01*
X597523Y388420D02*
Y389995D01*
X602838Y388420D02*
X602838Y389995D01*
X26870Y388484D02*
Y390059D01*
X32185Y388484D02*
X32185Y390059D01*
X25098Y388484D02*
Y390059D01*
X19783Y388484D02*
X19783Y390059D01*
X196820Y360654D02*
X198395D01*
X196820Y365969D02*
X198395Y365969D01*
X192720Y374258D02*
X194295D01*
X192720Y368943D02*
X194295Y368943D01*
X222273Y338080D02*
X223848D01*
X222273Y343395D02*
X223848Y343395D01*
X192750Y392124D02*
X192750Y393699D01*
X198065Y392124D02*
Y393699D01*
X192720Y360654D02*
X194295Y360654D01*
X192720Y365969D02*
X194295D01*
X244406Y357091D02*
X244406Y358666D01*
X249721Y357091D02*
Y358666D01*
X238393Y353317D02*
X239968Y353317D01*
X238393Y358632D02*
X239968D01*
X234759Y353317D02*
X236333Y353317D01*
X234759Y358632D02*
X236333D01*
X227687Y380745D02*
X227687Y382320D01*
X233002Y380745D02*
Y382320D01*
X227687Y377214D02*
X227687Y378789D01*
X233002Y377214D02*
Y378789D01*
X227687Y372045D02*
Y373620D01*
X233001Y372045D02*
X233002Y373620D01*
X227667Y368489D02*
X227667Y370063D01*
X232982Y368489D02*
Y370063D01*
X227687Y364919D02*
X227687Y366494D01*
X233002Y364919D02*
Y366494D01*
X220281Y329311D02*
X220281Y330886D01*
X225596Y329311D02*
Y330886D01*
X199685Y335968D02*
X199685Y337543D01*
X194370Y335968D02*
Y337543D01*
X197823Y326044D02*
X199398Y326044D01*
X197823Y331359D02*
X199398D01*
X194240Y326044D02*
X195815Y326044D01*
X194240Y331359D02*
X195815D01*
X464520Y258003D02*
Y259577D01*
X469835Y258003D02*
X469835Y259577D01*
X423152Y69587D02*
X424727Y69587D01*
X423152Y64272D02*
X424727D01*
X131400Y76487D02*
Y78062D01*
X126085Y76487D02*
X126085Y78062D01*
X134612Y91063D02*
X136187Y91063D01*
X134612Y96378D02*
X136187D01*
X125906Y94567D02*
X127480Y94567D01*
X125906Y89252D02*
X127480D01*
X114000Y38533D02*
X114000Y40108D01*
X108685Y38533D02*
Y40108D01*
X48588Y50472D02*
X50162Y50472D01*
X48588Y55787D02*
X50162D01*
X106740Y113632D02*
X106740Y115207D01*
X112055Y113632D02*
Y115207D01*
X59532Y106658D02*
X59532Y108233D01*
X54217Y106658D02*
Y108233D01*
X125906Y87461D02*
X127480Y87461D01*
X125906Y82146D02*
X127480D01*
X439843Y63413D02*
X439843Y64987D01*
X445157Y63413D02*
Y64987D01*
X350148Y114629D02*
X351723Y114629D01*
X350148Y119944D02*
X351723D01*
X350099Y134111D02*
X351674Y134111D01*
X350099Y139426D02*
X351674D01*
X350543Y159942D02*
X352117Y159942D01*
X350543Y165258D02*
X352117D01*
X373375Y183621D02*
X373375Y185195D01*
X378690Y183621D02*
Y185195D01*
X400443Y183532D02*
X400443Y185106D01*
X405758Y183532D02*
Y185106D01*
X421868Y183532D02*
X421868Y185106D01*
X427183Y183532D02*
Y185106D01*
X446375Y183450D02*
X446375Y185025D01*
X451690Y183450D02*
Y185025D01*
X467813Y135711D02*
X469387Y135711D01*
X467813Y130396D02*
X469387D01*
X467813Y115924D02*
X469387Y115924D01*
X467813Y110609D02*
X469387D01*
X443458Y66913D02*
X443458Y68487D01*
X438142Y66913D02*
Y68487D01*
X467483Y154402D02*
X469058Y154402D01*
X467483Y159717D02*
X469058D01*
X465559Y90480D02*
X467134Y90480D01*
X465559Y85165D02*
X467134D01*
X434691Y68545D02*
X436266Y68545D01*
X434691Y63231D02*
X436266D01*
X136913Y67273D02*
X138487Y67272D01*
X136913Y72587D02*
X138487D01*
X138544Y76487D02*
X138544Y78062D01*
X133229Y76487D02*
Y78062D01*
X206311Y392124D02*
Y393699D01*
X200996Y392124D02*
X200996Y393699D01*
X389458Y65113D02*
Y66687D01*
X384142Y65113D02*
X384142Y66687D01*
X382182Y65101D02*
Y66676D01*
X376867Y65101D02*
X376867Y66676D01*
X428397Y60764D02*
Y62339D01*
X423082Y60764D02*
X423082Y62339D01*
X421279Y60764D02*
Y62339D01*
X415965Y60764D02*
X415965Y62339D01*
D35*
X246651Y389572D02*
D03*
X250214D02*
D03*
Y394793D02*
D03*
X246651D02*
D03*
D36*
X241368Y396021D02*
D03*
Y393462D02*
D03*
Y390903D02*
D03*
Y388344D02*
D03*
X253502Y396021D02*
D03*
Y393462D02*
D03*
Y390903D02*
D03*
Y388344D02*
D03*
D37*
X364469Y409645D02*
D03*
X361910D02*
D03*
X359350D02*
D03*
X356791D02*
D03*
X364469Y397512D02*
D03*
X361910D02*
D03*
X359350D02*
D03*
X356791D02*
D03*
X332325D02*
D03*
X334884D02*
D03*
X337443D02*
D03*
X340002D02*
D03*
X332325Y409645D02*
D03*
X334884D02*
D03*
X337443D02*
D03*
X340002D02*
D03*
X291283D02*
D03*
X288724D02*
D03*
X286165D02*
D03*
X283606D02*
D03*
X291283Y397512D02*
D03*
X288724D02*
D03*
X286165D02*
D03*
X283606D02*
D03*
X307866D02*
D03*
X310425D02*
D03*
X312984D02*
D03*
X315543D02*
D03*
X307866Y409645D02*
D03*
X310425D02*
D03*
X312984D02*
D03*
X315543D02*
D03*
D38*
X358020Y402795D02*
D03*
Y406358D02*
D03*
X363240D02*
D03*
Y402795D02*
D03*
X338774D02*
D03*
Y406358D02*
D03*
X333553D02*
D03*
Y402795D02*
D03*
X284835D02*
D03*
Y406358D02*
D03*
X290055D02*
D03*
Y402795D02*
D03*
X314315D02*
D03*
Y406358D02*
D03*
X309095D02*
D03*
Y402795D02*
D03*
D39*
X96441Y290139D02*
D03*
Y285729D02*
D03*
X100850D02*
D03*
Y290139D02*
D03*
X164074D02*
D03*
Y285729D02*
D03*
X159665D02*
D03*
Y290139D02*
D03*
D40*
X207722Y375294D02*
D03*
X202533D02*
D03*
Y382318D02*
D03*
X207722D02*
D03*
D41*
X210711Y329157D02*
D03*
Y334118D02*
D03*
D42*
X209726Y325614D02*
D03*
X211695D02*
D03*
Y337662D02*
D03*
X209726D02*
D03*
D43*
X166198Y237357D02*
D03*
Y243302D02*
D03*
D44*
X411044Y323512D02*
D03*
X405099D02*
D03*
D45*
X601713Y359742D02*
D03*
X31060Y359807D02*
D03*
D46*
X613838Y292035D02*
D03*
X608838D02*
D03*
X603838D02*
D03*
X598838D02*
D03*
X593838D02*
D03*
X588838D02*
D03*
X583838D02*
D03*
X578838D02*
D03*
Y329436D02*
D03*
X583838D02*
D03*
X588838D02*
D03*
X593838D02*
D03*
X598838D02*
D03*
X603838D02*
D03*
X608838D02*
D03*
X613838D02*
D03*
X497092Y319028D02*
D03*
X502092D02*
D03*
X507092D02*
D03*
X512092D02*
D03*
X517092D02*
D03*
X522092D02*
D03*
X527092D02*
D03*
X532092D02*
D03*
Y281627D02*
D03*
X527092D02*
D03*
X522092D02*
D03*
X517092D02*
D03*
X512092D02*
D03*
X507092D02*
D03*
X502092D02*
D03*
X497092D02*
D03*
X43185Y292099D02*
D03*
X38185D02*
D03*
X33185D02*
D03*
X28185D02*
D03*
X23185D02*
D03*
X18185D02*
D03*
X13185D02*
D03*
X8185D02*
D03*
Y329501D02*
D03*
X13185D02*
D03*
X18185D02*
D03*
X23185D02*
D03*
X28185D02*
D03*
X33185D02*
D03*
X38185D02*
D03*
X43185D02*
D03*
X358708Y279374D02*
D03*
X353708D02*
D03*
X348708D02*
D03*
X343708D02*
D03*
X338708D02*
D03*
X333708D02*
D03*
X328708D02*
D03*
X323708D02*
D03*
Y241973D02*
D03*
X328708D02*
D03*
X333708D02*
D03*
X338708D02*
D03*
X343708D02*
D03*
X348708D02*
D03*
X353708D02*
D03*
X358708D02*
D03*
D47*
X541719Y322572D02*
D03*
X546719D02*
D03*
X551719D02*
D03*
X556719D02*
D03*
Y279658D02*
D03*
X551719D02*
D03*
X546719D02*
D03*
X541719D02*
D03*
X370015Y291399D02*
D03*
X375015D02*
D03*
X380015D02*
D03*
X385015D02*
D03*
Y248486D02*
D03*
X380015D02*
D03*
X375015D02*
D03*
X370015D02*
D03*
D48*
X372906Y357862D02*
D03*
X372906Y344476D02*
D03*
X382158Y344476D02*
D03*
X382158Y357862D02*
D03*
X545289Y375302D02*
D03*
Y361916D02*
D03*
X554128D02*
D03*
Y375302D02*
D03*
D49*
X417696Y426279D02*
D03*
X412578D02*
D03*
X415137Y417421D02*
D03*
X546161Y397244D02*
D03*
X543602Y406102D02*
D03*
X548721D02*
D03*
D50*
X592470Y446707D02*
D03*
X605069D02*
D03*
X595620D02*
D03*
X601919D02*
D03*
X598770D02*
D03*
X23720Y446709D02*
D03*
X36319D02*
D03*
X26870D02*
D03*
X33169D02*
D03*
X30020D02*
D03*
D51*
X470699Y247620D02*
D03*
X31017Y181830D02*
D03*
D52*
X473652Y242108D02*
D03*
X471683D02*
D03*
X469714D02*
D03*
X467746D02*
D03*
Y253131D02*
D03*
X469714D02*
D03*
X471683D02*
D03*
X473652D02*
D03*
X33970Y176318D02*
D03*
X32001D02*
D03*
X30033D02*
D03*
X28064D02*
D03*
Y187342D02*
D03*
X30033D02*
D03*
X32001D02*
D03*
X33970D02*
D03*
D53*
X465187Y244667D02*
D03*
Y246635D02*
D03*
Y248604D02*
D03*
Y250572D02*
D03*
X476211D02*
D03*
Y248604D02*
D03*
Y246635D02*
D03*
Y244667D02*
D03*
X25505Y178877D02*
D03*
Y180846D02*
D03*
Y182815D02*
D03*
Y184783D02*
D03*
X36529D02*
D03*
Y182815D02*
D03*
Y180846D02*
D03*
Y178877D02*
D03*
D54*
X576928Y186118D02*
D03*
Y188677D02*
D03*
Y191236D02*
D03*
Y193795D02*
D03*
X559999Y186118D02*
D03*
X559999Y188677D02*
D03*
X559999Y191236D02*
D03*
X559999Y193795D02*
D03*
D55*
X492211Y235192D02*
D03*
Y247003D02*
D03*
X52529Y181214D02*
D03*
Y169403D02*
D03*
D56*
X511678Y165337D02*
D03*
Y159037D02*
D03*
Y162187D02*
D03*
Y149589D02*
D03*
Y155888D02*
D03*
Y152738D02*
D03*
Y140140D02*
D03*
Y143289D02*
D03*
Y146439D02*
D03*
Y130691D02*
D03*
Y136990D02*
D03*
Y133841D02*
D03*
X556954Y165337D02*
D03*
Y159037D02*
D03*
Y162187D02*
D03*
Y149589D02*
D03*
Y155888D02*
D03*
Y152738D02*
D03*
Y140140D02*
D03*
Y146439D02*
D03*
Y133841D02*
D03*
Y143289D02*
D03*
Y136990D02*
D03*
X511678Y108644D02*
D03*
Y111793D02*
D03*
Y102345D02*
D03*
Y105494D02*
D03*
Y124392D02*
D03*
Y127541D02*
D03*
Y114943D02*
D03*
Y121242D02*
D03*
Y118093D02*
D03*
Y96046D02*
D03*
Y99195D02*
D03*
Y89746D02*
D03*
Y92896D02*
D03*
Y83447D02*
D03*
Y86597D02*
D03*
X556954Y130691D02*
D03*
Y124392D02*
D03*
Y121242D02*
D03*
Y127541D02*
D03*
Y111793D02*
D03*
Y118093D02*
D03*
Y114943D02*
D03*
Y89746D02*
D03*
Y92896D02*
D03*
Y83447D02*
D03*
Y86597D02*
D03*
Y105494D02*
D03*
Y108644D02*
D03*
Y96046D02*
D03*
Y102345D02*
D03*
Y99195D02*
D03*
D57*
X480035Y50912D02*
D03*
X476295D02*
D03*
X483775D02*
D03*
Y60361D02*
D03*
X476295D02*
D03*
X480035D02*
D03*
D58*
X106590Y245323D02*
D03*
Y235520D02*
D03*
Y225717D02*
D03*
Y215914D02*
D03*
X139149Y245323D02*
D03*
Y235520D02*
D03*
Y225717D02*
D03*
Y215914D02*
D03*
D59*
X18607Y133141D02*
D03*
X24119D02*
D03*
Y126891D02*
D03*
X18607D02*
D03*
X24119Y120641D02*
D03*
X18607D02*
D03*
X239370Y84318D02*
D03*
X244882D02*
D03*
X239370Y78068D02*
D03*
X244882D02*
D03*
X239370Y90568D02*
D03*
X244882D02*
D03*
D60*
X176807Y179921D02*
D03*
X184807D02*
D03*
D61*
X147933Y175000D02*
D03*
Y193405D02*
D03*
X86010Y245450D02*
D03*
Y236788D02*
D03*
X145775Y245841D02*
D03*
Y237179D02*
D03*
D62*
X164272Y119488D02*
D03*
Y112008D02*
D03*
X173721Y115748D02*
D03*
X427349Y372392D02*
D03*
Y376132D02*
D03*
Y379873D02*
D03*
X416522D02*
D03*
Y376132D02*
D03*
Y372392D02*
D03*
D63*
X399445Y360156D02*
D03*
Y356416D02*
D03*
Y352675D02*
D03*
X408894D02*
D03*
Y356416D02*
D03*
Y360156D02*
D03*
X210345Y65703D02*
D03*
Y73184D02*
D03*
X219793D02*
D03*
Y69443D02*
D03*
Y65703D02*
D03*
X142618Y49705D02*
D03*
Y42224D02*
D03*
X133169D02*
D03*
Y45965D02*
D03*
Y49705D02*
D03*
D64*
X245817Y274705D02*
D03*
D65*
X141535Y323622D02*
D03*
Y325590D02*
D03*
Y327559D02*
D03*
Y329528D02*
D03*
X130315D02*
D03*
Y327559D02*
D03*
Y325590D02*
D03*
Y323622D02*
D03*
X609587Y355805D02*
D03*
Y357774D02*
D03*
Y359742D02*
D03*
Y361711D02*
D03*
Y363679D02*
D03*
X593839D02*
D03*
Y361711D02*
D03*
Y359742D02*
D03*
Y357774D02*
D03*
Y355805D02*
D03*
X38934Y355870D02*
D03*
Y357838D02*
D03*
Y359807D02*
D03*
Y361775D02*
D03*
Y363744D02*
D03*
X23186D02*
D03*
Y361775D02*
D03*
Y359807D02*
D03*
Y357838D02*
D03*
Y355870D02*
D03*
X167985Y323622D02*
D03*
Y325590D02*
D03*
Y327559D02*
D03*
Y329528D02*
D03*
X156764D02*
D03*
Y327559D02*
D03*
Y325590D02*
D03*
Y323622D02*
D03*
X100924Y323652D02*
D03*
Y325621D02*
D03*
Y327589D02*
D03*
Y329558D02*
D03*
X89704D02*
D03*
Y327589D02*
D03*
Y325621D02*
D03*
Y323652D02*
D03*
X74705Y323622D02*
D03*
Y325591D02*
D03*
Y327559D02*
D03*
Y329528D02*
D03*
X63484D02*
D03*
Y327559D02*
D03*
Y325591D02*
D03*
Y323622D02*
D03*
D66*
X138878Y332185D02*
D03*
X136909D02*
D03*
X134941D02*
D03*
X132972D02*
D03*
Y320965D02*
D03*
X134941D02*
D03*
X136909D02*
D03*
X138878D02*
D03*
X605650Y367616D02*
D03*
X603681D02*
D03*
X601713D02*
D03*
X599744D02*
D03*
X597776D02*
D03*
Y351868D02*
D03*
X599744D02*
D03*
X601713D02*
D03*
X603681D02*
D03*
X605650D02*
D03*
X34997Y367681D02*
D03*
X33028D02*
D03*
X31060D02*
D03*
X29091D02*
D03*
X27123D02*
D03*
Y351933D02*
D03*
X29091D02*
D03*
X31060D02*
D03*
X33028D02*
D03*
X34997D02*
D03*
X165327Y332185D02*
D03*
X163359D02*
D03*
X161390D02*
D03*
X159422D02*
D03*
Y320965D02*
D03*
X161390D02*
D03*
X163359D02*
D03*
X165327D02*
D03*
X92361Y320995D02*
D03*
X94330D02*
D03*
X96298D02*
D03*
X98267D02*
D03*
Y332215D02*
D03*
X96298D02*
D03*
X94330D02*
D03*
X92361D02*
D03*
X66142Y320965D02*
D03*
X68110D02*
D03*
X70079D02*
D03*
X72047D02*
D03*
Y332185D02*
D03*
X70079D02*
D03*
X68110D02*
D03*
X66142D02*
D03*
D67*
X135925Y326575D02*
D03*
X162374D02*
D03*
D68*
X131722Y33071D02*
D03*
X140778Y29331D02*
D03*
Y36811D02*
D03*
X273019Y103896D02*
D03*
X282075Y100156D02*
D03*
Y107637D02*
D03*
D69*
X497832Y391132D02*
D03*
Y376132D02*
D03*
Y361133D02*
D03*
X443737D02*
D03*
Y376132D02*
D03*
Y391132D02*
D03*
D70*
X405118Y344685D02*
D03*
D71*
X92149Y284981D02*
D03*
Y290886D02*
D03*
X105142D02*
D03*
Y284981D02*
D03*
X168365D02*
D03*
Y290886D02*
D03*
X155373D02*
D03*
Y284981D02*
D03*
D72*
X94709Y294430D02*
D03*
X96677D02*
D03*
X98646D02*
D03*
X100614D02*
D03*
X102583D02*
D03*
Y281438D02*
D03*
X100614D02*
D03*
X98646D02*
D03*
X96677D02*
D03*
X94709D02*
D03*
X157933D02*
D03*
X159901D02*
D03*
X161870D02*
D03*
X163838D02*
D03*
X165807D02*
D03*
Y294430D02*
D03*
X163838D02*
D03*
X161870D02*
D03*
X159901D02*
D03*
X157933D02*
D03*
D73*
X95314Y326605D02*
D03*
X69094Y326575D02*
D03*
D74*
X106980Y361722D02*
D03*
X101980D02*
D03*
X96980D02*
D03*
X91980D02*
D03*
X86980D02*
D03*
X81980D02*
D03*
X76980D02*
D03*
X71980D02*
D03*
Y395304D02*
D03*
X76980D02*
D03*
X81980D02*
D03*
X86980D02*
D03*
X91980D02*
D03*
X96980D02*
D03*
X101980D02*
D03*
X106980D02*
D03*
X158839Y361623D02*
D03*
X153839D02*
D03*
X148839D02*
D03*
X143839D02*
D03*
X138839D02*
D03*
X133839D02*
D03*
X128839D02*
D03*
X123839D02*
D03*
Y395206D02*
D03*
X128839D02*
D03*
X133839D02*
D03*
X138839D02*
D03*
X143839D02*
D03*
X148839D02*
D03*
X153839D02*
D03*
X158838D02*
D03*
D75*
X468088Y333795D02*
D03*
Y341795D02*
D03*
D76*
X212608Y372901D02*
D03*
Y374869D02*
D03*
Y376837D02*
D03*
Y378806D02*
D03*
Y380774D02*
D03*
Y382743D02*
D03*
Y384712D02*
D03*
X197647D02*
D03*
Y382743D02*
D03*
Y380774D02*
D03*
Y378806D02*
D03*
Y376837D02*
D03*
Y374869D02*
D03*
Y372901D02*
D03*
D77*
X209064Y388255D02*
D03*
X207096D02*
D03*
X205127D02*
D03*
X203159D02*
D03*
X201190D02*
D03*
Y369357D02*
D03*
X203159D02*
D03*
X205127D02*
D03*
X207096D02*
D03*
X209064D02*
D03*
D78*
X231511Y319738D02*
D03*
Y306738D02*
D03*
D79*
X264665Y212542D02*
D03*
X257185D02*
D03*
X260925Y203487D02*
D03*
X344361Y34890D02*
D03*
X340621Y43945D02*
D03*
X348101D02*
D03*
D80*
X281428Y360778D02*
D03*
X277687Y350148D02*
D03*
X285168D02*
D03*
X305827Y360778D02*
D03*
X302087Y350148D02*
D03*
X309567D02*
D03*
X330126Y360778D02*
D03*
X326386Y350148D02*
D03*
X333866D02*
D03*
X354626Y360778D02*
D03*
X350886Y350148D02*
D03*
X358366D02*
D03*
X231722Y399473D02*
D03*
X227982Y388843D02*
D03*
X235462D02*
D03*
D81*
X312106Y194587D02*
D03*
Y199587D02*
D03*
Y204587D02*
D03*
Y209587D02*
D03*
Y214587D02*
D03*
Y219587D02*
D03*
Y224587D02*
D03*
Y229587D02*
D03*
X274705D02*
D03*
Y224587D02*
D03*
Y219587D02*
D03*
Y214587D02*
D03*
Y209587D02*
D03*
Y204587D02*
D03*
Y199587D02*
D03*
Y194587D02*
D03*
D82*
X180678Y205403D02*
D03*
X155324D02*
D03*
D83*
X554921Y351378D02*
D03*
X545866D02*
D03*
Y335433D02*
D03*
X554921D02*
D03*
X381988Y317323D02*
D03*
X372933D02*
D03*
Y333268D02*
D03*
X381988D02*
D03*
D84*
X165329Y127536D02*
D03*
X155329D02*
D03*
Y161636D02*
D03*
X176057D02*
D03*
X186057D02*
D03*
Y127536D02*
D03*
D85*
X165329Y161636D02*
D03*
X176057Y127536D02*
D03*
D86*
X277613Y165020D02*
D03*
X311713Y175827D02*
D03*
D87*
X277613Y155020D02*
D03*
X311713D02*
D03*
Y165020D02*
D03*
X277613Y175827D02*
D03*
Y185827D02*
D03*
X311713D02*
D03*
D88*
X219715Y362012D02*
D03*
X208100D02*
D03*
X255151Y405586D02*
D03*
X243537D02*
D03*
X206800Y400916D02*
D03*
X218415D02*
D03*
X258382Y350833D02*
D03*
X246768D02*
D03*
D89*
X324856Y177461D02*
D03*
X321115Y168012D02*
D03*
X328596D02*
D03*
X614391Y213995D02*
D03*
X610651Y204546D02*
D03*
X618131D02*
D03*
D90*
X210711Y331638D02*
D03*
D91*
X205199Y327701D02*
D03*
Y329669D02*
D03*
Y331638D02*
D03*
Y333606D02*
D03*
Y335575D02*
D03*
X216223D02*
D03*
Y333606D02*
D03*
Y331638D02*
D03*
Y329669D02*
D03*
Y327701D02*
D03*
D92*
X179272Y17441D02*
D03*
Y22441D02*
D03*
Y27441D02*
D03*
Y37441D02*
D03*
Y42441D02*
D03*
Y47441D02*
D03*
Y52441D02*
D03*
Y57441D02*
D03*
Y62441D02*
D03*
X163248Y17441D02*
D03*
Y22441D02*
D03*
Y27441D02*
D03*
Y32441D02*
D03*
Y37441D02*
D03*
Y42441D02*
D03*
Y47441D02*
D03*
Y52441D02*
D03*
Y57441D02*
D03*
Y62441D02*
D03*
X234114Y62443D02*
D03*
Y57443D02*
D03*
Y52443D02*
D03*
Y42443D02*
D03*
Y37443D02*
D03*
Y32443D02*
D03*
Y27443D02*
D03*
Y22443D02*
D03*
Y17443D02*
D03*
X250138Y62443D02*
D03*
Y57443D02*
D03*
Y52443D02*
D03*
Y47443D02*
D03*
Y42443D02*
D03*
Y37443D02*
D03*
Y32443D02*
D03*
Y27443D02*
D03*
Y22443D02*
D03*
Y17443D02*
D03*
D93*
X207382Y123930D02*
D03*
Y121430D02*
D03*
Y118930D02*
D03*
Y116430D02*
D03*
Y113930D02*
D03*
Y111430D02*
D03*
Y108930D02*
D03*
Y106430D02*
D03*
X228839D02*
D03*
Y108930D02*
D03*
Y111430D02*
D03*
Y113930D02*
D03*
Y116430D02*
D03*
Y118930D02*
D03*
Y121430D02*
D03*
Y123930D02*
D03*
D94*
X240792Y169087D02*
D03*
D95*
X235280Y172039D02*
D03*
Y170071D02*
D03*
Y168102D02*
D03*
Y166134D02*
D03*
X246304Y172039D02*
D03*
Y170071D02*
D03*
Y168102D02*
D03*
Y166134D02*
D03*
D96*
X454309Y306201D02*
D03*
X472714D02*
D03*
X402951Y243324D02*
D03*
X411613D02*
D03*
X402560Y303089D02*
D03*
X411222D02*
D03*
D97*
X403078Y263904D02*
D03*
X412881D02*
D03*
X422684D02*
D03*
X432487D02*
D03*
X403078Y296463D02*
D03*
X412881D02*
D03*
X422684D02*
D03*
X432487D02*
D03*
D98*
X441415Y313012D02*
D03*
Y338366D02*
D03*
D99*
X528445Y399547D02*
D03*
X520571Y403248D02*
D03*
X514173Y399449D02*
D03*
X506299Y403150D02*
D03*
D100*
X528445Y406949D02*
D03*
X514173Y406850D02*
D03*
D101*
X518093Y391132D02*
D03*
X505219D02*
D03*
X517922Y361133D02*
D03*
X505048D02*
D03*
D102*
X517789Y376909D02*
D03*
X525663Y380650D02*
D03*
Y373169D02*
D03*
D103*
X261319Y224949D02*
D03*
X258760Y232430D02*
D03*
X263878D02*
D03*
D104*
X246013Y370733D02*
D03*
D105*
X253494Y375654D02*
D03*
Y373686D02*
D03*
Y371717D02*
D03*
Y369749D02*
D03*
Y367780D02*
D03*
Y365812D02*
D03*
X238533D02*
D03*
Y367780D02*
D03*
Y369749D02*
D03*
Y371717D02*
D03*
Y373686D02*
D03*
Y375654D02*
D03*
D106*
X250935Y363252D02*
D03*
X248966D02*
D03*
X246998D02*
D03*
X245029D02*
D03*
X243061D02*
D03*
X241092D02*
D03*
Y378213D02*
D03*
X243061D02*
D03*
X245029D02*
D03*
X246998D02*
D03*
X248966D02*
D03*
X250935D02*
D03*
D107*
X585945Y194517D02*
D03*
X585945Y184675D02*
D03*
D108*
X188092Y227784D02*
D03*
D109*
X333622Y34430D02*
D03*
Y44666D02*
D03*
D110*
X59026Y58479D02*
D03*
Y62416D02*
D03*
Y60448D02*
D03*
Y52574D02*
D03*
Y56511D02*
D03*
Y54542D02*
D03*
Y68322D02*
D03*
Y66353D02*
D03*
Y70290D02*
D03*
Y64385D02*
D03*
Y80133D02*
D03*
Y84070D02*
D03*
Y82102D02*
D03*
Y74227D02*
D03*
Y72259D02*
D03*
Y78164D02*
D03*
Y76196D02*
D03*
Y95881D02*
D03*
Y93913D02*
D03*
Y99818D02*
D03*
Y97850D02*
D03*
Y88007D02*
D03*
Y86039D02*
D03*
Y91944D02*
D03*
Y89976D02*
D03*
X118474Y54542D02*
D03*
Y52574D02*
D03*
Y56511D02*
D03*
Y60448D02*
D03*
Y58479D02*
D03*
Y62416D02*
D03*
Y66353D02*
D03*
Y64385D02*
D03*
Y70290D02*
D03*
Y68322D02*
D03*
Y80133D02*
D03*
Y84070D02*
D03*
Y82102D02*
D03*
Y74227D02*
D03*
Y72259D02*
D03*
Y78164D02*
D03*
Y76196D02*
D03*
Y95881D02*
D03*
Y93913D02*
D03*
Y99818D02*
D03*
Y97850D02*
D03*
Y88007D02*
D03*
Y86039D02*
D03*
Y91944D02*
D03*
Y89976D02*
D03*
X458159Y82810D02*
D03*
Y84778D02*
D03*
Y86747D02*
D03*
Y88715D02*
D03*
Y90684D02*
D03*
Y92652D02*
D03*
Y94621D02*
D03*
Y96589D02*
D03*
Y98558D02*
D03*
Y100527D02*
D03*
Y102495D02*
D03*
Y104464D02*
D03*
Y106432D02*
D03*
Y108401D02*
D03*
Y110369D02*
D03*
Y112338D02*
D03*
Y114306D02*
D03*
Y116275D02*
D03*
Y118243D02*
D03*
Y120212D02*
D03*
Y122180D02*
D03*
Y124149D02*
D03*
Y126117D02*
D03*
Y128086D02*
D03*
Y130054D02*
D03*
Y132023D02*
D03*
Y133991D02*
D03*
Y135960D02*
D03*
Y137928D02*
D03*
Y139897D02*
D03*
Y141865D02*
D03*
Y143834D02*
D03*
Y145802D02*
D03*
Y147771D02*
D03*
Y149739D02*
D03*
Y151708D02*
D03*
Y153676D02*
D03*
Y155645D02*
D03*
Y157613D02*
D03*
Y159582D02*
D03*
Y161550D02*
D03*
Y163519D02*
D03*
Y165487D02*
D03*
Y167456D02*
D03*
X359341D02*
D03*
Y165487D02*
D03*
Y163519D02*
D03*
Y161550D02*
D03*
Y159582D02*
D03*
Y157613D02*
D03*
Y155645D02*
D03*
Y153676D02*
D03*
Y151708D02*
D03*
Y149739D02*
D03*
Y147771D02*
D03*
Y145802D02*
D03*
Y143834D02*
D03*
Y141865D02*
D03*
Y139897D02*
D03*
Y137928D02*
D03*
Y135960D02*
D03*
Y133991D02*
D03*
Y132023D02*
D03*
Y130054D02*
D03*
Y128086D02*
D03*
Y126117D02*
D03*
Y124149D02*
D03*
Y122180D02*
D03*
Y120212D02*
D03*
Y118243D02*
D03*
Y116275D02*
D03*
Y114306D02*
D03*
Y112338D02*
D03*
Y110369D02*
D03*
Y108401D02*
D03*
Y106432D02*
D03*
Y104464D02*
D03*
Y102495D02*
D03*
Y100527D02*
D03*
Y98558D02*
D03*
Y96589D02*
D03*
Y94621D02*
D03*
Y92652D02*
D03*
Y90684D02*
D03*
Y88715D02*
D03*
Y86747D02*
D03*
Y84778D02*
D03*
Y82810D02*
D03*
D111*
X65128Y46472D02*
D03*
X67096D02*
D03*
X74970D02*
D03*
X76939D02*
D03*
X69065D02*
D03*
X73002D02*
D03*
X71033D02*
D03*
X78907D02*
D03*
X84813D02*
D03*
X86782D02*
D03*
X80876D02*
D03*
X82844D02*
D03*
X65128Y105920D02*
D03*
X73002D02*
D03*
X74970D02*
D03*
X67096D02*
D03*
X71033D02*
D03*
X76939D02*
D03*
X78907D02*
D03*
X69065D02*
D03*
X84813D02*
D03*
X86782D02*
D03*
X80876D02*
D03*
X82844D02*
D03*
X92687Y46472D02*
D03*
X88750D02*
D03*
X90719D02*
D03*
X98593D02*
D03*
X100561D02*
D03*
X94656D02*
D03*
X96624D02*
D03*
X106467D02*
D03*
X102530D02*
D03*
X104498D02*
D03*
X110404D02*
D03*
X112372D02*
D03*
X108435D02*
D03*
X88750Y105920D02*
D03*
X94656D02*
D03*
X96624D02*
D03*
X90719D02*
D03*
X92687D02*
D03*
X102530D02*
D03*
X104498D02*
D03*
X98593D02*
D03*
X100561D02*
D03*
X110404D02*
D03*
X112372D02*
D03*
X106467D02*
D03*
X108435D02*
D03*
X366427Y75723D02*
D03*
X368396D02*
D03*
X370364D02*
D03*
X372333D02*
D03*
X374301D02*
D03*
X376270D02*
D03*
X378238D02*
D03*
X380207D02*
D03*
X382175D02*
D03*
X384144D02*
D03*
X386112D02*
D03*
X388081D02*
D03*
X390049D02*
D03*
X392018D02*
D03*
X393986D02*
D03*
X395955D02*
D03*
X397923D02*
D03*
X399892D02*
D03*
X401860D02*
D03*
X403829D02*
D03*
X405797D02*
D03*
X407766D02*
D03*
X409734D02*
D03*
X411703D02*
D03*
X413671D02*
D03*
X415640D02*
D03*
X417608D02*
D03*
X419577D02*
D03*
X421545D02*
D03*
X423514D02*
D03*
X425482D02*
D03*
X427451D02*
D03*
X429419D02*
D03*
X431388D02*
D03*
X433356D02*
D03*
X435325D02*
D03*
X437293D02*
D03*
X439262D02*
D03*
X441230D02*
D03*
X443199D02*
D03*
X445167D02*
D03*
X447136D02*
D03*
X449104D02*
D03*
X451073D02*
D03*
Y174542D02*
D03*
X449104D02*
D03*
X447136D02*
D03*
X445167D02*
D03*
X443199D02*
D03*
X441230D02*
D03*
X439262D02*
D03*
X437293D02*
D03*
X435325D02*
D03*
X433356D02*
D03*
X431388D02*
D03*
X429419D02*
D03*
X427451D02*
D03*
X425482D02*
D03*
X423514D02*
D03*
X421545D02*
D03*
X419577D02*
D03*
X417608D02*
D03*
X415640D02*
D03*
X413671D02*
D03*
X411703D02*
D03*
X409734D02*
D03*
X407766D02*
D03*
X405797D02*
D03*
X403829D02*
D03*
X401860D02*
D03*
X399892D02*
D03*
X397923D02*
D03*
X395955D02*
D03*
X393986D02*
D03*
X392018D02*
D03*
X390049D02*
D03*
X388081D02*
D03*
X386112D02*
D03*
X384144D02*
D03*
X382175D02*
D03*
X380207D02*
D03*
X378238D02*
D03*
X376270D02*
D03*
X374301D02*
D03*
X372333D02*
D03*
X370364D02*
D03*
X368396D02*
D03*
X366427D02*
D03*
D112*
X73031Y227189D02*
D03*
Y251008D02*
D03*
D113*
X97479Y209280D02*
D03*
Y225343D02*
D03*
D114*
X173679Y245054D02*
D03*
Y241904D02*
D03*
Y238754D02*
D03*
Y235605D02*
D03*
X158718D02*
D03*
Y238754D02*
D03*
Y241904D02*
D03*
Y245054D02*
D03*
D115*
X321028Y4687D02*
D03*
X269453Y9411D02*
D03*
D116*
X298193Y60593D02*
D03*
X275752D02*
D03*
D117*
X281225Y61478D02*
D03*
D118*
X285555Y17837D02*
D03*
X281225Y17049D02*
D03*
X276894Y17837D02*
D03*
X272563D02*
D03*
X289886Y16754D02*
D03*
X294217Y17837D02*
D03*
X298547Y19411D02*
D03*
X302878Y17837D02*
D03*
D119*
X147871Y13674D02*
D03*
X131729D02*
D03*
X147871Y19974D02*
D03*
X131729D02*
D03*
D120*
X139800Y20367D02*
D03*
D121*
X253756Y421908D02*
D03*
Y419349D02*
D03*
Y416790D02*
D03*
Y414231D02*
D03*
X242732D02*
D03*
Y416790D02*
D03*
Y419349D02*
D03*
Y421908D02*
D03*
X205521Y417619D02*
D03*
Y415060D02*
D03*
Y412500D02*
D03*
Y409941D02*
D03*
X216545D02*
D03*
Y412500D02*
D03*
Y415060D02*
D03*
Y417619D02*
D03*
D122*
X439121Y254793D02*
D03*
X423058D02*
D03*
D123*
X421212Y230345D02*
D03*
X397393D02*
D03*
D124*
X403347Y330993D02*
D03*
X406497D02*
D03*
X409647D02*
D03*
X412796D02*
D03*
Y316032D02*
D03*
X409647D02*
D03*
X406497D02*
D03*
X403347D02*
D03*
D125*
X146614Y215934D02*
D03*
D126*
Y225974D02*
D03*
D127*
X432466Y303928D02*
D03*
D128*
X422427D02*
D03*
D129*
X142414Y69465D02*
D03*
Y76158D02*
D03*
X147532Y69465D02*
D03*
Y76158D02*
D03*
D130*
X418994Y55879D02*
D03*
X425687D02*
D03*
X418994Y50761D02*
D03*
X425687D02*
D03*
D131*
X378101Y59032D02*
D03*
X387943D02*
D03*
D132*
X196190Y344962D02*
D03*
X206426D02*
D03*
D133*
X518295Y193710D02*
D03*
X518295Y191742D02*
D03*
Y189773D02*
D03*
Y187805D02*
D03*
X536012Y187804D02*
D03*
Y189773D02*
D03*
X536012Y191742D02*
D03*
X536012Y193710D02*
D03*
X518295Y185836D02*
D03*
X536012Y185836D02*
D03*
D134*
X285255Y85034D02*
D03*
Y75034D02*
D03*
Y80034D02*
D03*
Y70034D02*
D03*
X263995Y75034D02*
D03*
Y85034D02*
D03*
Y80034D02*
D03*
Y70034D02*
D03*
D135*
X191800Y426739D02*
D03*
Y435598D02*
D03*
X172259Y426610D02*
D03*
Y435468D02*
D03*
D136*
X210344Y29790D02*
D03*
Y45932D02*
D03*
X216644Y29790D02*
D03*
Y45932D02*
D03*
D137*
X217037Y37861D02*
D03*
D138*
X350364Y367355D02*
D03*
X359222D02*
D03*
X276903D02*
D03*
X285761D02*
D03*
X325602D02*
D03*
X334460D02*
D03*
X301303D02*
D03*
X310161D02*
D03*
M02*
