  0
SECTION
  2
HEADER
  9
$ACADVER
  1
AC1015
  9
$ACADMAINTVER
 70
     6
  9
$DWGCODEPAGE
  3
ANSI_932
  9
$INSBASE
 10
0.0
 20
0.0
 30
0.0
  9
$EXTMIN
 10
-105.0
 20
-148.5
 30
0.0
  9
$EXTMAX
 10
105.0
 20
148.5
 30
0.0
  9
$LIMMIN
 10
-105.0
 20
-148.5
  9
$LIMMAX
 10
105.0
 20
148.5
  9
$ORTHOMODE
 70
     0
  9
$REGENMODE
 70
     1
  9
$FILLMODE
 70
     1
  9
$QTEXTMODE
 70
     0
  9
$MIRRTEXT
 70
     1
  9
$LTSCALE
 40
1.0
  9
$ATTMODE
 70
     1
  9
$TEXTSIZE
 40
4.16718
  9
$TRACEWID
 40
0.05
  9
$TEXTSTYLE
  7
MX_NOTE_STANDARD
  9
$CLAYER
  8
LY_1
  9
$CELTYPE
  6
CONTINUOUS
  9
$CECOLOR
 62
   256
  9
$CELTSCALE
 40
1.0
  9
$DISPSILH
 70
     0
  9
$DIMSCALE
 40
1.0
  9
$DIMASZ
 40
2.5
  9
$DIMEXO
 40
0.0
  9
$DIMDLI
 40
3.75
  9
$DIMRND
 40
0.0
  9
$DIMDLE
 40
0.0
  9
$DIMEXE
 40
2.54
  9
$DIMTP
 40
0.0
  9
$DIMTM
 40
0.0
  9
$DIMTXT
 40
2.54
  9
$DIMCEN
 40
2.5
  9
$DIMTSZ
 40
0.0
  9
$DIMTOL
 70
     0
  9
$DIMLIM
 70
     0
  9
$DIMTIH
 70
     0
  9
$DIMTOH
 70
     0
  9
$DIMSE1
 70
     0
  9
$DIMSE2
 70
     0
  9
$DIMTAD
 70
     1
  9
$DIMZIN
 70
     8
  9
$DIMBLK
  1

  9
$DIMASO
 70
     1
  9
$DIMSHO
 70
     1
  9
$DIMPOST
  1

  9
$DIMAPOST
  1

  9
$DIMALT
 70
     0
  9
$DIMALTD
 70
     4
  9
$DIMALTF
 40
0.03937
  9
$DIMLFAC
 40
1.0
  9
$DIMTOFL
 70
     1
  9
$DIMTVP
 40
0.0
  9
$DIMTIX
 70
     0
  9
$DIMSOXD
 70
     0
  9
$DIMSAH
 70
     1
  9
$DIMBLK1
  1
_OPEN30
  9
$DIMBLK2
  1
_OPEN30
  9
$DIMSTYLE
  2
MXDIMSTYLE
  9
$DIMCLRD
 70
     0
  9
$DIMCLRE
 70
     0
  9
$DIMCLRT
 70
     0
  9
$DIMTFAC
 40
1.0
  9
$DIMGAP
 40
0.64
  9
$DIMJUST
 70
     0
  9
$DIMSD1
 70
     0
  9
$DIMSD2
 70
     0
  9
$DIMTOLJ
 70
     0
  9
$DIMTZIN
 70
     0
  9
$DIMALTZ
 70
     0
  9
$DIMALTTZ
 70
     0
  9
$DIMUPT
 70
     0
  9
$DIMDEC
 70
     2
  9
$DIMTDEC
 70
     2
  9
$DIMALTU
 70
     2
  9
$DIMALTTD
 70
     4
  9
$DIMTXSTY
  7
MX_NOTE_STANDARD
  9
$DIMAUNIT
 70
     0
  9
$DIMADEC
 70
     0
  9
$DIMALTRND
 40
0.0
  9
$DIMAZIN
 70
     0
  9
$DIMDSEP
 70
    46
  9
$DIMATFIT
 70
     3
  9
$DIMFRAC
 70
     0
  9
$DIMLDRBLK
  1
_OPEN30
  9
$DIMLUNIT
 70
     2
  9
$DIMLWD
 70
    -2
  9
$DIMLWE
 70
    -2
  9
$DIMTMOVE
 70
     0
  9
$LUNITS
 70
     2
  9
$LUPREC
 70
     4
  9
$SKETCHINC
 40
0.1
  9
$FILLETRAD
 40
0.0
  9
$AUNITS
 70
     0
  9
$AUPREC
 70
     0
  9
$MENU
  1
acad
  9
$ELEVATION
 40
0.0
  9
$PELEVATION
 40
0.0
  9
$THICKNESS
 40
0.0
  9
$LIMCHECK
 70
     0
  9
$CHAMFERA
 40
0.0
  9
$CHAMFERB
 40
0.0
  9
$CHAMFERC
 40
0.0
  9
$CHAMFERD
 40
0.0
  9
$SKPOLY
 70
     0
  9
$TDCREATE
 40
2455946.657222222
  9
$TDUCREATE
 40
0.000000000
  9
$TDUPDATE
 40
2455946.657222222
  9
$TDUUPDATE
 40
0.000000000
  9
$TDINDWG
 40
0.0000000000
  9
$TDUSRTIMER
 40
0.0000000000
  9
$USRTIMER
 70
     1
  9
$ANGBASE
 50
0.0
  9
$ANGDIR
 70
     0
  9
$PDMODE
 70
     0
  9
$PDSIZE
 40
0.0
  9
$PLINEWID
 40
0.0
  9
$SPLFRAME
 70
     0
  9
$SPLINETYPE
 70
     6
  9
$SPLINESEGS
 70
     8
  9
$HANDSEED
  5
C8
  9
$SURFTAB1
 70
     6
  9
$SURFTAB2
 70
     6
  9
$SURFTYPE
 70
     6
  9
$SURFU
 70
     6
  9
$SURFV
 70
     6
  9
$UCSBASE
  2

  9
$UCSNAME
  2

  9
$UCSORG
 10
0.0
 20
0.0
 30
0.0
  9
$UCSXDIR
 10
1.0
 20
0.0
 30
0.0
  9
$UCSYDIR
 10
0.0
 20
1.0
 30
0.0
  9
$UCSORTHOREF
  2

  9
$UCSORTHOVIEW
 70
     0
  9
$UCSORGTOP
 10
0.0
 20
0.0
 30
0.0
  9
$UCSORGBOTTOM
 10
0.0
 20
0.0
 30
0.0
  9
$UCSORGLEFT
 10
0.0
 20
0.0
 30
0.0
  9
$UCSORGRIGHT
 10
0.0
 20
0.0
 30
0.0
  9
$UCSORGFRONT
 10
0.0
 20
0.0
 30
0.0
  9
$UCSORGBACK
 10
0.0
 20
0.0
 30
0.0
  9
$PUCSBASE
  2

  9
$PUCSNAME
  2

  9
$PUCSORG
 10
0.0
 20
0.0
 30
0.0
  9
$PUCSXDIR
 10
1.0
 20
0.0
 30
0.0
  9
$PUCSYDIR
 10
0.0
 20
1.0
 30
0.0
  9
$PUCSORTHOREF
  2

  9
$PUCSORTHOVIEW
 70
     0
  9
$PUCSORGTOP
 10
0.0
 20
0.0
 30
0.0
  9
$PUCSORGBOTTOM
 10
0.0
 20
0.0
 30
0.0
  9
$PUCSORGLEFT
 10
0.0
 20
0.0
 30
0.0
  9
$PUCSORGRIGHT
 10
0.0
 20
0.0
 30
0.0
  9
$PUCSORGFRONT
 10
0.0
 20
0.0
 30
0.0
  9
$PUCSORGBACK
 10
0.0
 20
0.0
 30
0.0
  9
$USERI1
 70
     0
  9
$USERI2
 70
     0
  9
$USERI3
 70
     0
  9
$USERI4
 70
     0
  9
$USERI5
 70
     0
  9
$USERR1
 40
0.0
  9
$USERR2
 40
0.0
  9
$USERR3
 40
0.0
  9
$USERR4
 40
0.0
  9
$USERR5
 40
0.0
  9
$WORLDVIEW
 70
     1
  9
$SHADEDGE
 70
     3
  9
$SHADEDIF
 70
    70
  9
$TILEMODE
 70
     1
  9
$MAXACTVP
 70
    16
  9
$PINSBASE
 10
0.0
 20
0.0
 30
0.0
  9
$PLIMCHECK
 70
     0
  9
$PEXTMIN
 10
1.000000E+20
 20
1.000000E+20
 30
1.000000E+20
  9
$PEXTMAX
 10
-1.000000E+20
 20
-1.000000E+20
 30
-1.000000E+20
  9
$PLIMMIN
 10
0.0
 20
0.0
  9
$PLIMMAX
 10
12.0
 20
9.0
  9
$UNITMODE
 70
     0
  9
$VISRETAIN
 70
     0
  9
$PLINEGEN
 70
     1
  9
$PSLTSCALE
 70
     0
  9
$TREEDEPTH
 70
  3020
  9
$CMLSTYLE
  2
Standard
  9
$CMLJUST
 70
     0
  9
$CMLSCALE
 40
1.0
  9
$PROXYGRAPHICS
 70
     0
  9
$MEASUREMENT
 70
     1
  9
$CELWEIGHT
370
     0
  9
$ENDCAPS
280
     0
  9
$JOINSTYLE
280
     0
  9
$LWDISPLAY
290
     0
  9
$INSUNITS
 70
     0
  9
$HYPERLINKBASE
  1

  9
$STYLESHEET
  1

  9
$XEDIT
290
     1
  9
$CEPSNTYPE
380
     0
  9
$PSTYLEMODE
290
     1
  9
$FINGERPRINTGUID
  2

  9
$VERSIONGUID
  2

  9
$EXTNAMES
290
     1
  9
$PSVPSCALE
 40
0.0
  0
ENDSEC
  0
SECTION
  2
CLASSES
  0
CLASS
  1
LWPOLYLINE
  2
AcDbPolyline
  3
AutoCAD 2000
 90
        0
280
     0
281
     1
  0
CLASS
  1
IMAGE
  2
AcDbRasterImage
  3
ISM
 90
      127
280
     0
281
     1
  0
CLASS
  1
OLE2FRAME
  2
AcDbOle2Frame
  3
AutoCAD 2000
 90
        0
280
     0
281
     1
  0
CLASS
  1
HATCH
  2
AcDbHatch
  3
AutoCAD 2000
 90
        0
280
     0
281
     1
  0
CLASS
  1
DICTIONARYVAR
  2
AcDbDictionaryVar
  3
AutoCAD 2000
 90
        0
280
     0
281
     0
  0
CLASS
  1
RASTERVARIABLES
  2
AcDbRasterVariables
  3
ISM
 90
        0
280
     0
281
     0
  0
CLASS
  1
IMAGEDEF
  2
AcDbRasterImageDef
  3
ISM
 90
        0
280
     0
281
     0
  0
CLASS
  1
IMAGEDEF_REACTOR
  2
AcDbRasterImageDefReactor
  3
ISM
 90
        1
280
     0
281
     0
  0
CLASS
  1
IDBUFFER
  2
AcDbIdBuffer
  3
AutoCAD 2000
 90
        0
280
     0
281
     0
  0
CLASS
  1
SPATIAL_FILTER
  2
AcDbSpatialFilter
  3
AutoCAD 2000
 90
        0
280
     0
281
     0
  0
CLASS
  1
XRECORD
  2
AcDbXrecord
  3
AutoCAD 2000
 90
        0
280
     0
281
     0
  0
CLASS
  1
SORTENTSTABLE
  2
AcDbSortentsTable
  3
AutoCAD 2000
 90
        0
280
     0
281
     0
  0
CLASS
  1
LAYER_INDEX
  2
AcDbLayerIndex
  3
AutoCAD 2000
 90
        0
280
     0
281
     0
  0
CLASS
  1
SPATIAL_INDEX
  2
AcDbSpatialIndex
  3
AutoCAD 2000
 90
        0
280
     0
281
     0
  0
CLASS
  1
OBJECT_PTR
  2
CAseDLPNTableRecord
  3
"ASE-LPNTableRecord"
 90
        1
280
     0
281
     0
  0
CLASS
  1
LAYOUT
  2
AcDbLayout
  3
AutoCAD 2000
 90
        0
280
     0
281
     0
  0
CLASS
  1
PLOTSETTINGS
  2
AcDbPlotSettings
  3
AutoCAD 2000
 90
        0
280
     0
281
     0
  0
CLASS
  1
ACDBDICTIONARYWDFLT
  2
AcDbDictionaryWithDefault
  3
AutoCAD 2000
 90
        0
280
     0
281
     0
  0
CLASS
  1
ACDBPLACEHOLDER
  2
AcDbPlaceHolder
  3
AutoCAD 2000
 90
        0
280
     0
281
     0
  0
ENDSEC
  0
SECTION
  2
TABLES
  0
TABLE
  2
VPORT
  5
7
100
AcDbSymbolTable
 70
     1
  0
VPORT
  5
15
100
AcDbSymbolTableRecord
100
AcDbViewportTableRecord
  2
*ACTIVE
 70
     0
 10
0.0
 20
0.0
 11
1.0
 21
1.0
 12
0.0
 22
0.0
 13
0.0
 23
0.0
 14
1.0
 24
1.0
 15
0.0
 25
0.0
 16
0.0
 26
0.0
 36
1.0
 17
0.0
 27
0.0
 37
0.0
 40
299.97
 41
1.732051
 42
50.0
 43
0.0
 44
0.0
 50
0.0
 51
0.0
 71
     0
 72
   100
 73
     1
 74
     1
 75
     0
 76
     0
 77
     0
 78
     0
281
     0
 65
     0
110
0.0
120
0.0
130
0.0
111
1.0
121
0.0
131
0.0
112
0.0
122
1.0
132
0.0
345
0
346
0
 79
     0
146
0.0
  0
ENDTAB
  0
TABLE
  2
LTYPE
  5
4
100
AcDbSymbolTable
 70
     5
  0
LTYPE
  5
11
100
AcDbSymbolTableRecord
100
AcDbLinetypeTableRecord
  2
BYBLOCK
 70
    64
  3

 72
    65
 73
     0
 40
0.0
  0
LTYPE
  5
12
100
AcDbSymbolTableRecord
100
AcDbLinetypeTableRecord
  2
BYLAYER
 70
    64
  3

 72
    65
 73
     0
 40
0.0
  0
LTYPE
  5
13
100
AcDbSymbolTableRecord
100
AcDbLinetypeTableRecord
  2
CONTINUOUS
 70
    64
  3
Solid line
 72
    65
 73
     0
 40
0.0
  0
LTYPE
  5
30
100
AcDbSymbolTableRecord
100
AcDbLinetypeTableRecord
  2
CENTER
 70
    64
  3
Center ____ _ ____ _ ____ _ ____ _ ____ _ ____
 72
    65
 73
     4
 40
50.8
 49
31.75
 74
     0
 49
-6.35
 74
     0
 49
6.35
 74
     0
 49
-6.35
 74
     0
  0
LTYPE
  5
B2
100
AcDbSymbolTableRecord
100
AcDbLinetypeTableRecord
  2
NON_PLOTING
 70
     0
  3
Solid line
 72
    65
 73
     0
 40
0.0
  0
ENDTAB
  0
TABLE
  2
LAYER
  5
2
100
AcDbSymbolTable
 70
     3
  0
LAYER
  5
14
100
AcDbSymbolTableRecord
100
AcDbLayerTableRecord
  2
0
 70
     0
 62
     7
  6
CONTINUOUS
290
     1
370
    -3
390
1D
  0
LAYER
  5
23
100
AcDbSymbolTableRecord
100
AcDbLayerTableRecord
  2
LY_1
 70
     0
 62
     7
  6
CONTINUOUS
290
     1
370
    -3
390
1D
  0
LAYER
  5
24
100
AcDbSymbolTableRecord
100
AcDbLayerTableRecord
  2
DEFPOINTS
 70
     0
 62
     7
  6
CONTINUOUS
290
     0
370
    -3
390
1D
  0
ENDTAB
  0
TABLE
  2
STYLE
  5
3
100
AcDbSymbolTable
 70
     1
  0
STYLE
  5
17
100
AcDbSymbolTableRecord
100
AcDbTextStyleTableRecord
  2
MX_NOTE_STANDARD
 70
     0
 40
0.0
 41
1.0
 50
0.0
 71
     0
 42
4.16718
  3
txt.shx
  4
extfont.shx
  0
ENDTAB
  0
TABLE
  2
VIEW
  5
5
100
AcDbSymbolTable
 70
     0
  0
ENDTAB
  0
TABLE
  2
UCS
  5
6
100
AcDbSymbolTable
 70
     0
  0
ENDTAB
  0
TABLE
  2
APPID
  5
8
100
AcDbSymbolTable
 70
     1
  0
APPID
  5
16
100
AcDbSymbolTableRecord
100
AcDbRegAppTableRecord
  2
ACAD
 70
     0
  0
ENDTAB
  0
TABLE
  2
DIMSTYLE
  5
9
100
AcDbSymbolTable
 70
     1
100
AcDbDimStyleTable
 71
     0
  0
DIMSTYLE
105
18
100
AcDbSymbolTableRecord
100
AcDbDimStyleTableRecord
  2
MXDIMSTYLE
 70
     0
  3

  4

 40
1.0
 41
2.5
 42
0.0
 43
3.75
 44
2.54
 45
0.0
 46
0.0
 47
0.0
 48
0.0
 71
     0
 72
     0
 73
     0
 74
     0
 75
     0
 76
     0
 77
     1
 78
     8
 79
     0
140
2.54
141
2.5
142
0.0
143
0.03937
144
1.0
145
0.0
146
1.0
147
0.64
148
0.0
170
     0
171
     4
172
     1
173
     1
174
     0
175
     0
176
     0
177
     0
178
     0
179
     0
271
     2
272
     2
273
     2
274
     4
275
     0
276
     0
277
     2
278
    46
279
     0
280
     0
281
     0
282
     0
283
     0
284
     0
285
     0
286
     0
288
     0
289
     3
340
17
341
25
342
0
343
25
344
25
371
    -2
372
    -2
  0
ENDTAB
  0
TABLE
  2
BLOCK_RECORD
  5
1
100
AcDbSymbolTable
 70
     1
  0
BLOCK_RECORD
  5
A
100
AcDbSymbolTableRecord
100
AcDbBlockTableRecord
  2
*MODEL_SPACE
340
20
  0
BLOCK_RECORD
  5
B
100
AcDbSymbolTableRecord
100
AcDbBlockTableRecord
  2
*PAPER_SPACE
340
21
  0
BLOCK_RECORD
  5
25
100
AcDbSymbolTableRecord
100
AcDbBlockTableRecord
  2
_OPEN30
340
0
  0
ENDTAB
  0
ENDSEC
  0
SECTION
  2
BLOCKS
  0
BLOCK
  5
D
100
AcDbEntity
  8
0
390
0
100
AcDbBlockBegin
  2
*MODEL_SPACE
 70
     0
 10
0.0
 20
0.0
 30
0.0
  3
*MODEL_SPACE
  1

  0
ENDBLK
  5
E
100
AcDbEntity
  8
0
390
0
100
AcDbBlockEnd
  0
BLOCK
  5
F
100
AcDbEntity
 67
     1
  8
0
390
0
100
AcDbBlockBegin
  2
*PAPER_SPACE
 70
     0
 10
0.0
 20
0.0
 30
0.0
  3
*PAPER_SPACE
  1

  0
ENDBLK
  5
10
100
AcDbEntity
 67
     1
  8
0
390
0
100
AcDbBlockEnd
  0
BLOCK
  5
26
100
AcDbEntity
  8
0
370
    -2
390
0
  6
ByBlock
 62
     0
100
AcDbBlockBegin
  2
_OPEN30
 70
     2
 10
0.0
 20
0.0
 30
0.0
  3
_OPEN30
  1

  0
LINE
  5
27
100
AcDbEntity
  8
0
370
    -2
390
0
  6
ByBlock
 62
     0
100
AcDbLine
 10
-1.0
 20
0.267949
 30
0.0
 11
0.0
 21
0.0
 31
0.0
  0
LINE
  5
28
100
AcDbEntity
  8
0
370
    -2
390
0
  6
ByBlock
 62
     0
100
AcDbLine
 10
0.0
 20
0.0
 30
0.0
 11
-1.0
 21
-0.267949
 31
0.0
  0
LINE
  5
29
100
AcDbEntity
  8
0
370
    -2
390
0
  6
ByBlock
 62
     0
100
AcDbLine
 10
0.0
 20
0.0
 30
0.0
 11
-1.0
 21
0.0
 31
0.0
  0
ENDBLK
  5
2A
100
AcDbEntity
  8
0
370
    -2
390
0
  6
ByBlock
 62
     0
100
AcDbBlockEnd
  0
ENDSEC
  0
SECTION
  2
ENTITIES
  0
MTEXT
  5
2B
100
AcDbEntity
  8
LY_1
390
0
  6
CONTINUOUS
 62
   255
100
AcDbMText
 10
-91.657142
 20
-111.981659
 30
0.0
 40
4.0
 41
0.0
 71
     4
 72
     1
  1
\W0.708;\A1;Name PhotoMOS (PD4pin)\P     Surface mount terminal type
 73
     1
 44
0.9
  0
MTEXT
  5
2C
100
AcDbEntity
  8
LY_1
390
0
  6
CONTINUOUS
 62
   255
100
AcDbMText
 10
-91.683112
 20
-104.356092
 30
0.0
 40
4.0
 41
0.0
 71
     7
 72
     1
  1
\W0.669;\A1;Parts No. AQY27_A
 73
     1
 44
0.9
  0
MTEXT
  5
2D
100
AcDbEntity
  8
LY_1
390
0
  6
CONTINUOUS
 62
   255
100
AcDbMText
 10
-28.484406
 20
-143.0
 30
0.0
 40
3.24
 41
0.0
 71
     4
 72
     1
  1
\W0.716;\A1;(C)Panasonic Corporation 2012
 73
     1
 44
1.0
  0
LINE
  5
2E
100
AcDbEntity
  8
LY_1
390
0
  6
CONTINUOUS
 62
     3
100
AcDbLine
 10
7.77
 20
-18.4
 30
0.0
 11
7.77
 21
-16.6
 31
0.0
  0
LINE
  5
2F
100
AcDbEntity
  8
LY_1
390
0
  6
CONTINUOUS
 62
     3
100
AcDbLine
 10
11.050001
 20
-18.4
 30
0.0
 11
11.050001
 21
-16.6
 31
0.0
  0
LINE
  5
31
100
AcDbEntity
  8
LY_1
390
0
  6
CENTER
 62
   110
100
AcDbLine
 10
11.949999
 20
-16.25
 30
0.0
 11
11.949999
 21
-18.75
 31
0.0
  0
LINE
  5
32
100
AcDbEntity
  8
LY_1
390
0
  6
CONTINUOUS
 62
     3
100
AcDbLine
 10
12.85
 20
-18.4
 30
0.0
 11
12.85
 21
-16.6
 31
0.0
  0
LINE
  5
33
100
AcDbEntity
  8
LY_1
390
0
  6
CONTINUOUS
 62
     3
100
AcDbLine
 10
5.97
 20
-18.4
 30
0.0
 11
5.97
 21
-16.6
 31
0.0
  0
LINE
  5
34
100
AcDbEntity
  8
LY_1
390
0
  6
CENTER
 62
   110
100
AcDbLine
 10
6.87
 20
-16.25
 30
0.0
 11
6.87
 21
-18.75
 31
0.0
  0
LINE
  5
35
100
AcDbEntity
  8
LY_1
390
0
  6
CONTINUOUS
 62
     3
100
AcDbLine
 10
5.97
 20
-5.600002
 30
0.0
 11
5.97
 21
-7.400002
 31
0.0
  0
LINE
  5
36
100
AcDbEntity
  8
LY_1
390
0
  6
CONTINUOUS
 62
     3
100
AcDbLine
 10
11.050001
 20
-16.6
 30
0.0
 11
12.85
 21
-16.6
 31
0.0
  0
LINE
  5
37
100
AcDbEntity
  8
LY_1
390
0
  6
CONTINUOUS
 62
     3
100
AcDbLine
 10
7.77
 20
-5.600002
 30
0.0
 11
7.77
 21
-7.400002
 31
0.0
  0
LINE
  5
38
100
AcDbEntity
  8
LY_1
390
0
  6
CENTER
 62
   110
100
AcDbLine
 10
5.680001
 20
-6.500002
 30
0.0
 11
13.140001
 21
-6.500002
 31
0.0
  0
LINE
  5
39
100
AcDbEntity
  8
LY_1
390
0
  6
CONTINUOUS
 62
     3
100
AcDbLine
 10
7.77
 20
-7.400002
 30
0.0
 11
5.97
 21
-7.400002
 31
0.0
  0
LINE
  5
3A
100
AcDbEntity
  8
LY_1
390
0
  6
CONTINUOUS
 62
     3
100
AcDbLine
 10
7.77
 20
-5.600002
 30
0.0
 11
5.97
 21
-5.600002
 31
0.0
  0
LINE
  5
3B
100
AcDbEntity
  8
LY_1
390
0
  6
CONTINUOUS
 62
     3
100
AcDbLine
 10
12.85
 20
-5.600002
 30
0.0
 11
12.85
 21
-7.400002
 31
0.0
  0
LINE
  5
3C
100
AcDbEntity
  8
LY_1
390
0
  6
CONTINUOUS
 62
     3
100
AcDbLine
 10
7.77
 20
-16.6
 30
0.0
 11
5.97
 21
-16.6
 31
0.0
  0
LINE
  5
3D
100
AcDbEntity
  8
LY_1
390
0
  6
CONTINUOUS
 62
     3
100
AcDbLine
 10
11.050001
 20
-7.400002
 30
0.0
 11
12.85
 21
-7.400002
 31
0.0
  0
LINE
  5
3E
100
AcDbEntity
  8
LY_1
390
0
  6
CENTER
 62
   110
100
AcDbLine
 10
5.680001
 20
-17.5
 30
0.0
 11
13.140001
 21
-17.5
 31
0.0
  0
LINE
  5
3F
100
AcDbEntity
  8
LY_1
390
0
  6
CONTINUOUS
 62
     3
100
AcDbLine
 10
11.050001
 20
-5.600002
 30
0.0
 11
11.050001
 21
-7.400002
 31
0.0
  0
LINE
  5
40
100
AcDbEntity
  8
LY_1
390
0
  6
CONTINUOUS
 62
     3
100
AcDbLine
 10
11.050001
 20
-5.600002
 30
0.0
 11
12.85
 21
-5.600002
 31
0.0
  0
LINE
  5
41
100
AcDbEntity
  8
LY_1
390
0
  6
CONTINUOUS
 62
     3
100
AcDbLine
 10
11.050001
 20
-18.4
 30
0.0
 11
12.85
 21
-18.4
 31
0.0
  0
LINE
  5
42
100
AcDbEntity
  8
LY_1
390
0
  6
CONTINUOUS
 62
     3
100
AcDbLine
 10
7.77
 20
-18.4
 30
0.0
 11
5.97
 21
-18.4
 31
0.0
  0
LINE
  5
43
100
AcDbEntity
  8
LY_1
390
0
  6
CENTER
 62
   110
100
AcDbLine
 10
6.870001
 20
-5.250002
 30
0.0
 11
6.870001
 21
-7.750002
 31
0.0
  0
LINE
  5
44
100
AcDbEntity
  8
LY_1
390
0
  6
CENTER
 62
   110
100
AcDbLine
 10
11.949999
 20
-5.250002
 30
0.0
 11
11.949999
 21
-7.750002
 31
0.0
  0
ARC
  5
45
100
AcDbEntity
  8
LY_1
390
0
  6
CONTINUOUS
 62
     3
100
AcDbCircle
 10
-12.052823
 20
-2.199999
 30
0.0
 40
0.2
100
AcDbArc
 50
89.999996
 51
174.999992
  0
ARC
  5
46
100
AcDbEntity
  8
LY_1
390
0
  6
CONTINUOUS
 62
     3
100
AcDbCircle
 10
-3.547176
 20
-2.199999
 30
0.0
 40
0.2
100
AcDbArc
 50
5.000002
 51
90.000003
  0
ARC
  5
47
100
AcDbEntity
  8
LY_1
390
0
  6
CONTINUOUS
 62
     3
100
AcDbCircle
 10
-3.403695
 20
-5.3
 30
0.0
 40
0.2
100
AcDbArc
 50
269.999997
 51
354.999997
  0
ARC
  5
48
100
AcDbEntity
  8
LY_1
390
0
  6
CONTINUOUS
 62
     3
100
AcDbCircle
 10
-12.196305
 20
-5.3
 30
0.0
 40
0.2
100
AcDbArc
 50
185.000008
 51
269.999997
  0
LINE
  5
49
100
AcDbEntity
  8
LY_1
390
0
  6
CONTINUOUS
 62
     3
100
AcDbLine
 10
-3.347937
 20
-2.182568
 30
0.0
 11
-3.15
 21
-4.444999
 31
0.0
  0
LINE
  5
4A
100
AcDbEntity
  8
LY_1
390
0
  6
CONTINUOUS
 62
     3
100
AcDbLine
 10
-12.449999
 20
-4.694999
 30
0.0
 11
-12.395544
 21
-5.317431
 31
0.0
  0
LINE
  5
4B
100
AcDbEntity
  8
LY_1
390
0
  6
CONTINUOUS
 62
     3
100
AcDbLine
 10
-3.15
 20
-4.694999
 30
0.0
 11
-3.204456
 21
-5.317431
 31
0.0
  0
LINE
  5
4C
100
AcDbEntity
  8
LY_1
390
0
  6
CONTINUOUS
 62
     3
100
AcDbLine
 10
-12.252062
 20
-2.182568
 30
0.0
 11
-12.449999
 21
-4.444999
 31
0.0
  0
LINE
  5
4D
100
AcDbEntity
  8
LY_1
390
0
  6
CONTINUOUS
 62
     3
100
AcDbLine
 10
-3.547176
 20
-1.999999
 30
0.0
 11
-12.052823
 21
-1.999999
 31
0.0
  0
LINE
  5
4E
100
AcDbEntity
  8
LY_1
390
0
  6
CONTINUOUS
 62
     3
100
AcDbLine
 10
-3.403695
 20
-5.5
 30
0.0
 11
-4.56
 21
-5.5
 31
0.0
  0
LINE
  5
4F
100
AcDbEntity
  8
LY_1
390
0
  6
CONTINUOUS
 62
     3
100
AcDbLine
 10
-12.45
 20
-4.445
 30
0.0
 11
-12.45
 21
-4.695
 31
0.0
  0
LINE
  5
50
100
AcDbEntity
  8
LY_1
390
0
  6
CONTINUOUS
 62
     3
100
AcDbLine
 10
-3.15
 20
-4.445
 30
0.0
 11
-3.15
 21
-4.695
 31
0.0
  0
LINE
  5
51
100
AcDbEntity
  8
LY_1
390
0
  6
CONTINUOUS
 62
     3
100
AcDbLine
 10
-3.15
 20
-4.445
 30
0.0
 11
-12.45
 21
-4.445
 31
0.0
  0
LINE
  5
52
100
AcDbEntity
  8
LY_1
390
0
  6
CONTINUOUS
 62
     3
100
AcDbLine
 10
-4.56
 20
-4.445
 30
0.0
 11
-4.56
 21
-5.7
 31
0.0
  0
LINE
  5
53
100
AcDbEntity
  8
LY_1
390
0
  6
CONTINUOUS
 62
     3
100
AcDbLine
 10
-5.96
 20
-4.445
 30
0.0
 11
-5.96
 21
-5.7
 31
0.0
  0
LINE
  5
54
100
AcDbEntity
  8
LY_1
390
0
  6
CONTINUOUS
 62
     3
100
AcDbLine
 10
-5.495
 20
-5.45
 30
0.0
 11
-5.495
 21
-5.7
 31
0.0
  0
LINE
  5
55
100
AcDbEntity
  8
LY_1
390
0
  6
CONTINUOUS
 62
     3
100
AcDbLine
 10
-5.024999
 20
-5.45
 30
0.0
 11
-5.024999
 21
-5.7
 31
0.0
  0
LINE
  5
56
100
AcDbEntity
  8
LY_1
390
0
  6
CONTINUOUS
 62
     3
100
AcDbLine
 10
-9.64
 20
-4.445
 30
0.0
 11
-9.64
 21
-5.7
 31
0.0
  0
LINE
  5
57
100
AcDbEntity
  8
LY_1
390
0
  6
CONTINUOUS
 62
     3
100
AcDbLine
 10
-11.04
 20
-4.445
 30
0.0
 11
-11.04
 21
-5.7
 31
0.0
  0
LINE
  5
58
100
AcDbEntity
  8
LY_1
390
0
  6
CONTINUOUS
 62
     3
100
AcDbLine
 10
-10.575
 20
-5.45
 30
0.0
 11
-10.575
 21
-5.7
 31
0.0
  0
LINE
  5
59
100
AcDbEntity
  8
LY_1
390
0
  6
CONTINUOUS
 62
     3
100
AcDbLine
 10
-10.105
 20
-5.45
 30
0.0
 11
-10.105
 21
-5.7
 31
0.0
  0
LINE
  5
5A
100
AcDbEntity
  8
LY_1
390
0
  6
CONTINUOUS
 62
     3
100
AcDbLine
 10
-5.96
 20
-5.5
 30
0.0
 11
-9.64
 21
-5.5
 31
0.0
  0
LINE
  5
5B
100
AcDbEntity
  8
LY_1
390
0
  6
CONTINUOUS
 62
     3
100
AcDbLine
 10
-11.04
 20
-5.5
 30
0.0
 11
-12.196305
 21
-5.5
 31
0.0
  0
LINE
  5
5C
100
AcDbEntity
  8
LY_1
390
0
  6
CENTER
 62
   110
100
AcDbLine
 10
-5.26
 20
-1.43702
 30
0.0
 11
-5.26
 21
-7.52393
 31
0.0
  0
LINE
  5
5D
100
AcDbEntity
  8
LY_1
390
0
  6
CENTER
 62
   110
100
AcDbLine
 10
-10.34
 20
-1.43702
 30
0.0
 11
-10.34
 21
-7.52393
 31
0.0
  0
LINE
  5
5E
100
AcDbEntity
  8
LY_1
390
0
  6
CONTINUOUS
 62
     3
100
AcDbLine
 10
-4.56
 20
-5.7
 30
0.0
 11
-5.96
 21
-5.7
 31
0.0
  0
LINE
  5
5F
100
AcDbEntity
  8
LY_1
390
0
  6
CONTINUOUS
 62
     3
100
AcDbLine
 10
-4.56
 20
-5.45
 30
0.0
 11
-5.96
 21
-5.45
 31
0.0
  0
LINE
  5
60
100
AcDbEntity
  8
LY_1
390
0
  6
CONTINUOUS
 62
     3
100
AcDbLine
 10
-9.64
 20
-5.45
 30
0.0
 11
-11.04
 21
-5.45
 31
0.0
  0
LINE
  5
61
100
AcDbEntity
  8
LY_1
390
0
  6
CONTINUOUS
 62
     3
100
AcDbLine
 10
-9.64
 20
-5.7
 30
0.0
 11
-11.04
 21
-5.7
 31
0.0
  0
CIRCLE
  5
62
100
AcDbEntity
  8
LY_1
390
0
  6
CONTINUOUS
 62
     3
100
AcDbCircle
 10
-10.299999
 20
10.699704
 30
0.0
 40
0.75
  0
ARC
  5
63
100
AcDbEntity
  8
LY_1
390
0
  6
CONTINUOUS
 62
     3
100
AcDbCircle
 10
-12.25
 20
9.3
 30
0.0
 40
0.2
100
AcDbArc
 50
179.999991
 51
270.000001
  0
ARC
  5
64
100
AcDbEntity
  8
LY_1
390
0
  6
CONTINUOUS
 62
     3
100
AcDbCircle
 10
-12.25
 20
17.700001
 30
0.0
 40
0.2
100
AcDbArc
 50
89.999989
 51
180.000005
  0
ARC
  5
65
100
AcDbEntity
  8
LY_1
390
0
  6
CONTINUOUS
 62
     3
100
AcDbCircle
 10
-3.35
 20
9.3
 30
0.0
 40
0.2
100
AcDbArc
 50
269.999997
 51
0.000003
  0
ARC
  5
66
100
AcDbEntity
  8
LY_1
390
0
  6
CONTINUOUS
 62
     3
100
AcDbCircle
 10
-3.35
 20
17.700001
 30
0.0
 40
0.2
100
AcDbArc
 50
0.000003
 51
90.000003
  0
LINE
  5
67
100
AcDbEntity
  8
LY_1
390
0
  6
CONTINUOUS
 62
     3
100
AcDbLine
 10
-9.64
 20
8.295006
 30
0.0
 11
-11.04
 21
8.295006
 31
0.0
  0
LINE
  5
68
100
AcDbEntity
  8
LY_1
390
0
  6
CONTINUOUS
 62
     3
100
AcDbLine
 10
-9.64
 20
18.705007
 30
0.0
 11
-11.04
 21
18.705007
 31
0.0
  0
LINE
  5
69
100
AcDbEntity
  8
LY_1
390
0
  6
CONTINUOUS
 62
     3
100
AcDbLine
 10
-4.559999
 20
18.705007
 30
0.0
 11
-5.959999
 21
18.705007
 31
0.0
  0
LINE
  5
6A
100
AcDbEntity
  8
LY_1
390
0
  6
CONTINUOUS
 62
     3
100
AcDbLine
 10
-4.559999
 20
8.295006
 30
0.0
 11
-5.959999
 21
8.295006
 31
0.0
  0
LINE
  5
6B
100
AcDbEntity
  8
LY_1
390
0
  6
CONTINUOUS
 62
     3
100
AcDbLine
 10
-10.575
 20
7.975006
 30
0.0
 11
-11.04
 21
7.975006
 31
0.0
  0
LINE
  5
6C
100
AcDbEntity
  8
LY_1
390
0
  6
CONTINUOUS
 62
     3
100
AcDbLine
 10
-5.495
 20
7.975006
 30
0.0
 11
-5.959999
 21
7.975006
 31
0.0
  0
LINE
  5
6D
100
AcDbEntity
  8
LY_1
390
0
  6
CONTINUOUS
 62
     3
100
AcDbLine
 10
-10.105
 20
7.420006
 30
0.0
 11
-10.575
 21
7.420006
 31
0.0
  0
LINE
  5
6E
100
AcDbEntity
  8
LY_1
390
0
  6
CONTINUOUS
 62
     3
100
AcDbLine
 10
-9.64
 20
7.975006
 30
0.0
 11
-10.105
 21
7.975006
 31
0.0
  0
LINE
  5
6F
100
AcDbEntity
  8
LY_1
390
0
  6
CONTINUOUS
 62
     3
100
AcDbLine
 10
-5.495
 20
19.025007
 30
0.0
 11
-5.959999
 21
19.025007
 31
0.0
  0
LINE
  5
70
100
AcDbEntity
  8
LY_1
390
0
  6
CONTINUOUS
 62
     3
100
AcDbLine
 10
-4.559999
 20
19.025007
 30
0.0
 11
-5.025
 21
19.025007
 31
0.0
  0
LINE
  5
71
100
AcDbEntity
  8
LY_1
390
0
  6
CONTINUOUS
 62
     3
100
AcDbLine
 10
-5.025
 20
19.580007
 30
0.0
 11
-5.495
 21
19.580007
 31
0.0
  0
LINE
  5
72
100
AcDbEntity
  8
LY_1
390
0
  6
CONTINUOUS
 62
     3
100
AcDbLine
 10
-10.575
 20
19.025007
 30
0.0
 11
-11.04
 21
19.025007
 31
0.0
  0
LINE
  5
73
100
AcDbEntity
  8
LY_1
390
0
  6
CONTINUOUS
 62
     3
100
AcDbLine
 10
-4.559999
 20
7.975006
 30
0.0
 11
-5.025
 21
7.975006
 31
0.0
  0
LINE
  5
74
100
AcDbEntity
  8
LY_1
390
0
  6
CONTINUOUS
 62
     3
100
AcDbLine
 10
-5.025
 20
7.420006
 30
0.0
 11
-5.495
 21
7.420006
 31
0.0
  0
LINE
  5
75
100
AcDbEntity
  8
LY_1
390
0
  6
CONTINUOUS
 62
     3
100
AcDbLine
 10
-9.64
 20
19.025007
 30
0.0
 11
-10.105
 21
19.025007
 31
0.0
  0
LINE
  5
76
100
AcDbEntity
  8
LY_1
390
0
  6
CONTINUOUS
 62
     3
100
AcDbLine
 10
-10.105
 20
19.580007
 30
0.0
 11
-10.575
 21
19.580007
 31
0.0
  0
LINE
  5
77
100
AcDbEntity
  8
LY_1
390
0
  6
CONTINUOUS
 62
     3
100
AcDbLine
 10
-12.45
 20
9.3
 30
0.0
 11
-12.45
 21
17.700001
 31
0.0
  0
LINE
  5
78
100
AcDbEntity
  8
LY_1
390
0
  6
CONTINUOUS
 62
     3
100
AcDbLine
 10
-3.35
 20
9.1
 30
0.0
 11
-12.25
 21
9.1
 31
0.0
  0
LINE
  5
79
100
AcDbEntity
  8
LY_1
390
0
  6
CONTINUOUS
 62
     3
100
AcDbLine
 10
-3.15
 20
9.3
 30
0.0
 11
-3.15
 21
17.700001
 31
0.0
  0
LINE
  5
7A
100
AcDbEntity
  8
LY_1
390
0
  6
CONTINUOUS
 62
     3
100
AcDbLine
 10
-3.35
 20
17.900001
 30
0.0
 11
-12.25
 21
17.900001
 31
0.0
  0
LINE
  5
7B
100
AcDbEntity
  8
LY_1
390
0
  6
CONTINUOUS
 62
     3
100
AcDbLine
 10
-5.495
 20
7.420006
 30
0.0
 11
-5.495
 21
7.975006
 31
0.0
  0
LINE
  5
7C
100
AcDbEntity
  8
LY_1
390
0
  6
CONTINUOUS
 62
     3
100
AcDbLine
 10
-5.025
 20
7.420006
 30
0.0
 11
-5.025
 21
7.975006
 31
0.0
  0
LINE
  5
7D
100
AcDbEntity
  8
LY_1
390
0
  6
CONTINUOUS
 62
     3
100
AcDbLine
 10
-5.495
 20
19.580007
 30
0.0
 11
-5.495
 21
19.025007
 31
0.0
  0
LINE
  5
7E
100
AcDbEntity
  8
LY_1
390
0
  6
CONTINUOUS
 62
     3
100
AcDbLine
 10
-5.025
 20
19.580007
 30
0.0
 11
-5.025
 21
19.025007
 31
0.0
  0
LINE
  5
7F
100
AcDbEntity
  8
LY_1
390
0
  6
CONTINUOUS
 62
     3
100
AcDbLine
 10
-10.575
 20
7.420006
 30
0.0
 11
-10.575
 21
7.975006
 31
0.0
  0
LINE
  5
80
100
AcDbEntity
  8
LY_1
390
0
  6
CONTINUOUS
 62
     3
100
AcDbLine
 10
-10.105
 20
7.420006
 30
0.0
 11
-10.105
 21
7.975006
 31
0.0
  0
LINE
  5
81
100
AcDbEntity
  8
LY_1
390
0
  6
CONTINUOUS
 62
     3
100
AcDbLine
 10
-10.575
 20
19.580007
 30
0.0
 11
-10.575
 21
19.025007
 31
0.0
  0
LINE
  5
82
100
AcDbEntity
  8
LY_1
390
0
  6
CONTINUOUS
 62
     3
100
AcDbLine
 10
-10.105
 20
19.580007
 30
0.0
 11
-10.105
 21
19.025007
 31
0.0
  0
LINE
  5
83
100
AcDbEntity
  8
LY_1
390
0
  6
CONTINUOUS
 62
     3
100
AcDbLine
 10
-11.04
 20
9.1
 30
0.0
 11
-11.04
 21
7.975006
 31
0.0
  0
LINE
  5
84
100
AcDbEntity
  8
LY_1
390
0
  6
CONTINUOUS
 62
     3
100
AcDbLine
 10
-9.64
 20
9.1
 30
0.0
 11
-9.64
 21
7.975006
 31
0.0
  0
LINE
  5
85
100
AcDbEntity
  8
LY_1
390
0
  6
CONTINUOUS
 62
     3
100
AcDbLine
 10
-5.959999
 20
9.1
 30
0.0
 11
-5.959999
 21
7.975006
 31
0.0
  0
LINE
  5
86
100
AcDbEntity
  8
LY_1
390
0
  6
CONTINUOUS
 62
     3
100
AcDbLine
 10
-4.559999
 20
9.1
 30
0.0
 11
-4.559999
 21
7.975006
 31
0.0
  0
LINE
  5
87
100
AcDbEntity
  8
LY_1
390
0
  6
CONTINUOUS
 62
     3
100
AcDbLine
 10
-11.04
 20
17.900001
 30
0.0
 11
-11.04
 21
19.025007
 31
0.0
  0
LINE
  5
88
100
AcDbEntity
  8
LY_1
390
0
  6
CONTINUOUS
 62
     3
100
AcDbLine
 10
-9.64
 20
17.900001
 30
0.0
 11
-9.64
 21
19.025007
 31
0.0
  0
LINE
  5
89
100
AcDbEntity
  8
LY_1
390
0
  6
CONTINUOUS
 62
     3
100
AcDbLine
 10
-5.959999
 20
17.900001
 30
0.0
 11
-5.959999
 21
19.025007
 31
0.0
  0
LINE
  5
8A
100
AcDbEntity
  8
LY_1
390
0
  6
CONTINUOUS
 62
     3
100
AcDbLine
 10
-4.559999
 20
17.900001
 30
0.0
 11
-4.559999
 21
19.025007
 31
0.0
  0
ARC
  5
8B
100
AcDbEntity
  8
LY_1
390
0
  6
CONTINUOUS
 62
     3
100
AcDbCircle
 10
9.834025
 20
18.905001
 30
0.0
 40
0.45
100
AcDbArc
 50
269.999997
 51
359.999997
  0
ARC
  5
8C
100
AcDbEntity
  8
LY_1
390
0
  6
CONTINUOUS
 62
     3
100
AcDbCircle
 10
9.834025
 20
18.905001
 30
0.0
 40
0.2
100
AcDbArc
 50
269.999997
 51
359.999997
  0
ARC
  5
8D
100
AcDbEntity
  8
LY_1
390
0
  6
CONTINUOUS
 62
     3
100
AcDbCircle
 10
9.834025
 20
8.095
 30
0.0
 40
0.45
100
AcDbArc
 50
359.999997
 51
90.000003
  0
ARC
  5
8E
100
AcDbEntity
  8
LY_1
390
0
  6
CONTINUOUS
 62
     3
100
AcDbCircle
 10
9.834025
 20
8.095
 30
0.0
 40
0.2
100
AcDbArc
 50
359.999997
 51
90.000003
  0
ARC
  5
8F
100
AcDbEntity
  8
LY_1
390
0
  6
CONTINUOUS
 62
     3
100
AcDbCircle
 10
9.479024
 20
8.745
 30
0.0
 40
0.45
100
AcDbArc
 50
180.000009
 51
270.000004
  0
ARC
  5
90
100
AcDbEntity
  8
LY_1
390
0
  6
CONTINUOUS
 62
     3
100
AcDbCircle
 10
9.479024
 20
18.255001
 30
0.0
 40
0.45
100
AcDbArc
 50
90.000003
 51
180.000005
  0
ARC
  5
91
100
AcDbEntity
  8
LY_1
390
0
  6
CONTINUOUS
 62
     3
100
AcDbCircle
 10
9.479024
 20
18.255001
 30
0.0
 40
0.2
100
AcDbArc
 50
90.000003
 51
180.000005
  0
ARC
  5
92
100
AcDbEntity
  8
LY_1
390
0
  6
CONTINUOUS
 62
     3
100
AcDbCircle
 10
9.479024
 20
8.745
 30
0.0
 40
0.2
100
AcDbArc
 50
180.000009
 51
270.000004
  0
ARC
  5
93
100
AcDbEntity
  8
LY_1
390
0
  6
CONTINUOUS
 62
     3
100
AcDbCircle
 10
9.884025
 20
9.3537
 30
0.0
 40
0.2
100
AcDbArc
 50
274.999996
 51
359.999997
  0
ARC
  5
94
100
AcDbEntity
  8
LY_1
390
0
  6
CONTINUOUS
 62
     3
100
AcDbCircle
 10
9.884025
 20
17.646313
 30
0.0
 40
0.2
100
AcDbArc
 50
359.999997
 51
85.000004
  0
ARC
  5
95
100
AcDbEntity
  8
LY_1
390
0
  6
CONTINUOUS
 62
     3
100
AcDbCircle
 10
6.784025
 20
17.502831
 30
0.0
 40
0.2
100
AcDbArc
 50
95.000002
 51
180.000005
  0
ARC
  5
96
100
AcDbEntity
  8
LY_1
390
0
  6
CONTINUOUS
 62
     3
100
AcDbCircle
 10
6.784025
 20
9.497182
 30
0.0
 40
0.2
100
AcDbArc
 50
180.000009
 51
265.000005
  0
LINE
  5
97
100
AcDbEntity
  8
LY_1
390
0
  6
CONTINUOUS
 62
     3
100
AcDbLine
 10
10.034025
 20
7.975
 30
0.0
 11
10.284025
 21
7.975
 31
0.0
  0
LINE
  5
98
100
AcDbEntity
  8
LY_1
390
0
  6
CONTINUOUS
 62
     3
100
AcDbLine
 10
10.034025
 20
19.025001
 30
0.0
 11
10.284025
 21
19.025001
 31
0.0
  0
LINE
  5
99
100
AcDbEntity
  8
LY_1
390
0
  6
CONTINUOUS
 62
     3
100
AcDbLine
 10
10.034025
 20
18.905001
 30
0.0
 11
10.034025
 21
19.580001
 31
0.0
  0
LINE
  5
9A
100
AcDbEntity
  8
LY_1
390
0
  6
CONTINUOUS
 62
     3
100
AcDbLine
 10
10.284025
 20
18.905001
 30
0.0
 11
10.284025
 21
19.580001
 31
0.0
  0
LINE
  5
9B
100
AcDbEntity
  8
LY_1
390
0
  6
CONTINUOUS
 62
     3
100
AcDbLine
 10
10.034025
 20
7.42
 30
0.0
 11
10.034025
 21
8.095
 31
0.0
  0
LINE
  5
9C
100
AcDbEntity
  8
LY_1
390
0
  6
CONTINUOUS
 62
     3
100
AcDbLine
 10
10.284025
 20
7.42
 30
0.0
 11
10.284025
 21
8.095
 31
0.0
  0
LINE
  5
9D
100
AcDbEntity
  8
LY_1
390
0
  6
CONTINUOUS
 62
     3
100
AcDbLine
 10
10.034025
 20
19.580001
 30
0.0
 11
10.284025
 21
19.580001
 31
0.0
  0
LINE
  5
9E
100
AcDbEntity
  8
LY_1
390
0
  6
CONTINUOUS
 62
     3
100
AcDbLine
 10
10.034025
 20
7.42
 30
0.0
 11
10.284025
 21
7.42
 31
0.0
  0
LINE
  5
9F
100
AcDbEntity
  8
LY_1
390
0
  6
CONTINUOUS
 62
     3
100
AcDbLine
 10
9.479024
 20
18.455001
 30
0.0
 11
9.834025
 21
18.455001
 31
0.0
  0
LINE
  5
A0
100
AcDbEntity
  8
LY_1
390
0
  6
CONTINUOUS
 62
     3
100
AcDbLine
 10
9.479024
 20
18.705001
 30
0.0
 11
9.834025
 21
18.705001
 31
0.0
  0
LINE
  5
A1
100
AcDbEntity
  8
LY_1
390
0
  6
CONTINUOUS
 62
     3
100
AcDbLine
 10
9.279024
 20
17.900007
 30
0.0
 11
9.279024
 21
18.255001
 31
0.0
  0
LINE
  5
A2
100
AcDbEntity
  8
LY_1
390
0
  6
CONTINUOUS
 62
     3
100
AcDbLine
 10
9.029024
 20
17.900007
 30
0.0
 11
9.029024
 21
18.255001
 31
0.0
  0
LINE
  5
A3
100
AcDbEntity
  8
LY_1
390
0
  6
CONTINUOUS
 62
     3
100
AcDbLine
 10
9.479024
 20
8.295
 30
0.0
 11
9.834025
 21
8.295
 31
0.0
  0
LINE
  5
A4
100
AcDbEntity
  8
LY_1
390
0
  6
CONTINUOUS
 62
     3
100
AcDbLine
 10
9.479024
 20
8.545
 30
0.0
 11
9.834025
 21
8.545
 31
0.0
  0
LINE
  5
A5
100
AcDbEntity
  8
LY_1
390
0
  6
CONTINUOUS
 62
     3
100
AcDbLine
 10
9.029024
 20
17.900007
 30
0.0
 11
9.279024
 21
17.900007
 31
0.0
  0
LINE
  5
A6
100
AcDbEntity
  8
LY_1
390
0
  6
CONTINUOUS
 62
     3
100
AcDbLine
 10
9.029024
 20
9.100006
 30
0.0
 11
9.279024
 21
9.100006
 31
0.0
  0
LINE
  5
A7
100
AcDbEntity
  8
LY_1
390
0
  6
CONTINUOUS
 62
     3
100
AcDbLine
 10
9.901456
 20
9.154461
 30
0.0
 11
9.279024
 21
9.100006
 31
0.0
  0
LINE
  5
A8
100
AcDbEntity
  8
LY_1
390
0
  6
CONTINUOUS
 62
     3
100
AcDbLine
 10
9.029024
 20
17.900006
 30
0.0
 11
6.766593
 21
17.702069
 31
0.0
  0
LINE
  5
A9
100
AcDbEntity
  8
LY_1
390
0
  6
CONTINUOUS
 62
     3
100
AcDbLine
 10
9.901456
 20
17.845551
 30
0.0
 11
9.279024
 21
17.900007
 31
0.0
  0
LINE
  5
AA
100
AcDbEntity
  8
LY_1
390
0
  6
CONTINUOUS
 62
     3
100
AcDbLine
 10
9.029023
 20
9.100007
 30
0.0
 11
6.766593
 21
9.297944
 31
0.0
  0
LINE
  5
AB
100
AcDbEntity
  8
LY_1
390
0
  6
CONTINUOUS
 62
     3
100
AcDbLine
 10
9.029024
 20
8.745
 30
0.0
 11
9.029024
 21
9.100006
 31
0.0
  0
LINE
  5
AC
100
AcDbEntity
  8
LY_1
390
0
  6
CONTINUOUS
 62
     3
100
AcDbLine
 10
9.279024
 20
8.745
 30
0.0
 11
9.279024
 21
9.100006
 31
0.0
  0
LINE
  5
AD
100
AcDbEntity
  8
LY_1
390
0
  6
CONTINUOUS
 62
     3
100
AcDbLine
 10
6.584025
 20
9.497182
 30
0.0
 11
6.584025
 21
17.502831
 31
0.0
  0
LINE
  5
AE
100
AcDbEntity
  8
LY_1
390
0
  6
CONTINUOUS
 62
     3
100
AcDbLine
 10
10.084025
 20
9.3537
 30
0.0
 11
10.084025
 21
17.646313
 31
0.0
  0
LINE
  5
AF
100
AcDbEntity
  8
LY_1
390
0
  6
CENTER
 62
   110
100
AcDbLine
 10
-2.15
 20
13.5
 30
0.0
 11
-13.45
 21
13.5
 31
0.0
  0
LINE
  5
B0
100
AcDbEntity
  8
LY_1
390
0
  6
CENTER
 62
   110
100
AcDbLine
 10
-7.8
 20
19.15
 30
0.0
 11
-7.8
 21
7.85
 31
0.0
  0
LINE
  5
B1
100
AcDbEntity
  8
LY_1
390
0
  6
CENTER
 62
   110
100
AcDbLine
 10
5.584025
 20
13.500006
 30
0.0
 11
11.084025
 21
13.500006
 31
0.0
  0
LINE
  5
B3
100
AcDbEntity
  8
DEFPOINTS
390
0
  6
NON_PLOTING
 62
     3
100
AcDbLine
 10
-105.0
 20
148.5
 30
0.0
 11
105.0
 21
148.5
 31
0.0
  0
LINE
  5
B4
100
AcDbEntity
  8
DEFPOINTS
390
0
  6
NON_PLOTING
 62
     3
100
AcDbLine
 10
-105.0
 20
-148.5
 30
0.0
 11
-105.0
 21
148.5
 31
0.0
  0
MTEXT
  5
B5
100
AcDbEntity
  8
LY_1
390
0
  6
CONTINUOUS
 62
   255
100
AcDbMText
 10
29.336105
 20
-100.0
 30
0.0
 40
4.0
 41
0.0
 71
     1
 72
     1
  1
\W0.690;\A1;Date Jan. 1.2012
 73
     1
 44
0.9
  0
MTEXT
  5
B6
100
AcDbEntity
  8
LY_1
390
0
  6
CONTINUOUS
 62
   255
100
AcDbMText
 10
29.411844
 20
-106.75
 30
0.0
 40
4.0
 41
0.0
 71
     1
 72
     1
  1
\W0.703;\A1;Scale 1:1
 73
     1
 44
0.9
  0
MTEXT
  5
B7
100
AcDbEntity
  8
LY_1
390
0
  6
CONTINUOUS
 62
   255
100
AcDbMText
 10
62.332931
 20
-107.0
 30
0.0
 40
4.0
 41
0.0
 71
     1
 72
     1
  1
\W0.649;\A1;Unit mm
 73
     1
 44
0.9
  0
MTEXT
  5
B8
100
AcDbEntity
  8
LY_1
390
0
  6
CONTINUOUS
 62
   255
100
AcDbMText
 10
29.205232
 20
-113.25
 30
0.0
 40
4.0
 41
0.0
 71
     1
 72
     1
  1
\W0.650;\A1;Tolerance
 73
     1
 44
0.9
  0
MTEXT
  5
B9
100
AcDbEntity
  8
LY_1
390
0
  6
CONTINUOUS
 62
   255
100
AcDbMText
 10
-45.510313
 20
-128.294383
 30
0.0
 40
4.4
 41
0.0
 71
     1
 72
     1
  1
\W0.715;\A1;Automation Controls Business Unit
 73
     1
 44
0.9
  0
MTEXT
  5
BA
100
AcDbEntity
  8
LY_1
390
0
  6
CONTINUOUS
 62
   255
100
AcDbMText
 10
-28.718898
 20
-122.791401
 30
0.0
 40
4.4
 41
0.0
 71
     1
 72
     1
  1
\W0.690;\A1;Panasonic Corporation
 73
     1
 44
0.9
  0
LINE
  5
BB
100
AcDbEntity
  8
DEFPOINTS
390
0
  6
NON_PLOTING
 62
     3
100
AcDbLine
 10
-105.0
 20
-148.5
 30
0.0
 11
105.0
 21
-148.5
 31
0.0
  0
LINE
  5
BC
100
AcDbEntity
  8
DEFPOINTS
390
0
  6
NON_PLOTING
 62
     3
100
AcDbLine
 10
105.0
 20
-148.5
 30
0.0
 11
105.0
 21
148.5
 31
0.0
  0
LINE
  5
BD
100
AcDbEntity
  8
LY_1
390
0
  6
CONTINUOUS
 62
   110
100
AcDbLine
 10
61.003753
 20
-115.621162
 30
0.0
 11
84.96732
 21
-115.621162
 31
0.0
  0
LINE
  5
BE
100
AcDbEntity
  8
LY_1
390
0
  6
CONTINUOUS
 62
     3
100
AcDbLine
 10
27.5
 20
-98.5
 30
0.0
 11
27.5
 21
-118.5
 31
0.0
  0
LINE
  5
BF
100
AcDbEntity
  8
LY_1
390
0
  6
CONTINUOUS
 62
     3
100
AcDbLine
 10
-93.5
 20
137.5
 30
0.0
 11
-93.5
 21
-137.5
 31
0.0
  0
LINE
  5
C0
100
AcDbEntity
  8
LY_1
390
0
  6
CONTINUOUS
 62
     3
100
AcDbLine
 10
93.5
 20
137.5
 30
0.0
 11
-93.5
 21
137.5
 31
0.0
  0
LINE
  5
C1
100
AcDbEntity
  8
LY_1
390
0
  6
CONTINUOUS
 62
     3
100
AcDbLine
 10
93.5
 20
-137.5
 30
0.0
 11
93.5
 21
137.5
 31
0.0
  0
LINE
  5
C2
100
AcDbEntity
  8
LY_1
390
0
  6
CONTINUOUS
 62
     3
100
AcDbLine
 10
-93.5
 20
-137.5
 30
0.0
 11
93.5
 21
-137.5
 31
0.0
  0
LINE
  5
C3
100
AcDbEntity
  8
LY_1
390
0
  6
CONTINUOUS
 62
     3
100
AcDbLine
 10
60.5
 20
-105.5
 30
0.0
 11
60.5
 21
-112.0
 31
0.0
  0
LINE
  5
C4
100
AcDbEntity
  8
LY_1
390
0
  6
CONTINUOUS
 62
     3
100
AcDbLine
 10
27.5
 20
-112.0
 30
0.0
 11
93.5
 21
-112.0
 31
0.0
  0
LINE
  5
C5
100
AcDbEntity
  8
LY_1
390
0
  6
CONTINUOUS
 62
     3
100
AcDbLine
 10
-93.5
 20
-118.5
 30
0.0
 11
93.5
 21
-118.5
 31
0.0
  0
LINE
  5
C6
100
AcDbEntity
  8
LY_1
390
0
  6
CONTINUOUS
 62
     3
100
AcDbLine
 10
-93.5
 20
-105.5
 30
0.0
 11
93.5
 21
-105.5
 31
0.0
  0
LINE
  5
C7
100
AcDbEntity
  8
LY_1
390
0
  6
CONTINUOUS
 62
     3
100
AcDbLine
 10
-93.5
 20
-98.5
 30
0.0
 11
93.5
 21
-98.5
 31
0.0
  0
ENDSEC
  0
SECTION
  2
OBJECTS
  0
DICTIONARY
  5
19
100
AcDbDictionary
280
     0
281
     1
  3
ACAD_GROUP
350
1A
  3
ACAD_MLINESTYLE
350
1B
  3
ACAD_LAYOUT
350
1E
  3
ACAD_PLOTSETTINGS
350
22
  3
ACAD_PLOTSTYLENAME
350
1F
  0
DICTIONARY
  5
1A
102
{ACAD_REACTORS
330
19
102
}
100
AcDbDictionary
280
     0
281
     1
  0
DICTIONARY
  5
1B
102
{ACAD_REACTORS
330
19
102
}
100
AcDbDictionary
280
     0
281
     1
  3
Standard
350
1C
  0
MLINESTYLE
  5
1C
102
{ACAD_REACTORS
330
1B
102
}
100
AcDbMlineStyle
  2
Standard
 70
     0
  3

 62
     0
 51
90.0
 52
90.0
 71
     2
 49
0.5
 62
   256
  6
ByLayer
 49
-0.5
 62
   256
  6
ByLayer
  0
ACDBDICTIONARYWDFLT
  5
1F
102
{ACAD_REACTORS
330
19
102
}
100
AcDbDictionary
281
     1
  3
Normal
350
1D
100
AcDbDictionaryWithDefault
340
1D
  0
ACDBPLACEHOLDER
  5
1D
102
{ACAD_REACTORS
330
1F
102
}
  0
LAYOUT
  5
20
102
{ACAD_REACTORS
330
1E
102
}
100
AcDbPlotSettings
  1

  2

  4

  6

 40
0.0
 41
0.0
 42
0.0
 43
0.0
 44
0.0
 45
0.0
 46
0.0
 47
0.0
 48
0.0
 49
0.0
140
0.0
141
0.0
142
1.0
143
1.0
 70
  1024
 72
     0
 73
     0
 74
     0
  7

 75
     0
147
1.0
148
0.0
149
0.0
100
AcDbLayout
  1
Model
 70
     0
 71
     0
 10
0.0
 20
0.0
 11
0.0
 21
0.0
 12
0.0
 22
0.0
 32
0.0
 14
0.0
 24
0.0
 34
0.0
 15
0.0
 25
0.0
 35
0.0
146
0.0
 13
0.0
 23
0.0
 33
0.0
 16
0.0
 26
0.0
 36
0.0
 17
0.0
 27
0.0
 37
0.0
 76
     0
330
A
331
0
345
0
346
0
  0
LAYOUT
  5
21
102
{ACAD_REACTORS
330
1E
102
}
100
AcDbPlotSettings
  1

  2

  4

  6

 40
0.0
 41
0.0
 42
0.0
 43
0.0
 44
0.0
 45
0.0
 46
0.0
 47
0.0
 48
0.0
 49
0.0
140
0.0
141
0.0
142
1.0
143
1.0
 70
     0
 72
     0
 73
     0
 74
     0
  7

 75
     0
147
1.0
148
0.0
149
0.0
100
AcDbLayout
  1
Layout1
 70
     0
 71
     0
 10
0.0
 20
0.0
 11
0.0
 21
0.0
 12
0.0
 22
0.0
 32
0.0
 14
0.0
 24
0.0
 34
0.0
 15
0.0
 25
0.0
 35
0.0
146
0.0
 13
0.0
 23
0.0
 33
0.0
 16
0.0
 26
0.0
 36
0.0
 17
0.0
 27
0.0
 37
0.0
 76
     0
330
B
331
0
345
0
346
0
  0
DICTIONARY
  5
1E
102
{ACAD_REACTORS
330
19
102
}
100
AcDbDictionary
280
     0
281
     1
  3
Layout1
350
21
  3
Model
350
20
  0
DICTIONARY
  5
22
102
{ACAD_REACTORS
330
19
102
}
100
AcDbDictionary
280
     0
281
     1
  0
ENDSEC
  0
EOF
