G04*
G04 #@! TF.GenerationSoftware,Altium Limited,Altium Designer,20.0.10 (225)*
G04*
G04 Layer_Physical_Order=5*
G04 Layer_Color=8388736*
%FSLAX25Y25*%
%MOIN*%
G70*
G01*
G75*
%ADD281C,0.07874*%
%ADD283C,0.03937*%
%ADD334C,0.03543*%
%ADD339C,0.05512*%
%ADD349C,0.02362*%
%ADD350C,0.04724*%
%ADD351C,0.04000*%
%ADD352C,0.05118*%
%ADD353O,0.04331X0.09055*%
%ADD354C,0.14370*%
%ADD355C,0.05118*%
%ADD356C,0.02375*%
%ADD357C,0.05575*%
%ADD358C,0.11063*%
%ADD359C,0.14094*%
%ADD360C,0.04961*%
%ADD361C,0.07874*%
%ADD362C,0.02756*%
%ADD366R,0.10474X0.18012*%
G36*
X55551Y472441D02*
X55551Y344291D01*
X178563Y344291D01*
X178563Y384376D01*
X162900Y400039D01*
Y472441D01*
X55551Y472441D01*
D02*
G37*
G36*
X603736Y148457D02*
X595862D01*
Y156331D01*
X603736D01*
Y148457D01*
D02*
G37*
%LPC*%
G36*
X600582Y154087D02*
X600553D01*
X600414Y154083D01*
X600287Y154069D01*
X600163Y154047D01*
X600047Y154018D01*
X599941Y153985D01*
X599839Y153945D01*
X599748Y153905D01*
X599664Y153865D01*
X599592Y153821D01*
X599526Y153781D01*
X599468Y153745D01*
X599421Y153708D01*
X599384Y153679D01*
X599359Y153657D01*
X599341Y153643D01*
X599337Y153639D01*
X599253Y153552D01*
X599180Y153464D01*
X599119Y153373D01*
X599064Y153279D01*
X599020Y153188D01*
X598980Y153097D01*
X598951Y153009D01*
X598926Y152926D01*
X598907Y152849D01*
X598893Y152776D01*
X598882Y152715D01*
X598875Y152656D01*
X598871Y152613D01*
X598867Y152580D01*
Y152489D01*
X598875Y152427D01*
X598893Y152303D01*
X598918Y152194D01*
X598933Y152139D01*
X598947Y152092D01*
X598966Y152048D01*
X598980Y152008D01*
X598995Y151976D01*
X599006Y151943D01*
X599017Y151921D01*
X599024Y151903D01*
X599027Y151892D01*
X599031Y151888D01*
X598172Y152045D01*
Y153865D01*
X597269D01*
Y150702D01*
Y151313D01*
X599890Y150818D01*
X600003Y151597D01*
X599937Y151659D01*
X599883Y151725D01*
X599832Y151790D01*
X599792Y151852D01*
X599755Y151917D01*
X599726Y151979D01*
X599701Y152038D01*
X599683Y152096D01*
X599664Y152147D01*
X599654Y152194D01*
X599646Y152238D01*
X599643Y152274D01*
X599639Y152303D01*
X599635Y152325D01*
Y152343D01*
X599639Y152405D01*
X599646Y152463D01*
X599657Y152514D01*
X599672Y152569D01*
X599708Y152660D01*
X599730Y152700D01*
X599752Y152736D01*
X599774Y152769D01*
X599796Y152798D01*
X599814Y152824D01*
X599832Y152846D01*
X599847Y152860D01*
X599857Y152871D01*
X599865Y152878D01*
X599868Y152882D01*
X599916Y152918D01*
X599967Y152951D01*
X600018Y152980D01*
X600076Y153006D01*
X600134Y153024D01*
X600192Y153042D01*
X600305Y153068D01*
X600360Y153075D01*
X600407Y153082D01*
X600451Y153086D01*
X600491Y153089D01*
X600524Y153093D01*
X600545D01*
X600564D01*
X600567D01*
X600658Y153089D01*
X600742Y153086D01*
X600822Y153075D01*
X600895Y153060D01*
X600960Y153046D01*
X601022Y153028D01*
X601077Y153006D01*
X601128Y152988D01*
X601171Y152969D01*
X601208Y152947D01*
X601241Y152929D01*
X601266Y152915D01*
X601288Y152900D01*
X601302Y152893D01*
X601310Y152886D01*
X601313Y152882D01*
X601357Y152842D01*
X601394Y152802D01*
X601426Y152758D01*
X601455Y152715D01*
X601477Y152671D01*
X601499Y152631D01*
X601528Y152551D01*
X601543Y152478D01*
X601550Y152449D01*
X601554Y152423D01*
X601557Y152401D01*
Y152372D01*
X601554Y152325D01*
X601550Y152278D01*
X601528Y152187D01*
X601499Y152107D01*
X601463Y152038D01*
X601426Y151983D01*
X601412Y151957D01*
X601397Y151939D01*
X601386Y151925D01*
X601375Y151914D01*
X601372Y151907D01*
X601368Y151903D01*
X601332Y151866D01*
X601292Y151834D01*
X601208Y151783D01*
X601121Y151739D01*
X601037Y151706D01*
X600964Y151684D01*
X600931Y151677D01*
X600906Y151673D01*
X600884Y151666D01*
X600866D01*
X600855Y151663D01*
X600851D01*
X600953Y150702D01*
X601070Y150720D01*
X601175Y150749D01*
X601281Y150782D01*
X601375Y150818D01*
X601466Y150862D01*
X601546Y150906D01*
X601623Y150949D01*
X601692Y150996D01*
X601754Y151040D01*
X601805Y151084D01*
X601852Y151120D01*
X601889Y151157D01*
X601918Y151186D01*
X601939Y151208D01*
X601954Y151222D01*
X601958Y151226D01*
X602023Y151310D01*
X602081Y151400D01*
X602129Y151495D01*
X602173Y151590D01*
X602209Y151684D01*
X602238Y151779D01*
X602263Y151870D01*
X602282Y151957D01*
X602296Y152041D01*
X602311Y152118D01*
X602318Y152187D01*
X602322Y152245D01*
X602325Y152296D01*
X602329Y152332D01*
Y150702D01*
Y152362D01*
X602325Y152442D01*
X602322Y152522D01*
X602300Y152671D01*
X602267Y152813D01*
X602223Y152944D01*
X602176Y153064D01*
X602118Y153177D01*
X602060Y153279D01*
X601994Y153370D01*
X601932Y153450D01*
X601874Y153523D01*
X601816Y153585D01*
X601768Y153632D01*
X601725Y153672D01*
X601692Y153701D01*
X601670Y153716D01*
X601663Y153723D01*
X601568Y153788D01*
X601474Y153843D01*
X601379Y153890D01*
X601284Y153934D01*
X601190Y153970D01*
X601099Y153999D01*
X601008Y154021D01*
X600924Y154043D01*
X600847Y154058D01*
X600775Y154069D01*
X600713Y154076D01*
X600658Y154079D01*
X600615Y154083D01*
X600582Y154087D01*
D02*
G37*
%LPD*%
D281*
X217520Y100065D02*
X218701Y101246D01*
X39388Y302658D02*
X45374D01*
X51575Y308858D01*
Y337451D01*
X130905Y253740D02*
X135925Y258760D01*
X172441D01*
X218701Y108760D02*
Y130807D01*
X216142Y133366D02*
X218701Y130807D01*
X189582Y133366D02*
X216142D01*
X1870Y302658D02*
X39388D01*
X115945Y271063D02*
Y357283D01*
X113386Y268504D02*
X115945Y271063D01*
X199016Y73147D02*
Y81561D01*
X217520Y100065D01*
X130905Y164567D02*
Y253740D01*
X484244Y287224D02*
Y322147D01*
X170634Y149902D02*
X201685D01*
X228767D01*
X130905Y164567D02*
X145571Y149902D01*
X170634D01*
X172441Y258760D02*
X181398Y267717D01*
X181398Y381348D02*
X181398Y267717D01*
X162900Y399845D02*
X181398Y381348D01*
X484699Y287224D02*
X501933Y304458D01*
X406122Y287224D02*
X484699D01*
X380610Y261713D02*
X406122Y287224D01*
X321067Y261713D02*
X380610D01*
X293799Y234444D02*
X321067Y261713D01*
X293799Y149803D02*
Y234444D01*
X289862Y145866D02*
X293799Y149803D01*
X232803Y145866D02*
X289862D01*
X228767Y149902D02*
X232803Y145866D01*
X113386Y157776D02*
Y268504D01*
Y157776D02*
X137795Y133366D01*
X189582D01*
X199016Y2091D02*
Y72714D01*
X51575Y337451D02*
X57529Y343405D01*
Y385702D01*
X454824Y443642D02*
Y470276D01*
Y443642D02*
X463097Y435369D01*
Y396056D02*
Y435369D01*
Y396056D02*
X484244Y374909D01*
Y322147D02*
Y374909D01*
Y322147D02*
X501933Y304458D01*
X500689Y304429D02*
X544429D01*
X567200Y327200D01*
X567200Y470276D02*
X567200Y327200D01*
X576356Y318044D01*
X558044Y318044D02*
X627953D01*
X218701Y101246D02*
Y108760D01*
D283*
X100Y296750D02*
Y296900D01*
X51200Y472441D02*
X57529D01*
X162900Y399845D02*
Y442800D01*
Y457190D01*
X161300Y458790D02*
X162900Y457190D01*
X161300Y458790D02*
Y472500D01*
X57529Y385702D02*
Y450171D01*
Y472441D01*
D334*
X594488Y420866D02*
D03*
X586305Y416142D02*
D03*
Y406693D02*
D03*
X594488Y401968D02*
D03*
X602671Y406693D02*
D03*
Y416142D02*
D03*
X394010Y416142D02*
D03*
Y406693D02*
D03*
X385827Y401968D02*
D03*
X377644Y406693D02*
D03*
Y416142D02*
D03*
X385827Y420866D02*
D03*
X185039D02*
D03*
X176856Y416142D02*
D03*
Y406693D02*
D03*
X185039Y401968D02*
D03*
X193222Y406693D02*
D03*
Y416142D02*
D03*
X35742Y416142D02*
D03*
Y406693D02*
D03*
X27559Y401968D02*
D03*
X19376Y406693D02*
D03*
Y416142D02*
D03*
X27559Y420866D02*
D03*
Y107874D02*
D03*
X19376Y103149D02*
D03*
Y93701D02*
D03*
X27559Y88976D02*
D03*
X35742Y93701D02*
D03*
Y103149D02*
D03*
X193222D02*
D03*
Y93701D02*
D03*
X185039Y88976D02*
D03*
X176856Y93701D02*
D03*
Y103149D02*
D03*
X185039Y107874D02*
D03*
X307087D02*
D03*
X298904Y103149D02*
D03*
Y93701D02*
D03*
X307087Y88976D02*
D03*
X315270Y93701D02*
D03*
Y103149D02*
D03*
X610545D02*
D03*
Y93701D02*
D03*
X602362Y88976D02*
D03*
X594179Y93701D02*
D03*
Y103149D02*
D03*
X602362Y107874D02*
D03*
D339*
X457913Y14370D02*
D03*
X427913Y24370D02*
D03*
X457913D02*
D03*
X447913D02*
D03*
Y14370D02*
D03*
X427913D02*
D03*
X92243Y15376D02*
D03*
X102243D02*
D03*
X32500Y64370D02*
D03*
Y44370D02*
D03*
Y54370D02*
D03*
X22500D02*
D03*
Y64370D02*
D03*
X32500Y34370D02*
D03*
X22500D02*
D03*
X32500Y14370D02*
D03*
Y24370D02*
D03*
X22500Y44370D02*
D03*
Y24370D02*
D03*
X208611Y211839D02*
D03*
X198611D02*
D03*
Y241839D02*
D03*
X208611D02*
D03*
X198611Y231839D02*
D03*
X208611Y221839D02*
D03*
X198611D02*
D03*
X254125Y104192D02*
D03*
X264125D02*
D03*
X213433Y174767D02*
D03*
Y164767D02*
D03*
X606712Y239514D02*
D03*
X587027D02*
D03*
D349*
X122815Y346568D02*
D03*
X157053Y356838D02*
D03*
X151181Y356894D02*
D03*
X113288Y354718D02*
D03*
X111702Y356838D02*
D03*
X121142Y348241D02*
D03*
X79331Y356813D02*
D03*
X74508D02*
D03*
X246651Y392182D02*
D03*
X250214D02*
D03*
X248435Y396021D02*
D03*
X251998D02*
D03*
X248435Y388344D02*
D03*
X251998D02*
D03*
X253777Y392182D02*
D03*
X360630Y409921D02*
D03*
X364469Y408142D02*
D03*
Y404578D02*
D03*
X356791Y408142D02*
D03*
Y404578D02*
D03*
X360630Y406358D02*
D03*
Y402795D02*
D03*
X336163D02*
D03*
Y406358D02*
D03*
X332325Y404578D02*
D03*
Y408142D02*
D03*
X340002Y404578D02*
D03*
Y408142D02*
D03*
X336163Y409921D02*
D03*
X287445D02*
D03*
X291283Y408142D02*
D03*
Y404578D02*
D03*
X283606Y408142D02*
D03*
Y404578D02*
D03*
X287445Y406358D02*
D03*
Y402795D02*
D03*
X311705D02*
D03*
Y406358D02*
D03*
X307866Y404578D02*
D03*
Y408142D02*
D03*
X315543Y404578D02*
D03*
Y408142D02*
D03*
X311705Y409921D02*
D03*
X74508Y353445D02*
D03*
X94402Y316213D02*
D03*
X146287Y325689D02*
D03*
X94709Y298919D02*
D03*
X92335Y317894D02*
D03*
X66142Y317886D02*
D03*
X100614Y276949D02*
D03*
X102583Y298919D02*
D03*
X100607Y297484D02*
D03*
X102583Y278454D02*
D03*
X102346Y273820D02*
D03*
X96677Y297343D02*
D03*
Y276949D02*
D03*
X159901D02*
D03*
Y297343D02*
D03*
X157933Y298919D02*
D03*
X165570Y273820D02*
D03*
X165807Y278454D02*
D03*
X171771Y290886D02*
D03*
X163831Y297484D02*
D03*
X165807Y298919D02*
D03*
X163838Y276949D02*
D03*
X70052Y317758D02*
D03*
X68209Y316213D02*
D03*
X96272Y317788D02*
D03*
X144712Y327559D02*
D03*
X144614Y323622D02*
D03*
X172767Y329528D02*
D03*
X171063Y323622D02*
D03*
X172736Y325689D02*
D03*
X171161Y327559D02*
D03*
X205127Y378806D02*
D03*
Y375656D02*
D03*
Y372507D02*
D03*
X209458Y378806D02*
D03*
X205127Y381956D02*
D03*
Y385105D02*
D03*
X200797Y378806D02*
D03*
X208447Y331638D02*
D03*
X212974D02*
D03*
X210711Y327898D02*
D03*
Y335378D02*
D03*
X238824Y171055D02*
D03*
X242761D02*
D03*
X238824Y167118D02*
D03*
X242761D02*
D03*
X246013Y370733D02*
D03*
X250344D02*
D03*
X246013Y375063D02*
D03*
X241683Y370733D02*
D03*
X246013Y366402D02*
D03*
X166198Y235408D02*
D03*
Y245250D02*
D03*
X169112Y240329D02*
D03*
X163285D02*
D03*
X412993Y323512D02*
D03*
X403151D02*
D03*
X408072Y326426D02*
D03*
Y320599D02*
D03*
X432634Y70177D02*
D03*
D350*
X625984Y0D02*
X627003Y134D01*
X627952Y527D01*
X628768Y1153D01*
X629393Y1969D01*
X629787Y2918D01*
X629921Y3937D01*
Y468504D02*
X629787Y469523D01*
X629393Y470472D01*
X628768Y471288D01*
X627952Y471913D01*
X627003Y472307D01*
X625984Y472441D01*
X3937D02*
X2918Y472307D01*
X1969Y471913D01*
X1153Y471288D01*
X527Y470472D01*
X134Y469523D01*
X0Y468504D01*
Y3937D02*
X134Y2918D01*
X527Y1969D01*
X1153Y1153D01*
X1969Y527D01*
X2918Y134D01*
X3937Y0D01*
X629921Y3937D02*
Y468504D01*
X3937Y472441D02*
X625984D01*
X0Y3937D02*
Y468504D01*
X3937Y0D02*
X625984D01*
D351*
X0Y3937D02*
X134Y2918D01*
X527Y1969D01*
X1153Y1153D01*
X1969Y527D01*
X2918Y134D01*
X3937Y0D01*
Y472441D02*
X2918Y472307D01*
X1969Y471913D01*
X1153Y471288D01*
X527Y470472D01*
X134Y469523D01*
X0Y468504D01*
X629921D02*
X629787Y469523D01*
X629393Y470472D01*
X628768Y471288D01*
X627952Y471913D01*
X627003Y472307D01*
X625984Y472441D01*
Y0D02*
X627003Y134D01*
X627952Y527D01*
X628768Y1153D01*
X629393Y1969D01*
X629787Y2918D01*
X629921Y3937D01*
Y468504D01*
X3937Y472441D02*
X625984D01*
X0Y3937D02*
Y468504D01*
X3937Y0D02*
X625984D01*
D352*
X590108Y455861D02*
D03*
X607431D02*
D03*
X21358Y455862D02*
D03*
X38681D02*
D03*
D353*
X584400Y446707D02*
D03*
Y464424D02*
D03*
X613140D02*
D03*
Y446707D02*
D03*
X15650Y446709D02*
D03*
Y464425D02*
D03*
X44390D02*
D03*
Y446709D02*
D03*
D354*
X76100Y450400D02*
D03*
X106100D02*
D03*
X563400D02*
D03*
X523400D02*
D03*
X467366Y450402D02*
D03*
X507366D02*
D03*
X122137D02*
D03*
X152137D02*
D03*
D355*
X83600Y415400D02*
D03*
X88600Y425400D02*
D03*
X93600Y415400D02*
D03*
X98600Y425400D02*
D03*
X530900D02*
D03*
X535900Y415400D02*
D03*
X555900D02*
D03*
X545900D02*
D03*
X540900Y425400D02*
D03*
X484866Y425402D02*
D03*
X489866Y415402D02*
D03*
X494866Y425402D02*
D03*
X479866Y415402D02*
D03*
X474866Y425402D02*
D03*
X129637Y415402D02*
D03*
X134637Y425402D02*
D03*
X139637Y415402D02*
D03*
X144637Y425402D02*
D03*
D356*
X248244Y414330D02*
D03*
Y421810D02*
D03*
X250409Y418070D02*
D03*
X246079D02*
D03*
X208867Y413780D02*
D03*
X213198D02*
D03*
X211033Y417520D02*
D03*
Y410040D02*
D03*
D357*
X409489Y433622D02*
D03*
X421300D02*
D03*
X433111D02*
D03*
Y445433D02*
D03*
X421300D02*
D03*
X409489D02*
D03*
X283124Y445441D02*
D03*
X294935D02*
D03*
X306746D02*
D03*
X342179D02*
D03*
X330368D02*
D03*
X365801D02*
D03*
X283124Y433642D02*
D03*
X294935D02*
D03*
X306746D02*
D03*
X342179D02*
D03*
X330368D02*
D03*
X365801D02*
D03*
X318557Y445441D02*
D03*
X353990D02*
D03*
X318557Y433642D02*
D03*
X353990D02*
D03*
X211565Y433622D02*
D03*
X223376D02*
D03*
X235187D02*
D03*
Y445433D02*
D03*
X223376D02*
D03*
X211565D02*
D03*
X181890Y433622D02*
D03*
Y445433D02*
D03*
D358*
X401024Y462441D02*
D03*
X441576D02*
D03*
X274659Y462449D02*
D03*
X374265D02*
D03*
X203100Y462441D02*
D03*
X243651D02*
D03*
X190355Y462441D02*
D03*
X173425D02*
D03*
D359*
X594488Y411417D02*
D03*
X385827Y411417D02*
D03*
X185039D02*
D03*
X27559Y411417D02*
D03*
Y98425D02*
D03*
X185039D02*
D03*
X307087D02*
D03*
X602362D02*
D03*
D360*
X379331Y24370D02*
D03*
X409331Y14370D02*
D03*
X389331Y24370D02*
D03*
X359331D02*
D03*
X369331D02*
D03*
X349331D02*
D03*
X339331Y14370D02*
D03*
Y24370D02*
D03*
X399331Y14370D02*
D03*
X389331D02*
D03*
X359331D02*
D03*
X349331D02*
D03*
X379331D02*
D03*
X369331D02*
D03*
X329331Y24370D02*
D03*
Y14370D02*
D03*
X496504Y14370D02*
D03*
X506504D02*
D03*
X476504D02*
D03*
X486504D02*
D03*
X476504Y24370D02*
D03*
X486504D02*
D03*
X496504D02*
D03*
X506504D02*
D03*
X546504Y14370D02*
D03*
X556504D02*
D03*
X526504D02*
D03*
X536504D02*
D03*
X566504D02*
D03*
X576504D02*
D03*
X516504Y24370D02*
D03*
Y14370D02*
D03*
X526504Y24370D02*
D03*
X546504D02*
D03*
X536504D02*
D03*
X566504D02*
D03*
X586504Y14370D02*
D03*
X556504Y24370D02*
D03*
D361*
X552742Y239514D02*
D03*
D362*
X495204Y260999D02*
D03*
X538897Y345669D02*
D03*
X538878Y342815D02*
D03*
X406162Y408622D02*
D03*
X423917D02*
D03*
X400591Y371358D02*
D03*
X404033Y356416D02*
D03*
X404088Y360236D02*
D03*
X393602Y344587D02*
D03*
X542618Y267600D02*
D03*
X341737Y57443D02*
D03*
X70741Y93901D02*
D03*
X89075Y31201D02*
D03*
X64084Y58275D02*
D03*
X108476Y354388D02*
D03*
X533600Y102339D02*
D03*
X502854Y80413D02*
D03*
X406942Y81857D02*
D03*
X469482Y89205D02*
D03*
X483366Y89468D02*
D03*
X482275Y92353D02*
D03*
X498492Y157416D02*
D03*
X447858Y138073D02*
D03*
X471294Y154505D02*
D03*
X488386Y150689D02*
D03*
X470897Y135922D02*
D03*
X489567Y136417D02*
D03*
X523528Y136963D02*
D03*
X499260Y121752D02*
D03*
X434446Y112480D02*
D03*
X415158Y86910D02*
D03*
X541018Y162254D02*
D03*
X435392Y162867D02*
D03*
X552641Y143209D02*
D03*
X497581Y138851D02*
D03*
X473400Y141467D02*
D03*
X475674Y143561D02*
D03*
X471574Y145767D02*
D03*
X528996Y141828D02*
D03*
X517672Y406850D02*
D03*
X518898Y399508D02*
D03*
X524655Y406850D02*
D03*
X524477Y399523D02*
D03*
X87118Y335111D02*
D03*
X193240Y376837D02*
D03*
X218796Y341453D02*
D03*
Y344891D02*
D03*
Y348330D02*
D03*
X211565Y344891D02*
D03*
Y341453D02*
D03*
X215180D02*
D03*
Y344891D02*
D03*
Y348330D02*
D03*
X211565D02*
D03*
X479260Y253900D02*
D03*
X467274Y256346D02*
D03*
X495204D02*
D03*
X311891Y170280D02*
D03*
X317323Y151476D02*
D03*
X352756Y198327D02*
D03*
X355413Y201083D02*
D03*
X126279Y293334D02*
D03*
X126498Y276516D02*
D03*
X131004Y269853D02*
D03*
X133366Y292717D02*
D03*
X55139Y289344D02*
D03*
X201360Y120813D02*
D03*
X83659Y273819D02*
D03*
X62569Y197678D02*
D03*
X68209Y297484D02*
D03*
Y292717D02*
D03*
X86205Y296654D02*
D03*
X107732Y278454D02*
D03*
X91713Y277264D02*
D03*
X82737Y278937D02*
D03*
X136221Y298228D02*
D03*
X133366Y307185D02*
D03*
X149259Y279223D02*
D03*
X154937Y277264D02*
D03*
X170956Y278454D02*
D03*
X149428Y296654D02*
D03*
X583838Y283395D02*
D03*
X581775Y367357D02*
D03*
Y364172D02*
D03*
Y360986D02*
D03*
X595958Y371455D02*
D03*
X614037Y278543D02*
D03*
X603740Y286614D02*
D03*
X593701Y286221D02*
D03*
X588752Y286417D02*
D03*
X613173Y355805D02*
D03*
X588836Y341471D02*
D03*
X592772Y371455D02*
D03*
X607113Y426806D02*
D03*
X604163D02*
D03*
X583758Y335529D02*
D03*
X612976Y347967D02*
D03*
X22119Y371519D02*
D03*
X25304D02*
D03*
X38428Y426870D02*
D03*
X35479D02*
D03*
X42520Y355870D02*
D03*
X18183Y341535D02*
D03*
X42323Y348031D02*
D03*
X11122Y361051D02*
D03*
Y364236D02*
D03*
Y367421D02*
D03*
X13105Y335594D02*
D03*
X127342Y320768D02*
D03*
X153543Y321028D02*
D03*
X83517Y329389D02*
D03*
X83381Y324311D02*
D03*
X65059Y335658D02*
D03*
X167492Y340238D02*
D03*
X156398Y339450D02*
D03*
X138436Y341544D02*
D03*
X133465D02*
D03*
X106731Y331933D02*
D03*
X106677Y321429D02*
D03*
X163681Y353370D02*
D03*
X164173Y253795D02*
D03*
X156764D02*
D03*
X160469D02*
D03*
X323063Y364866D02*
D03*
X274016Y363959D02*
D03*
X233185Y362081D02*
D03*
X194748Y380863D02*
D03*
X271654Y345165D02*
D03*
X260925Y208268D02*
D03*
X251559Y236430D02*
D03*
X249130Y331402D02*
D03*
Y327963D02*
D03*
X252746D02*
D03*
Y331402D02*
D03*
X245691D02*
D03*
X252746Y324525D02*
D03*
X249130D02*
D03*
X252746Y321086D02*
D03*
X249130D02*
D03*
X245691Y324525D02*
D03*
Y321086D02*
D03*
Y327963D02*
D03*
X249130Y345008D02*
D03*
Y341569D02*
D03*
X252746D02*
D03*
Y345008D02*
D03*
X245691D02*
D03*
X252746Y338131D02*
D03*
X249130D02*
D03*
X252746Y334692D02*
D03*
X249130D02*
D03*
X245691Y338131D02*
D03*
Y334692D02*
D03*
Y341569D02*
D03*
X259861Y340023D02*
D03*
Y333146D02*
D03*
Y336584D02*
D03*
X263300Y333146D02*
D03*
X266916D02*
D03*
X263300Y336584D02*
D03*
X266916D02*
D03*
X268701Y229587D02*
D03*
Y199665D02*
D03*
Y204665D02*
D03*
Y209665D02*
D03*
Y214665D02*
D03*
X257874Y215748D02*
D03*
X315632Y350116D02*
D03*
X325008Y343996D02*
D03*
X321358Y352362D02*
D03*
X296752Y350271D02*
D03*
X242137Y360161D02*
D03*
X284862Y354918D02*
D03*
X309161Y355020D02*
D03*
X266916Y353777D02*
D03*
X298763Y363991D02*
D03*
X348031Y364142D02*
D03*
X333550Y355211D02*
D03*
X286640Y389804D02*
D03*
X283201D02*
D03*
X290078D02*
D03*
Y393420D02*
D03*
X283201D02*
D03*
X286640D02*
D03*
X293517D02*
D03*
Y389804D02*
D03*
X289901Y379489D02*
D03*
X293517D02*
D03*
Y386366D02*
D03*
Y382927D02*
D03*
X289901D02*
D03*
Y386366D02*
D03*
X293517Y376050D02*
D03*
Y372612D02*
D03*
X289901D02*
D03*
Y376050D02*
D03*
X294580Y420646D02*
D03*
X290964D02*
D03*
Y413769D02*
D03*
Y417208D02*
D03*
X294580D02*
D03*
Y413769D02*
D03*
X290964Y424085D02*
D03*
Y427523D02*
D03*
X294580D02*
D03*
Y424085D02*
D03*
Y403454D02*
D03*
Y406892D02*
D03*
Y410331D02*
D03*
X284087Y413769D02*
D03*
X287526D02*
D03*
X310939Y389907D02*
D03*
X307500D02*
D03*
X314377D02*
D03*
Y393522D02*
D03*
X307500D02*
D03*
X310939D02*
D03*
X317816D02*
D03*
Y389907D02*
D03*
X314200Y379591D02*
D03*
X317816D02*
D03*
Y386468D02*
D03*
Y383030D02*
D03*
X314200D02*
D03*
Y386468D02*
D03*
X317816Y376153D02*
D03*
Y372714D02*
D03*
X314200D02*
D03*
Y376153D02*
D03*
X318879Y420749D02*
D03*
X315264D02*
D03*
Y413872D02*
D03*
Y417310D02*
D03*
X318879D02*
D03*
Y413872D02*
D03*
X315264Y424187D02*
D03*
Y427626D02*
D03*
X318879D02*
D03*
Y424187D02*
D03*
Y403556D02*
D03*
Y406995D02*
D03*
Y410433D02*
D03*
X308386Y413872D02*
D03*
X311825D02*
D03*
X335328Y390098D02*
D03*
X331890D02*
D03*
X338767D02*
D03*
Y393714D02*
D03*
X331890D02*
D03*
X335328D02*
D03*
X342205D02*
D03*
Y390098D02*
D03*
X338589Y379783D02*
D03*
X342205D02*
D03*
Y386660D02*
D03*
Y383221D02*
D03*
X338589D02*
D03*
Y386660D02*
D03*
X342205Y376344D02*
D03*
Y372905D02*
D03*
X338589D02*
D03*
Y376344D02*
D03*
X343269Y420940D02*
D03*
X339653D02*
D03*
Y414063D02*
D03*
Y417501D02*
D03*
X343269D02*
D03*
Y414063D02*
D03*
X339653Y424378D02*
D03*
Y427817D02*
D03*
X343269D02*
D03*
Y424378D02*
D03*
Y403748D02*
D03*
Y407186D02*
D03*
Y410625D02*
D03*
X332776Y414063D02*
D03*
X336214D02*
D03*
X361030Y413872D02*
D03*
X357592D02*
D03*
X368084Y410433D02*
D03*
Y406995D02*
D03*
Y403556D02*
D03*
Y424187D02*
D03*
Y427626D02*
D03*
X364469D02*
D03*
Y424187D02*
D03*
X368084Y413872D02*
D03*
Y417310D02*
D03*
X364469D02*
D03*
Y413872D02*
D03*
Y420749D02*
D03*
X368084D02*
D03*
X363405Y376153D02*
D03*
Y372714D02*
D03*
X367021D02*
D03*
Y376153D02*
D03*
X363405Y386468D02*
D03*
Y383030D02*
D03*
X367021D02*
D03*
Y386468D02*
D03*
Y379591D02*
D03*
X363405D02*
D03*
X367021Y389907D02*
D03*
Y393522D02*
D03*
X360144D02*
D03*
X356705D02*
D03*
X363582D02*
D03*
Y389907D02*
D03*
X356705D02*
D03*
X360144D02*
D03*
X358366Y355020D02*
D03*
X199902Y128543D02*
D03*
X236129D02*
D03*
X263959Y236319D02*
D03*
X258760Y236195D02*
D03*
X268406Y188287D02*
D03*
X256201Y188299D02*
D03*
X259941Y198130D02*
D03*
X265059D02*
D03*
X232185Y167284D02*
D03*
X366240Y241020D02*
D03*
X362500Y227854D02*
D03*
X362205Y232972D02*
D03*
X351378Y216634D02*
D03*
X326792Y191052D02*
D03*
X321857Y191050D02*
D03*
X396372Y216648D02*
D03*
X392037Y182825D02*
D03*
X393168Y185975D02*
D03*
X392587Y213844D02*
D03*
X392608Y209900D02*
D03*
X332382Y156595D02*
D03*
X344744Y131299D02*
D03*
X343209Y137008D02*
D03*
X333195Y117721D02*
D03*
X348047Y115318D02*
D03*
X336103Y120546D02*
D03*
X338334Y117048D02*
D03*
X328839Y129700D02*
D03*
X325098Y126181D02*
D03*
X381398Y234898D02*
D03*
X153279Y107874D02*
D03*
X127953Y106899D02*
D03*
X110000Y90630D02*
D03*
X111614Y97539D02*
D03*
X170589Y127536D02*
D03*
X197736Y118373D02*
D03*
X163725Y209361D02*
D03*
Y212800D02*
D03*
X167341Y202484D02*
D03*
X163725Y205923D02*
D03*
Y202484D02*
D03*
Y199046D02*
D03*
X167341D02*
D03*
X170956D02*
D03*
Y202484D02*
D03*
X167341Y212800D02*
D03*
Y209361D02*
D03*
Y205923D02*
D03*
X170956D02*
D03*
Y209361D02*
D03*
Y212800D02*
D03*
X173327Y225056D02*
D03*
X390522Y323513D02*
D03*
Y327128D02*
D03*
X435313Y328361D02*
D03*
X438752D02*
D03*
X442190D02*
D03*
Y324745D02*
D03*
X438752D02*
D03*
X435313D02*
D03*
X393960Y323513D02*
D03*
X397399D02*
D03*
Y327128D02*
D03*
X393960D02*
D03*
X445629Y328361D02*
D03*
X449067D02*
D03*
Y324745D02*
D03*
Y321129D02*
D03*
X445629D02*
D03*
X442190D02*
D03*
X445629Y324745D02*
D03*
X435313Y321129D02*
D03*
X438752D02*
D03*
X415024Y414948D02*
D03*
Y412106D02*
D03*
X412750Y371621D02*
D03*
Y368190D02*
D03*
X412206Y376132D02*
D03*
X413309Y360236D02*
D03*
X574935Y203956D02*
D03*
X552007Y199705D02*
D03*
X512092Y268550D02*
D03*
X507092Y268550D02*
D03*
X517092Y268550D02*
D03*
X438327Y226143D02*
D03*
X441766D02*
D03*
X445282Y226176D02*
D03*
X452336D02*
D03*
X448721D02*
D03*
X448687Y246907D02*
D03*
Y243469D02*
D03*
X452303D02*
D03*
Y246907D02*
D03*
X448721Y229626D02*
D03*
X452336Y233076D02*
D03*
Y229626D02*
D03*
Y239953D02*
D03*
Y236514D02*
D03*
X448721D02*
D03*
Y239953D02*
D03*
Y233076D02*
D03*
X582930Y75689D02*
D03*
X495586Y72736D02*
D03*
X457779Y78543D02*
D03*
X210345Y68861D02*
D03*
X217244Y11024D02*
D03*
X233563Y69318D02*
D03*
X90825Y38484D02*
D03*
X64395Y35236D02*
D03*
X66831Y37697D02*
D03*
X68996Y31563D02*
D03*
X71624Y34646D02*
D03*
X138225Y49705D02*
D03*
X136024Y36797D02*
D03*
X126043Y39370D02*
D03*
X90748Y27446D02*
D03*
X84941Y31201D02*
D03*
X76875Y34646D02*
D03*
X82346D02*
D03*
X100478Y51934D02*
D03*
X111954Y78286D02*
D03*
X160141Y215950D02*
D03*
X116535Y114571D02*
D03*
X201276Y111394D02*
D03*
X201076Y116240D02*
D03*
X107376Y117323D02*
D03*
X82382Y96522D02*
D03*
X80000Y99664D02*
D03*
X75318Y93799D02*
D03*
X338334Y138737D02*
D03*
X238976Y119487D02*
D03*
X234087Y111394D02*
D03*
X293419Y110960D02*
D03*
X272614Y92286D02*
D03*
X399037Y201690D02*
D03*
X385015Y310613D02*
D03*
X377476Y374004D02*
D03*
X465736Y238412D02*
D03*
X430315Y212106D02*
D03*
X432163Y317421D02*
D03*
X521949Y338878D02*
D03*
X507006Y339205D02*
D03*
X511656D02*
D03*
X517026Y339088D02*
D03*
X422269Y210385D02*
D03*
X445481Y202146D02*
D03*
X483300Y231000D02*
D03*
X441893Y202213D02*
D03*
X412300Y198716D02*
D03*
X409161Y199839D02*
D03*
X436047Y192098D02*
D03*
X432480D02*
D03*
X447064Y187632D02*
D03*
X502539Y169712D02*
D03*
X401131Y186810D02*
D03*
X399082Y198761D02*
D03*
X550700Y33446D02*
D03*
X466964Y27179D02*
D03*
Y29984D02*
D03*
Y23917D02*
D03*
X474646Y71483D02*
D03*
X472230Y74346D02*
D03*
X476187Y75185D02*
D03*
X454616Y45339D02*
D03*
X452389Y47802D02*
D03*
X560860Y53668D02*
D03*
X170276Y230785D02*
D03*
X163305D02*
D03*
X166929D02*
D03*
X173327Y228150D02*
D03*
X227691Y166169D02*
D03*
X228325Y160925D02*
D03*
X234774Y160827D02*
D03*
X240786D02*
D03*
X245829Y160925D02*
D03*
X129724Y69587D02*
D03*
X508726Y194517D02*
D03*
X494643Y337778D02*
D03*
X50440Y144779D02*
D03*
X47583D02*
D03*
X47626Y147887D02*
D03*
X50482D02*
D03*
X551719Y273173D02*
D03*
X534867Y202802D02*
D03*
X493253Y219788D02*
D03*
X485982Y219966D02*
D03*
X496692Y219788D02*
D03*
Y216350D02*
D03*
X482544D02*
D03*
X479105D02*
D03*
X485982D02*
D03*
X479105Y219966D02*
D03*
X482544D02*
D03*
X493253Y216350D02*
D03*
X489421D02*
D03*
X516469Y349853D02*
D03*
Y353469D02*
D03*
X519908D02*
D03*
X523346Y349853D02*
D03*
X519908D02*
D03*
X526785D02*
D03*
X530223D02*
D03*
Y353469D02*
D03*
X423043Y385345D02*
D03*
Y381914D02*
D03*
Y378483D02*
D03*
X416462Y384675D02*
D03*
X423043Y371621D02*
D03*
Y368190D02*
D03*
X416181D02*
D03*
X419612D02*
D03*
X430780Y376132D02*
D03*
X442527Y370536D02*
D03*
X435664D02*
D03*
X439095Y377398D02*
D03*
Y373967D02*
D03*
Y370536D02*
D03*
X39013Y144779D02*
D03*
X259861Y343461D02*
D03*
X263300Y350338D02*
D03*
Y353777D02*
D03*
Y346900D02*
D03*
X266916D02*
D03*
Y350338D02*
D03*
Y343461D02*
D03*
Y340023D02*
D03*
X263300D02*
D03*
Y343461D02*
D03*
X50499Y198417D02*
D03*
X53584Y201468D02*
D03*
X56208Y198516D02*
D03*
X59519Y201468D02*
D03*
X210546Y263805D02*
D03*
X217600Y270504D02*
D03*
Y274120D02*
D03*
X210546Y270682D02*
D03*
Y267243D02*
D03*
X214161D02*
D03*
Y270682D02*
D03*
X210546Y277559D02*
D03*
Y274120D02*
D03*
X214161D02*
D03*
Y277559D02*
D03*
X187910Y295034D02*
D03*
Y291595D02*
D03*
X191526D02*
D03*
Y295034D02*
D03*
X187910Y301911D02*
D03*
Y298472D02*
D03*
X191526D02*
D03*
Y301911D02*
D03*
X187910Y308788D02*
D03*
Y305349D02*
D03*
X191526D02*
D03*
Y308788D02*
D03*
Y315665D02*
D03*
Y319103D02*
D03*
Y312226D02*
D03*
X187910D02*
D03*
Y319103D02*
D03*
Y315665D02*
D03*
X445958Y382028D02*
D03*
X442527D02*
D03*
X439095D02*
D03*
X193508Y358512D02*
D03*
X189274Y380360D02*
D03*
X276894Y12700D02*
D03*
X285555Y12682D02*
D03*
X294217D02*
D03*
X220108Y368649D02*
D03*
X358805Y291073D02*
D03*
X423224Y347025D02*
D03*
X394965Y352675D02*
D03*
X413287D02*
D03*
X209064Y353777D02*
D03*
X197696Y358511D02*
D03*
X43618Y165211D02*
D03*
X39578Y188111D02*
D03*
X27592Y190557D02*
D03*
X25912Y172766D02*
D03*
X201685Y336723D02*
D03*
X202690Y364992D02*
D03*
X328680Y284995D02*
D03*
X333708D02*
D03*
X338708D02*
D03*
X343708D02*
D03*
X348708D02*
D03*
X353708D02*
D03*
X418731Y207919D02*
D03*
X424517Y188124D02*
D03*
X420131Y184319D02*
D03*
X546719Y273305D02*
D03*
X598870Y277500D02*
D03*
X522092Y268581D02*
D03*
X358752Y298094D02*
D03*
X320031Y294739D02*
D03*
X319769Y288440D02*
D03*
X366687Y306620D02*
D03*
X385015Y303470D02*
D03*
X366515Y300318D02*
D03*
X322283Y114724D02*
D03*
X330205Y114720D02*
D03*
X371742Y185528D02*
D03*
X429419Y145018D02*
D03*
X424104Y136657D02*
D03*
X422136Y139377D02*
D03*
X418394Y139479D02*
D03*
X418731Y135809D02*
D03*
X347932Y160783D02*
D03*
X349657Y177108D02*
D03*
X354643Y178504D02*
D03*
X278311Y107637D02*
D03*
X342087Y75482D02*
D03*
X338500Y72616D02*
D03*
X220744Y58938D02*
D03*
X259731Y57573D02*
D03*
X263995Y55472D02*
D03*
X347571Y81440D02*
D03*
X344455Y62718D02*
D03*
X379272Y106850D02*
D03*
X379774Y85854D02*
D03*
X305709Y69924D02*
D03*
X292642Y66518D02*
D03*
X306113Y75034D02*
D03*
X331720Y133053D02*
D03*
X334400Y136387D02*
D03*
X348047Y134800D02*
D03*
X352536Y131432D02*
D03*
X349390Y128894D02*
D03*
X352172Y126443D02*
D03*
X288311Y92737D02*
D03*
X259601Y84778D02*
D03*
X434734Y97007D02*
D03*
X425314Y96522D02*
D03*
X376644Y98976D02*
D03*
X442251Y96522D02*
D03*
X431388Y96062D02*
D03*
X366702Y114253D02*
D03*
X350000Y65600D02*
D03*
X351895Y62718D02*
D03*
X354882Y63349D02*
D03*
X298547Y24628D02*
D03*
Y35014D02*
D03*
X358664Y33188D02*
D03*
X322283Y43038D02*
D03*
X289886Y23821D02*
D03*
X303029Y34616D02*
D03*
X293440Y33830D02*
D03*
X285688Y32823D02*
D03*
X276845Y31518D02*
D03*
X272603Y27258D02*
D03*
X20400Y80133D02*
D03*
X28185Y273966D02*
D03*
X52928Y129507D02*
D03*
X14590Y124504D02*
D03*
X47500Y97831D02*
D03*
X83234Y68736D02*
D03*
X109000Y87630D02*
D03*
X49891Y34370D02*
D03*
X594346Y201936D02*
D03*
X594799Y210873D02*
D03*
X541450Y83981D02*
D03*
X409042Y84541D02*
D03*
X385800Y149822D02*
D03*
X494929Y152942D02*
D03*
X523502Y196949D02*
D03*
X409858Y41132D02*
D03*
X407402Y43463D02*
D03*
X405588Y46368D02*
D03*
X403842Y41717D02*
D03*
X347886Y87602D02*
D03*
X406071Y63468D02*
D03*
X399300Y63300D02*
D03*
X460600Y69300D02*
D03*
X58901Y110853D02*
D03*
X46303Y51100D02*
D03*
X113311Y35870D02*
D03*
X139739Y86430D02*
D03*
X143244Y92831D02*
D03*
X123533Y62416D02*
D03*
X131087Y98080D02*
D03*
X561334Y180826D02*
D03*
X560359Y204272D02*
D03*
X566879Y196788D02*
D03*
X188625Y13496D02*
D03*
X555400Y53481D02*
D03*
X553766Y56475D02*
D03*
X548958Y60593D02*
D03*
X372500Y37600D02*
D03*
X557157Y59800D02*
D03*
X526367Y185838D02*
D03*
X528564Y188546D02*
D03*
X412300Y183000D02*
D03*
X403100Y162700D02*
D03*
X565378Y191436D02*
D03*
X572377Y191136D02*
D03*
X477500Y147767D02*
D03*
X480400Y96700D02*
D03*
X490057Y88548D02*
D03*
X493872Y88168D02*
D03*
X488030Y95267D02*
D03*
X490057Y103100D02*
D03*
X476687Y106367D02*
D03*
X474215Y103258D02*
D03*
X484499Y108100D02*
D03*
X494288Y105861D02*
D03*
X489200Y110800D02*
D03*
X472509Y116121D02*
D03*
X515055Y63245D02*
D03*
X493300Y115900D02*
D03*
X486812Y116121D02*
D03*
X434823Y139700D02*
D03*
X432300Y142200D02*
D03*
X443992Y133841D02*
D03*
X447700D02*
D03*
X443992Y137753D02*
D03*
X519100Y161100D02*
D03*
X401860Y88258D02*
D03*
X401000Y166383D02*
D03*
X110000Y82430D02*
D03*
X107463Y76792D02*
D03*
X190176Y384712D02*
D03*
X189274Y373400D02*
D03*
Y365673D02*
D03*
X212039Y394490D02*
D03*
Y391456D02*
D03*
X388119Y147767D02*
D03*
X395600Y118600D02*
D03*
X392600Y116430D02*
D03*
X258621Y42503D02*
D03*
X220744Y37670D02*
D03*
X410000Y181200D02*
D03*
X437827Y152167D02*
D03*
X419802Y156567D02*
D03*
X422146Y159582D02*
D03*
X441200Y154500D02*
D03*
X487480Y50444D02*
D03*
X498726Y60316D02*
D03*
X454708Y70620D02*
D03*
X43185Y277600D02*
D03*
X13185Y283459D02*
D03*
X421545Y121242D02*
D03*
X543800Y118067D02*
D03*
X550100Y114967D02*
D03*
X505489Y113067D02*
D03*
X430624Y108838D02*
D03*
X426916Y106367D02*
D03*
X564891Y96046D02*
D03*
X564823Y102335D02*
D03*
X569200Y99067D02*
D03*
X568000Y105350D02*
D03*
X569200Y92896D02*
D03*
X550100Y86597D02*
D03*
X398000Y92067D02*
D03*
X397923Y88258D02*
D03*
X565520Y136867D02*
D03*
X562216Y133841D02*
D03*
X519041Y134167D02*
D03*
X521700Y155888D02*
D03*
X506600Y127567D02*
D03*
X437415Y165659D02*
D03*
X561700Y152867D02*
D03*
X551250Y155888D02*
D03*
X445994Y168027D02*
D03*
X561700Y127567D02*
D03*
X561800Y146467D02*
D03*
X569700Y147802D02*
D03*
X570100Y130567D02*
D03*
X80000Y31196D02*
D03*
X74375Y31821D02*
D03*
X55000Y36821D02*
D03*
X131250Y28071D02*
D03*
X155197Y32441D02*
D03*
Y27441D02*
D03*
Y22441D02*
D03*
Y17441D02*
D03*
X19050Y116891D02*
D03*
X249188Y90568D02*
D03*
X111875Y21196D02*
D03*
X14675Y133141D02*
D03*
X258563Y52443D02*
D03*
D366*
X491220Y304281D02*
D03*
M02*
