G04*
G04 #@! TF.GenerationSoftware,Altium Limited,Altium Designer,20.0.10 (225)*
G04*
G04 Layer_Physical_Order=3*
G04 Layer_Color=128*
%FSLAX25Y25*%
%MOIN*%
G70*
G01*
G75*
%ADD10C,0.00984*%
%ADD281C,0.07874*%
%ADD283C,0.03937*%
%ADD334C,0.03543*%
%ADD339C,0.05512*%
%ADD349C,0.02362*%
%ADD351C,0.04000*%
%ADD352C,0.05118*%
%ADD353O,0.04331X0.09055*%
%ADD354C,0.14370*%
%ADD355C,0.05118*%
%ADD356C,0.02375*%
%ADD357C,0.05575*%
%ADD358C,0.11063*%
%ADD359C,0.14094*%
%ADD360C,0.04961*%
%ADD361C,0.07874*%
%ADD362C,0.02756*%
%ADD363C,0.19685*%
G36*
X163091Y397835D02*
X178754Y382171D01*
X178754Y343406D01*
X116210D01*
X114399Y339885D01*
X51071Y339842D01*
X57179Y347499D01*
Y379389D01*
X56291Y380434D01*
Y470236D01*
X163091D01*
Y397835D01*
D02*
G37*
G36*
X16700Y325700D02*
X16000Y325000D01*
X7000Y316000D01*
X6100D01*
Y324684D01*
X5784Y325000D01*
X4700D01*
X5100Y336300D01*
X6100D01*
X16700Y325700D01*
D02*
G37*
G36*
X603736Y132709D02*
X595862D01*
Y140583D01*
X603736D01*
Y132709D01*
D02*
G37*
%LPC*%
G36*
X600802Y138319D02*
X600773D01*
X600689Y138315D01*
X600609Y138308D01*
X600533Y138293D01*
X600460Y138279D01*
X600391Y138260D01*
X600325Y138239D01*
X600267Y138213D01*
X600212Y138191D01*
X600165Y138166D01*
X600121Y138140D01*
X600081Y138119D01*
X600052Y138100D01*
X600027Y138086D01*
X600008Y138071D01*
X599998Y138064D01*
X599994Y138060D01*
X599936Y138009D01*
X599885Y137955D01*
X599834Y137900D01*
X599794Y137842D01*
X599754Y137787D01*
X599721Y137729D01*
X599692Y137671D01*
X599666Y137616D01*
X599645Y137565D01*
X599626Y137518D01*
X599608Y137478D01*
X599597Y137442D01*
X599590Y137409D01*
X599583Y137387D01*
X599579Y137372D01*
Y137369D01*
X599543Y137434D01*
X599503Y137496D01*
X599463Y137554D01*
X599419Y137609D01*
X599379Y137660D01*
X599335Y137707D01*
X599248Y137791D01*
X599157Y137860D01*
X599069Y137918D01*
X598982Y137966D01*
X598902Y138006D01*
X598822Y138035D01*
X598749Y138057D01*
X598687Y138075D01*
X598629Y138086D01*
X598582Y138093D01*
X598549Y138097D01*
X598527D01*
X598520D01*
X598432Y138093D01*
X598349Y138082D01*
X598269Y138064D01*
X598192Y138042D01*
X598119Y138013D01*
X598050Y137984D01*
X597985Y137951D01*
X597926Y137918D01*
X597872Y137886D01*
X597824Y137853D01*
X597785Y137824D01*
X597748Y137795D01*
X597719Y137773D01*
X597701Y137755D01*
X597686Y137744D01*
X597683Y137740D01*
X597603Y137656D01*
X597533Y137569D01*
X597471Y137474D01*
X597421Y137380D01*
X597377Y137285D01*
X597337Y137190D01*
X597308Y137099D01*
X597286Y137008D01*
X597264Y136925D01*
X597253Y136848D01*
X597242Y136779D01*
X597235Y136717D01*
X597231Y136670D01*
X597227Y136634D01*
Y136524D01*
X597235Y136448D01*
X597253Y136306D01*
X597264Y136240D01*
X597278Y136179D01*
X597289Y136120D01*
X597304Y136066D01*
X597319Y136018D01*
X597333Y135975D01*
X597348Y135938D01*
X597359Y135906D01*
X597369Y135880D01*
X597377Y135862D01*
X597380Y135851D01*
X597384Y135847D01*
X597446Y135727D01*
X597482Y135676D01*
X597519Y135625D01*
X597551Y135578D01*
X597588Y135534D01*
X597624Y135494D01*
X597657Y135461D01*
X597690Y135429D01*
X597719Y135399D01*
X597744Y135378D01*
X597770Y135360D01*
X597788Y135341D01*
X597803Y135330D01*
X597810Y135327D01*
X597814Y135323D01*
X597868Y135290D01*
X597923Y135257D01*
X598043Y135203D01*
X598167Y135156D01*
X598283Y135116D01*
X598334Y135097D01*
X598385Y135087D01*
X598429Y135072D01*
X598469Y135065D01*
X598502Y135057D01*
X598523Y135050D01*
X598542Y135046D01*
X598545D01*
X598695Y135935D01*
X598636Y135942D01*
X598578Y135953D01*
X598527Y135967D01*
X598480Y135982D01*
X598432Y136000D01*
X598392Y136018D01*
X598356Y136037D01*
X598323Y136055D01*
X598294Y136073D01*
X598269Y136088D01*
X598247Y136106D01*
X598229Y136117D01*
X598214Y136131D01*
X598203Y136138D01*
X598199Y136142D01*
X598196Y136146D01*
X598167Y136179D01*
X598138Y136215D01*
X598094Y136288D01*
X598065Y136361D01*
X598043Y136426D01*
X598028Y136484D01*
X598025Y136510D01*
Y136531D01*
X598021Y136546D01*
Y136572D01*
X598028Y136663D01*
X598047Y136739D01*
X598068Y136808D01*
X598098Y136866D01*
X598127Y136914D01*
X598148Y136946D01*
X598167Y136968D01*
X598174Y136976D01*
X598236Y137027D01*
X598301Y137063D01*
X598367Y137092D01*
X598432Y137110D01*
X598491Y137121D01*
X598513Y137125D01*
X598534D01*
X598553Y137128D01*
X598567D01*
X598574D01*
X598578D01*
X598633Y137125D01*
X598684Y137121D01*
X598735Y137110D01*
X598778Y137096D01*
X598862Y137063D01*
X598931Y137027D01*
X598960Y137005D01*
X598986Y136986D01*
X599008Y136968D01*
X599026Y136954D01*
X599040Y136939D01*
X599051Y136928D01*
X599055Y136925D01*
X599058Y136921D01*
X599091Y136881D01*
X599117Y136837D01*
X599139Y136790D01*
X599160Y136739D01*
X599190Y136641D01*
X599208Y136542D01*
X599215Y136499D01*
X599219Y136455D01*
X599222Y136419D01*
X599226Y136386D01*
Y136320D01*
X600012Y136215D01*
X599987Y136306D01*
X599968Y136390D01*
X599958Y136466D01*
X599947Y136531D01*
X599943Y136583D01*
Y136604D01*
X599939Y136623D01*
Y136655D01*
X599943Y136706D01*
X599950Y136757D01*
X599958Y136804D01*
X599972Y136848D01*
X600008Y136928D01*
X600045Y136997D01*
X600085Y137056D01*
X600103Y137077D01*
X600121Y137096D01*
X600136Y137114D01*
X600143Y137125D01*
X600150Y137128D01*
X600154Y137132D01*
X600194Y137169D01*
X600242Y137198D01*
X600289Y137223D01*
X600336Y137245D01*
X600431Y137281D01*
X600525Y137303D01*
X600565Y137314D01*
X600605Y137318D01*
X600642Y137321D01*
X600671Y137325D01*
X600697Y137329D01*
X600718D01*
X600729D01*
X600733D01*
X600802Y137325D01*
X600871Y137321D01*
X600933Y137311D01*
X600991Y137296D01*
X601046Y137281D01*
X601097Y137263D01*
X601140Y137245D01*
X601184Y137227D01*
X601221Y137205D01*
X601253Y137187D01*
X601279Y137169D01*
X601304Y137154D01*
X601323Y137139D01*
X601334Y137128D01*
X601341Y137125D01*
X601344Y137121D01*
X601384Y137081D01*
X601417Y137041D01*
X601450Y137001D01*
X601475Y136957D01*
X601497Y136914D01*
X601515Y136874D01*
X601541Y136794D01*
X601559Y136724D01*
X601563Y136695D01*
X601566Y136670D01*
X601570Y136648D01*
Y136619D01*
X601566Y136568D01*
X601563Y136521D01*
X601541Y136430D01*
X601512Y136349D01*
X601475Y136280D01*
X601443Y136222D01*
X601428Y136200D01*
X601414Y136182D01*
X601403Y136168D01*
X601392Y136157D01*
X601388Y136149D01*
X601384Y136146D01*
X601348Y136113D01*
X601308Y136080D01*
X601217Y136029D01*
X601126Y135986D01*
X601039Y135956D01*
X600999Y135942D01*
X600959Y135935D01*
X600926Y135924D01*
X600893Y135920D01*
X600868Y135913D01*
X600849D01*
X600838Y135909D01*
X600835D01*
X600951Y134974D01*
X601068Y134992D01*
X601177Y135017D01*
X601283Y135046D01*
X601377Y135083D01*
X601468Y135126D01*
X601555Y135170D01*
X601632Y135214D01*
X601701Y135261D01*
X601763Y135305D01*
X601821Y135348D01*
X601868Y135389D01*
X601905Y135421D01*
X601938Y135450D01*
X601960Y135476D01*
X601974Y135491D01*
X601978Y135494D01*
X602047Y135582D01*
X602109Y135672D01*
X602160Y135767D01*
X602203Y135862D01*
X602244Y135956D01*
X602276Y136051D01*
X602302Y136142D01*
X602320Y136229D01*
X602338Y136313D01*
X602349Y136386D01*
X602360Y136455D01*
X602364Y136513D01*
X602367Y136561D01*
X602371Y136597D01*
Y136626D01*
X602367Y136757D01*
X602349Y136885D01*
X602327Y137005D01*
X602298Y137118D01*
X602262Y137227D01*
X602222Y137325D01*
X602182Y137416D01*
X602138Y137500D01*
X602094Y137573D01*
X602051Y137642D01*
X602014Y137696D01*
X601978Y137744D01*
X601949Y137780D01*
X601923Y137809D01*
X601909Y137824D01*
X601905Y137831D01*
X601814Y137918D01*
X601723Y137991D01*
X601628Y138057D01*
X601530Y138115D01*
X601435Y138159D01*
X601341Y138199D01*
X601250Y138231D01*
X601162Y138257D01*
X601082Y138279D01*
X601010Y138293D01*
X600940Y138304D01*
X600886Y138312D01*
X600838Y138315D01*
X600802Y138319D01*
D02*
G37*
G36*
X602371Y134974D02*
X597227D01*
D01*
X602371D01*
D01*
D02*
G37*
%LPD*%
D10*
X584667Y351772D02*
X586777D01*
X567126D02*
X584809D01*
X586777D02*
X588963Y353957D01*
Y371443D01*
X591831Y374311D01*
X601476D01*
X605512Y370276D01*
X627756D01*
X29639Y373917D02*
X58159D01*
X20768D02*
X29639D01*
X15740Y358563D02*
X18898Y361721D01*
Y372047D01*
X20768Y373917D01*
X1037Y358563D02*
X15740D01*
D281*
X629507Y318307D02*
X629900Y318700D01*
D283*
X498072Y310678D02*
X505701Y318307D01*
X567200Y322712D02*
Y327200D01*
X472246Y284852D02*
X489548Y302154D01*
X498175Y310782D01*
X129823Y163716D02*
Y254626D01*
X133858Y258661D01*
X155598D01*
X178890Y369733D02*
X179429Y369194D01*
X116142Y346260D02*
X117323Y345079D01*
Y269783D02*
Y345079D01*
X155598Y258661D02*
X155795Y258858D01*
X110925Y263386D02*
X117323Y269783D01*
X110925Y253111D02*
Y263386D01*
X58500Y348177D02*
X60417Y346260D01*
X58645Y373431D02*
Y379679D01*
X1037Y358563D02*
Y375098D01*
X49629Y331404D02*
Y339306D01*
X43925Y325700D02*
X49629Y331404D01*
X5100Y325700D02*
X43925D01*
X169488Y258858D02*
X179429Y268799D01*
X155795Y258858D02*
X169488D01*
X135763Y157776D02*
X221260D01*
X129823Y163716D02*
X135763Y157776D01*
X113800Y435098D02*
X118300Y430598D01*
X113800Y435098D02*
Y472440D01*
X162900Y400039D02*
Y472500D01*
Y400039D02*
X178890Y384049D01*
Y369733D02*
Y384049D01*
X402175Y284852D02*
X472246D01*
X380413Y263090D02*
X402175Y284852D01*
X321850Y263090D02*
X380413D01*
X294980Y236221D02*
X321850Y263090D01*
X294980Y144390D02*
Y236221D01*
X234646Y144390D02*
X294980D01*
X221260Y157776D02*
X234646Y144390D01*
X110925Y150295D02*
Y253111D01*
Y150295D02*
X122638Y138583D01*
X193606D01*
X567200Y323024D02*
X571917Y318307D01*
X505701Y318307D02*
X629507Y318307D01*
X454823Y444488D02*
Y472776D01*
Y444488D02*
X463091Y436221D01*
Y395472D02*
Y436221D01*
Y395472D02*
X484252Y374311D01*
Y324016D02*
Y374311D01*
Y324016D02*
X497342Y310926D01*
X562845Y318356D02*
X567200Y322712D01*
Y323024D02*
Y472400D01*
X179429Y268799D02*
Y369194D01*
X49629Y339306D02*
X58714Y348390D01*
Y376178D01*
X200984Y83465D02*
X218209Y100689D01*
X200984Y-100D02*
Y83465D01*
X171700Y463800D02*
X196500D01*
X621700Y305300D02*
Y305900D01*
X11300Y463800D02*
X617500D01*
X7300Y459800D02*
X11300Y463800D01*
X7300Y11600D02*
Y459800D01*
Y11600D02*
X11200Y7700D01*
X618500D01*
X621800Y11000D01*
Y224400D01*
Y272800D01*
X218209Y100689D02*
Y133957D01*
X213583Y138583D02*
X218209Y133957D01*
X193606Y138583D02*
X213583D01*
X56900Y381424D02*
Y472441D01*
Y381424D02*
X58645Y379679D01*
X1037Y329763D02*
X5100Y325700D01*
X1037Y329763D02*
Y365900D01*
Y375098D01*
D334*
X594488Y420866D02*
D03*
X586305Y416142D02*
D03*
Y406693D02*
D03*
X594488Y401968D02*
D03*
X602671Y406693D02*
D03*
Y416142D02*
D03*
X394010Y416142D02*
D03*
Y406693D02*
D03*
X385827Y401968D02*
D03*
X377644Y406693D02*
D03*
Y416142D02*
D03*
X385827Y420866D02*
D03*
X185039D02*
D03*
X176856Y416142D02*
D03*
Y406693D02*
D03*
X185039Y401968D02*
D03*
X193222Y406693D02*
D03*
Y416142D02*
D03*
X35742Y416142D02*
D03*
Y406693D02*
D03*
X27559Y401968D02*
D03*
X19376Y406693D02*
D03*
Y416142D02*
D03*
X27559Y420866D02*
D03*
Y107874D02*
D03*
X19376Y103149D02*
D03*
Y93701D02*
D03*
X27559Y88976D02*
D03*
X35742Y93701D02*
D03*
Y103149D02*
D03*
X193222D02*
D03*
Y93701D02*
D03*
X185039Y88976D02*
D03*
X176856Y93701D02*
D03*
Y103149D02*
D03*
X185039Y107874D02*
D03*
X307087D02*
D03*
X298904Y103149D02*
D03*
Y93701D02*
D03*
X307087Y88976D02*
D03*
X315270Y93701D02*
D03*
Y103149D02*
D03*
X610545D02*
D03*
Y93701D02*
D03*
X602362Y88976D02*
D03*
X594179Y93701D02*
D03*
Y103149D02*
D03*
X602362Y107874D02*
D03*
D339*
X427913Y24370D02*
D03*
X457913D02*
D03*
X437913D02*
D03*
X447913D02*
D03*
Y14370D02*
D03*
X437913D02*
D03*
X427913D02*
D03*
X102243Y15376D02*
D03*
X32500Y64370D02*
D03*
Y44370D02*
D03*
Y54370D02*
D03*
X22500D02*
D03*
Y64370D02*
D03*
X32500Y34370D02*
D03*
X22500D02*
D03*
X32500Y24370D02*
D03*
X22500Y14370D02*
D03*
Y44370D02*
D03*
Y24370D02*
D03*
X208611Y211839D02*
D03*
X198611D02*
D03*
Y241839D02*
D03*
X208611D02*
D03*
X198611Y231839D02*
D03*
X208611D02*
D03*
Y221839D02*
D03*
X198611D02*
D03*
X264125Y104192D02*
D03*
X213433Y174767D02*
D03*
Y164767D02*
D03*
X606712Y239514D02*
D03*
X587027D02*
D03*
D349*
X122815Y346568D02*
D03*
X278862Y8427D02*
D03*
X449212Y153937D02*
D03*
Y142126D02*
D03*
X452165Y136220D02*
D03*
X437401Y142126D02*
D03*
Y94882D02*
D03*
X425590Y165748D02*
D03*
Y142126D02*
D03*
X419685D02*
D03*
X422638Y112598D02*
D03*
X419685Y106693D02*
D03*
X416732Y112598D02*
D03*
X407874Y153937D02*
D03*
X410827Y124409D02*
D03*
X407874Y106693D02*
D03*
X404921Y159842D02*
D03*
X401968Y142126D02*
D03*
X404921Y124409D02*
D03*
Y112598D02*
D03*
X401968Y106693D02*
D03*
Y94882D02*
D03*
X396063Y165748D02*
D03*
Y153937D02*
D03*
Y142126D02*
D03*
X390157Y165748D02*
D03*
X393110Y159842D02*
D03*
Y124409D02*
D03*
X390157Y118504D02*
D03*
Y94882D02*
D03*
Y83071D02*
D03*
X384252Y165748D02*
D03*
X387205Y159842D02*
D03*
X384252Y142126D02*
D03*
X387205Y124409D02*
D03*
Y112598D02*
D03*
X384252Y106693D02*
D03*
X387205Y88976D02*
D03*
X378346Y165748D02*
D03*
X381299Y159842D02*
D03*
X378346Y153937D02*
D03*
Y142126D02*
D03*
X381299Y124409D02*
D03*
X378346Y118504D02*
D03*
X381299Y112598D02*
D03*
Y88976D02*
D03*
X372441Y165748D02*
D03*
X375394Y159842D02*
D03*
X372441Y153937D02*
D03*
Y142126D02*
D03*
X375394Y124409D02*
D03*
X372441Y118504D02*
D03*
X375394Y112598D02*
D03*
X366535Y165748D02*
D03*
X369488Y159842D02*
D03*
X366535Y153937D02*
D03*
Y130315D02*
D03*
X369488Y124409D02*
D03*
X366535Y118504D02*
D03*
X369488Y112598D02*
D03*
X106693Y71260D02*
D03*
Y65354D02*
D03*
Y59449D02*
D03*
Y53543D02*
D03*
X100787Y94882D02*
D03*
Y71260D02*
D03*
Y65354D02*
D03*
Y59449D02*
D03*
X94882Y94882D02*
D03*
Y88976D02*
D03*
Y65354D02*
D03*
Y59449D02*
D03*
Y53543D02*
D03*
X88976Y94882D02*
D03*
Y88976D02*
D03*
Y59449D02*
D03*
Y53543D02*
D03*
X83071Y88976D02*
D03*
X77165D02*
D03*
Y71260D02*
D03*
Y65354D02*
D03*
Y53543D02*
D03*
X71260Y77165D02*
D03*
Y71260D02*
D03*
Y59449D02*
D03*
X65354Y83071D02*
D03*
Y77165D02*
D03*
Y53543D02*
D03*
X157053Y356838D02*
D03*
X151181Y356894D02*
D03*
X113288Y354718D02*
D03*
X111702Y356838D02*
D03*
X121142Y348241D02*
D03*
X79331Y356813D02*
D03*
X74508D02*
D03*
X246651Y392182D02*
D03*
X250214D02*
D03*
X248435Y396021D02*
D03*
X251998D02*
D03*
X248435Y388344D02*
D03*
X251998D02*
D03*
X253777Y392182D02*
D03*
X360630Y409921D02*
D03*
X364469Y408142D02*
D03*
Y404578D02*
D03*
X356791Y408142D02*
D03*
Y404578D02*
D03*
X360630Y406358D02*
D03*
Y402795D02*
D03*
X336163D02*
D03*
Y406358D02*
D03*
X332325Y404578D02*
D03*
Y408142D02*
D03*
X340002Y404578D02*
D03*
Y408142D02*
D03*
X336163Y409921D02*
D03*
X287445D02*
D03*
X291283Y408142D02*
D03*
Y404578D02*
D03*
X283606Y408142D02*
D03*
Y404578D02*
D03*
X287445Y406358D02*
D03*
Y402795D02*
D03*
X311705D02*
D03*
Y406358D02*
D03*
X307866Y404578D02*
D03*
Y408142D02*
D03*
X315543Y404578D02*
D03*
Y408142D02*
D03*
X311705Y409921D02*
D03*
X135925Y326575D02*
D03*
X74508Y353445D02*
D03*
X94402Y316213D02*
D03*
X146287Y325689D02*
D03*
X101697Y287933D02*
D03*
X98646Y284882D02*
D03*
X95595Y287933D02*
D03*
X98646Y290985D02*
D03*
Y287933D02*
D03*
X94709Y298919D02*
D03*
X92335Y317894D02*
D03*
X66142Y317886D02*
D03*
X161870Y287933D02*
D03*
Y290985D02*
D03*
X158818Y287933D02*
D03*
X161870Y284882D02*
D03*
X164921Y287933D02*
D03*
X100614Y276949D02*
D03*
X102583Y298919D02*
D03*
X100607Y297484D02*
D03*
X102583Y278454D02*
D03*
X102346Y273820D02*
D03*
X96677Y297343D02*
D03*
Y276949D02*
D03*
X159901D02*
D03*
Y297343D02*
D03*
X157933Y298919D02*
D03*
X165570Y273820D02*
D03*
X165807Y278454D02*
D03*
X171771Y290886D02*
D03*
X163831Y297484D02*
D03*
X165807Y298919D02*
D03*
X163838Y276949D02*
D03*
X601713Y362695D02*
D03*
Y356790D02*
D03*
X604666Y359743D02*
D03*
X598760D02*
D03*
X31060Y362760D02*
D03*
Y356854D02*
D03*
X34013Y359807D02*
D03*
X28107D02*
D03*
X162374Y326575D02*
D03*
X95314Y326605D02*
D03*
X69094Y326575D02*
D03*
X70052Y317758D02*
D03*
X68209Y316213D02*
D03*
X60577Y329500D02*
D03*
X96272Y317788D02*
D03*
X144712Y327559D02*
D03*
X144614Y323622D02*
D03*
X172767Y329528D02*
D03*
X171063Y323622D02*
D03*
X172736Y325689D02*
D03*
X171161Y327559D02*
D03*
X205127Y378806D02*
D03*
Y375656D02*
D03*
Y372507D02*
D03*
X209458Y378806D02*
D03*
X205127Y381956D02*
D03*
Y385105D02*
D03*
X200797Y378806D02*
D03*
X208447Y331638D02*
D03*
X212974D02*
D03*
X210711Y327898D02*
D03*
Y335378D02*
D03*
X238824Y171055D02*
D03*
X242761D02*
D03*
X238824Y167118D02*
D03*
X242761D02*
D03*
X246013Y370733D02*
D03*
X250344D02*
D03*
X246013Y375063D02*
D03*
X241683Y370733D02*
D03*
X246013Y366402D02*
D03*
X125098Y72835D02*
D03*
X166198Y235408D02*
D03*
Y245250D02*
D03*
X169112Y240329D02*
D03*
X163285D02*
D03*
X412993Y323512D02*
D03*
X403151D02*
D03*
X408072Y326426D02*
D03*
Y320599D02*
D03*
X437827Y65342D02*
D03*
X426916Y67943D02*
D03*
X419040Y69930D02*
D03*
X429840Y64714D02*
D03*
X418394D02*
D03*
X426783D02*
D03*
X414597D02*
D03*
X124542Y79953D02*
D03*
X129899D02*
D03*
X133750Y80983D02*
D03*
X133524Y72033D02*
D03*
X133750Y66359D02*
D03*
X139415Y64430D02*
D03*
X151830Y70601D02*
D03*
Y75330D02*
D03*
X136009Y69671D02*
D03*
X135513Y75680D02*
D03*
X139245Y80983D02*
D03*
X144842D02*
D03*
X151248Y80401D02*
D03*
X145040Y64430D02*
D03*
X151109Y65150D02*
D03*
X422374Y47045D02*
D03*
X429840Y58820D02*
D03*
X429983Y53451D02*
D03*
Y47184D02*
D03*
X414597Y53451D02*
D03*
Y47184D02*
D03*
Y58820D02*
D03*
D351*
X0Y3937D02*
X134Y2918D01*
X527Y1969D01*
X1153Y1153D01*
X1969Y527D01*
X2918Y134D01*
X3937Y0D01*
Y472441D02*
X2918Y472307D01*
X1969Y471913D01*
X1153Y471288D01*
X527Y470472D01*
X134Y469523D01*
X0Y468504D01*
X629921D02*
X629787Y469523D01*
X629393Y470472D01*
X628768Y471288D01*
X627952Y471913D01*
X627003Y472307D01*
X625984Y472441D01*
Y0D02*
X627003Y134D01*
X627952Y527D01*
X628768Y1153D01*
X629393Y1969D01*
X629787Y2918D01*
X629921Y3937D01*
X3937Y0D02*
X625984D01*
X0Y3937D02*
Y468504D01*
X3937Y472441D02*
X625984D01*
X629921Y3937D02*
Y468504D01*
D352*
X590108Y455861D02*
D03*
X607431D02*
D03*
X21358Y455862D02*
D03*
X38681D02*
D03*
D353*
X584400Y446707D02*
D03*
Y464424D02*
D03*
X613140D02*
D03*
Y446707D02*
D03*
X15650Y446709D02*
D03*
Y464425D02*
D03*
X44390D02*
D03*
Y446709D02*
D03*
D354*
X76100Y450400D02*
D03*
X106100D02*
D03*
X563400D02*
D03*
X523400D02*
D03*
X467366Y450402D02*
D03*
X507366D02*
D03*
X122137D02*
D03*
X152137D02*
D03*
D355*
X83600Y415400D02*
D03*
X88600Y425400D02*
D03*
X93600Y415400D02*
D03*
X98600Y425400D02*
D03*
X530900D02*
D03*
X555900Y415400D02*
D03*
X550900Y425400D02*
D03*
X545900Y415400D02*
D03*
X540900Y425400D02*
D03*
X484866Y425402D02*
D03*
X489866Y415402D02*
D03*
X494866Y425402D02*
D03*
X499866Y415402D02*
D03*
X479866D02*
D03*
X129637D02*
D03*
X134637Y425402D02*
D03*
X139637Y415402D02*
D03*
X144637Y425402D02*
D03*
D356*
X248244Y414330D02*
D03*
Y421810D02*
D03*
X250409Y418070D02*
D03*
X246079D02*
D03*
X208867Y413780D02*
D03*
X213198D02*
D03*
X211033Y417520D02*
D03*
Y410040D02*
D03*
D357*
X409489Y433622D02*
D03*
X421300D02*
D03*
X433111D02*
D03*
X421300Y445433D02*
D03*
X409489D02*
D03*
X283124Y445441D02*
D03*
X294935D02*
D03*
X306746D02*
D03*
X342179D02*
D03*
X330368D02*
D03*
X365801D02*
D03*
X283124Y433642D02*
D03*
X294935D02*
D03*
X306746D02*
D03*
X342179D02*
D03*
X330368D02*
D03*
X365801D02*
D03*
X318557Y445441D02*
D03*
X353990D02*
D03*
X318557Y433642D02*
D03*
X353990D02*
D03*
X211565Y433622D02*
D03*
X223376D02*
D03*
X235187D02*
D03*
Y445433D02*
D03*
X223376D02*
D03*
X211565D02*
D03*
X181890Y433622D02*
D03*
Y445433D02*
D03*
D358*
X401024Y462441D02*
D03*
X441576D02*
D03*
X274659Y462449D02*
D03*
X374265D02*
D03*
X203100Y462441D02*
D03*
X243651D02*
D03*
X190355Y462441D02*
D03*
X173425D02*
D03*
D359*
X594488Y411417D02*
D03*
X385827Y411417D02*
D03*
X185039D02*
D03*
X27559Y411417D02*
D03*
Y98425D02*
D03*
X185039D02*
D03*
X307087D02*
D03*
X602362D02*
D03*
D360*
X399331Y24370D02*
D03*
X409331D02*
D03*
X379331D02*
D03*
X389331D02*
D03*
X359331D02*
D03*
X369331D02*
D03*
X349331D02*
D03*
X339331Y14370D02*
D03*
Y24370D02*
D03*
X389331Y14370D02*
D03*
X359331D02*
D03*
X349331D02*
D03*
X379331D02*
D03*
X369331D02*
D03*
X329331Y24370D02*
D03*
Y14370D02*
D03*
X496504Y14370D02*
D03*
X506504D02*
D03*
X476504D02*
D03*
X486504D02*
D03*
X476504Y24370D02*
D03*
X486504D02*
D03*
X496504D02*
D03*
X506504D02*
D03*
X546504Y14370D02*
D03*
X556504D02*
D03*
X526504D02*
D03*
X536504D02*
D03*
X566504D02*
D03*
X516504Y24370D02*
D03*
Y14370D02*
D03*
X526504Y24370D02*
D03*
X546504D02*
D03*
X536504D02*
D03*
X566504D02*
D03*
X556504D02*
D03*
X586504D02*
D03*
X576504D02*
D03*
D361*
X533057Y239514D02*
D03*
X552742D02*
D03*
D362*
X527703Y337502D02*
D03*
X527830Y331299D02*
D03*
X531988Y271730D02*
D03*
Y275000D02*
D03*
X502263Y260700D02*
D03*
X554957Y395396D02*
D03*
X536811Y395553D02*
D03*
X546161Y402427D02*
D03*
X555998Y387188D02*
D03*
X556701Y328525D02*
D03*
X592408Y439396D02*
D03*
X266582Y128697D02*
D03*
Y125311D02*
D03*
X262873Y128697D02*
D03*
Y125311D02*
D03*
X259116Y128697D02*
D03*
Y125311D02*
D03*
X255061Y128662D02*
D03*
Y125277D02*
D03*
X251352Y128662D02*
D03*
Y125277D02*
D03*
X247595Y128662D02*
D03*
Y125277D02*
D03*
X136719Y289714D02*
D03*
X140453D02*
D03*
Y285998D02*
D03*
Y282281D02*
D03*
Y278565D02*
D03*
Y274849D02*
D03*
X125653Y285844D02*
D03*
Y282458D02*
D03*
X136719Y285998D02*
D03*
Y282281D02*
D03*
Y278565D02*
D03*
Y274849D02*
D03*
X122933Y274938D02*
D03*
Y278324D02*
D03*
X308249Y149437D02*
D03*
X311635D02*
D03*
X308249Y145680D02*
D03*
X311635D02*
D03*
X308249Y141971D02*
D03*
X311635D02*
D03*
X231338Y128642D02*
D03*
X227953D02*
D03*
X546161Y408366D02*
D03*
X406162Y408622D02*
D03*
X423917D02*
D03*
X404033Y356416D02*
D03*
X404088Y360236D02*
D03*
X23720Y439299D02*
D03*
X536024Y267926D02*
D03*
X303839Y60454D02*
D03*
X341737Y57443D02*
D03*
X285688Y50492D02*
D03*
X82382Y205020D02*
D03*
X238976Y99410D02*
D03*
X281225Y21752D02*
D03*
X70741Y93901D02*
D03*
X89075Y31201D02*
D03*
X64084Y58275D02*
D03*
X108476Y354388D02*
D03*
X533600Y102339D02*
D03*
X536504D02*
D03*
X496584Y80315D02*
D03*
X406942Y81857D02*
D03*
X466193Y81241D02*
D03*
X411576Y86871D02*
D03*
X486829Y89916D02*
D03*
X483366Y89468D02*
D03*
X482275Y92353D02*
D03*
X447858Y138073D02*
D03*
X496943Y169684D02*
D03*
X471297Y162378D02*
D03*
X488386Y150689D02*
D03*
X489567Y136417D02*
D03*
X523528Y136963D02*
D03*
X434446Y112480D02*
D03*
X415158Y86910D02*
D03*
X476346Y165053D02*
D03*
X439278Y163151D02*
D03*
X541018Y162254D02*
D03*
X435392Y162867D02*
D03*
X548083Y155888D02*
D03*
X552641Y143209D02*
D03*
X478001Y141589D02*
D03*
X486417Y136319D02*
D03*
X471283Y130912D02*
D03*
X473400Y141467D02*
D03*
X475674Y143561D02*
D03*
X471574Y145767D02*
D03*
X528996Y141828D02*
D03*
X497675Y132727D02*
D03*
X490817Y124662D02*
D03*
X503620Y127567D02*
D03*
X517672Y406850D02*
D03*
X518898Y399508D02*
D03*
X524655Y406850D02*
D03*
X524477Y399523D02*
D03*
X595909Y439298D02*
D03*
X27159Y439299D02*
D03*
X271041Y57726D02*
D03*
X193240Y376837D02*
D03*
X218796Y341453D02*
D03*
Y344891D02*
D03*
Y348330D02*
D03*
X211565Y344891D02*
D03*
Y341453D02*
D03*
X215180D02*
D03*
Y344891D02*
D03*
Y348330D02*
D03*
X211565D02*
D03*
X443819Y239668D02*
D03*
X479260Y253900D02*
D03*
X467274Y256346D02*
D03*
X502232D02*
D03*
X578838Y282972D02*
D03*
X578839Y286122D02*
D03*
X317323Y151476D02*
D03*
X352756Y198327D02*
D03*
X355413Y201083D02*
D03*
X126498Y276516D02*
D03*
X131004Y269853D02*
D03*
X133366Y292717D02*
D03*
X90793Y339180D02*
D03*
X201360Y120813D02*
D03*
X83659Y273819D02*
D03*
X62569Y197678D02*
D03*
X68209Y297484D02*
D03*
Y292717D02*
D03*
X64567Y302756D02*
D03*
X77232Y318218D02*
D03*
X91713Y277264D02*
D03*
X86204Y282273D02*
D03*
X82737Y278937D02*
D03*
X136221Y298228D02*
D03*
X133366Y307185D02*
D03*
X132862Y318195D02*
D03*
X149259Y279223D02*
D03*
X149428Y282273D02*
D03*
X154937Y277264D02*
D03*
X20282Y439299D02*
D03*
X589032Y439298D02*
D03*
X583729Y355805D02*
D03*
X581775Y375562D02*
D03*
X584936Y378761D02*
D03*
X588121D02*
D03*
X581775Y378747D02*
D03*
Y381932D02*
D03*
X588121Y381946D02*
D03*
X584936D02*
D03*
X617646Y427524D02*
D03*
X608512Y278543D02*
D03*
X603740Y286614D02*
D03*
X593701Y286221D02*
D03*
X588752Y286417D02*
D03*
X578838Y335578D02*
D03*
X613173Y355805D02*
D03*
X588836Y341471D02*
D03*
X617910Y377441D02*
D03*
X618034Y351319D02*
D03*
X587040Y389308D02*
D03*
X606235Y389106D02*
D03*
X611795Y427002D02*
D03*
X606874Y347500D02*
D03*
X35582Y389171D02*
D03*
X16387Y389373D02*
D03*
X42520Y355870D02*
D03*
X18183Y341535D02*
D03*
X14283Y382011D02*
D03*
X17468D02*
D03*
X11122Y381997D02*
D03*
Y378812D02*
D03*
X17468Y378826D02*
D03*
X14283D02*
D03*
X11122Y375626D02*
D03*
X42565Y359807D02*
D03*
X13076Y355870D02*
D03*
X43110Y427067D02*
D03*
X8185Y335642D02*
D03*
X36220Y347564D02*
D03*
X96606Y306038D02*
D03*
X127067Y317094D02*
D03*
X159055Y317618D02*
D03*
X151181Y317094D02*
D03*
X103009Y317882D02*
D03*
X83381Y335827D02*
D03*
X170731Y334713D02*
D03*
X109055Y338484D02*
D03*
X128642Y342158D02*
D03*
X86770Y329500D02*
D03*
X142618Y335407D02*
D03*
X155559Y335451D02*
D03*
X163681Y353370D02*
D03*
X164173Y253795D02*
D03*
X156764D02*
D03*
X160469D02*
D03*
X323063Y364866D02*
D03*
X274016Y363959D02*
D03*
X233185Y362081D02*
D03*
X194748Y380863D02*
D03*
X271654Y345165D02*
D03*
X260925Y208268D02*
D03*
X251559Y236430D02*
D03*
X249130Y331402D02*
D03*
Y327963D02*
D03*
X252746D02*
D03*
Y331402D02*
D03*
X245691D02*
D03*
X252746Y324525D02*
D03*
X249130D02*
D03*
X252746Y321086D02*
D03*
X249130D02*
D03*
X245691Y324525D02*
D03*
Y321086D02*
D03*
Y327963D02*
D03*
X249130Y345008D02*
D03*
Y341569D02*
D03*
X252746D02*
D03*
Y345008D02*
D03*
X245691D02*
D03*
X252746Y338131D02*
D03*
X249130D02*
D03*
X252746Y334692D02*
D03*
X249130D02*
D03*
X245691Y338131D02*
D03*
Y334692D02*
D03*
Y341569D02*
D03*
X259861Y340023D02*
D03*
Y333146D02*
D03*
Y336584D02*
D03*
X263300Y333146D02*
D03*
X266916D02*
D03*
X263300Y336584D02*
D03*
X266916D02*
D03*
X268701Y229587D02*
D03*
Y199665D02*
D03*
Y204665D02*
D03*
Y209665D02*
D03*
Y214665D02*
D03*
X315632Y350116D02*
D03*
X325008Y343996D02*
D03*
X321358Y352362D02*
D03*
X296752Y350271D02*
D03*
X242137Y360161D02*
D03*
X284862Y354918D02*
D03*
X309161Y355020D02*
D03*
X266916Y353777D02*
D03*
X298763Y363991D02*
D03*
X348031Y364142D02*
D03*
X333550Y355211D02*
D03*
X286640Y389804D02*
D03*
X283201D02*
D03*
X290078D02*
D03*
Y393420D02*
D03*
X283201D02*
D03*
X286640D02*
D03*
X293517D02*
D03*
Y389804D02*
D03*
X289901Y379489D02*
D03*
X293517D02*
D03*
Y386366D02*
D03*
Y382927D02*
D03*
X289901D02*
D03*
Y386366D02*
D03*
X293517Y376050D02*
D03*
Y372612D02*
D03*
X289901D02*
D03*
Y376050D02*
D03*
X294580Y420646D02*
D03*
X290964D02*
D03*
Y413769D02*
D03*
Y417208D02*
D03*
X294580D02*
D03*
Y413769D02*
D03*
X290964Y424085D02*
D03*
Y427523D02*
D03*
X294580D02*
D03*
Y424085D02*
D03*
Y403454D02*
D03*
Y406892D02*
D03*
Y410331D02*
D03*
X284087Y413769D02*
D03*
X287526D02*
D03*
X310939Y389907D02*
D03*
X307500D02*
D03*
X314377D02*
D03*
Y393522D02*
D03*
X307500D02*
D03*
X310939D02*
D03*
X317816D02*
D03*
Y389907D02*
D03*
X314200Y379591D02*
D03*
X317816D02*
D03*
Y386468D02*
D03*
Y383030D02*
D03*
X314200D02*
D03*
Y386468D02*
D03*
X317816Y376153D02*
D03*
Y372714D02*
D03*
X314200D02*
D03*
Y376153D02*
D03*
X318879Y420749D02*
D03*
X315264D02*
D03*
Y413872D02*
D03*
Y417310D02*
D03*
X318879D02*
D03*
Y413872D02*
D03*
X315264Y424187D02*
D03*
Y427626D02*
D03*
X318879D02*
D03*
Y424187D02*
D03*
Y403556D02*
D03*
Y406995D02*
D03*
Y410433D02*
D03*
X308386Y413872D02*
D03*
X311825D02*
D03*
X335328Y390098D02*
D03*
X331890D02*
D03*
X338767D02*
D03*
Y393714D02*
D03*
X331890D02*
D03*
X335328D02*
D03*
X342205D02*
D03*
Y390098D02*
D03*
X338589Y379783D02*
D03*
X342205D02*
D03*
Y386660D02*
D03*
Y383221D02*
D03*
X338589D02*
D03*
Y386660D02*
D03*
X342205Y376344D02*
D03*
Y372905D02*
D03*
X338589D02*
D03*
Y376344D02*
D03*
X343269Y420940D02*
D03*
X339653D02*
D03*
Y414063D02*
D03*
Y417501D02*
D03*
X343269D02*
D03*
Y414063D02*
D03*
X339653Y424378D02*
D03*
Y427817D02*
D03*
X343269D02*
D03*
Y424378D02*
D03*
Y403748D02*
D03*
Y407186D02*
D03*
Y410625D02*
D03*
X332776Y414063D02*
D03*
X336214D02*
D03*
X361030Y413872D02*
D03*
X357592D02*
D03*
X368084Y410433D02*
D03*
Y406995D02*
D03*
Y403556D02*
D03*
Y424187D02*
D03*
Y427626D02*
D03*
X364469D02*
D03*
Y424187D02*
D03*
X368084Y413872D02*
D03*
Y417310D02*
D03*
X364469D02*
D03*
Y413872D02*
D03*
Y420749D02*
D03*
X368084D02*
D03*
X363405Y376153D02*
D03*
Y372714D02*
D03*
X367021D02*
D03*
Y376153D02*
D03*
X363405Y386468D02*
D03*
Y383030D02*
D03*
X367021D02*
D03*
Y386468D02*
D03*
Y379591D02*
D03*
X363405D02*
D03*
X367021Y389907D02*
D03*
Y393522D02*
D03*
X360144D02*
D03*
X356705D02*
D03*
X363582D02*
D03*
Y389907D02*
D03*
X356705D02*
D03*
X360144D02*
D03*
X358366Y355020D02*
D03*
X193701Y128543D02*
D03*
X242491D02*
D03*
X263959Y236319D02*
D03*
X268406Y188287D02*
D03*
X256201Y188299D02*
D03*
X232185Y167284D02*
D03*
X349311Y227854D02*
D03*
X349410Y232677D02*
D03*
X351378Y216634D02*
D03*
X322244Y220866D02*
D03*
X326792Y204045D02*
D03*
X321674Y204078D02*
D03*
X396372Y216648D02*
D03*
X392037Y182825D02*
D03*
X393168Y185975D02*
D03*
X392587Y213844D02*
D03*
X392608Y209900D02*
D03*
X327218Y148067D02*
D03*
X331591Y161573D02*
D03*
Y167992D02*
D03*
X332382Y156595D02*
D03*
X344744Y131299D02*
D03*
X343209Y137008D02*
D03*
X348196Y138737D02*
D03*
X333195Y117721D02*
D03*
X336103Y120546D02*
D03*
X338334Y117048D02*
D03*
X328839Y129700D02*
D03*
X325098Y126181D02*
D03*
X321019Y229587D02*
D03*
X317662D02*
D03*
X381398Y241137D02*
D03*
X147933Y108142D02*
D03*
X153279Y107874D02*
D03*
X127953Y106899D02*
D03*
X110000Y90630D02*
D03*
X111614Y97539D02*
D03*
X160988Y112304D02*
D03*
X197736Y118373D02*
D03*
X176788Y189100D02*
D03*
X180226D02*
D03*
X176788Y185484D02*
D03*
X180226D02*
D03*
X183665D02*
D03*
X187103Y189100D02*
D03*
X183665D02*
D03*
X187103Y185484D02*
D03*
X163725Y209361D02*
D03*
Y212800D02*
D03*
X167341Y202484D02*
D03*
X163725Y205923D02*
D03*
Y202484D02*
D03*
Y199046D02*
D03*
X167341D02*
D03*
X170956D02*
D03*
Y202484D02*
D03*
X167341Y212800D02*
D03*
Y209361D02*
D03*
Y205923D02*
D03*
X170956D02*
D03*
Y209361D02*
D03*
Y212800D02*
D03*
X173327Y225056D02*
D03*
X390522Y323513D02*
D03*
Y327128D02*
D03*
X435313Y328361D02*
D03*
X438752D02*
D03*
X442190D02*
D03*
Y324745D02*
D03*
X438752D02*
D03*
X435313D02*
D03*
X393960Y323513D02*
D03*
X397399D02*
D03*
Y327128D02*
D03*
X393960D02*
D03*
X445629Y328361D02*
D03*
X449067D02*
D03*
Y324745D02*
D03*
Y321129D02*
D03*
X445629D02*
D03*
X442190D02*
D03*
X445629Y324745D02*
D03*
X435313Y321129D02*
D03*
X438752D02*
D03*
X415024Y414948D02*
D03*
Y412106D02*
D03*
X412750Y371621D02*
D03*
Y368190D02*
D03*
X412206Y376132D02*
D03*
X413309Y360236D02*
D03*
X574935Y203956D02*
D03*
X579998Y199159D02*
D03*
X590182D02*
D03*
X512092Y268550D02*
D03*
X507092Y268550D02*
D03*
X401104Y223406D02*
D03*
X404719D02*
D03*
X393872D02*
D03*
X397488D02*
D03*
X395508Y252802D02*
D03*
Y256418D02*
D03*
Y245570D02*
D03*
Y241954D02*
D03*
Y249186D02*
D03*
X390049Y231295D02*
D03*
Y224063D02*
D03*
Y227679D02*
D03*
Y238527D02*
D03*
Y234911D02*
D03*
X517092Y268550D02*
D03*
X438327Y226143D02*
D03*
X441766D02*
D03*
X445282Y226176D02*
D03*
X452336D02*
D03*
X448721D02*
D03*
X448687Y246907D02*
D03*
Y243469D02*
D03*
X452303D02*
D03*
Y246907D02*
D03*
X448721Y229626D02*
D03*
X452336Y233076D02*
D03*
Y229626D02*
D03*
Y239953D02*
D03*
Y236514D02*
D03*
X448721D02*
D03*
Y239953D02*
D03*
Y233076D02*
D03*
X582930Y75689D02*
D03*
X495586Y72736D02*
D03*
X457779Y78543D02*
D03*
X223651Y65703D02*
D03*
Y69443D02*
D03*
X210630Y11024D02*
D03*
X226063Y42443D02*
D03*
Y57443D02*
D03*
X90825Y38484D02*
D03*
X64395Y35236D02*
D03*
X66831Y37697D02*
D03*
X68996Y31563D02*
D03*
X71624Y34646D02*
D03*
X128445Y45965D02*
D03*
Y49705D02*
D03*
X126043Y39370D02*
D03*
X97653Y32446D02*
D03*
X90748Y27446D02*
D03*
X84941Y31201D02*
D03*
X76875Y34646D02*
D03*
X82346D02*
D03*
X100478Y51934D02*
D03*
X111954Y78286D02*
D03*
X98905Y252893D02*
D03*
X160141Y215950D02*
D03*
X116535Y114571D02*
D03*
X201276Y111394D02*
D03*
X201076Y116240D02*
D03*
X111221Y117520D02*
D03*
X82382Y96522D02*
D03*
X80000Y99664D02*
D03*
X75318Y93799D02*
D03*
X338334Y138737D02*
D03*
X238976Y119487D02*
D03*
X234087Y111394D02*
D03*
X293419Y110960D02*
D03*
X236909Y106421D02*
D03*
X234087D02*
D03*
X221688Y90568D02*
D03*
X201276Y106414D02*
D03*
X399037Y201690D02*
D03*
X377476Y374004D02*
D03*
X395508Y260034D02*
D03*
X392070Y256418D02*
D03*
Y252802D02*
D03*
X370713Y189229D02*
D03*
X465736Y238412D02*
D03*
X430315Y212106D02*
D03*
X462351Y344156D02*
D03*
X458735Y340718D02*
D03*
Y344156D02*
D03*
X462351Y340718D02*
D03*
Y337279D02*
D03*
X432163Y317421D02*
D03*
X521949Y338878D02*
D03*
X510384Y403248D02*
D03*
X507006Y339205D02*
D03*
X511656D02*
D03*
X517026Y339088D02*
D03*
X514321Y403199D02*
D03*
X422269Y210385D02*
D03*
X445481Y202146D02*
D03*
X483300Y231000D02*
D03*
X441893Y202213D02*
D03*
X412300Y198716D02*
D03*
X409161Y199839D02*
D03*
X436047Y192098D02*
D03*
X432480D02*
D03*
X451083Y187502D02*
D03*
X399082Y198761D02*
D03*
X550700Y33446D02*
D03*
X473244Y30122D02*
D03*
X474646Y71483D02*
D03*
X472230Y74346D02*
D03*
X476187Y75185D02*
D03*
X454616Y45339D02*
D03*
X452389Y47802D02*
D03*
X560860Y53668D02*
D03*
X611899Y193169D02*
D03*
X567648Y6300D02*
D03*
X591270D02*
D03*
X579459D02*
D03*
X573554D02*
D03*
X597176D02*
D03*
X585364D02*
D03*
X603081D02*
D03*
X608987D02*
D03*
X614892D02*
D03*
X620798D02*
D03*
X624410Y78969D02*
D03*
Y208890D02*
D03*
Y220701D02*
D03*
Y232512D02*
D03*
Y202984D02*
D03*
Y226606D02*
D03*
Y214795D02*
D03*
Y238417D02*
D03*
X458380Y227280D02*
D03*
X461818Y230896D02*
D03*
Y227280D02*
D03*
X468695Y234512D02*
D03*
X465257D02*
D03*
Y227280D02*
D03*
X468695D02*
D03*
Y230896D02*
D03*
X465257D02*
D03*
X398946Y245570D02*
D03*
X392070D02*
D03*
Y241954D02*
D03*
X398946D02*
D03*
X392070Y249186D02*
D03*
X95289Y252893D02*
D03*
X91673D02*
D03*
X84441Y249454D02*
D03*
Y252893D02*
D03*
X88057D02*
D03*
Y249454D02*
D03*
X36262Y196171D02*
D03*
X32824D02*
D03*
X39701D02*
D03*
X32824Y199787D02*
D03*
X36262D02*
D03*
X32824Y192555D02*
D03*
X36262D02*
D03*
X43139D02*
D03*
X39701D02*
D03*
X18623Y162716D02*
D03*
X22061D02*
D03*
Y166332D02*
D03*
X18623D02*
D03*
X25500D02*
D03*
X28938D02*
D03*
Y162716D02*
D03*
X25500D02*
D03*
Y159100D02*
D03*
X28938D02*
D03*
X22061D02*
D03*
X170276Y230785D02*
D03*
X163305D02*
D03*
X166929D02*
D03*
X173327Y228150D02*
D03*
X227691Y166169D02*
D03*
X228325Y160925D02*
D03*
X234774Y160827D02*
D03*
X240786D02*
D03*
X245829Y160925D02*
D03*
X48962Y426905D02*
D03*
X47381Y351383D02*
D03*
X47257Y377505D02*
D03*
X325707Y30796D02*
D03*
X590182Y180262D02*
D03*
X16350Y208154D02*
D03*
Y214054D02*
D03*
Y219954D02*
D03*
Y225854D02*
D03*
Y231754D02*
D03*
Y237654D02*
D03*
Y243554D02*
D03*
Y249454D02*
D03*
X499573Y368954D02*
D03*
Y372392D02*
D03*
X496135Y368954D02*
D03*
Y372392D02*
D03*
X323708Y236527D02*
D03*
Y233171D02*
D03*
X366010Y234745D02*
D03*
X556545Y274128D02*
D03*
Y270759D02*
D03*
X551719Y273173D02*
D03*
X541371Y202381D02*
D03*
X534867Y202802D02*
D03*
X503012Y368954D02*
D03*
Y372392D02*
D03*
Y379269D02*
D03*
Y375831D02*
D03*
Y382708D02*
D03*
X525783Y369553D02*
D03*
X522344D02*
D03*
Y373169D02*
D03*
X501536Y337778D02*
D03*
X187741Y346352D02*
D03*
Y349791D02*
D03*
Y342914D02*
D03*
X191357D02*
D03*
Y349791D02*
D03*
Y346352D02*
D03*
Y339475D02*
D03*
Y336037D02*
D03*
X187741D02*
D03*
Y339475D02*
D03*
X462351Y333841D02*
D03*
X458735Y337279D02*
D03*
Y333841D02*
D03*
X423043Y385345D02*
D03*
Y381914D02*
D03*
Y378483D02*
D03*
X416462Y384675D02*
D03*
X423043Y371621D02*
D03*
Y368190D02*
D03*
X416181D02*
D03*
X419612D02*
D03*
X259861Y343461D02*
D03*
X263300Y350338D02*
D03*
Y353777D02*
D03*
Y346900D02*
D03*
X266916D02*
D03*
Y350338D02*
D03*
Y343461D02*
D03*
Y340023D02*
D03*
X263300D02*
D03*
Y343461D02*
D03*
X50499Y198417D02*
D03*
X53584Y201468D02*
D03*
X56208Y198516D02*
D03*
X59519Y201468D02*
D03*
X187910Y295034D02*
D03*
Y291595D02*
D03*
X191526D02*
D03*
Y295034D02*
D03*
X187910Y301911D02*
D03*
Y298472D02*
D03*
X191526D02*
D03*
Y301911D02*
D03*
X187910Y308788D02*
D03*
Y305349D02*
D03*
X191526D02*
D03*
Y308788D02*
D03*
Y315665D02*
D03*
Y319103D02*
D03*
Y312226D02*
D03*
X187910D02*
D03*
Y319103D02*
D03*
Y315665D02*
D03*
X445958Y382028D02*
D03*
X442527D02*
D03*
X439095D02*
D03*
X193508Y358512D02*
D03*
X189274Y380360D02*
D03*
X276894Y12700D02*
D03*
X285555Y12682D02*
D03*
X294217D02*
D03*
X220108Y368649D02*
D03*
X394965Y352675D02*
D03*
X413287D02*
D03*
X209064Y353777D02*
D03*
X197696Y358511D02*
D03*
X43618Y165211D02*
D03*
X39578Y188111D02*
D03*
X27592Y190557D02*
D03*
X25912Y172766D02*
D03*
X201685Y336723D02*
D03*
X202690Y364992D02*
D03*
X328680Y284995D02*
D03*
X333708D02*
D03*
X338708D02*
D03*
X343708D02*
D03*
X348708D02*
D03*
X353708D02*
D03*
X571900Y194176D02*
D03*
X577600Y196776D02*
D03*
X418731Y207919D02*
D03*
X424517Y188124D02*
D03*
X405107Y187005D02*
D03*
X429200Y184319D02*
D03*
X546719Y273305D02*
D03*
X598870Y277500D02*
D03*
X522092Y268581D02*
D03*
X358752Y298094D02*
D03*
X319769Y288440D02*
D03*
X366687Y306620D02*
D03*
X385015Y303470D02*
D03*
X322283Y114724D02*
D03*
X330205Y114720D02*
D03*
X380197Y184261D02*
D03*
X348047Y119227D02*
D03*
X429419Y145018D02*
D03*
X424104Y136657D02*
D03*
X422136Y139377D02*
D03*
X418394Y139479D02*
D03*
X418731Y135809D02*
D03*
X348047Y164232D02*
D03*
X349657Y177108D02*
D03*
X354643Y178504D02*
D03*
X342087Y75482D02*
D03*
X338500Y72616D02*
D03*
X220744Y58938D02*
D03*
X259731Y57573D02*
D03*
X263995Y55472D02*
D03*
X347571Y81440D02*
D03*
X344455Y62718D02*
D03*
X379272Y106850D02*
D03*
X379774Y85854D02*
D03*
X305709Y69924D02*
D03*
X292642Y66518D02*
D03*
X306113Y75034D02*
D03*
X331720Y133053D02*
D03*
X334400Y136387D02*
D03*
X352536Y131432D02*
D03*
X349390Y128894D02*
D03*
X352172Y126443D02*
D03*
X275319Y92370D02*
D03*
X259601Y84778D02*
D03*
X434734Y97007D02*
D03*
X425314Y96522D02*
D03*
X376644Y98976D02*
D03*
X442251Y96522D02*
D03*
X431388Y96062D02*
D03*
X366702Y114253D02*
D03*
X350000Y65600D02*
D03*
X351895Y62718D02*
D03*
X354882Y63349D02*
D03*
X298547Y24628D02*
D03*
Y35014D02*
D03*
X322283Y43038D02*
D03*
X289886Y23821D02*
D03*
X303029Y34616D02*
D03*
X293440Y33830D02*
D03*
X285688Y32823D02*
D03*
X276845Y31518D02*
D03*
X272603Y27258D02*
D03*
X20400Y80133D02*
D03*
X28185Y273966D02*
D03*
X52928Y129507D02*
D03*
X14590Y124504D02*
D03*
X47500Y97831D02*
D03*
X56498Y115750D02*
D03*
X83234Y68736D02*
D03*
X109000Y87630D02*
D03*
X116225Y9786D02*
D03*
X49891Y34370D02*
D03*
X594346Y201936D02*
D03*
X532092Y325377D02*
D03*
X259000Y70034D02*
D03*
X541450Y83981D02*
D03*
X409042Y84541D02*
D03*
X385800Y149822D02*
D03*
X494929Y152942D02*
D03*
X514192Y199932D02*
D03*
X523502Y196949D02*
D03*
X418398Y42241D02*
D03*
X409858Y41132D02*
D03*
X407402Y43463D02*
D03*
X405588Y46368D02*
D03*
X403842Y41717D02*
D03*
X348196Y101659D02*
D03*
X400957Y69300D02*
D03*
X447317Y63761D02*
D03*
X449998Y66365D02*
D03*
X395400Y63400D02*
D03*
X449600Y54600D02*
D03*
X435366Y55819D02*
D03*
X389833Y69428D02*
D03*
X376371Y69575D02*
D03*
X81141Y114419D02*
D03*
X109374Y35870D02*
D03*
X139670Y102352D02*
D03*
X135442Y98421D02*
D03*
X146729Y86530D02*
D03*
X124475Y83926D02*
D03*
X131037Y86323D02*
D03*
X129569Y65934D02*
D03*
X383233Y53706D02*
D03*
X391414Y54170D02*
D03*
X374979Y54243D02*
D03*
X374500Y63400D02*
D03*
X548572Y180826D02*
D03*
X46294Y55171D02*
D03*
X353199Y95500D02*
D03*
X561331Y159138D02*
D03*
X566879Y196788D02*
D03*
X491641Y78364D02*
D03*
X540216Y190609D02*
D03*
X189242Y69028D02*
D03*
X555400Y53481D02*
D03*
X553766Y56475D02*
D03*
X548958Y60593D02*
D03*
X624410Y14008D02*
D03*
Y19913D02*
D03*
Y25819D02*
D03*
Y31724D02*
D03*
Y37630D02*
D03*
Y43535D02*
D03*
Y49441D02*
D03*
Y55347D02*
D03*
Y61252D02*
D03*
Y67158D02*
D03*
Y73063D02*
D03*
Y84874D02*
D03*
Y90780D02*
D03*
Y96685D02*
D03*
Y102591D02*
D03*
Y108496D02*
D03*
Y114402D02*
D03*
Y120307D02*
D03*
Y126213D02*
D03*
Y132118D02*
D03*
Y138024D02*
D03*
Y143929D02*
D03*
Y149835D02*
D03*
Y155740D02*
D03*
Y161646D02*
D03*
Y167551D02*
D03*
Y173457D02*
D03*
Y179362D02*
D03*
Y185268D02*
D03*
Y191173D02*
D03*
Y197079D02*
D03*
X561742Y6300D02*
D03*
X555837D02*
D03*
X549931D02*
D03*
X544026D02*
D03*
X538754Y6200D02*
D03*
X532848D02*
D03*
X526942D02*
D03*
X521037D02*
D03*
X515132D02*
D03*
X509226D02*
D03*
X503321D02*
D03*
X497415D02*
D03*
X491509D02*
D03*
X485604D02*
D03*
X479698D02*
D03*
X473793D02*
D03*
X467887D02*
D03*
X461982D02*
D03*
X456076D02*
D03*
X450171D02*
D03*
X444265D02*
D03*
X438360D02*
D03*
X432454D02*
D03*
X426549D02*
D03*
X420643D02*
D03*
X414738D02*
D03*
X408832D02*
D03*
X402927D02*
D03*
X397021D02*
D03*
X391116D02*
D03*
X385210D02*
D03*
X379305D02*
D03*
X373399D02*
D03*
X367494D02*
D03*
X361588D02*
D03*
X355683D02*
D03*
X349777D02*
D03*
X343872D02*
D03*
X337966D02*
D03*
X332061D02*
D03*
X372500Y37600D02*
D03*
X447317Y33600D02*
D03*
X557157Y59800D02*
D03*
X624410Y290102D02*
D03*
Y285661D02*
D03*
Y279756D02*
D03*
Y273850D02*
D03*
Y267945D02*
D03*
Y256134D02*
D03*
Y250228D02*
D03*
Y244323D02*
D03*
X187697Y32441D02*
D03*
X5800Y13100D02*
D03*
Y19005D02*
D03*
Y24911D02*
D03*
Y30817D02*
D03*
Y36722D02*
D03*
Y42628D02*
D03*
Y48533D02*
D03*
Y54439D02*
D03*
Y60344D02*
D03*
Y66250D02*
D03*
Y72155D02*
D03*
Y78061D02*
D03*
Y83966D02*
D03*
Y89872D02*
D03*
Y95777D02*
D03*
Y101683D02*
D03*
Y107588D02*
D03*
Y113494D02*
D03*
Y119399D02*
D03*
Y125305D02*
D03*
Y131210D02*
D03*
Y137116D02*
D03*
Y143021D02*
D03*
Y148927D02*
D03*
Y154832D02*
D03*
Y160738D02*
D03*
Y166643D02*
D03*
Y172549D02*
D03*
Y178454D02*
D03*
Y184360D02*
D03*
Y190265D02*
D03*
Y196171D02*
D03*
Y202076D02*
D03*
Y207982D02*
D03*
Y213887D02*
D03*
Y219793D02*
D03*
Y225698D02*
D03*
Y231604D02*
D03*
Y237509D02*
D03*
Y243415D02*
D03*
Y249321D02*
D03*
Y255226D02*
D03*
Y261132D02*
D03*
Y267037D02*
D03*
Y272942D02*
D03*
Y278848D02*
D03*
X7258Y6200D02*
D03*
X13163D02*
D03*
X19069D02*
D03*
X24974D02*
D03*
X30880D02*
D03*
X36785D02*
D03*
X42691D02*
D03*
X48596D02*
D03*
X54502D02*
D03*
X60407D02*
D03*
X66313D02*
D03*
X72218D02*
D03*
X78124D02*
D03*
X84029D02*
D03*
X89935D02*
D03*
X95840D02*
D03*
X101746D02*
D03*
X107651D02*
D03*
X113557D02*
D03*
X119462D02*
D03*
X125368D02*
D03*
X131273D02*
D03*
X137179D02*
D03*
X143084D02*
D03*
X148990D02*
D03*
X154895D02*
D03*
X160801D02*
D03*
X166706D02*
D03*
X172612D02*
D03*
X178517D02*
D03*
X184423D02*
D03*
X190328D02*
D03*
X208045D02*
D03*
X213950D02*
D03*
X219856D02*
D03*
X225761D02*
D03*
X231667D02*
D03*
X237572D02*
D03*
X243478D02*
D03*
X249383D02*
D03*
X255289D02*
D03*
X261194D02*
D03*
X226051Y32443D02*
D03*
X526367Y185838D02*
D03*
X528564Y188546D02*
D03*
X412300Y183000D02*
D03*
X403100Y162700D02*
D03*
X514291Y184656D02*
D03*
X565378Y191436D02*
D03*
X572377Y191136D02*
D03*
X46501Y71965D02*
D03*
X54962Y110990D02*
D03*
X474215Y147802D02*
D03*
X477500Y147767D02*
D03*
X480400Y96700D02*
D03*
X485119Y95267D02*
D03*
X490057Y88548D02*
D03*
X493872Y88168D02*
D03*
X488030Y95267D02*
D03*
X490057Y103100D02*
D03*
X477500Y103258D02*
D03*
X476687Y106367D02*
D03*
X474215Y103258D02*
D03*
X486812Y105350D02*
D03*
X484499Y108100D02*
D03*
X491983Y108711D02*
D03*
X494288Y105861D02*
D03*
X489200Y110800D02*
D03*
X472312Y110148D02*
D03*
X515055Y63245D02*
D03*
X489866Y116048D02*
D03*
X493300Y115900D02*
D03*
X486812Y116121D02*
D03*
X440939Y133914D02*
D03*
X434823Y139700D02*
D03*
X432300Y142200D02*
D03*
X444066Y140806D02*
D03*
X447626Y130788D02*
D03*
X443992Y133841D02*
D03*
X447700D02*
D03*
X443992Y137753D02*
D03*
X505489Y116047D02*
D03*
X541450Y79287D02*
D03*
X550100Y83617D02*
D03*
X569200Y89916D02*
D03*
X567803Y102335D02*
D03*
X567871Y96046D02*
D03*
X568000Y108329D02*
D03*
X546520Y115800D02*
D03*
X561800Y143289D02*
D03*
X564891Y152867D02*
D03*
X541085Y159239D02*
D03*
X519100Y161100D02*
D03*
X525084Y155888D02*
D03*
X517700Y158363D02*
D03*
X443992Y165659D02*
D03*
X433800Y160182D02*
D03*
X425314Y158888D02*
D03*
X393799Y88055D02*
D03*
X395672Y94049D02*
D03*
X402067Y85335D02*
D03*
X388119Y144773D02*
D03*
X385800Y153000D02*
D03*
X418568Y121242D02*
D03*
X430624Y105861D02*
D03*
X431900Y114100D02*
D03*
X423939Y106367D02*
D03*
X366702Y111353D02*
D03*
X395600Y121700D02*
D03*
X392600Y119423D02*
D03*
X401860Y88258D02*
D03*
X401000Y166383D02*
D03*
X110000Y82430D02*
D03*
X107463Y76792D02*
D03*
X190176Y384712D02*
D03*
X189274Y373400D02*
D03*
Y365673D02*
D03*
X212039Y394490D02*
D03*
Y391456D02*
D03*
X388119Y147767D02*
D03*
X395600Y118600D02*
D03*
X392600Y116430D02*
D03*
X258621Y42503D02*
D03*
X220744Y37670D02*
D03*
X410000Y181200D02*
D03*
X437827Y152167D02*
D03*
X419802Y156567D02*
D03*
X422146Y159582D02*
D03*
X441200Y154500D02*
D03*
X498726Y55086D02*
D03*
X454708Y70620D02*
D03*
X38285Y277600D02*
D03*
X8185Y283459D02*
D03*
X592072Y189396D02*
D03*
X576954Y183726D02*
D03*
X580418Y180262D02*
D03*
X561398Y165472D02*
D03*
Y83582D02*
D03*
X421545Y121242D02*
D03*
X543800Y118067D02*
D03*
X550100Y114967D02*
D03*
X505489Y113067D02*
D03*
X430624Y108838D02*
D03*
X426916Y106367D02*
D03*
X564891Y96046D02*
D03*
X564823Y102335D02*
D03*
X569200Y99067D02*
D03*
X568000Y105350D02*
D03*
X569200Y92896D02*
D03*
X550100Y86597D02*
D03*
X398000Y92067D02*
D03*
X397923Y88258D02*
D03*
X565520Y136867D02*
D03*
X562216Y133841D02*
D03*
X519041Y134167D02*
D03*
X521700Y155888D02*
D03*
X506600Y127567D02*
D03*
X437415Y165659D02*
D03*
X561700Y152867D02*
D03*
X551250Y155888D02*
D03*
X445994Y168027D02*
D03*
X561700Y127567D02*
D03*
X561800Y146467D02*
D03*
X380031Y69428D02*
D03*
X386136D02*
D03*
X391878Y63400D02*
D03*
X569700Y142167D02*
D03*
X570100Y124662D02*
D03*
X39100Y120641D02*
D03*
X80000Y31196D02*
D03*
X74375Y31821D02*
D03*
X55000Y36821D02*
D03*
X131250Y28071D02*
D03*
X155197Y32441D02*
D03*
Y27441D02*
D03*
Y22441D02*
D03*
Y17441D02*
D03*
X19050Y116891D02*
D03*
X226063Y22443D02*
D03*
Y27443D02*
D03*
Y52443D02*
D03*
X498225Y151412D02*
D03*
X251063Y69318D02*
D03*
X221688Y84318D02*
D03*
Y78068D02*
D03*
X187697Y37441D02*
D03*
Y62441D02*
D03*
Y57441D02*
D03*
Y52441D02*
D03*
Y47441D02*
D03*
Y42441D02*
D03*
Y27441D02*
D03*
X39100Y133141D02*
D03*
Y126891D02*
D03*
X111875Y30571D02*
D03*
X258563Y52443D02*
D03*
D363*
X625984Y0D02*
X627003Y134D01*
X627952Y527D01*
X628768Y1153D01*
X629393Y1969D01*
X629787Y2918D01*
X629921Y3937D01*
Y468504D02*
X629787Y469523D01*
X629393Y470472D01*
X628768Y471288D01*
X627952Y471913D01*
X627003Y472307D01*
X625984Y472441D01*
X3937D02*
X2918Y472307D01*
X1969Y471913D01*
X1153Y471288D01*
X527Y470472D01*
X134Y469523D01*
X0Y468504D01*
Y3937D02*
X134Y2918D01*
X527Y1969D01*
X1153Y1153D01*
X1969Y527D01*
X2918Y134D01*
X3937Y0D01*
X629921Y3937D02*
Y468504D01*
X3937Y472441D02*
X625984D01*
X0Y3937D02*
Y468504D01*
X3937Y0D02*
X625984D01*
M02*
