G04*
G04 #@! TF.GenerationSoftware,Altium Limited,Altium Designer,20.0.10 (225)*
G04*
G04 Layer_Physical_Order=2*
G04 Layer_Color=32768*
%FSLAX25Y25*%
%MOIN*%
G70*
G01*
G75*
%ADD10C,0.00984*%
%ADD18C,0.01575*%
%ADD281C,0.07874*%
%ADD283C,0.03937*%
%ADD334C,0.03543*%
%ADD339C,0.05512*%
%ADD349C,0.02362*%
%ADD350C,0.04724*%
%ADD351C,0.04000*%
%ADD352C,0.05118*%
%ADD353O,0.04331X0.09055*%
%ADD354C,0.14370*%
%ADD355C,0.05118*%
%ADD356C,0.02375*%
%ADD357C,0.05575*%
%ADD358C,0.11063*%
%ADD359C,0.14094*%
%ADD360C,0.04961*%
%ADD361C,0.07874*%
%ADD362C,0.02756*%
G36*
X56100Y472441D02*
Y382638D01*
Y344291D01*
X51631Y339823D01*
X113633Y339823D01*
X117952Y343701D01*
X178563D01*
X178563Y405135D01*
X162900Y420798D01*
Y472441D01*
X56100D01*
D02*
G37*
G36*
X603737Y124834D02*
X595863D01*
Y132708D01*
X603737D01*
Y124834D01*
D02*
G37*
%LPC*%
G36*
X602328Y130464D02*
X601433D01*
Y128542D01*
X601385Y128571D01*
X601338Y128604D01*
X601291Y128637D01*
X601251Y128670D01*
X601218Y128695D01*
X601189Y128720D01*
X601174Y128735D01*
X601167Y128739D01*
X601138Y128764D01*
X601101Y128801D01*
X601065Y128837D01*
X601021Y128881D01*
X600931Y128979D01*
X600836Y129077D01*
X600792Y129124D01*
X600748Y129168D01*
X600712Y129212D01*
X600679Y129248D01*
X600650Y129277D01*
X600628Y129303D01*
X600614Y129317D01*
X600610Y129321D01*
X600534Y129405D01*
X600461Y129481D01*
X600395Y129550D01*
X600333Y129612D01*
X600275Y129671D01*
X600221Y129721D01*
X600173Y129769D01*
X600130Y129809D01*
X600093Y129845D01*
X600061Y129874D01*
X600031Y129900D01*
X600006Y129922D01*
X599988Y129936D01*
X599977Y129947D01*
X599969Y129951D01*
X599966Y129954D01*
X599842Y130045D01*
X599726Y130125D01*
X599616Y130191D01*
X599566Y130220D01*
X599518Y130246D01*
X599478Y130268D01*
X599438Y130286D01*
X599405Y130304D01*
X599380Y130318D01*
X599354Y130326D01*
X599340Y130333D01*
X599329Y130340D01*
X599325D01*
X599209Y130380D01*
X599092Y130413D01*
X598983Y130435D01*
X598885Y130449D01*
X598841Y130453D01*
X598801Y130457D01*
X598765Y130460D01*
X598736Y130464D01*
X598677D01*
X598568Y130460D01*
X598462Y130446D01*
X598361Y130424D01*
X598266Y130398D01*
X598179Y130366D01*
X598095Y130329D01*
X598022Y130289D01*
X597953Y130249D01*
X597891Y130209D01*
X597833Y130169D01*
X597789Y130133D01*
X597749Y130100D01*
X597716Y130075D01*
X597694Y130053D01*
X597680Y130038D01*
X597676Y130034D01*
X597604Y129951D01*
X597542Y129863D01*
X597491Y129769D01*
X597443Y129671D01*
X597403Y129576D01*
X597370Y129478D01*
X597345Y129379D01*
X597323Y129288D01*
X597305Y129201D01*
X597294Y129121D01*
X597283Y129048D01*
X597280Y128986D01*
X597276Y128935D01*
X597272Y128895D01*
Y127079D01*
Y128862D01*
X597276Y128739D01*
X597287Y128619D01*
X597305Y128506D01*
X597327Y128396D01*
X597352Y128298D01*
X597381Y128204D01*
X597414Y128116D01*
X597447Y128040D01*
X597480Y127971D01*
X597512Y127905D01*
X597542Y127854D01*
X597567Y127807D01*
X597589Y127774D01*
X597607Y127749D01*
X597618Y127730D01*
X597622Y127727D01*
X597691Y127647D01*
X597771Y127574D01*
X597855Y127508D01*
X597946Y127454D01*
X598040Y127403D01*
X598135Y127359D01*
X598230Y127323D01*
X598324Y127290D01*
X598412Y127264D01*
X598495Y127243D01*
X598568Y127224D01*
X598634Y127214D01*
X598688Y127203D01*
X598710Y127199D01*
X598728Y127195D01*
X598743D01*
X598754Y127192D01*
X598761D01*
X598765D01*
X598859Y128153D01*
X598783Y128160D01*
X598714Y128167D01*
X598648Y128182D01*
X598586Y128196D01*
X598532Y128211D01*
X598481Y128229D01*
X598437Y128247D01*
X598397Y128266D01*
X598364Y128284D01*
X598335Y128298D01*
X598310Y128313D01*
X598291Y128327D01*
X598273Y128338D01*
X598262Y128349D01*
X598259Y128353D01*
X598255Y128357D01*
X598222Y128393D01*
X598193Y128429D01*
X598171Y128469D01*
X598149Y128506D01*
X598117Y128589D01*
X598095Y128666D01*
X598084Y128735D01*
X598077Y128764D01*
Y128790D01*
X598073Y128812D01*
Y128841D01*
X598077Y128895D01*
X598080Y128950D01*
X598099Y129044D01*
X598128Y129128D01*
X598160Y129197D01*
X598175Y129223D01*
X598193Y129248D01*
X598208Y129270D01*
X598219Y129288D01*
X598233Y129303D01*
X598241Y129314D01*
X598244Y129317D01*
X598248Y129321D01*
X598280Y129350D01*
X598321Y129379D01*
X598397Y129423D01*
X598481Y129452D01*
X598561Y129474D01*
X598634Y129489D01*
X598663Y129492D01*
X598688D01*
X598714Y129496D01*
X598728D01*
X598739D01*
X598743D01*
X598797Y129492D01*
X598852Y129489D01*
X598961Y129463D01*
X599059Y129434D01*
X599151Y129397D01*
X599191Y129376D01*
X599227Y129358D01*
X599256Y129343D01*
X599285Y129328D01*
X599307Y129314D01*
X599322Y129303D01*
X599333Y129299D01*
X599336Y129296D01*
X599380Y129263D01*
X599434Y129219D01*
X599493Y129168D01*
X599554Y129106D01*
X599624Y129044D01*
X599689Y128975D01*
X599827Y128841D01*
X599893Y128771D01*
X599955Y128710D01*
X600009Y128651D01*
X600061Y128600D01*
X600101Y128557D01*
X600133Y128524D01*
X600151Y128502D01*
X600155Y128498D01*
X600159Y128495D01*
X600297Y128349D01*
X600428Y128215D01*
X600548Y128094D01*
X600665Y127982D01*
X600774Y127883D01*
X600872Y127792D01*
X600963Y127716D01*
X601047Y127647D01*
X601120Y127588D01*
X601185Y127538D01*
X601240Y127494D01*
X601284Y127461D01*
X601320Y127439D01*
X601345Y127421D01*
X601364Y127410D01*
X601367Y127406D01*
X601455Y127359D01*
X601538Y127315D01*
X601626Y127275D01*
X601709Y127239D01*
X601793Y127210D01*
X601870Y127184D01*
X601946Y127159D01*
X602019Y127141D01*
X602084Y127122D01*
X602143Y127112D01*
X602197Y127101D01*
X602241Y127093D01*
X602277Y127086D01*
X602306Y127083D01*
X602321Y127079D01*
X597272D01*
X602328D01*
Y130464D01*
D02*
G37*
%LPD*%
D10*
X574673Y194827D02*
Y195329D01*
X574585Y201314D02*
Y206866D01*
X579439Y211720D01*
X590821D01*
X593587Y208954D01*
Y192573D02*
Y208954D01*
X590787Y189773D02*
X593587Y192573D01*
X579727Y189773D02*
X590787D01*
X574673Y194827D02*
X579727Y189773D01*
X124730Y71429D02*
X132003D01*
X132403Y71029D01*
Y65827D02*
Y71029D01*
Y65827D02*
X134901Y63329D01*
X151301D01*
X115401Y77329D02*
X121701D01*
X122401Y78029D01*
Y79849D01*
X151301Y63329D02*
X153201Y65229D01*
X123030Y73129D02*
X124730Y71429D01*
X115401Y73129D02*
X123030D01*
X153201Y65229D02*
Y80450D01*
X151222Y82429D02*
X153201Y80450D01*
X122401Y79849D02*
X123927Y81374D01*
X129740D01*
X130795Y82429D01*
X151222D01*
D18*
X425401Y71499D02*
Y78699D01*
Y71499D02*
X426161D01*
X431298Y66362D01*
Y46025D02*
Y66362D01*
X413201Y46025D02*
X431298D01*
X413201D02*
Y58345D01*
X419501Y68354D02*
Y78699D01*
X386101Y71299D02*
Y78699D01*
Y71299D02*
X390801D01*
X393863Y68238D01*
Y54128D02*
Y68238D01*
X391746Y52011D02*
X393863Y54128D01*
X374489Y52011D02*
X391746D01*
X372501Y53999D02*
X374489Y52011D01*
X372501Y53999D02*
Y68148D01*
X375652Y71299D01*
X380201D01*
Y78499D01*
X416054Y68354D02*
X419501D01*
X414062Y66362D02*
X416054Y68354D01*
X413201Y58345D02*
Y65500D01*
X414062Y66362D01*
D281*
X484245Y290052D02*
Y353255D01*
X558465Y301279D02*
X567618Y310433D01*
X627953D01*
X116043Y355865D02*
X116437Y355471D01*
X221992Y141732D02*
X222189Y141929D01*
X218335Y124329D02*
Y141359D01*
X116437Y270866D02*
X123524Y263779D01*
X116437Y270866D02*
Y355471D01*
X140868Y142028D02*
X177559D01*
X567201Y469900D02*
X567201Y310016D01*
X471358Y277165D02*
X484245Y290052D01*
Y301279D02*
Y323850D01*
X123524Y262402D02*
X179331D01*
X177559Y142028D02*
X221697D01*
X165900Y454190D02*
Y470669D01*
Y445800D02*
Y454190D01*
Y419493D02*
Y445800D01*
Y419493D02*
X179331Y406062D01*
Y262402D02*
Y406062D01*
X123524Y159372D02*
X140868Y142028D01*
X123524Y159372D02*
Y263779D01*
X222189Y141929D02*
X296161D01*
Y237106D01*
X321850Y262795D01*
X381594D01*
X395965Y277165D01*
X471358D01*
X199241Y81918D02*
X218335Y101012D01*
Y124329D01*
X1673Y308169D02*
X49803D01*
X199241Y3150D02*
Y81918D01*
X49803Y335268D02*
X57301Y342766D01*
X49803Y308169D02*
Y335268D01*
X454825Y443641D02*
Y470669D01*
Y443641D02*
X463098Y435368D01*
Y374402D02*
Y435368D01*
Y374402D02*
X484245Y353255D01*
Y323850D02*
Y353255D01*
Y301279D02*
X558465D01*
D283*
X108914Y359698D02*
Y371119D01*
Y359698D02*
X118602Y350010D01*
X57301Y450299D02*
Y472440D01*
X56901D02*
X57301D01*
Y342766D02*
Y381732D01*
Y450299D01*
X1Y293799D02*
X326D01*
X269201Y-1D02*
X273101D01*
D334*
X594488Y420866D02*
D03*
X586305Y416142D02*
D03*
Y406693D02*
D03*
X594488Y401968D02*
D03*
X602671Y406693D02*
D03*
Y416142D02*
D03*
X394010Y416142D02*
D03*
Y406693D02*
D03*
X385827Y401968D02*
D03*
X377644Y406693D02*
D03*
Y416142D02*
D03*
X385827Y420866D02*
D03*
X185039D02*
D03*
X176856Y416142D02*
D03*
Y406693D02*
D03*
X185039Y401968D02*
D03*
X193222Y406693D02*
D03*
Y416142D02*
D03*
X35742Y416142D02*
D03*
Y406693D02*
D03*
X27559Y401968D02*
D03*
X19376Y406693D02*
D03*
Y416142D02*
D03*
X27559Y420866D02*
D03*
Y107874D02*
D03*
X19376Y103149D02*
D03*
Y93701D02*
D03*
X27559Y88976D02*
D03*
X35742Y93701D02*
D03*
Y103149D02*
D03*
X193222D02*
D03*
Y93701D02*
D03*
X185039Y88976D02*
D03*
X176856Y93701D02*
D03*
Y103149D02*
D03*
X185039Y107874D02*
D03*
X307087D02*
D03*
X298904Y103149D02*
D03*
Y93701D02*
D03*
X307087Y88976D02*
D03*
X315270Y93701D02*
D03*
Y103149D02*
D03*
X610545D02*
D03*
Y93701D02*
D03*
X602362Y88976D02*
D03*
X594179Y93701D02*
D03*
Y103149D02*
D03*
X602362Y107874D02*
D03*
D339*
X457913Y14370D02*
D03*
X427913Y24370D02*
D03*
X457913D02*
D03*
X447913D02*
D03*
Y14370D02*
D03*
X427913D02*
D03*
X92243Y15376D02*
D03*
X102243D02*
D03*
X32500Y64370D02*
D03*
Y44370D02*
D03*
Y54370D02*
D03*
X22500D02*
D03*
Y64370D02*
D03*
X32500Y34370D02*
D03*
X22500D02*
D03*
X32500Y14370D02*
D03*
Y24370D02*
D03*
X22500Y44370D02*
D03*
Y24370D02*
D03*
X208611Y211839D02*
D03*
Y241839D02*
D03*
Y231839D02*
D03*
Y221839D02*
D03*
X254125Y104192D02*
D03*
X264125D02*
D03*
X213433Y174767D02*
D03*
Y164767D02*
D03*
X606712Y239514D02*
D03*
X587027D02*
D03*
D349*
X122815Y346568D02*
D03*
X157053Y356838D02*
D03*
X151181Y356894D02*
D03*
X113288Y354718D02*
D03*
X111702Y356838D02*
D03*
X121142Y348241D02*
D03*
X79331Y356813D02*
D03*
X74508D02*
D03*
X246651Y392182D02*
D03*
X250214D02*
D03*
X248435Y396021D02*
D03*
X251998D02*
D03*
X248435Y388344D02*
D03*
X251998D02*
D03*
X253777Y392182D02*
D03*
X360630Y409921D02*
D03*
X364469Y408142D02*
D03*
Y404578D02*
D03*
X356791Y408142D02*
D03*
Y404578D02*
D03*
X360630Y406358D02*
D03*
Y402795D02*
D03*
X336163D02*
D03*
Y406358D02*
D03*
X332325Y404578D02*
D03*
Y408142D02*
D03*
X340002Y404578D02*
D03*
Y408142D02*
D03*
X336163Y409921D02*
D03*
X287445D02*
D03*
X291283Y408142D02*
D03*
Y404578D02*
D03*
X283606Y408142D02*
D03*
Y404578D02*
D03*
X287445Y406358D02*
D03*
Y402795D02*
D03*
X311705D02*
D03*
Y406358D02*
D03*
X307866Y404578D02*
D03*
Y408142D02*
D03*
X315543Y404578D02*
D03*
Y408142D02*
D03*
X311705Y409921D02*
D03*
X74508Y353445D02*
D03*
X94402Y316213D02*
D03*
X146287Y325689D02*
D03*
X94709Y298919D02*
D03*
X92335Y317894D02*
D03*
X66142Y317886D02*
D03*
X100614Y276949D02*
D03*
X102583Y298919D02*
D03*
X100607Y297484D02*
D03*
X102583Y278454D02*
D03*
X102346Y273820D02*
D03*
X96677Y297343D02*
D03*
Y276949D02*
D03*
X159901D02*
D03*
Y297343D02*
D03*
X157933Y298919D02*
D03*
X165570Y273820D02*
D03*
X165807Y278454D02*
D03*
X171771Y290886D02*
D03*
X163831Y297484D02*
D03*
X165807Y298919D02*
D03*
X163838Y276949D02*
D03*
X70052Y317758D02*
D03*
X68209Y316213D02*
D03*
X96272Y317788D02*
D03*
X144712Y327559D02*
D03*
X144614Y323622D02*
D03*
X172767Y329528D02*
D03*
X171063Y323622D02*
D03*
X172736Y325689D02*
D03*
X171161Y327559D02*
D03*
X205127Y378806D02*
D03*
Y375656D02*
D03*
Y372507D02*
D03*
X209458Y378806D02*
D03*
X205127Y381956D02*
D03*
Y385105D02*
D03*
X200797Y378806D02*
D03*
X238824Y171055D02*
D03*
X242761D02*
D03*
X238824Y167118D02*
D03*
X242761D02*
D03*
X432634Y70177D02*
D03*
D350*
X1Y3936D02*
X135Y2917D01*
X528Y1968D01*
X1154Y1152D01*
X1970Y527D01*
X2919Y133D01*
X3938Y-1D01*
Y472440D02*
X2919Y472306D01*
X1970Y471913D01*
X1154Y471287D01*
X528Y470472D01*
X135Y469522D01*
X1Y468503D01*
X629922Y467039D02*
X629788Y468058D01*
X629395Y469007D01*
X628769Y469823D01*
X627953Y470448D01*
X627004Y470842D01*
X625985Y470976D01*
Y-1D02*
X627004Y133D01*
X627953Y527D01*
X628769Y1152D01*
X629395Y1968D01*
X629788Y2917D01*
X629922Y3936D01*
X3938Y-1D02*
X625985D01*
X1Y3936D02*
Y468503D01*
X3938Y472440D02*
X625985D01*
X629922Y3936D02*
Y468503D01*
D351*
X0Y3937D02*
X134Y2918D01*
X527Y1969D01*
X1153Y1153D01*
X1969Y527D01*
X2918Y134D01*
X3937Y0D01*
Y472441D02*
X2918Y472307D01*
X1969Y471913D01*
X1153Y471288D01*
X527Y470472D01*
X134Y469523D01*
X0Y468504D01*
X629921D02*
X629787Y469523D01*
X629393Y470472D01*
X628768Y471288D01*
X627952Y471913D01*
X627003Y472307D01*
X625984Y472441D01*
Y0D02*
X627003Y134D01*
X627952Y527D01*
X628768Y1153D01*
X629393Y1969D01*
X629787Y2918D01*
X629921Y3937D01*
Y468504D01*
X3937Y472441D02*
X625984D01*
X0Y3937D02*
Y468504D01*
X3937Y0D02*
X625984D01*
D352*
X590108Y455861D02*
D03*
X607431D02*
D03*
X21358Y455862D02*
D03*
X38681D02*
D03*
D353*
X584400Y446707D02*
D03*
Y464424D02*
D03*
X613140D02*
D03*
Y446707D02*
D03*
X15650Y446709D02*
D03*
Y464425D02*
D03*
X44390D02*
D03*
Y446709D02*
D03*
D354*
X76100Y450400D02*
D03*
X106100D02*
D03*
X563400D02*
D03*
X523400D02*
D03*
X467366Y450402D02*
D03*
X507366D02*
D03*
X122137D02*
D03*
X152137D02*
D03*
D355*
X83600Y415400D02*
D03*
X88600Y425400D02*
D03*
X93600Y415400D02*
D03*
X98600Y425400D02*
D03*
X530900D02*
D03*
X535900Y415400D02*
D03*
X555900D02*
D03*
X545900D02*
D03*
X540900Y425400D02*
D03*
X484866Y425402D02*
D03*
X489866Y415402D02*
D03*
X494866Y425402D02*
D03*
X479866Y415402D02*
D03*
X474866Y425402D02*
D03*
X129637Y415402D02*
D03*
X134637Y425402D02*
D03*
X139637Y415402D02*
D03*
X144637Y425402D02*
D03*
D356*
X248244Y414330D02*
D03*
Y421810D02*
D03*
X250409Y418070D02*
D03*
X246079D02*
D03*
X208867Y413780D02*
D03*
X213198D02*
D03*
X211033Y417520D02*
D03*
Y410040D02*
D03*
D357*
X409489Y433622D02*
D03*
X421300D02*
D03*
X433111Y445433D02*
D03*
X421300D02*
D03*
X409489D02*
D03*
X283124Y445441D02*
D03*
X294935D02*
D03*
X306746D02*
D03*
X342179D02*
D03*
X330368D02*
D03*
X365801D02*
D03*
X283124Y433642D02*
D03*
X294935D02*
D03*
X306746D02*
D03*
X342179D02*
D03*
X330368D02*
D03*
X365801D02*
D03*
X318557Y445441D02*
D03*
X353990D02*
D03*
X318557Y433642D02*
D03*
X353990D02*
D03*
X211565Y433622D02*
D03*
X223376D02*
D03*
X235187D02*
D03*
X181890Y433622D02*
D03*
Y445433D02*
D03*
D358*
X401024Y462441D02*
D03*
X441576D02*
D03*
X274659Y462449D02*
D03*
X374265D02*
D03*
X203100Y462441D02*
D03*
X243651D02*
D03*
X190355Y462441D02*
D03*
X173425D02*
D03*
D359*
X594488Y411417D02*
D03*
X385827Y411417D02*
D03*
X185039D02*
D03*
X27559Y411417D02*
D03*
Y98425D02*
D03*
X185039D02*
D03*
X307087D02*
D03*
X602362D02*
D03*
D360*
X379331Y24370D02*
D03*
X409331Y14370D02*
D03*
X389331Y24370D02*
D03*
X359331D02*
D03*
X369331D02*
D03*
X349331D02*
D03*
X339331Y14370D02*
D03*
Y24370D02*
D03*
X399331Y14370D02*
D03*
X389331D02*
D03*
X359331D02*
D03*
X349331D02*
D03*
X379331D02*
D03*
X369331D02*
D03*
X329331Y24370D02*
D03*
Y14370D02*
D03*
X496504Y14370D02*
D03*
X506504D02*
D03*
X476504D02*
D03*
X486504D02*
D03*
X476504Y24370D02*
D03*
X486504D02*
D03*
X496504D02*
D03*
X506504D02*
D03*
X546504Y14370D02*
D03*
X556504D02*
D03*
X526504D02*
D03*
X536504D02*
D03*
X566504D02*
D03*
X576504D02*
D03*
X516504Y24370D02*
D03*
Y14370D02*
D03*
X526504Y24370D02*
D03*
X546504D02*
D03*
X536504D02*
D03*
X566504D02*
D03*
X586504Y14370D02*
D03*
X556504Y24370D02*
D03*
D361*
X552742Y239514D02*
D03*
D362*
X495204Y260999D02*
D03*
X538897Y345669D02*
D03*
X538878Y342815D02*
D03*
X400591Y371358D02*
D03*
X404088Y360236D02*
D03*
X393602Y344587D02*
D03*
X542618Y267600D02*
D03*
X341737Y57443D02*
D03*
X70741Y93901D02*
D03*
X89075Y31201D02*
D03*
X64084Y58275D02*
D03*
X108476Y354388D02*
D03*
X533600Y102339D02*
D03*
X502854Y80413D02*
D03*
X406942Y81857D02*
D03*
X469482Y89205D02*
D03*
X483366Y89468D02*
D03*
X482275Y92353D02*
D03*
X498492Y157416D02*
D03*
X447858Y138073D02*
D03*
X471294Y154505D02*
D03*
X488386Y150689D02*
D03*
X470897Y135922D02*
D03*
X489567Y136417D02*
D03*
X523528Y136963D02*
D03*
X499260Y121752D02*
D03*
X434446Y112480D02*
D03*
X415158Y86910D02*
D03*
X541018Y162254D02*
D03*
X435392Y162867D02*
D03*
X552641Y143209D02*
D03*
X497581Y138851D02*
D03*
X473400Y141467D02*
D03*
X475674Y143561D02*
D03*
X471574Y145767D02*
D03*
X528996Y141828D02*
D03*
X517672Y406850D02*
D03*
X518898Y399508D02*
D03*
X524655Y406850D02*
D03*
X524477Y399523D02*
D03*
X87118Y335111D02*
D03*
X479260Y253900D02*
D03*
X467274Y256346D02*
D03*
X495204D02*
D03*
X311891Y170280D02*
D03*
X317323Y151476D02*
D03*
X352756Y198327D02*
D03*
X355413Y201083D02*
D03*
X126279Y293334D02*
D03*
X126498Y276516D02*
D03*
X131004Y269853D02*
D03*
X133366Y292717D02*
D03*
X55139Y289344D02*
D03*
X201360Y120813D02*
D03*
X83659Y273819D02*
D03*
X62569Y197678D02*
D03*
X68209Y297484D02*
D03*
Y292717D02*
D03*
X86205Y296654D02*
D03*
X107732Y278454D02*
D03*
X91713Y277264D02*
D03*
X82737Y278937D02*
D03*
X136221Y298228D02*
D03*
X133366Y307185D02*
D03*
X149259Y279223D02*
D03*
X154937Y277264D02*
D03*
X170956Y278454D02*
D03*
X149428Y296654D02*
D03*
X583838Y283395D02*
D03*
X581775Y367357D02*
D03*
Y364172D02*
D03*
Y360986D02*
D03*
X595958Y371455D02*
D03*
X614037Y278543D02*
D03*
X603740Y286614D02*
D03*
X593701Y286221D02*
D03*
X588752Y286417D02*
D03*
X613173Y355805D02*
D03*
X588836Y341471D02*
D03*
X592772Y371455D02*
D03*
X607113Y426806D02*
D03*
X604163D02*
D03*
X583758Y335529D02*
D03*
X612976Y347967D02*
D03*
X22119Y371519D02*
D03*
X25304D02*
D03*
X38428Y426870D02*
D03*
X35479D02*
D03*
X42520Y355870D02*
D03*
X18183Y341535D02*
D03*
X42323Y348031D02*
D03*
X11122Y361051D02*
D03*
Y364236D02*
D03*
Y367421D02*
D03*
X13105Y335594D02*
D03*
X127342Y320768D02*
D03*
X153543Y321028D02*
D03*
X83517Y329389D02*
D03*
X83381Y324311D02*
D03*
X65059Y335658D02*
D03*
X167492Y340238D02*
D03*
X156398Y339450D02*
D03*
X138436Y341544D02*
D03*
X133465D02*
D03*
X106731Y331933D02*
D03*
X106677Y321429D02*
D03*
X163681Y353370D02*
D03*
X323063Y364866D02*
D03*
X274016Y363959D02*
D03*
X233185Y362081D02*
D03*
X194748Y380863D02*
D03*
X271654Y345165D02*
D03*
X260925Y208268D02*
D03*
X251559Y236430D02*
D03*
X249130Y331402D02*
D03*
Y327963D02*
D03*
X252746D02*
D03*
Y331402D02*
D03*
X245691D02*
D03*
X252746Y324525D02*
D03*
X249130D02*
D03*
X252746Y321086D02*
D03*
X249130D02*
D03*
X245691Y324525D02*
D03*
Y321086D02*
D03*
Y327963D02*
D03*
X249130Y345008D02*
D03*
Y341569D02*
D03*
X252746D02*
D03*
Y345008D02*
D03*
X245691D02*
D03*
X252746Y338131D02*
D03*
X249130D02*
D03*
X252746Y334692D02*
D03*
X249130D02*
D03*
X245691Y338131D02*
D03*
Y334692D02*
D03*
Y341569D02*
D03*
X268701Y199665D02*
D03*
Y204665D02*
D03*
Y209665D02*
D03*
Y214665D02*
D03*
X257874Y215748D02*
D03*
X315632Y350116D02*
D03*
X325008Y343996D02*
D03*
X321358Y352362D02*
D03*
X296752Y350271D02*
D03*
X242137Y360161D02*
D03*
X298763Y363991D02*
D03*
X348031Y364142D02*
D03*
X294580Y420646D02*
D03*
X290964D02*
D03*
Y413769D02*
D03*
Y417208D02*
D03*
X294580D02*
D03*
Y413769D02*
D03*
X290964Y424085D02*
D03*
Y427523D02*
D03*
X294580D02*
D03*
Y424085D02*
D03*
Y403454D02*
D03*
Y406892D02*
D03*
Y410331D02*
D03*
X284087Y413769D02*
D03*
X287526D02*
D03*
X318879Y420749D02*
D03*
X315264D02*
D03*
Y413872D02*
D03*
Y417310D02*
D03*
X318879D02*
D03*
Y413872D02*
D03*
X315264Y424187D02*
D03*
Y427626D02*
D03*
X318879D02*
D03*
Y424187D02*
D03*
Y403556D02*
D03*
Y406995D02*
D03*
Y410433D02*
D03*
X308386Y413872D02*
D03*
X311825D02*
D03*
X343269Y420940D02*
D03*
X339653D02*
D03*
Y414063D02*
D03*
Y417501D02*
D03*
X343269D02*
D03*
Y414063D02*
D03*
X339653Y424378D02*
D03*
Y427817D02*
D03*
X343269D02*
D03*
Y424378D02*
D03*
Y403748D02*
D03*
Y407186D02*
D03*
Y410625D02*
D03*
X332776Y414063D02*
D03*
X336214D02*
D03*
X361030Y413872D02*
D03*
X357592D02*
D03*
X368084Y410433D02*
D03*
Y406995D02*
D03*
Y403556D02*
D03*
Y424187D02*
D03*
Y427626D02*
D03*
X364469D02*
D03*
Y424187D02*
D03*
X368084Y413872D02*
D03*
Y417310D02*
D03*
X364469D02*
D03*
Y413872D02*
D03*
Y420749D02*
D03*
X368084D02*
D03*
X199902Y128543D02*
D03*
X236129D02*
D03*
X258760Y236195D02*
D03*
X259941Y198130D02*
D03*
X265059D02*
D03*
X232185Y167284D02*
D03*
X366240Y241020D02*
D03*
X362500Y227854D02*
D03*
X362205Y232972D02*
D03*
X351378Y216634D02*
D03*
X326792Y191052D02*
D03*
X321857Y191050D02*
D03*
X396372Y216648D02*
D03*
X392037Y182825D02*
D03*
X393168Y185975D02*
D03*
X392587Y213844D02*
D03*
X392608Y209900D02*
D03*
X332382Y156595D02*
D03*
X344744Y131299D02*
D03*
X343209Y137008D02*
D03*
X333195Y117721D02*
D03*
X348047Y115318D02*
D03*
X336103Y120546D02*
D03*
X338334Y117048D02*
D03*
X328839Y129700D02*
D03*
X325098Y126181D02*
D03*
X381398Y234898D02*
D03*
X153279Y107874D02*
D03*
X127953Y106899D02*
D03*
X110000Y90630D02*
D03*
X111614Y97539D02*
D03*
X170589Y127536D02*
D03*
X197736Y118373D02*
D03*
X176788Y189100D02*
D03*
X180226D02*
D03*
X176788Y185484D02*
D03*
X180226D02*
D03*
X183665D02*
D03*
X187103Y189100D02*
D03*
X183665D02*
D03*
X187103Y185484D02*
D03*
X412206Y376132D02*
D03*
X413309Y360236D02*
D03*
X574935Y203956D02*
D03*
X552007Y199705D02*
D03*
X512092Y268550D02*
D03*
X507092Y268550D02*
D03*
X517092Y268550D02*
D03*
X438327Y226143D02*
D03*
X441766D02*
D03*
X445282Y226176D02*
D03*
X452336D02*
D03*
X448721D02*
D03*
X448687Y246907D02*
D03*
Y243469D02*
D03*
X452303D02*
D03*
Y246907D02*
D03*
X448721Y229626D02*
D03*
X452336Y233076D02*
D03*
Y229626D02*
D03*
Y239953D02*
D03*
Y236514D02*
D03*
X448721D02*
D03*
Y239953D02*
D03*
Y233076D02*
D03*
X582930Y75689D02*
D03*
X495586Y72736D02*
D03*
X457779Y78543D02*
D03*
X210345Y68861D02*
D03*
X217244Y11024D02*
D03*
X233563Y69318D02*
D03*
X90825Y38484D02*
D03*
X64395Y35236D02*
D03*
X66831Y37697D02*
D03*
X68996Y31563D02*
D03*
X71624Y34646D02*
D03*
X138225Y49705D02*
D03*
X136024Y36797D02*
D03*
X126043Y39370D02*
D03*
X90748Y27446D02*
D03*
X84941Y31201D02*
D03*
X76875Y34646D02*
D03*
X82346D02*
D03*
X100478Y51934D02*
D03*
X111954Y78286D02*
D03*
X160141Y215950D02*
D03*
X116535Y114571D02*
D03*
X201276Y111394D02*
D03*
X201076Y116240D02*
D03*
X107376Y117323D02*
D03*
X82382Y96522D02*
D03*
X80000Y99664D02*
D03*
X75318Y93799D02*
D03*
X338334Y138737D02*
D03*
X238976Y119487D02*
D03*
X234087Y111394D02*
D03*
X293419Y110960D02*
D03*
X272614Y92286D02*
D03*
X399037Y201690D02*
D03*
X385015Y310613D02*
D03*
X465736Y238412D02*
D03*
X430315Y212106D02*
D03*
X462351Y344156D02*
D03*
X458735Y340718D02*
D03*
Y344156D02*
D03*
X462351Y340718D02*
D03*
Y337279D02*
D03*
X432163Y317421D02*
D03*
X521949Y338878D02*
D03*
X507006Y339205D02*
D03*
X511656D02*
D03*
X517026Y339088D02*
D03*
X422269Y210385D02*
D03*
X445481Y202146D02*
D03*
X483300Y231000D02*
D03*
X441893Y202213D02*
D03*
X412300Y198716D02*
D03*
X409161Y199839D02*
D03*
X436047Y192098D02*
D03*
X432480D02*
D03*
X447064Y187632D02*
D03*
X502539Y169712D02*
D03*
X401131Y186810D02*
D03*
X399082Y198761D02*
D03*
X550700Y33446D02*
D03*
X466964Y27179D02*
D03*
Y29984D02*
D03*
Y23917D02*
D03*
X474646Y71483D02*
D03*
X472230Y74346D02*
D03*
X476187Y75185D02*
D03*
X454616Y45339D02*
D03*
X452389Y47802D02*
D03*
X560860Y53668D02*
D03*
X227691Y166169D02*
D03*
X228325Y160925D02*
D03*
X234774Y160827D02*
D03*
X240786D02*
D03*
X245829Y160925D02*
D03*
X129724Y69587D02*
D03*
X508726Y194517D02*
D03*
X494643Y337778D02*
D03*
X50440Y144779D02*
D03*
X47583D02*
D03*
X47626Y147887D02*
D03*
X50482D02*
D03*
X551719Y273173D02*
D03*
X534867Y202802D02*
D03*
X493253Y219788D02*
D03*
X485982Y219966D02*
D03*
X496692Y219788D02*
D03*
Y216350D02*
D03*
X482544D02*
D03*
X479105D02*
D03*
X485982D02*
D03*
X479105Y219966D02*
D03*
X482544D02*
D03*
X493253Y216350D02*
D03*
X489421D02*
D03*
X516469Y349853D02*
D03*
Y353469D02*
D03*
X519908D02*
D03*
X523346Y349853D02*
D03*
X519908D02*
D03*
X526785D02*
D03*
X530223D02*
D03*
Y353469D02*
D03*
X187741Y346352D02*
D03*
Y349791D02*
D03*
Y342914D02*
D03*
X191357D02*
D03*
Y349791D02*
D03*
Y346352D02*
D03*
Y339475D02*
D03*
Y336037D02*
D03*
X187741D02*
D03*
Y339475D02*
D03*
X462351Y333841D02*
D03*
X458735Y337279D02*
D03*
Y333841D02*
D03*
X430780Y376132D02*
D03*
X442527Y370536D02*
D03*
X435664D02*
D03*
X439095Y377398D02*
D03*
Y373967D02*
D03*
Y370536D02*
D03*
X39013Y144779D02*
D03*
X50499Y198417D02*
D03*
X53584Y201468D02*
D03*
X56208Y198516D02*
D03*
X59519Y201468D02*
D03*
X210546Y263805D02*
D03*
X217600Y270504D02*
D03*
Y274120D02*
D03*
X210546Y270682D02*
D03*
Y267243D02*
D03*
X214161D02*
D03*
Y270682D02*
D03*
X210546Y277559D02*
D03*
Y274120D02*
D03*
X214161D02*
D03*
Y277559D02*
D03*
X193508Y358512D02*
D03*
X189274Y380360D02*
D03*
X276894Y12700D02*
D03*
X285555Y12682D02*
D03*
X294217D02*
D03*
X358805Y291073D02*
D03*
X423224Y347025D02*
D03*
X394965Y352675D02*
D03*
X413287D02*
D03*
X209064Y353777D02*
D03*
X197696Y358511D02*
D03*
X43618Y165211D02*
D03*
X39578Y188111D02*
D03*
X27592Y190557D02*
D03*
X25912Y172766D02*
D03*
X201685Y336723D02*
D03*
X202690Y364992D02*
D03*
X328680Y284995D02*
D03*
X333708D02*
D03*
X338708D02*
D03*
X343708D02*
D03*
X348708D02*
D03*
X353708D02*
D03*
X418731Y207919D02*
D03*
X424517Y188124D02*
D03*
X420131Y184319D02*
D03*
X546719Y273305D02*
D03*
X598870Y277500D02*
D03*
X522092Y268581D02*
D03*
X320031Y294739D02*
D03*
X366515Y300318D02*
D03*
X322283Y114724D02*
D03*
X330205Y114720D02*
D03*
X371742Y185528D02*
D03*
X429419Y145018D02*
D03*
X424104Y136657D02*
D03*
X422136Y139377D02*
D03*
X418394Y139479D02*
D03*
X418731Y135809D02*
D03*
X347932Y160783D02*
D03*
X349657Y177108D02*
D03*
X354643Y178504D02*
D03*
X278311Y107637D02*
D03*
X342087Y75482D02*
D03*
X338500Y72616D02*
D03*
X220744Y58938D02*
D03*
X259731Y57573D02*
D03*
X263995Y55472D02*
D03*
X347571Y81440D02*
D03*
X344455Y62718D02*
D03*
X379272Y106850D02*
D03*
X379774Y85854D02*
D03*
X305709Y69924D02*
D03*
X292642Y66518D02*
D03*
X306113Y75034D02*
D03*
X331720Y133053D02*
D03*
X334400Y136387D02*
D03*
X348047Y134800D02*
D03*
X352536Y131432D02*
D03*
X349390Y128894D02*
D03*
X352172Y126443D02*
D03*
X288311Y92737D02*
D03*
X259601Y84778D02*
D03*
X434734Y97007D02*
D03*
X425314Y96522D02*
D03*
X376644Y98976D02*
D03*
X442251Y96522D02*
D03*
X431388Y96062D02*
D03*
X366702Y114253D02*
D03*
X350000Y65600D02*
D03*
X351895Y62718D02*
D03*
X354882Y63349D02*
D03*
X298547Y24628D02*
D03*
Y35014D02*
D03*
X358664Y33188D02*
D03*
X322283Y43038D02*
D03*
X289886Y23821D02*
D03*
X303029Y34616D02*
D03*
X293440Y33830D02*
D03*
X285688Y32823D02*
D03*
X276845Y31518D02*
D03*
X272603Y27258D02*
D03*
X20400Y80133D02*
D03*
X28185Y273966D02*
D03*
X52928Y129507D02*
D03*
X14590Y124504D02*
D03*
X47500Y97831D02*
D03*
X83234Y68736D02*
D03*
X109000Y87630D02*
D03*
X49891Y34370D02*
D03*
X594346Y201936D02*
D03*
X594799Y210873D02*
D03*
X541450Y83981D02*
D03*
X409042Y84541D02*
D03*
X385800Y149822D02*
D03*
X494929Y152942D02*
D03*
X523502Y196949D02*
D03*
X409858Y41132D02*
D03*
X407402Y43463D02*
D03*
X405588Y46368D02*
D03*
X403842Y41717D02*
D03*
X347886Y87602D02*
D03*
X406071Y63468D02*
D03*
X399300Y63300D02*
D03*
X460600Y69300D02*
D03*
X58901Y110853D02*
D03*
X46303Y51100D02*
D03*
X113311Y35870D02*
D03*
X139739Y86430D02*
D03*
X143244Y92831D02*
D03*
X123533Y62416D02*
D03*
X131087Y98080D02*
D03*
X561334Y180826D02*
D03*
X560359Y204272D02*
D03*
X566879Y196788D02*
D03*
X188625Y13496D02*
D03*
X555400Y53481D02*
D03*
X553766Y56475D02*
D03*
X548958Y60593D02*
D03*
X372500Y37600D02*
D03*
X557157Y59800D02*
D03*
X526367Y185838D02*
D03*
X528564Y188546D02*
D03*
X412300Y183000D02*
D03*
X403100Y162700D02*
D03*
X565378Y191436D02*
D03*
X572377Y191136D02*
D03*
X477500Y147767D02*
D03*
X480400Y96700D02*
D03*
X490057Y88548D02*
D03*
X493872Y88168D02*
D03*
X488030Y95267D02*
D03*
X490057Y103100D02*
D03*
X476687Y106367D02*
D03*
X474215Y103258D02*
D03*
X484499Y108100D02*
D03*
X494288Y105861D02*
D03*
X489200Y110800D02*
D03*
X472509Y116121D02*
D03*
X515055Y63245D02*
D03*
X493300Y115900D02*
D03*
X486812Y116121D02*
D03*
X434823Y139700D02*
D03*
X432300Y142200D02*
D03*
X443992Y133841D02*
D03*
X447700D02*
D03*
X443992Y137753D02*
D03*
X519100Y161100D02*
D03*
X401860Y88258D02*
D03*
X401000Y166383D02*
D03*
X110000Y82430D02*
D03*
X107463Y76792D02*
D03*
X190176Y384712D02*
D03*
X189274Y373400D02*
D03*
Y365673D02*
D03*
X212039Y394490D02*
D03*
Y391456D02*
D03*
X388119Y147767D02*
D03*
X395600Y118600D02*
D03*
X392600Y116430D02*
D03*
X258621Y42503D02*
D03*
X220744Y37670D02*
D03*
X410000Y181200D02*
D03*
X437827Y152167D02*
D03*
X419802Y156567D02*
D03*
X422146Y159582D02*
D03*
X441200Y154500D02*
D03*
X487480Y50444D02*
D03*
X498726Y60316D02*
D03*
X454708Y70620D02*
D03*
X43185Y277600D02*
D03*
X13185Y283459D02*
D03*
X421545Y121242D02*
D03*
X543800Y118067D02*
D03*
X550100Y114967D02*
D03*
X505489Y113067D02*
D03*
X430624Y108838D02*
D03*
X426916Y106367D02*
D03*
X564891Y96046D02*
D03*
X564823Y102335D02*
D03*
X569200Y99067D02*
D03*
X568000Y105350D02*
D03*
X569200Y92896D02*
D03*
X550100Y86597D02*
D03*
X398000Y92067D02*
D03*
X397923Y88258D02*
D03*
X565520Y136867D02*
D03*
X562216Y133841D02*
D03*
X519041Y134167D02*
D03*
X521700Y155888D02*
D03*
X506600Y127567D02*
D03*
X437415Y165659D02*
D03*
X561700Y152867D02*
D03*
X551250Y155888D02*
D03*
X445994Y168027D02*
D03*
X561700Y127567D02*
D03*
X561800Y146467D02*
D03*
X569700Y147802D02*
D03*
X570100Y130567D02*
D03*
X80000Y31196D02*
D03*
X74375Y31821D02*
D03*
X55000Y36821D02*
D03*
X131250Y28071D02*
D03*
X155197Y32441D02*
D03*
Y27441D02*
D03*
Y22441D02*
D03*
Y17441D02*
D03*
X19050Y116891D02*
D03*
X249188Y90568D02*
D03*
X111875Y21196D02*
D03*
X14675Y133141D02*
D03*
X258563Y52443D02*
D03*
M02*
